<svg width="40" height="40" viewBox="0 0 40 40" fill="none" xmlns="http://www.w3.org/2000/svg">
<path d="M16.4323 9.2255C18.2302 7.23236 21.0478 5.94995 24.2138 5.94995C29.644 5.94995 34.046 9.72273 34.046 14.3776C34.046 17.1714 32.4588 19.6477 30.0176 21.1815C29.9568 21.2188 29.895 21.2544 29.8322 21.2883V26.9769C29.8322 27.2566 29.7487 27.5299 29.5924 27.7618C29.4362 27.9937 29.2142 28.1737 28.955 28.2787C28.6958 28.3837 28.4112 28.409 28.1375 28.3512C27.8639 28.2935 27.6138 28.1553 27.4191 27.9546L25.8178 26.3055C27.3194 24.5301 28.2029 22.3502 28.2029 19.9946C28.2029 14.2821 23.0086 9.60755 16.4323 9.2255Z" fill="#000BFF"/>
<path d="M17.7315 28.2635L12.5808 33.573C12.3861 33.7738 12.136 33.9119 11.8624 33.9696C11.5887 34.0274 11.3041 34.0021 11.0449 33.8971C10.7857 33.7921 10.5637 33.6121 10.4075 33.3802C10.2512 33.1483 10.1677 32.875 10.1677 32.5954V26.9067C10.1049 26.8728 10.0431 26.8372 9.98228 26.7999C7.53966 25.2661 5.95386 22.7898 5.95386 19.996C5.95386 15.3411 10.3559 11.5684 15.7861 11.5684C21.2163 11.5684 25.6184 15.3411 25.6184 19.996C25.6184 23.825 22.6392 27.0584 18.5588 28.0838C18.2854 28.1538 18.0094 28.2138 17.7315 28.2635Z" fill="#000BFF"/>
</svg>
