<svg width="33" height="33" viewBox="0 0 33 33" fill="none" xmlns="http://www.w3.org/2000/svg">
<path d="M16.8932 3.03613C14.6212 3.03537 12.3881 3.62571 10.4134 4.74914C8.43857 5.87258 6.79004 7.49046 5.62974 9.44382C4.46944 11.3972 3.83729 13.6188 3.79542 15.8904C3.75354 18.162 4.30338 20.4054 5.3909 22.4002L3.84125 27.8349C3.78673 28.0257 3.78527 28.2278 3.83705 28.4194C3.88883 28.611 3.99188 28.7848 4.13511 28.9222C4.27834 29.0596 4.45632 29.1554 4.64991 29.1991C4.8435 29.2429 5.04535 29.233 5.23376 29.1706L10.3367 27.4704C12.0759 28.4754 14.023 29.0669 16.0274 29.199C18.0318 29.3311 20.0397 29.0004 21.8958 28.2324C23.7519 27.4644 25.4065 26.2797 26.7315 24.7699C28.0565 23.2601 29.0164 21.4658 29.537 19.5257C30.0576 17.5856 30.1249 15.5517 29.7337 13.5815C29.3425 11.6112 28.5033 9.75731 27.2811 8.16325C26.0588 6.56919 24.4862 5.27767 22.6849 4.38862C20.8836 3.49957 18.902 3.0368 16.8932 3.03613ZM12.528 13.9492C12.528 13.6597 12.643 13.3821 12.8477 13.1775C13.0523 12.9728 13.3299 12.8578 13.6193 12.8578H20.1671C20.4566 12.8578 20.7341 12.9728 20.9388 13.1775C21.1435 13.3821 21.2584 13.6597 21.2584 13.9492C21.2584 14.2386 21.1435 14.5162 20.9388 14.7208C20.7341 14.9255 20.4566 15.0405 20.1671 15.0405H13.6193C13.3299 15.0405 13.0523 14.9255 12.8477 14.7208C12.643 14.5162 12.528 14.2386 12.528 13.9492ZM13.6193 17.2231H17.9845C18.274 17.2231 18.5515 17.338 18.7562 17.5427C18.9609 17.7473 19.0758 18.0249 19.0758 18.3144C19.0758 18.6038 18.9609 18.8814 18.7562 19.086C18.5515 19.2907 18.274 19.4057 17.9845 19.4057H13.6193C13.3299 19.4057 13.0523 19.2907 12.8477 19.086C12.643 18.8814 12.528 18.6038 12.528 18.3144C12.528 18.0249 12.643 17.7473 12.8477 17.5427C13.0523 17.338 13.3299 17.2231 13.6193 17.2231Z" fill="#000BFF"/>
</svg>
