<svg width="30" height="31" viewBox="0 0 30 31" fill="none" xmlns="http://www.w3.org/2000/svg">
<path d="M10.7626 28.46C10.1526 28.4564 9.56037 28.2546 9.0751 27.885L6.4876 25.96C5.89049 25.4944 5.4943 24.8179 5.38039 24.0693C5.26648 23.3208 5.44351 22.5571 5.8751 21.935C6.10347 21.5978 6.24859 21.2112 6.29857 20.8071C6.34855 20.4029 6.30195 19.9926 6.1626 19.61L6.0876 19.41C5.99058 19.0636 5.81324 18.745 5.56999 18.48C5.32674 18.2151 5.02443 18.0112 4.6876 17.885H4.4876C3.75744 17.6394 3.15362 17.1158 2.80724 16.4277C2.46087 15.7396 2.39991 14.9427 2.6376 14.21L3.6626 10.96C3.75696 10.5834 3.93068 10.2314 4.17212 9.92741C4.41357 9.62344 4.71717 9.37457 5.0626 9.19746C5.38429 9.03171 5.73627 8.93296 6.09723 8.90718C6.45819 8.88139 6.82062 8.92912 7.1626 9.04746C7.53496 9.17278 7.93229 9.20526 8.32005 9.14208C8.70781 9.07891 9.07428 8.92199 9.3876 8.68496L9.5501 8.55996C9.83372 8.33365 10.0629 8.04659 10.2209 7.71992C10.3788 7.39325 10.4614 7.0353 10.4626 6.67246V6.37246C10.4592 5.60762 10.7582 4.87243 11.2943 4.32694C11.8304 3.78145 12.5603 3.46984 13.3251 3.45996H16.5126C16.8847 3.46096 17.2529 3.53547 17.5962 3.67919C17.9394 3.82291 18.2508 4.03303 18.5126 4.29746C19.063 4.8572 19.3687 5.61249 19.3626 6.39746V6.74746C19.3563 7.09215 19.431 7.43351 19.5808 7.744C19.7306 8.05449 19.9513 8.32543 20.2251 8.53496L20.3626 8.63496C20.6432 8.84534 20.9704 8.98476 21.3165 9.04135C21.6625 9.09794 22.0172 9.07002 22.3501 8.95996L22.7751 8.82246C23.1352 8.7031 23.5156 8.65748 23.8937 8.68833C24.2718 8.71918 24.6398 8.82586 24.9758 9.00201C25.3117 9.17816 25.6088 9.42017 25.8492 9.71361C26.0896 10.0071 26.2685 10.3459 26.3751 10.71L27.3626 13.86C27.5911 14.5879 27.5286 15.3762 27.1884 16.0591C26.8481 16.742 26.2564 17.2665 25.5376 17.5225L25.2876 17.61C24.9199 17.7304 24.5874 17.9392 24.3193 18.2182C24.0512 18.4972 23.8558 18.8378 23.7501 19.21C23.6506 19.556 23.627 19.9194 23.681 20.2754C23.7349 20.6313 23.8651 20.9715 24.0626 21.2725L24.3876 21.7475C24.8186 22.373 24.994 23.1397 24.8778 23.8905C24.7616 24.6412 24.3626 25.319 23.7626 25.785L21.2501 27.7225C20.9466 27.9546 20.5987 28.1221 20.228 28.2148C19.8573 28.3074 19.4715 28.3232 19.0944 28.2611C18.7174 28.1991 18.357 28.0605 18.0355 27.8539C17.714 27.6473 17.4382 27.3771 17.2251 27.06L17.0751 26.8475C16.8704 26.5398 16.591 26.289 16.2632 26.1185C15.9353 25.948 15.5696 25.8634 15.2001 25.8725C14.8476 25.8816 14.5021 25.9735 14.1916 26.1406C13.8811 26.3078 13.6143 26.5457 13.4126 26.835L13.1251 27.2475C12.9119 27.5669 12.6356 27.8392 12.3131 28.0478C11.9906 28.2563 11.6289 28.3966 11.2501 28.46C11.088 28.4758 10.9247 28.4758 10.7626 28.46ZM5.5001 15.485C6.20597 15.7367 6.84289 16.1505 7.3596 16.6933C7.87632 17.2361 8.2584 17.8926 8.4751 18.61V18.76C8.74502 19.5057 8.83365 20.305 8.73367 21.0919C8.63369 21.8787 8.34797 22.6304 7.9001 23.285C7.82105 23.3723 7.77727 23.4859 7.77727 23.6037C7.77727 23.7215 7.82105 23.8351 7.9001 23.9225L10.5876 25.96C10.6227 25.9875 10.6632 26.0072 10.7065 26.0178C10.7498 26.0284 10.7949 26.0295 10.8387 26.0213C10.8825 26.013 10.9241 25.9954 10.9605 25.9697C10.997 25.9441 11.0275 25.9109 11.0501 25.8725L11.3376 25.46C11.7712 24.8334 12.3503 24.3214 13.0252 23.9677C13.7001 23.614 14.4507 23.4293 15.2126 23.4293C15.9746 23.4293 16.7251 23.614 17.4 23.9677C18.0749 24.3214 18.654 24.8334 19.0876 25.46L19.2376 25.685C19.2913 25.7612 19.3716 25.8147 19.4626 25.835C19.5044 25.8411 19.5469 25.8388 19.5878 25.828C19.6286 25.8173 19.6668 25.7984 19.7001 25.7725L22.2751 23.8225C22.3652 23.7509 22.4245 23.6476 22.4408 23.5336C22.4571 23.4197 22.4291 23.3039 22.3626 23.21L22.0376 22.735C21.6141 22.1175 21.3347 21.4127 21.2201 20.6728C21.1054 19.9329 21.1584 19.1767 21.3751 18.46C21.5948 17.7067 21.9922 17.0172 22.5338 16.4494C23.0754 15.8817 23.7455 15.4523 24.4876 15.1975L24.7376 15.11C24.8418 15.0682 24.9252 14.987 24.9697 14.8839C25.0142 14.7809 25.0162 14.6644 24.9751 14.56L24.0001 11.4475C23.9767 11.393 23.9425 11.3439 23.8995 11.303C23.8565 11.2622 23.8057 11.2305 23.7501 11.21C23.7133 11.1913 23.6726 11.1816 23.6314 11.1816C23.5901 11.1816 23.5494 11.1913 23.5126 11.21L23.0876 11.3475C22.3687 11.5847 21.6029 11.6439 20.856 11.5198C20.1092 11.3956 19.4037 11.092 18.8001 10.635L18.7501 10.5225C18.171 10.0839 17.7014 9.51698 17.3782 8.86632C17.055 8.21566 16.8871 7.49895 16.8876 6.77246V6.38496C16.8899 6.26448 16.845 6.14787 16.7626 6.05996C16.6907 5.99497 16.597 5.95929 16.5001 5.95996H13.3251C13.2742 5.96314 13.2244 5.97634 13.1786 5.99882C13.1328 6.02129 13.0919 6.05259 13.0582 6.09091C13.0245 6.12924 12.9987 6.17384 12.9823 6.22216C12.9659 6.27047 12.9592 6.32155 12.9626 6.37246V6.68496C12.9627 7.43126 12.7914 8.16761 12.462 8.83727C12.1326 9.50694 11.6538 10.092 11.0626 10.5475L10.9001 10.6725C10.2623 11.1581 9.51476 11.4794 8.72347 11.608C7.93219 11.7366 7.12141 11.6686 6.3626 11.41C6.30583 11.3909 6.24438 11.3909 6.1876 11.41C6.11706 11.4528 6.06393 11.5192 6.0376 11.5975L5.0001 14.86C4.96394 14.9711 4.97241 15.0919 5.02374 15.1969C5.07506 15.3019 5.1652 15.3828 5.2751 15.4225L5.5001 15.485Z" fill="#000BFF"/>
<path d="M15 20.335C14.1347 20.335 13.2888 20.0784 12.5694 19.5976C11.8499 19.1169 11.2892 18.4336 10.958 17.6342C10.6269 16.8348 10.5403 15.9551 10.7091 15.1064C10.8779 14.2578 11.2946 13.4782 11.9064 12.8664C12.5183 12.2545 13.2978 11.8378 14.1465 11.669C14.9951 11.5002 15.8748 11.5869 16.6742 11.918C17.4737 12.2491 18.1569 12.8099 18.6377 13.5293C19.1184 14.2488 19.375 15.0947 19.375 15.96C19.375 17.1203 18.9141 18.2331 18.0936 19.0536C17.2731 19.874 16.1603 20.335 15 20.335ZM15 14.085C14.6292 14.085 14.2667 14.1949 13.9583 14.401C13.65 14.607 13.4096 14.8998 13.2677 15.2424C13.1258 15.585 13.0887 15.962 13.161 16.3258C13.2334 16.6895 13.412 17.0236 13.6742 17.2858C13.9364 17.548 14.2705 17.7266 14.6342 17.7989C14.9979 17.8713 15.3749 17.8342 15.7175 17.6922C16.0601 17.5503 16.353 17.31 16.559 17.0017C16.765 16.6933 16.875 16.3308 16.875 15.96C16.875 15.4627 16.6775 14.9858 16.3258 14.6341C15.9742 14.2825 15.4973 14.085 15 14.085Z" fill="white"/>
<path fill-rule="evenodd" clip-rule="evenodd" d="M5.64529 10.8618C7.48348 11.2377 11.3103 10.9619 11.9118 6.85109C11.9118 5.22186 13.1651 4.21922 15.2958 4.72054C15.6839 4.81187 16.0305 4.87824 16.3377 4.93708C17.7169 5.20121 18.3037 5.31358 18.3037 6.85109C18.3037 8.73111 19.181 10.2351 22.4396 9.98441C25.0465 9.78388 25.6982 11.5719 25.6982 12.491C26.1995 13.243 26.9014 14.9726 25.6982 15.875C25.4632 16.0512 25.1854 16.2121 24.8945 16.3807C23.3229 17.2911 21.3664 18.4245 23.6929 23.3948C23.6929 24.7734 20.4343 27.656 18.3037 26.9041L16.7997 25.0241C15.9224 24.6899 13.9422 24.3724 13.0398 25.7761C12.1374 27.1798 10.9092 27.1129 10.4079 26.9041L7.02393 25.0241C6.73149 24.4392 6.32208 23.0439 7.02393 22.1415C7.90124 21.0135 7.65058 17.6296 5.64529 16.7523C3.64 15.875 3.38934 15.499 3.76533 14.371C4.06612 13.4686 5.14397 11.6556 5.64529 10.8618ZM14.9988 19.9165C17.2081 19.9165 18.9992 18.1254 18.9992 15.9161C18.9992 13.7068 17.2081 11.9158 14.9988 11.9158C12.7895 11.9158 10.9985 13.7068 10.9985 15.9161C10.9985 18.1254 12.7895 19.9165 14.9988 19.9165Z" fill="#000BFF"/>
</svg>
