<svg width="40" height="40" viewBox="0 0 40 40" fill="none" xmlns="http://www.w3.org/2000/svg">
<g clip-path="url(#clip0_2123_2457)">
<path d="M40.7101 20.6539C40.4632 20.9096 40.1267 21.0595 39.7715 21.0721L33.4461 21.0734C33.2405 22.1567 32.7951 23.1803 32.1426 24.0691C31.49 24.958 30.6469 25.6896 29.6749 26.2103C28.9281 24.9529 27.9166 23.8731 26.7107 23.0459C25.5047 22.2187 24.1331 21.6639 22.6912 21.42L22.6899 15.0454C22.6898 14.6873 22.7602 14.3328 22.8971 14.0019C23.0341 13.6711 23.2349 13.3705 23.4881 13.1173C23.7413 12.8642 24.0419 12.6634 24.3727 12.5264C24.7035 12.3894 25.0581 12.319 25.4161 12.3192H26.1921C27.9119 12.3193 29.5777 12.9198 30.902 14.017C32.2264 15.1142 33.1261 16.6393 33.4461 18.329L39.7715 18.3303C40.1267 18.3429 40.4632 18.4928 40.7101 18.7485C40.9569 19.0042 41.0949 19.3458 41.0949 19.7012C41.0949 20.0566 40.9569 20.3982 40.7101 20.6539Z" fill="#000BFF"/>
<path d="M19.3468 21.42L19.3481 15.0454C19.3482 14.6873 19.2778 14.3328 19.1408 14.0019C19.0039 13.6711 18.8031 13.3705 18.5499 13.1173C18.2967 12.8642 17.9961 12.6634 17.6653 12.5264C17.3345 12.3894 16.9799 12.319 16.6218 12.3192L15.8459 12.3192C14.1261 12.3197 12.4605 12.9205 11.1364 14.0179C9.81231 15.1153 8.91283 16.6405 8.59317 18.3303L2.26645 18.3303C1.91125 18.3429 1.57478 18.4928 1.32792 18.7485C1.08107 19.0042 0.943115 19.3458 0.943115 19.7012C0.943115 20.0566 1.08107 20.3982 1.32792 20.6539C1.57478 20.9096 1.91125 21.0595 2.26645 21.0721L8.59188 21.0734C8.79747 22.1567 9.24286 23.1803 9.8954 24.0691C10.5479 24.958 11.3911 25.6896 12.3631 26.2103C13.1099 24.9529 14.1214 23.8731 15.3273 23.0459C16.5333 22.2187 17.9049 21.6639 19.3468 21.42Z" fill="#000BFF"/>
<path fill-rule="evenodd" clip-rule="evenodd" d="M16.4457 38.1842C17.3444 38.7847 18.3526 39.2024 19.4127 39.4134C21.5537 39.8394 23.7763 39.3974 25.5914 38.1847C27.4066 36.972 28.6656 35.088 29.0916 32.947C29.5176 30.806 29.0757 28.5834 27.863 26.7683C26.6503 24.9531 24.7662 23.6941 22.6252 23.2681C21.5651 23.0571 20.4738 23.0571 19.4137 23.2679C18.3536 23.4787 17.3453 23.8962 16.4466 24.4967C15.5478 25.0972 14.7761 25.8688 14.1755 26.7675C13.575 27.6661 13.1573 28.6743 12.9464 29.7345C12.7354 30.7946 12.7353 31.8859 12.9462 32.946C13.157 34.0061 13.5745 35.0144 14.175 35.9131C14.7754 36.8119 15.547 37.5836 16.4457 38.1842ZM21.9413 30.0587H25.0896C26.3034 30.0587 26.3034 31.9413 25.0896 31.9413H21.9413V35.0895C21.9413 36.3035 20.0585 36.3035 20.0585 35.0895V31.9413H16.9102C15.6965 31.9413 15.6965 30.0587 16.9102 30.0587H20.0585V26.9105C20.0585 25.6965 21.9413 25.6965 21.9413 26.9105V30.0587Z" fill="#000BFF"/>
</g>
<defs>
<clipPath id="clip0_2123_2457">
<rect width="40" height="40" fill="white"/>
</clipPath>
</defs>
</svg>
