<svg width="40" height="40" viewBox="0 0 40 40" fill="none" xmlns="http://www.w3.org/2000/svg">
<path d="M20 7C21.7239 7 23.3772 7.68482 24.5962 8.90381C25.8152 10.1228 26.5 11.7761 26.5 13.5C26.5 15.2239 25.8152 16.8772 24.5962 18.0962C23.3772 19.3152 21.7239 20 20 20C18.2761 20 16.6228 19.3152 15.4038 18.0962C14.1848 16.8772 13.5 15.2239 13.5 13.5C13.5 11.7761 14.1848 10.1228 15.4038 8.90381C16.6228 7.68482 18.2761 7 20 7ZM20 33C20 33 33 33 33 29.75C33 25.85 26.6625 21.625 20 21.625C13.3375 21.625 7 25.85 7 29.75C7 33 20 33 20 33Z" fill="#000BFF"/>
</svg>
