<svg width="41" height="40" viewBox="0 0 41 40" fill="none" xmlns="http://www.w3.org/2000/svg">
<g clip-path="url(#clip0_2123_2491)">
<path d="M44.5225 19.999C44.5209 19.6655 44.3877 19.346 44.1518 19.1102C43.9159 18.8743 43.5965 18.7411 43.2629 18.7395L32.1371 18.7505L32.1371 17.5573C32.1383 16.9011 32.01 16.2512 31.7595 15.6447C31.509 15.0383 31.1412 14.4872 30.6772 14.0232C30.2132 13.5593 29.6622 13.1915 29.0557 12.9409C28.4493 12.6904 27.7993 12.5621 27.1431 12.5634L21.5305 12.5634L21.5415 12.0441C21.5107 11.7314 21.3647 11.4414 21.1319 11.2303C20.8991 11.0193 20.5962 10.9025 20.282 10.9025C19.9678 10.9025 19.6648 11.0193 19.432 11.2304C19.1992 11.4414 19.0532 11.7314 19.0224 12.0441L19.0335 12.5634L13.4208 12.5634C12.7647 12.5621 12.1147 12.6904 11.5082 12.9409C10.9018 13.1915 10.3508 13.5593 9.88678 14.0232C9.42279 14.4872 9.05499 15.0383 8.80447 15.6447C8.55395 16.2512 8.42563 16.9011 8.42689 17.5573L8.4269 18.7506L-2.69899 18.7395C-3.03254 18.7411 -3.35198 18.8743 -3.58784 19.1102C-3.82371 19.346 -3.95692 19.6655 -3.95852 19.999C-3.95294 20.3313 -3.81844 20.6485 -3.58343 20.8835C-3.34842 21.1185 -3.03129 21.253 -2.69899 21.2586L8.42689 21.2475L8.4269 22.4408C8.4326 23.7635 8.96058 25.0304 9.89589 25.9657C10.8312 26.901 12.0981 27.429 13.4208 27.4347L19.0335 27.4347L19.0224 27.954C19.028 28.2863 19.1625 28.6034 19.3975 28.8384C19.6325 29.0734 19.9497 29.2079 20.282 29.2135C20.6155 29.2119 20.935 29.0787 21.1708 28.8428C21.4067 28.607 21.5399 28.2875 21.5415 27.954L21.5305 27.4347L27.1431 27.4347C27.7993 27.436 28.4493 27.3077 29.0557 27.0571C29.6622 26.8066 30.2132 26.4388 30.6772 25.9748C31.1412 25.5108 31.509 24.9598 31.7595 24.3534C32.01 23.7469 32.1383 23.0969 32.1371 22.4408L32.1371 21.2475L43.2629 21.2586C43.5965 21.257 43.9159 21.1238 44.1518 20.8879C44.3877 20.652 44.5209 20.3326 44.5225 19.999ZM27.1431 24.9377L21.5305 24.9377L21.5305 15.0603L27.1431 15.0603C27.4715 15.0587 27.7969 15.1221 28.1006 15.247C28.4043 15.3719 28.6803 15.5558 28.9125 15.788C29.1447 16.0202 29.3285 16.2961 29.4534 16.5998C29.5783 16.9035 29.6418 17.2289 29.6401 17.5573L29.6401 22.4408C29.6418 22.7691 29.5783 23.0946 29.4534 23.3983C29.3285 23.702 29.1447 23.9779 28.9125 24.2101C28.6803 24.4423 28.4043 24.6262 28.1006 24.7511C27.7969 24.876 27.4715 24.9394 27.1431 24.9377ZM27.9165 35.2571C27.6821 35.3781 27.4151 35.4209 27.1547 35.3792C26.8942 35.3374 26.654 35.2133 26.4692 35.0251C26.3738 34.9326 26.2952 34.8241 26.2371 34.7046L24.4694 31.1691C24.3954 31.0226 24.351 30.8629 24.3387 30.6992C24.3264 30.5355 24.3465 30.371 24.3978 30.215C24.4491 30.0591 24.5306 29.9148 24.6377 29.7903C24.7447 29.6659 24.8753 29.5637 25.0218 29.4897C25.1683 29.4157 25.328 29.3713 25.4917 29.359C25.6554 29.3468 25.82 29.3668 25.9759 29.4181C26.1319 29.4694 26.2762 29.5509 26.4006 29.658C26.5251 29.7651 26.6272 29.8956 26.7012 30.0422L28.469 33.5777C28.543 33.7242 28.5874 33.8839 28.5997 34.0476C28.612 34.2113 28.5919 34.3759 28.5406 34.5318C28.4893 34.6878 28.4078 34.8321 28.3007 34.9565C28.1936 35.081 28.0631 35.1831 27.9165 35.2571ZM12.6474 4.741C12.794 4.66699 12.9537 4.62257 13.1174 4.61028C13.2811 4.59799 13.4456 4.61807 13.6016 4.66936C13.7575 4.72066 13.9018 4.80218 14.0263 4.90926C14.1507 5.01633 14.2528 5.14688 14.3268 5.29343L16.0946 8.82896C16.2286 9.09431 16.2638 9.39875 16.1936 9.68764C16.1234 9.97653 15.9526 10.231 15.7118 10.4053C15.471 10.5796 15.1759 10.6623 14.8795 10.6387C14.5832 10.6151 14.305 10.4866 14.0948 10.2763C13.9994 10.1838 13.9209 10.0754 13.8628 9.95591L12.095 6.42038C12.021 6.27384 11.9766 6.11415 11.9643 5.95045C11.952 5.78674 11.9721 5.62221 12.0234 5.46626C12.0747 5.31032 12.1562 5.166 12.2633 5.04156C12.3703 4.91712 12.5009 4.81499 12.6474 4.741ZM26.2371 5.29343C26.3111 5.14688 26.4133 5.01635 26.5377 4.90928C26.6622 4.80221 26.8065 4.7207 26.9624 4.6694C27.1184 4.6181 27.2829 4.59802 27.4466 4.61031C27.6103 4.62259 27.77 4.667 27.9165 4.741C28.2125 4.89044 28.4369 5.15133 28.5405 5.46628C28.6441 5.78122 28.6184 6.12442 28.469 6.42038L26.7012 9.95591C26.6272 10.1025 26.5251 10.233 26.4006 10.3401C26.2762 10.4472 26.1319 10.5287 25.9759 10.58C25.82 10.6313 25.6554 10.6513 25.4917 10.6391C25.328 10.6268 25.1683 10.5823 25.0218 10.5083C24.9023 10.4502 24.7939 10.3717 24.7014 10.2763C24.5131 10.0915 24.389 9.85128 24.3473 9.59081C24.3055 9.33034 24.3483 9.06334 24.4694 8.82896L26.2371 5.29343ZM14.3268 34.7046C14.2528 34.8512 14.1507 34.9817 14.0263 35.0888C13.9018 35.1959 13.7575 35.2774 13.6016 35.3287C13.4456 35.38 13.2811 35.4001 13.1174 35.3878C12.9537 35.3755 12.794 35.3311 12.6474 35.2571C12.5279 35.199 12.4195 35.1205 12.327 35.0251C12.1388 34.8403 12.0147 34.6 11.9729 34.3395C11.9312 34.0791 11.9739 33.8121 12.095 33.5777L13.8628 30.0422C13.9368 29.8956 14.0389 29.7651 14.1634 29.658C14.2878 29.5509 14.4321 29.4694 14.5881 29.4181C14.744 29.3668 14.9085 29.3468 15.0722 29.359C15.2359 29.3713 15.3956 29.4157 15.5422 29.4897C15.6887 29.5637 15.8192 29.6659 15.9263 29.7903C16.0334 29.9148 16.1149 30.0591 16.1662 30.215C16.2175 30.371 16.2376 30.5355 16.2253 30.6992C16.213 30.8629 16.1686 31.0226 16.0946 31.1691L14.3268 34.7046Z" fill="#000BFF"/>
</g>
<defs>
<clipPath id="clip0_2123_2491">
<rect width="40" height="40" fill="white" transform="translate(0.28418)"/>
</clipPath>
</defs>
</svg>
