<svg width="21" height="23" viewBox="0 0 21 23" fill="none" xmlns="http://www.w3.org/2000/svg">
<path d="M14.5495 10.0062C14.5495 11.1201 14.107 12.1883 13.3194 12.976C12.5317 13.7637 11.4634 14.2062 10.3495 14.2062C9.23563 14.2062 8.16734 13.7637 7.37969 12.976C6.59203 12.1883 6.14954 11.1201 6.14954 10.0062C6.14954 8.89224 6.59203 7.82396 7.37969 7.0363C8.16734 6.24865 9.23563 5.80615 10.3495 5.80615C11.4634 5.80615 12.5317 6.24865 13.3194 7.0363C14.107 7.82396 14.5495 8.89224 14.5495 10.0062ZM13.1495 10.0062C13.1495 9.26355 12.8545 8.55136 12.3294 8.02625C11.8043 7.50115 11.0921 7.20615 10.3495 7.20615C9.60693 7.20615 8.89474 7.50115 8.36964 8.02625C7.84454 8.55136 7.54954 9.26355 7.54954 10.0062C7.54954 10.7488 7.84454 11.4609 8.36964 11.9861C8.89474 12.5112 9.60693 12.8062 10.3495 12.8062C11.0921 12.8062 11.8043 12.5112 12.3294 11.9861C12.8545 11.4609 13.1495 10.7488 13.1495 10.0062Z" fill="#080F18"/>
<path d="M17.2795 16.943C19.1176 15.104 20.1501 12.6103 20.1501 10.0102C20.1501 7.41014 19.1176 4.91646 17.2795 3.07743C16.3697 2.16698 15.2894 1.44473 14.1003 0.951965C12.9112 0.459197 11.6367 0.205566 10.3495 0.205566C9.06239 0.205566 7.78786 0.459197 6.59878 0.951965C5.4097 1.44473 4.32937 2.16698 3.41953 3.07743C1.58146 4.91646 0.54892 7.41014 0.54892 10.0102C0.54892 12.6103 1.58146 15.104 3.41953 16.943L5.54893 19.0416L8.40913 21.8206L8.59533 21.9858C9.68033 22.865 11.2693 22.809 12.2913 21.8206L15.7003 18.5026L17.2795 16.943ZM4.40653 4.06443C5.18685 3.28377 6.11333 2.66448 7.13305 2.24197C8.15277 1.81946 9.24574 1.60199 10.3495 1.60199C11.4533 1.60199 12.5463 1.81946 13.566 2.24197C14.5857 2.66448 15.5122 3.28377 16.2925 4.06443C17.8251 5.59807 18.7063 7.66428 18.7522 9.83195C18.7981 11.9996 18.0052 14.1013 16.5389 15.6984L16.2925 15.956L14.4431 17.7816L11.3211 20.8168L11.1895 20.9288C10.9475 21.1112 10.6526 21.2099 10.3495 21.2099C10.0464 21.2099 9.75159 21.1112 9.50953 20.9288L9.37933 20.8168L5.20733 16.7498L4.40653 15.956L4.16013 15.6998C2.69383 14.1027 1.90092 12.001 1.94683 9.83335C1.99274 7.66568 2.87393 5.59947 4.40653 4.06583V4.06443Z" fill="#080F18"/>
</svg>
