<svg width="68" height="66" viewBox="0 0 68 66" fill="none"
	xmlns="http://www.w3.org/2000/svg">
	<rect x="0.160522" y="0.812256" width="67.366" height="64.3496" rx="13" fill="#F6F5F5"/>
	<path d="M48.6902 50.123V46.2064C48.6902 44.1289 47.8825 42.1364 46.4447 40.6674C45.0069 39.1983 43.0569 38.373 41.0236 38.373H25.6902C23.6569 38.373 21.7069 39.1983 20.2691 40.6674C18.8313 42.1364 18.0236 44.1289 18.0236 46.2064V50.123" stroke="#C89C3B" stroke-width="2.33333" stroke-linecap="round" stroke-linejoin="round"/>
	<path d="M33.3569 30.5397C37.591 30.5397 41.0235 27.0326 41.0235 22.7064C41.0235 18.3801 37.591 14.873 33.3569 14.873C29.1227 14.873 25.6902 18.3801 25.6902 22.7064C25.6902 27.0326 29.1227 30.5397 33.3569 30.5397Z" stroke="#C89C3B" stroke-width="2.33333" stroke-linecap="round" stroke-linejoin="round"/>
</svg>
