<svg width="24" height="19" viewBox="0 0 24 19" fill="none"
	xmlns="http://www.w3.org/2000/svg">
	<path d="M4.12499 0.180664H19.875C20.8435 0.180601 21.7753 0.551144 22.4793 1.21628C23.1832 1.88142 23.606 2.79072 23.6608 3.75766L23.6667 3.97233V15.0557C23.6667 16.0242 23.2962 16.956 22.631 17.6599C21.9659 18.3639 21.0566 18.7867 20.0897 18.8415L19.875 18.8473H4.12499C3.1565 18.8474 2.22469 18.4768 1.52073 17.8117C0.816756 17.1466 0.393993 16.2373 0.339162 15.2703L0.333328 15.0557V3.97233C0.333265 3.00384 0.703808 2.07203 1.36895 1.36806C2.03408 0.664092 2.94339 0.241329 3.91033 0.186498L4.12499 0.180664H19.875H4.12499ZM21.9167 6.44916L12.4083 11.4542C12.301 11.5109 12.183 11.5446 12.0619 11.5533C11.9407 11.5619 11.8192 11.5452 11.7048 11.5043L11.5928 11.4553L2.08333 6.45033V15.0557C2.08335 15.5681 2.27603 16.0617 2.62312 16.4386C2.97022 16.8155 3.44634 17.0482 3.95699 17.0903L4.12499 17.0973H19.875C20.3876 17.0973 20.8814 16.9044 21.2583 16.5571C21.6353 16.2098 21.8678 15.7334 21.9097 15.2225L21.9167 15.0557V6.44916ZM19.875 1.93066H4.12499C3.61261 1.93068 3.11896 2.12336 2.74204 2.47046C2.36512 2.81755 2.13249 3.29368 2.09033 3.80433L2.08333 3.97233V4.47283L12 9.69133L21.9167 4.47166V3.97233C21.9166 3.45976 21.7238 2.96595 21.3764 2.589C21.0291 2.21206 20.5527 1.97955 20.0418 1.93766L19.875 1.93066Z" fill="#080F18"/>
</svg>
