<svg width="21" height="21" viewBox="0 0 21 21" fill="none" xmlns="http://www.w3.org/2000/svg">
<path d="M10.3301 20.3059C4.75615 20.3059 0.237579 15.8281 0.237579 10.3043C0.237579 4.7806 4.75615 0.302734 10.3301 0.302734C15.904 0.302734 20.4226 4.7806 20.4226 10.3043C20.4226 15.8281 15.904 20.3059 10.3301 20.3059Z" fill="white"/>
<path d="M10.33 18.0461C6.0153 18.0461 2.51756 14.5799 2.51756 10.3041C2.51756 6.02824 6.0153 2.56201 10.33 2.56201C14.6447 2.56201 18.1424 6.02824 18.1424 10.3041C18.1424 14.5799 14.6447 18.0461 10.33 18.0461Z" fill="#000BFF"/>
<path d="M15.4495 10.3074C15.3365 11.7339 14.7472 12.9736 13.4917 13.9309C12.9204 14.367 12.281 14.6696 11.6147 14.8387C11.3387 14.9086 11.1487 15.1591 11.1487 15.4414V17.2789C11.1487 17.5916 11.3849 17.8497 11.6905 17.8879C10.7038 18.0698 10.1787 18.0834 9.27978 17.989C9.58405 17.9508 9.86233 17.5916 9.86233 17.2789V15.5087C9.86233 15.215 9.65179 14.962 9.36036 14.9074C8.739 14.7904 8.13176 14.5603 7.57073 14.217C6.0738 13.3003 5.35487 11.9501 5.21108 10.2985C5.15331 9.63231 5.6617 9.0589 6.32286 9.00423V8.79064C6.32286 8.16256 6.82483 7.63239 7.45775 7.6273C7.77871 7.62349 8.06885 7.7519 8.27811 7.95914C8.48609 8.16384 8.61319 8.44736 8.61319 8.7614V9.00042H9.14725V7.7786C9.14725 7.1518 9.64794 6.62162 10.2809 6.61654C10.6018 6.61272 10.892 6.74114 11.1025 6.94837C11.3092 7.15307 11.4376 7.43659 11.4376 7.75063V9.00042H12.0243V8.79064C12.0243 8.16256 12.5262 7.63239 13.1592 7.6273C13.4788 7.62349 13.7703 7.7519 13.9795 7.95914C14.1862 8.16384 14.3146 8.44736 14.3146 8.7614V9.00423C14.986 9.05 15.5034 9.63231 15.4495 10.3074Z" fill="white"/>
<path d="M7.8262 10.1331C8.88278 10.1331 12.0666 10.1331 13.1129 10.1331C13.3055 10.1331 13.466 10.2856 13.4711 10.4763C13.4994 11.5723 13.1129 12.5093 12.0872 13.173C11.1834 13.7578 10.0485 13.8011 9.09076 13.3052C7.93148 12.7051 7.46032 11.7172 7.4693 10.484C7.4693 10.292 7.62978 10.1331 7.8262 10.1331ZM12.0589 11.2481H8.88406C8.78649 11.2481 8.71717 11.346 8.75183 11.435C9.00603 12.0834 9.73395 12.5564 10.4914 12.5462C11.2373 12.5373 11.9562 12.0554 12.1899 11.4324C12.2258 11.3434 12.1552 11.2481 12.0589 11.2481Z" fill="#000BFF"/>
<path d="M7.46798 7.34365C7.87355 7.34365 8.20232 7.01805 8.20232 6.6164C8.20232 6.21476 7.87355 5.88916 7.46798 5.88916C7.06242 5.88916 6.73364 6.21476 6.73364 6.6164C6.73364 7.01805 7.06242 7.34365 7.46798 7.34365Z" fill="#D8B831"/>
<path d="M10.3246 6.24111C10.7302 6.24111 11.059 5.91551 11.059 5.51386C11.059 5.11222 10.7302 4.78662 10.3246 4.78662C9.91905 4.78662 9.59027 5.11222 9.59027 5.51386C9.59027 5.91551 9.91905 6.24111 10.3246 6.24111Z" fill="#D8B831"/>
<path d="M13.2067 7.34365C13.6123 7.34365 13.941 7.01805 13.941 6.6164C13.941 6.21476 13.6123 5.88916 13.2067 5.88916C12.8011 5.88916 12.4724 6.21476 12.4724 6.6164C12.4724 7.01805 12.8011 7.34365 13.2067 7.34365Z" fill="#D8B831"/>
</svg>
