<svg width="31" height="31" viewBox="0 0 31 31" fill="none" xmlns="http://www.w3.org/2000/svg">
<g clip-path="url(#clip0_71_407)">
<path d="M18.4318 19.6175C18.318 19.1509 18.0509 18.736 17.6732 18.4394C17.2955 18.1427 16.8292 17.9815 16.3489 17.9814H4.56321L4.40249 17.9879C3.86367 18.0287 3.36012 18.2714 2.9926 18.6675C2.62508 19.0636 2.4207 19.5839 2.42035 20.1243V22.8029L2.42571 23.0686C2.60356 27.3586 7.08214 28.6957 10.4561 28.6957C11.9025 28.6957 13.5504 28.4493 14.9764 27.8322L13.7379 26.5936C12.6739 26.9429 11.5886 27.0479 10.9221 27.0779L10.4561 27.0886L10.0907 27.0832C8.51035 27.0329 7.01785 26.6611 5.95071 26.0439C4.65642 25.2982 4.02749 24.2375 4.02749 22.8029V20.1243L4.03821 20.0161C4.05957 19.9136 4.11018 19.8194 4.18392 19.745C4.25845 19.6715 4.35254 19.6209 4.45499 19.5993L4.56321 19.5886L16.3489 19.5897L16.4454 19.5982C16.6939 19.6443 16.8846 19.8639 16.8846 20.1254V20.6868L17.4343 20.1382C17.7161 19.8554 18.0664 19.6818 18.4307 19.6175H18.4318Z" fill="#7F8C8D" stroke="#7F8C8D" stroke-width="0.5"/>
<path d="M24.6814 19.5886H24.6235L19.5085 19.5897C19.42 19.0651 19.2007 18.5714 18.8711 18.1539L18.7275 17.9814H25.9918L26.1525 17.9879C26.6624 18.0264 27.1418 18.2459 27.5041 18.6068C27.8664 18.9678 28.0877 19.4463 28.1282 19.9561L28.1346 20.1243V22.2939L26.5275 20.6868V20.1243C26.5273 19.999 26.4833 19.8777 26.4031 19.7814C26.3228 19.6851 26.2114 19.6199 26.0882 19.5972L25.9918 19.5886H24.6814Z" fill="#7F8C8D" stroke="#7F8C8D" stroke-width="0.5"/>
<path d="M19.5364 27.0886H19.5632V27.1154L19.5364 27.0886Z" fill="#7F8C8D" stroke="#7F8C8D" stroke-width="0.5"/>
<path d="M16.3489 9.94584C16.3489 8.38295 15.7281 6.88408 14.623 5.77896C13.5178 4.67383 12.019 4.05298 10.4561 4.05298C8.89321 4.05298 7.39434 4.67383 6.28921 5.77896C5.18409 6.88408 4.56323 8.38295 4.56323 9.94584C4.56323 11.5087 5.18409 13.0076 6.28921 14.1127C7.39434 15.2178 8.89321 15.8387 10.4561 15.8387C12.019 15.8387 13.5178 15.2178 14.623 14.1127C15.7281 13.0076 16.3489 11.5087 16.3489 9.94584ZM6.17038 9.94584C6.17038 7.58226 8.09252 5.66012 10.4561 5.66012C12.8197 5.66012 14.7418 7.58226 14.7418 9.94584C14.7418 12.3094 12.8197 14.2315 10.4561 14.2315C8.09252 14.2315 6.17038 12.3094 6.17038 9.94584Z" fill="#7F8C8D" stroke="#7F8C8D" stroke-width="0.5"/>
<path d="M27.0632 11.0172C27.0632 9.73851 26.5552 8.51216 25.651 7.60796C24.7468 6.70377 23.5205 6.1958 22.2418 6.1958C20.9631 6.1958 19.7367 6.70377 18.8325 7.60796C17.9283 8.51216 17.4203 9.73851 17.4203 11.0172C17.4203 12.296 17.9283 13.5223 18.8325 14.4265C19.7367 15.3307 20.9631 15.8387 22.2418 15.8387C23.5205 15.8387 24.7468 15.3307 25.651 14.4265C26.5552 13.5223 27.0632 12.296 27.0632 11.0172ZM19.0275 11.0172C19.0275 9.24509 20.4696 7.80294 22.2418 7.80294C24.0139 7.80294 25.4561 9.24509 25.4561 11.0172C25.4561 12.7894 24.0139 14.2315 22.2418 14.2315C20.4696 14.2315 19.0275 12.7894 19.0275 11.0172Z" fill="#7F8C8D" stroke="#7F8C8D" stroke-width="0.5"/>
<path d="M19.3275 22.0316C19.4065 21.958 19.4698 21.8693 19.5137 21.7708C19.5576 21.6722 19.5812 21.5658 19.5831 21.4579C19.585 21.35 19.5652 21.2428 19.5248 21.1428C19.4844 21.0427 19.4242 20.9518 19.3479 20.8755C19.2716 20.7992 19.1807 20.739 19.0806 20.6986C18.9806 20.6582 18.8734 20.6384 18.7655 20.6403C18.6576 20.6422 18.5512 20.6658 18.4526 20.7097C18.3541 20.7536 18.2654 20.8169 18.1918 20.8959L14.4418 24.6459C14.2913 24.7966 14.2068 25.0008 14.2068 25.2138C14.2068 25.4267 14.2913 25.6309 14.4418 25.7816L18.1918 29.5316C18.2654 29.6106 18.3541 29.6739 18.4526 29.7178C18.5512 29.7617 18.6576 29.7853 18.7655 29.7872C18.8734 29.7891 18.9806 29.7693 19.0806 29.7289C19.1807 29.6885 19.2716 29.6283 19.3479 29.552C19.4242 29.4757 19.4844 29.3848 19.5248 29.2847C19.5652 29.1847 19.585 29.0775 19.5831 28.9696C19.5812 28.8617 19.5576 28.7553 19.5137 28.6567C19.4698 28.5582 19.4065 28.4695 19.3275 28.3959L16.9489 26.0173H26.4632L24.0847 28.3959C24.0057 28.4695 23.9424 28.5582 23.8985 28.6567C23.8545 28.7553 23.8309 28.8617 23.829 28.9696C23.8271 29.0775 23.847 29.1847 23.8874 29.2847C23.9278 29.3848 23.9879 29.4757 24.0643 29.552C24.1406 29.6283 24.2315 29.6885 24.3315 29.7289C24.4316 29.7693 24.5387 29.7891 24.6466 29.7872C24.7545 29.7853 24.8609 29.7617 24.9595 29.7178C25.0581 29.6739 25.1468 29.6106 25.2204 29.5316L28.9704 25.7816C29.1208 25.6309 29.2054 25.4267 29.2054 25.2138C29.2054 25.0008 29.1208 24.7966 28.9704 24.6459L25.2204 20.8959C25.1468 20.8169 25.0581 20.7536 24.9595 20.7097C24.8609 20.6658 24.7545 20.6422 24.6466 20.6403C24.5387 20.6384 24.4316 20.6582 24.3315 20.6986C24.2315 20.739 24.1406 20.7992 24.0643 20.8755C23.9879 20.9518 23.9278 21.0427 23.8874 21.1428C23.847 21.2428 23.8271 21.35 23.829 21.4579C23.8309 21.5658 23.8545 21.6722 23.8985 21.7708C23.9424 21.8693 24.0057 21.958 24.0847 22.0316L26.4632 24.4102H16.9489L19.3275 22.0316Z" fill="#7F8C8D" stroke="#7F8C8D" stroke-width="0.5"/>
</g>
<defs>
<clipPath id="clip0_71_407">
<rect width="30" height="30" fill="white" transform="translate(0.277466 0.838623)"/>
</clipPath>
</defs>
</svg>
