<svg width="31" height="31" viewBox="0 0 31 31" fill="none" xmlns="http://www.w3.org/2000/svg">
<path d="M9.10376 24.9211C10.9737 26.3942 13.2858 27.1935 15.6663 27.1899C18.1431 27.1899 20.4225 26.3424 22.2288 24.9211" stroke="#7F8C8D" stroke-width="2.33333"/>
<path d="M12.5413 6.40674C8.19813 7.74111 5.04126 11.7842 5.04126 16.5649C5.04126 17.768 5.24126 18.9242 5.61001 20.0024" stroke="#7F8C8D" stroke-width="2.33333"/>
<path d="M18.7913 6.40674C23.1344 7.74111 26.2913 11.7842 26.2913 16.5649C26.2913 17.768 26.0913 18.9242 25.7225 20.0024" stroke="#7F8C8D" stroke-width="2.33333"/>
<path d="M27.5413 22.8148C27.5413 23.6536 27.2113 24.4148 26.6738 24.9761C26.1718 25.5004 25.503 25.8337 24.7821 25.9187C24.0612 26.0037 23.3331 25.835 22.723 25.4417C22.1129 25.0484 21.6588 24.4549 21.4385 23.7633C21.2183 23.0716 21.2458 22.3248 21.5162 21.6511C21.7866 20.9775 22.283 20.419 22.9204 20.0715C23.5577 19.724 24.2961 19.6092 25.0089 19.7469C25.7216 19.8845 26.3642 20.266 26.8263 20.8259C27.2884 21.3857 27.5412 22.0889 27.5413 22.8148V22.8148Z" stroke="#7F8C8D" stroke-width="2.33333" stroke-linecap="round" stroke-linejoin="round"/>
<path d="M10.0413 22.8148C10.0413 23.6536 9.71126 24.4148 9.17376 24.9761C8.67182 25.5004 8.00297 25.8337 7.28206 25.9187C6.56115 26.0037 5.83314 25.835 5.22303 25.4417C4.61292 25.0484 4.15877 24.4549 3.93854 23.7633C3.71832 23.0716 3.74576 22.3248 4.01616 21.6511C4.28656 20.9775 4.78305 20.419 5.42038 20.0715C6.05771 19.724 6.79613 19.6092 7.50886 19.7469C8.2216 19.8845 8.86417 20.266 9.32627 20.8259C9.78837 21.3857 10.0412 22.0889 10.0413 22.8148Z" stroke="#7F8C8D" stroke-width="2.33333" stroke-linecap="round" stroke-linejoin="round"/>
<path d="M18.7913 5.9398C18.7913 6.77855 18.4613 7.5398 17.9238 8.10105C17.4218 8.62544 16.753 8.95874 16.0321 9.04371C15.3112 9.12868 14.5831 8.96003 13.973 8.56671C13.3629 8.17339 12.9088 7.57995 12.6885 6.88826C12.4683 6.19657 12.4958 5.44979 12.7662 4.77613C13.0366 4.10247 13.533 3.54395 14.1704 3.19648C14.8077 2.849 15.5461 2.73424 16.2589 2.87189C16.9716 3.00955 17.6142 3.39103 18.0763 3.95085C18.5384 4.51067 18.7912 5.2139 18.7913 5.9398V5.9398Z" stroke="#7F8C8D" stroke-width="2.33333" stroke-linecap="round" stroke-linejoin="round"/>
</svg>
