<svg width="40" height="40" viewBox="0 0 40 40" fill="none" xmlns="http://www.w3.org/2000/svg">
<path d="M16.4323 9.22556C18.2302 7.23242 21.0478 5.95001 24.2138 5.95001C29.644 5.95001 34.046 9.72279 34.046 14.3777C34.046 17.1714 32.4588 19.6478 30.0176 21.1816C29.9568 21.2188 29.895 21.2544 29.8322 21.2883V26.977C29.8322 27.2567 29.7487 27.53 29.5924 27.7619C29.4362 27.9938 29.2142 28.1738 28.955 28.2788C28.6958 28.3838 28.4112 28.409 28.1375 28.3513C27.8639 28.2935 27.6138 28.1554 27.4191 27.9546L25.8178 26.3056C27.3194 24.5302 28.2029 22.3502 28.2029 19.9947C28.2029 14.2822 23.0086 9.60761 16.4323 9.22556Z" fill="#BDBDBD"/>
<path d="M17.7315 28.2636L12.5808 33.573C12.3861 33.7738 12.136 33.9119 11.8624 33.9697C11.5887 34.0274 11.3041 34.0022 11.0449 33.8972C10.7857 33.7922 10.5637 33.6122 10.4075 33.3803C10.2512 33.1484 10.1677 32.8751 10.1677 32.5954V26.9067C10.1049 26.8728 10.0431 26.8372 9.98228 26.8C7.53966 25.2662 5.95386 22.7898 5.95386 19.9961C5.95386 15.3412 10.3559 11.5684 15.7861 11.5684C21.2163 11.5684 25.6184 15.3412 25.6184 19.9961C25.6184 23.825 22.6392 27.0584 18.5588 28.0838C18.2854 28.1539 18.0094 28.2139 17.7315 28.2636Z" fill="#BDBDBD"/>
</svg>
