<svg width="33" height="32" viewBox="0 0 33 32" fill="none" xmlns="http://www.w3.org/2000/svg">
<path d="M11.5595 14.6666C11.5595 14.313 11.6999 13.9739 11.95 13.7238C12.2 13.4738 12.5392 13.3333 12.8928 13.3333H20.8928C21.2464 13.3333 21.5856 13.4738 21.8356 13.7238C22.0857 13.9739 22.2261 14.313 22.2261 14.6666C22.2261 15.0203 22.0857 15.3594 21.8356 15.6094C21.5856 15.8595 21.2464 16 20.8928 16H12.8928C12.5392 16 12.2 15.8595 11.95 15.6094C11.6999 15.3594 11.5595 15.0203 11.5595 14.6666ZM12.8928 18.6666C12.5392 18.6666 12.2 18.8071 11.95 19.0572C11.6999 19.3072 11.5595 19.6463 11.5595 20C11.5595 20.3536 11.6999 20.6927 11.95 20.9428C12.2 21.1928 12.5392 21.3333 12.8928 21.3333H18.2261C18.5798 21.3333 18.9189 21.1928 19.1689 20.9428C19.419 20.6927 19.5595 20.3536 19.5595 20C19.5595 19.6463 19.419 19.3072 19.1689 19.0572C18.9189 18.8071 18.5798 18.6666 18.2261 18.6666H12.8928ZM3.55946 16C3.56013 13.0768 4.52144 10.2348 6.29544 7.91142C8.06944 5.58806 10.5578 3.91207 13.3776 3.1414C16.1974 2.37073 19.1923 2.54808 21.9014 3.64617C24.6105 4.74426 26.8837 6.70222 28.3711 9.21872C29.8585 11.7352 30.4776 14.6708 30.1333 17.5736C29.789 20.4765 28.5002 23.1857 26.4653 25.2844C24.4305 27.3831 21.7623 28.7549 18.8715 29.1887C15.9806 29.6225 13.0274 29.0943 10.4661 27.6853L5.28213 29.264C5.05091 29.3344 4.80488 29.3407 4.57038 29.2821C4.33587 29.2235 4.12171 29.1022 3.95079 28.9313C3.77987 28.7604 3.65863 28.5462 3.60004 28.3117C3.54144 28.0772 3.54769 27.8312 3.61813 27.6L5.1968 22.408C4.11934 20.4442 3.5561 18.2399 3.55946 16ZM16.8928 5.3333C14.9993 5.33314 13.1399 5.83702 11.5055 6.79318C9.87119 7.74934 8.52083 9.12332 7.59314 10.774C6.66545 12.4247 6.19387 14.2925 6.22685 16.1857C6.25983 18.079 6.79618 19.9293 7.7808 21.5466C7.87854 21.7073 7.94118 21.8868 7.96462 22.0734C7.98806 22.26 7.97176 22.4494 7.9168 22.6293L6.89546 25.9866L10.2475 24.9653C10.4279 24.9103 10.6179 24.8943 10.805 24.9182C10.9921 24.9421 11.172 25.0054 11.3328 25.104C12.7386 25.9623 14.3241 26.4833 15.965 26.6263C17.6059 26.7694 19.2576 26.5304 20.7907 25.9283C22.3238 25.3261 23.6966 24.3771 24.8015 23.1556C25.9065 21.9341 26.7136 20.4733 27.1595 18.8877C27.6054 17.3021 27.678 15.6347 27.3717 14.0164C27.0654 12.398 26.3885 10.8725 25.394 9.55953C24.3995 8.24655 23.1144 7.18172 21.6395 6.44849C20.1646 5.71526 18.5399 5.33356 16.8928 5.3333Z" fill="#7F8C8D"/>
</svg>
