<svg width="40" height="40" viewBox="0 0 40 40" fill="none" xmlns="http://www.w3.org/2000/svg">
<g clip-path="url(#clip0_2123_2661)">
<path d="M40.7101 20.6541C40.4632 20.9098 40.1267 21.0597 39.7715 21.0722L33.4461 21.0735C33.2405 22.1569 32.7951 23.1805 32.1426 24.0693C31.49 24.9582 30.6469 25.6898 29.6749 26.2104C28.9281 24.9531 27.9166 23.8733 26.7107 23.0461C25.5047 22.2189 24.1331 21.6641 22.6912 21.4201L22.6899 15.0456C22.6898 14.6875 22.7602 14.3329 22.8971 14.0021C23.0341 13.6713 23.2349 13.3707 23.4881 13.1175C23.7413 12.8643 24.0419 12.6635 24.3727 12.5266C24.7035 12.3896 25.0581 12.3192 25.4161 12.3193H26.1921C27.9119 12.3195 29.5777 12.92 30.902 14.0172C32.2264 15.1144 33.1261 16.6394 33.4461 18.3292L39.7715 18.3305C40.1267 18.343 40.4632 18.493 40.7101 18.7487C40.9569 19.0044 41.0949 19.3459 41.0949 19.7014C41.0949 20.0568 40.9569 20.3983 40.7101 20.6541Z" fill="#BDBDBD"/>
<path d="M19.3468 21.4201L19.3481 15.0456C19.3482 14.6875 19.2778 14.3329 19.1408 14.0021C19.0039 13.6713 18.8031 13.3707 18.5499 13.1175C18.2967 12.8643 17.9961 12.6635 17.6653 12.5266C17.3345 12.3896 16.9799 12.3192 16.6218 12.3193L15.8459 12.3193C14.1261 12.3198 12.4605 12.9207 11.1364 14.0181C9.81231 15.1155 8.91283 16.6407 8.59317 18.3305L2.26645 18.3305C1.91125 18.343 1.57478 18.493 1.32792 18.7487C1.08107 19.0044 0.943115 19.3459 0.943115 19.7014C0.943115 20.0568 1.08107 20.3983 1.32792 20.6541C1.57478 20.9098 1.91125 21.0597 2.26645 21.0722L8.59188 21.0735C8.79747 22.1569 9.24286 23.1805 9.8954 24.0693C10.5479 24.9582 11.3911 25.6898 12.3631 26.2104C13.1099 24.9531 14.1214 23.8733 15.3273 23.0461C16.5333 22.2189 17.9049 21.6641 19.3468 21.4201Z" fill="#BDBDBD"/>
<path fill-rule="evenodd" clip-rule="evenodd" d="M16.4457 38.1843C17.3444 38.7849 18.3526 39.2026 19.4127 39.4135C21.5537 39.8395 23.7763 39.3976 25.5914 38.1849C27.4066 36.9722 28.6656 35.0881 29.0916 32.9471C29.5176 30.8061 29.0757 28.5836 27.863 26.7684C26.6503 24.9533 24.7662 23.6942 22.6252 23.2682C21.5651 23.0573 20.4738 23.0572 19.4137 23.268C18.3536 23.4789 17.3453 23.8964 16.4466 24.4969C15.5478 25.0973 14.7761 25.8689 14.1755 26.7676C13.575 27.6663 13.1573 28.6745 12.9464 29.7346C12.7354 30.7947 12.7353 31.886 12.9462 32.9462C13.157 34.0063 13.5745 35.0145 14.175 35.9133C14.7754 36.8121 15.547 37.5838 16.4457 38.1843ZM21.9413 30.0588H25.0896C26.3034 30.0588 26.3034 31.9415 25.0896 31.9415H21.9413V35.0897C21.9413 36.3037 20.0585 36.3037 20.0585 35.0897V31.9415H16.9102C15.6965 31.9415 15.6965 30.0588 16.9102 30.0588H20.0585V26.9107C20.0585 25.6967 21.9413 25.6967 21.9413 26.9107V30.0588Z" fill="#BDBDBD"/>
</g>
<defs>
<clipPath id="clip0_2123_2661">
<rect width="40" height="40" fill="white"/>
</clipPath>
</defs>
</svg>
