<svg width="75" height="75" viewBox="0 0 75 75" fill="none"
	xmlns="http://www.w3.org/2000/svg">
	<path d="M74.466 20.5554V54.7244C74.466 65.6374 65.6172 74.4791 54.7043 74.4791H45.5174C43.6363 74.4791 42.1145 72.9573 42.1145 71.0763V67.0464C42.1145 65.4824 43.1572 64.0875 44.6719 63.7C48.3354 62.763 51.8439 61.0862 54.972 58.6768C61.8622 53.3647 65.0959 46.5027 65.7159 38.5981C66.0118 34.85 63.1726 31.6304 59.4879 31.3768V30.0311C59.4879 28.298 58.7834 26.727 57.6491 25.5856C56.5008 24.4373 54.9015 23.7328 53.1473 23.7469C49.674 23.7821 46.9194 26.7199 46.9194 30.1932V31.3627H43.6997V24.4373C43.6997 22.7042 42.9952 21.1331 41.8609 19.9918C40.7126 18.8434 39.1133 18.1389 37.3591 18.153C33.8858 18.1882 31.1311 21.1261 31.1311 24.5993V31.3697H28.2074V30.0311C28.2074 28.298 27.5029 26.727 26.3686 25.5856C25.2202 24.4373 23.621 23.7328 21.8667 23.7469C18.3935 23.7821 15.6388 26.7199 15.6388 30.1932V31.3838C12.0105 31.6797 9.21362 34.8641 9.53065 38.5558C10.3197 47.7075 14.265 55.1894 22.4867 60.269C25.5654 62.1712 28.8978 63.4464 32.3077 64.0945C33.9069 64.3975 35.0623 65.7994 35.0623 67.4339V71.0904C35.0623 72.9714 33.5406 74.4932 31.6595 74.4932H20.5352C9.62224 74.4932 0.780552 65.6445 0.780552 54.7385V20.5695C0.773507 9.64243 9.62224 0.793701 20.5352 0.793701H54.7043C65.6172 0.793701 74.466 9.64243 74.466 20.5554Z" fill="white"/>
	<path d="M21.9161 22.1758C24.1417 22.1758 25.9459 20.3715 25.9459 18.1459C25.9459 15.9203 24.1417 14.1161 21.9161 14.1161C19.6904 14.1161 17.8862 15.9203 17.8862 18.1459C17.8862 20.3715 19.6904 22.1758 21.9161 22.1758Z" fill="#D8B831"/>
	<path d="M37.5916 16.0676C39.8172 16.0676 41.6214 14.2634 41.6214 12.0378C41.6214 9.81215 39.8172 8.00793 37.5916 8.00793C35.3659 8.00793 33.5617 9.81215 33.5617 12.0378C33.5617 14.2634 35.3659 16.0676 37.5916 16.0676Z" fill="#D8B831"/>
	<path d="M53.4079 22.1758C55.6336 22.1758 57.4378 20.3715 57.4378 18.1459C57.4378 15.9203 55.6336 14.1161 53.4079 14.1161C51.1823 14.1161 49.3781 15.9203 49.3781 18.1459C49.3781 20.3715 51.1823 22.1758 53.4079 22.1758Z" fill="#D8B831"/>
	<path d="M21.3877 37.0552C27.8763 37.0552 47.4336 37.0552 53.8588 37.0552C55.0424 37.0552 56.0287 37.9992 56.0569 39.1828C56.233 45.9814 53.8588 51.7937 47.5534 55.9151C42.0018 59.5433 35.0341 59.8111 29.1514 56.7394C22.0288 53.0125 19.1402 46.8902 19.1896 39.2392C19.1896 38.0345 20.1829 37.0552 21.3877 37.0552ZM47.3843 43.9665H27.8833C27.2845 43.9665 26.8618 44.5724 27.0731 45.1289C28.6371 49.1517 33.1038 52.0825 37.7606 52.0262C42.34 51.9698 46.7573 48.9826 48.1945 45.1148C48.4059 44.5583 47.9761 43.9665 47.3843 43.9665Z" fill="white"/>
</svg>
