<svg width="38" height="35" viewBox="0 0 38 35" fill="none" xmlns="http://www.w3.org/2000/svg">
<path d="M32.9937 10.8486V26.1483C32.9937 31.0347 29.0315 34.9937 24.1451 34.9937H20.0315C19.1893 34.9937 18.5079 34.3123 18.5079 33.47V31.6656C18.5079 30.9653 18.9748 30.3407 19.653 30.1672C21.2934 29.7476 22.8644 28.9968 24.265 27.918C27.3502 25.5394 28.7981 22.4669 29.0757 18.9274C29.2082 17.2492 27.9369 15.8076 26.2871 15.694V15.0915C26.2871 14.3155 25.9716 13.612 25.4637 13.1009C24.9495 12.5868 24.2334 12.2713 23.448 12.2776C21.8927 12.2934 20.6593 13.6088 20.6593 15.164V15.6877H19.2177V12.5868C19.2177 11.8107 18.9022 11.1073 18.3943 10.5962C17.8801 10.082 17.164 9.76656 16.3786 9.77287C14.8233 9.78864 13.5899 11.1041 13.5899 12.6593V15.6909H12.2808V15.0915C12.2808 14.3155 11.9653 13.612 11.4574 13.1009C10.9432 12.5868 10.2271 12.2713 9.44164 12.2776C7.88644 12.2934 6.653 13.6088 6.653 15.164V15.6972C5.02839 15.8297 3.77603 17.2555 3.91798 18.9085C4.2713 23.0063 6.03786 26.3565 9.71924 28.6309C11.0978 29.4826 12.5899 30.0536 14.1167 30.3438C14.8328 30.4795 15.3502 31.1073 15.3502 31.8391V33.4763C15.3502 34.3186 14.6688 35 13.8265 35H8.84543C3.95899 35 1.8824e-06 31.0379 1.8824e-06 26.1546V10.8549C-0.00315269 5.96214 3.95899 2 8.84543 2H24.1451C29.0315 2 32.9937 5.96214 32.9937 10.8486Z" fill="#000BFF"/>
<path d="M9.46419 11.5749C10.4609 11.5749 11.2689 10.7668 11.2689 9.77009C11.2689 8.77335 10.4609 7.96533 9.46419 7.96533C8.46744 7.96533 7.65942 8.77335 7.65942 9.77009C7.65942 10.7668 8.46744 11.5749 9.46419 11.5749Z" fill="#D8B831"/>
<path d="M16.483 8.83999C17.4797 8.83999 18.2877 8.03197 18.2877 7.03523C18.2877 6.03849 17.4797 5.23047 16.483 5.23047C15.4862 5.23047 14.6782 6.03849 14.6782 7.03523C14.6782 8.03197 15.4862 8.83999 16.483 8.83999Z" fill="#D8B831"/>
<path d="M23.565 11.5749C24.5618 11.5749 25.3698 10.7668 25.3698 9.77009C25.3698 8.77335 24.5618 7.96533 23.565 7.96533C22.5683 7.96533 21.7603 8.77335 21.7603 9.77009C21.7603 10.7668 22.5683 11.5749 23.565 11.5749Z" fill="#D8B831"/>
<path d="M9.22718 18.2368C12.1325 18.2368 20.8896 18.2368 23.7666 18.2368C24.2966 18.2368 24.7382 18.6595 24.7508 19.1895C24.8297 22.2337 23.7666 24.8362 20.9433 26.6816C18.4575 28.3062 15.3376 28.4261 12.7035 27.0507C9.51425 25.3819 8.22087 22.6406 8.24295 19.2147C8.24295 18.6753 8.68775 18.2368 9.22718 18.2368ZM20.8676 21.3315H12.1357C11.8676 21.3315 11.6783 21.6027 11.7729 21.852C12.4732 23.6532 14.4732 24.9655 16.5584 24.9403C18.6089 24.915 20.5868 23.5775 21.2303 21.8456C21.325 21.5964 21.1325 21.3315 20.8676 21.3315Z" fill="#000BFF"/>
<circle cx="32" cy="6" r="5.5" fill="#FF3F3F" stroke="white"/>
</svg>
