<svg width="150" height="180" viewBox="0 0 150 180" fill="none" xmlns="http://www.w3.org/2000/svg">
<path d="M20.2882 149.432H8.83823V161.352H1.19823V120.852C7.56823 120.852 13.9282 120.792 20.2882 120.792C40.0782 120.792 40.1382 149.432 20.2882 149.432ZM8.83823 142.432H20.2982C30.0782 142.432 30.0182 128.082 20.2982 128.082H8.83823V142.432Z" fill="white" stroke="white" stroke-miterlimit="10"/>
<path d="M46.7882 120.912V161.362H39.7882V120.912H46.7882Z" fill="white" stroke="white" stroke-miterlimit="10"/>
<path d="M60.2082 132.832V147.762C60.2082 152.102 62.5782 155.402 67.0982 155.402C71.4382 155.402 74.3882 151.752 74.3882 147.422V132.832H81.3882V161.412H75.0782L74.6182 157.532C71.6682 160.422 68.9482 161.812 64.9582 161.812C58.1282 161.812 53.1582 156.662 53.1582 147.812V132.832H60.2082Z" fill="white" stroke="white" stroke-miterlimit="10"/>
<path d="M94.6982 120.852V136.702C97.2482 133.402 100.368 132.422 103.608 132.422C111.708 132.422 115.298 137.922 115.298 146.312V161.352H108.238V146.362C108.238 141.152 105.518 138.952 101.758 138.952C97.5882 138.952 94.6982 142.482 94.6982 146.762V161.342H87.6382V120.842H94.6982V120.852Z" fill="white" stroke="white" stroke-miterlimit="10"/>
<path d="M143.638 129.932L148.848 133.862L145.668 137.912C147.868 140.402 148.678 143.232 148.678 146.362C148.678 149.892 147.348 154.872 142.658 157.012C147.398 159.382 148.558 162.802 148.558 166.442C148.558 174.312 142.538 179.172 134.268 179.172C125.998 179.172 119.808 174.142 119.808 166.442H126.808C126.808 170.142 130.218 172.572 134.268 172.572C138.318 172.572 141.498 170.372 141.498 166.442C141.498 162.512 137.798 160.712 134.268 160.712C125.358 160.712 119.808 155.272 119.808 146.362C119.808 137.452 126.288 131.902 134.268 131.902C136.528 131.902 138.838 132.192 140.808 133.522L143.638 129.932ZM126.808 146.372C126.808 151.352 130.168 154.302 134.268 154.302C138.318 154.302 141.678 151.292 141.678 146.372C141.678 141.452 138.318 138.332 134.268 138.332C130.158 138.322 126.808 141.392 126.808 146.372Z" fill="white" stroke="white" stroke-miterlimit="10"/>
<path d="M126.918 28.5821V77.0821C126.918 92.5721 114.358 105.122 98.8682 105.122H85.8282C83.1582 105.122 80.9982 102.962 80.9982 100.292V94.5721C80.9982 92.3521 82.4782 90.3721 84.6282 89.8221C89.8282 88.4921 94.8082 86.1121 99.2482 82.6921C109.028 75.1521 113.618 65.4121 114.498 54.1921C114.918 48.8721 110.888 44.3021 105.658 43.9421V42.0321C105.658 39.5721 104.658 37.3421 103.048 35.7221C101.418 34.0921 99.1482 33.0921 96.6582 33.1121C91.7282 33.1621 87.8182 37.3321 87.8182 42.2621V43.9221H83.2482V34.0921C83.2482 31.6321 82.2482 29.4021 80.6382 27.7821C79.0082 26.1521 76.7382 25.1521 74.2482 25.1721C69.3182 25.2221 65.4082 29.3921 65.4082 34.3221V43.9321H61.2582V42.0321C61.2582 39.5721 60.2582 37.3421 58.6482 35.7221C57.0182 34.0921 54.7482 33.0921 52.2582 33.1121C47.3282 33.1621 43.4182 37.3321 43.4182 42.2621V43.9521C38.2682 44.3721 34.2982 48.8921 34.7482 54.1321C35.8682 67.1221 41.4682 77.7421 53.1382 84.9521C57.5082 87.6521 62.2382 89.4621 67.0782 90.3821C69.3482 90.8121 70.9882 92.8021 70.9882 95.1221V100.312C70.9882 102.982 68.8282 105.142 66.1582 105.142H50.3682C34.8782 105.142 22.3282 92.5821 22.3282 77.1021V28.6021C22.3182 13.0921 34.8782 0.53212 50.3682 0.53212H98.8682C114.358 0.53212 126.918 13.0921 126.918 28.5821Z" fill="white"/>
<path d="M52.3282 30.8821C55.4873 30.8821 58.0482 28.3212 58.0482 25.1621C58.0482 22.0031 55.4873 19.4421 52.3282 19.4421C49.1692 19.4421 46.6082 22.0031 46.6082 25.1621C46.6082 28.3212 49.1692 30.8821 52.3282 30.8821Z" fill="#D8B831"/>
<path d="M74.5782 22.2121C77.7373 22.2121 80.2982 19.6512 80.2982 16.4921C80.2982 13.3331 77.7373 10.7721 74.5782 10.7721C71.4192 10.7721 68.8582 13.3331 68.8582 16.4921C68.8582 19.6512 71.4192 22.2121 74.5782 22.2121Z" fill="#D8B831"/>
<path d="M97.0282 30.8821C100.187 30.8821 102.748 28.3212 102.748 25.1621C102.748 22.0031 100.187 19.4421 97.0282 19.4421C93.8692 19.4421 91.3082 22.0031 91.3082 25.1621C91.3082 28.3212 93.8692 30.8821 97.0282 30.8821Z" fill="#D8B831"/>
<path d="M51.5782 52.0021C60.7882 52.0021 88.5482 52.0021 97.6682 52.0021C99.3482 52.0021 100.748 53.3421 100.788 55.0221C101.038 64.6721 97.6682 72.9221 88.7182 78.7721C80.8382 83.9221 70.9482 84.3021 62.5982 79.9421C52.4882 74.6521 48.3882 65.9621 48.4582 55.1021C48.4582 53.3921 49.8682 52.0021 51.5782 52.0021ZM88.4782 61.8121H60.7982C59.9482 61.8121 59.3482 62.6721 59.6482 63.4621C61.8682 69.1721 68.2082 73.3321 74.8182 73.2521C81.3182 73.1721 87.5882 68.9321 89.6282 63.4421C89.9282 62.6521 89.3182 61.8121 88.4782 61.8121Z" fill="white"/>
</svg>
