<svg width="33" height="33" viewBox="0 0 33 33" fill="none" xmlns="http://www.w3.org/2000/svg">
<path d="M32.9937 8.84858V24.1483C32.9937 29.0347 29.0315 32.9937 24.1451 32.9937H20.0315C19.1893 32.9937 18.5079 32.3123 18.5079 31.47V29.6656C18.5079 28.9653 18.9748 28.3407 19.653 28.1672C21.2934 27.7476 22.8644 26.9968 24.265 25.918C27.3502 23.5394 28.7981 20.4669 29.0757 16.9274C29.2082 15.2492 27.9369 13.8076 26.2871 13.694V13.0915C26.2871 12.3155 25.9716 11.612 25.4637 11.1009C24.9495 10.5868 24.2334 10.2713 23.448 10.2776C21.8927 10.2934 20.6593 11.6088 20.6593 13.164V13.6877H19.2177V10.5868C19.2177 9.81073 18.9022 9.10725 18.3943 8.59621C17.8801 8.08202 17.164 7.76656 16.3786 7.77287C14.8233 7.78864 13.5899 9.1041 13.5899 10.6593V13.6909H12.2808V13.0915C12.2808 12.3155 11.9653 11.612 11.4574 11.1009C10.9432 10.5868 10.2271 10.2713 9.44164 10.2776C7.88644 10.2934 6.653 11.6088 6.653 13.164V13.6972C5.02839 13.8297 3.77603 15.2555 3.91798 16.9085C4.2713 21.0063 6.03786 24.3565 9.71924 26.6309C11.0978 27.4826 12.5899 28.0536 14.1167 28.3438C14.8328 28.4795 15.3502 29.1073 15.3502 29.8391V31.4763C15.3502 32.3186 14.6688 33 13.8265 33H8.84543C3.95899 33 1.8824e-06 29.0379 1.8824e-06 24.1546V8.85489C-0.00315269 3.96214 3.95899 0 8.84543 0H24.1451C29.0315 0 32.9937 3.96214 32.9937 8.84858Z" fill="#E0E0E0"/>
<path d="M9.46419 9.57485C10.4609 9.57485 11.2689 8.76684 11.2689 7.77009C11.2689 6.77335 10.4609 5.96533 9.46419 5.96533C8.46744 5.96533 7.65942 6.77335 7.65942 7.77009C7.65942 8.76684 8.46744 9.57485 9.46419 9.57485Z" fill="white"/>
<path d="M16.483 6.83999C17.4797 6.83999 18.2877 6.03197 18.2877 5.03523C18.2877 4.03849 17.4797 3.23047 16.483 3.23047C15.4862 3.23047 14.6782 4.03849 14.6782 5.03523C14.6782 6.03197 15.4862 6.83999 16.483 6.83999Z" fill="white"/>
<path d="M23.565 9.57485C24.5618 9.57485 25.3698 8.76684 25.3698 7.77009C25.3698 6.77335 24.5618 5.96533 23.565 5.96533C22.5683 5.96533 21.7603 6.77335 21.7603 7.77009C21.7603 8.76684 22.5683 9.57485 23.565 9.57485Z" fill="white"/>
<path d="M9.22718 16.2368C12.1325 16.2368 20.8896 16.2368 23.7666 16.2368C24.2966 16.2368 24.7382 16.6595 24.7508 17.1895C24.8297 20.2337 23.7666 22.8362 20.9433 24.6816C18.4575 26.3062 15.3376 26.4261 12.7035 25.0507C9.51425 23.3819 8.22087 20.6406 8.24295 17.2147C8.24295 16.6753 8.68775 16.2368 9.22718 16.2368ZM20.8676 19.3315H12.1357C11.8676 19.3315 11.6783 19.6027 11.7729 19.852C12.4732 21.6532 14.4732 22.9655 16.5584 22.9403C18.6089 22.915 20.5868 21.5775 21.2303 19.8456C21.325 19.5964 21.1325 19.3315 20.8676 19.3315Z" fill="#E0E0E0"/>
</svg>
