<svg width="38" height="38" viewBox="0 0 38 38" fill="none" xmlns="http://www.w3.org/2000/svg">
<rect width="38" height="38" rx="10" fill="#2238FF"/>
<path d="M20.8187 13.3186C21.0829 13.0671 21.4344 12.9281 21.799 12.9309C22.1637 12.9336 22.513 13.0779 22.7733 13.3334C23.0336 13.5888 23.1845 13.9354 23.1941 14.2999C23.2038 14.6645 23.0714 15.0185 22.825 15.2873L15.3437 24.6436C15.2151 24.7821 15.0598 24.8933 14.8872 24.9705C14.7146 25.0477 14.5282 25.0893 14.3392 25.0928C14.1502 25.0963 13.9624 25.0616 13.787 24.9909C13.6117 24.9202 13.4524 24.8148 13.3187 24.6811L8.35749 19.7198C8.21933 19.5911 8.10851 19.4358 8.03165 19.2633C7.95479 19.0908 7.91346 18.9046 7.91013 18.7158C7.9068 18.527 7.94153 18.3394 8.01226 18.1643C8.08299 17.9892 8.18826 17.8302 8.32179 17.6966C8.45533 17.5631 8.61439 17.4578 8.78949 17.3871C8.9646 17.3164 9.15215 17.2816 9.34097 17.285C9.52979 17.2883 9.716 17.3296 9.8885 17.4065C10.061 17.4834 10.2162 17.5942 10.345 17.7323L14.2712 21.6567L20.7812 13.3598C20.7929 13.3454 20.8054 13.3316 20.8187 13.3186ZM19.0937 22.9561L20.8187 24.6811C20.9524 24.8145 21.1116 24.9196 21.2867 24.9902C21.4619 25.0608 21.6495 25.0953 21.8383 25.0918C22.0271 25.0883 22.2132 25.0468 22.3857 24.9698C22.5581 24.8928 22.7132 24.7819 22.8419 24.6436L30.3269 15.2873C30.4613 15.1546 30.5677 14.9961 30.6395 14.8214C30.7113 14.6466 30.7472 14.4592 30.745 14.2702C30.7428 14.0813 30.7026 13.8947 30.6267 13.7217C30.5508 13.5487 30.4408 13.3927 30.3033 13.2631C30.1657 13.1336 30.0035 13.033 29.8263 12.9675C29.6491 12.9021 29.4604 12.873 29.2717 12.882C29.083 12.891 28.898 12.938 28.7278 13.0201C28.5577 13.1022 28.4058 13.2177 28.2812 13.3598L21.7694 21.6567L20.86 20.7455L19.0919 22.9561H19.0937Z" fill="white"/>
</svg>
