<svg width="38" height="38" viewBox="0 0 38 38" fill="none" xmlns="http://www.w3.org/2000/svg">
<rect width="38" height="38" rx="10" fill="#F55353"/>
<path d="M19 8.75C19.8301 8.74995 20.6288 9.06755 21.2322 9.63767C21.8356 10.2078 22.198 10.9872 22.245 11.816L22.25 12H27.5C27.69 12.0001 27.8729 12.0722 28.0118 12.202C28.1506 12.3317 28.2351 12.5093 28.248 12.6989C28.261 12.8885 28.2015 13.0759 28.0816 13.2233C27.9617 13.3707 27.7902 13.4671 27.602 13.493L27.5 13.5H26.704L25.424 26.52C25.3599 27.1691 25.0671 27.7743 24.598 28.2275C24.1289 28.6806 23.5139 28.9523 22.863 28.994L22.687 29H15.313C14.6605 29 14.0292 28.7679 13.532 28.3453C13.0348 27.9227 12.7041 27.337 12.599 26.693L12.576 26.519L11.295 13.5H10.5C10.3188 13.5 10.1437 13.4344 10.0071 13.3152C9.87048 13.1961 9.78165 13.0316 9.757 12.852L9.75 12.75C9.75001 12.5688 9.81564 12.3937 9.93477 12.2571C10.0539 12.1205 10.2184 12.0316 10.398 12.007L10.5 12H15.75C15.75 11.138 16.0924 10.3114 16.7019 9.7019C17.3114 9.09241 18.138 8.75 19 8.75ZM25.197 13.5H12.802L14.069 26.372C14.0971 26.6592 14.2236 26.9279 14.4272 27.1324C14.6308 27.3369 14.8989 27.4647 15.186 27.494L15.313 27.5H22.687C23.287 27.5 23.796 27.075 23.912 26.498L23.932 26.372L25.196 13.5H25.197ZM20.75 16.25C20.9312 16.25 21.1063 16.3156 21.2429 16.4348C21.3795 16.5539 21.4684 16.7184 21.493 16.898L21.5 17V24C21.4999 24.19 21.4278 24.3729 21.298 24.5118C21.1683 24.6506 20.9907 24.7351 20.8011 24.748C20.6115 24.761 20.4241 24.7015 20.2767 24.5816C20.1293 24.4617 20.0329 24.2902 20.007 24.102L20 24V17C20 16.8011 20.079 16.6103 20.2197 16.4697C20.3603 16.329 20.5511 16.25 20.75 16.25ZM17.25 16.25C17.4312 16.25 17.6063 16.3156 17.7429 16.4348C17.8795 16.5539 17.9684 16.7184 17.993 16.898L18 17V24C17.9999 24.19 17.9278 24.3729 17.798 24.5118C17.6683 24.6506 17.4907 24.7351 17.3011 24.748C17.1115 24.761 16.9241 24.7015 16.7767 24.5816C16.6293 24.4617 16.5329 24.2902 16.507 24.102L16.5 24V17C16.5 16.8011 16.579 16.6103 16.7197 16.4697C16.8603 16.329 17.0511 16.25 17.25 16.25ZM19 10.25C18.5608 10.25 18.1377 10.4152 17.8146 10.7127C17.4915 11.0102 17.2921 11.4183 17.256 11.856L17.25 12H20.75C20.75 11.5359 20.5656 11.0908 20.2374 10.7626C19.9092 10.4344 19.4641 10.25 19 10.25Z" fill="white"/>
</svg>
