<svg width="374" height="392" viewBox="0 0 374 392" fill="none" xmlns="http://www.w3.org/2000/svg">
<path d="M298.08 383.554C308.924 379.378 314.33 367.202 310.155 356.357C305.979 345.512 293.802 340.106 282.957 344.282C272.113 348.458 266.707 360.635 270.883 371.479C275.059 382.324 287.235 387.73 298.08 383.554Z" fill="#EBEBEB"/>
<path d="M19.8876 205.683C20.6844 200.791 17.3643 196.179 12.4721 195.383C7.57995 194.586 2.96814 197.906 2.17139 202.798C1.37465 207.69 4.69468 212.302 9.58688 213.099C14.4791 213.896 19.0909 210.576 19.8876 205.683Z" fill="#EBEBEB"/>
<path d="M365.025 214.5C369.982 214.5 374 210.482 374 205.526C374 200.569 369.982 196.551 365.025 196.551C360.069 196.551 356.05 200.569 356.05 205.526C356.05 210.482 360.069 214.5 365.025 214.5Z" fill="#EBEBEB"/>
<path d="M16.0349 204.671L16.0046 206.388L146.484 208.688L146.514 206.971L16.0349 204.671Z" fill="#EBEBEB"/>
<path d="M192.447 210.873L191.005 211.806L289.763 364.462L291.205 363.529L192.447 210.873Z" fill="#EBEBEB"/>
<path d="M106.052 141L105 142.358L161.204 185.906L162.256 184.548L106.052 141Z" fill="#EBEBEB"/>
<path d="M365.025 204.667H201.443V206.385H365.025V204.667Z" fill="#EBEBEB"/>
<path d="M368.615 154.829L365.566 157.852L363.849 159.569C355.664 151.625 345.925 147.391 334.511 147.383C323.097 147.374 313.358 151.608 305.113 159.604C304.572 159.037 304.031 158.453 303.473 157.886C302.476 156.873 301.474 155.865 300.467 154.863C300.44 154.838 300.408 154.82 300.372 154.812V154.734L300.595 154.554C301.884 153.412 303.129 152.235 304.452 151.119C310.469 146.265 317.58 142.951 325.167 141.465C327.116 141.113 329.1 140.924 331.067 140.684C331.737 140.598 336.1 140.589 336.22 140.598C337.56 140.701 338.908 140.752 340.248 140.898C343.949 141.317 347.585 142.182 351.078 143.475C353.612 144.411 356.063 145.56 358.404 146.91C360.882 148.319 363.223 149.958 365.394 151.806C366.494 152.742 367.542 153.729 368.615 154.7V154.829Z" fill="#EBEBEB"/>
<path d="M314.775 169.154L309.983 164.379C315.247 159.027 322.135 155.569 329.573 154.545C340.961 153.008 350.743 156.469 359.031 164.319L354.195 169.128C348.97 163.907 341.885 160.975 334.498 160.975C327.111 160.975 320.026 163.907 314.801 169.128L314.775 169.154Z" fill="#EBEBEB"/>
<path d="M349.36 173.963L344.568 178.747C343.245 177.417 341.673 176.362 339.941 175.641C338.209 174.921 336.352 174.55 334.476 174.55C332.601 174.55 330.744 174.921 329.012 175.641C327.28 176.362 325.708 177.417 324.385 178.747L319.601 173.963C321.547 171.995 323.864 170.432 326.418 169.365C328.972 168.299 331.713 167.75 334.481 167.75C337.249 167.75 339.989 168.299 342.543 169.365C345.097 170.432 347.414 171.995 349.36 173.963Z" fill="#EBEBEB"/>
<path d="M338.805 183.102C338.805 183.951 338.553 184.781 338.081 185.487C337.609 186.194 336.939 186.744 336.154 187.069C335.369 187.394 334.506 187.479 333.673 187.313C332.84 187.148 332.075 186.739 331.474 186.138C330.874 185.538 330.465 184.773 330.299 183.94C330.133 183.107 330.219 182.243 330.544 181.458C330.869 180.674 331.419 180.003 332.125 179.531C332.831 179.059 333.662 178.808 334.511 178.808C335.65 178.808 336.742 179.26 337.547 180.065C338.353 180.871 338.805 181.963 338.805 183.102Z" fill="#EBEBEB"/>
<path d="M10.2495 258.275C10.2485 260.196 10.9739 262.046 12.2801 263.454C13.5863 264.862 15.3766 265.724 17.292 265.867H60.3882C62.6987 265.888 64.9275 265.013 66.6072 263.426C68.287 261.84 69.2872 259.664 69.3983 257.357C69.5093 255.049 68.7226 252.787 67.203 251.047C65.6833 249.306 63.5489 248.222 61.2471 248.02C61.1381 244.524 59.8155 241.174 57.5063 238.546C55.1971 235.918 52.0453 234.176 48.5917 233.618C45.1382 233.061 41.5982 233.723 38.5792 235.49C35.5603 237.258 33.2507 240.021 32.0467 243.305C30.8059 242.679 29.4345 242.356 28.0446 242.361C25.7686 242.361 23.5783 243.229 21.9203 244.788C20.2622 246.347 19.2612 248.48 19.1213 250.751C18.7127 250.682 18.299 250.648 17.8846 250.648C16.8817 250.645 15.888 250.84 14.9607 251.222C14.0334 251.604 13.1908 252.165 12.4812 252.874C11.7717 253.583 11.2093 254.425 10.8263 255.352C10.4433 256.279 10.2473 257.272 10.2495 258.275Z" fill="#EBEBEB"/>
<path d="M182.781 43.4721C186.087 43.4721 188.767 40.7921 188.767 37.4861C188.767 34.1801 186.087 31.5 182.781 31.5C179.475 31.5 176.795 34.1801 176.795 37.4861C176.795 40.7921 179.475 43.4721 182.781 43.4721Z" fill="#EBEBEB"/>
<path d="M167.158 50.7545C167.158 51.9435 166.806 53.1059 166.145 54.0945C165.485 55.0832 164.546 55.8537 163.447 56.3087C162.349 56.7637 161.14 56.8828 159.974 56.6508C158.808 56.4189 157.736 55.8463 156.896 55.0055C156.055 54.1648 155.482 53.0935 155.25 51.9274C155.018 50.7612 155.137 49.5524 155.592 48.4539C156.047 47.3554 156.818 46.4164 157.807 45.7559C158.795 45.0953 159.958 44.7427 161.147 44.7427C162.741 44.7427 164.27 45.3761 165.398 46.5035C166.525 47.6309 167.158 49.1601 167.158 50.7545Z" fill="#EBEBEB"/>
<path d="M188.767 64.0323C188.767 65.2214 188.414 66.3837 187.754 67.3723C187.093 68.361 186.154 69.1315 185.056 69.5866C183.957 70.0416 182.748 70.1606 181.582 69.9287C180.416 69.6967 179.345 69.1241 178.504 68.2834C177.663 67.4426 177.091 66.3714 176.859 65.2052C176.627 64.039 176.746 62.8302 177.201 61.7317C177.656 60.6332 178.426 59.6943 179.415 59.0337C180.404 58.3731 181.566 58.0205 182.755 58.0205C184.349 58.0205 185.879 58.6539 187.006 59.7813C188.133 60.9088 188.767 62.4379 188.767 64.0323Z" fill="#EBEBEB"/>
<path d="M182.317 65.4321L159.558 50.7375L182.334 36.7471L183.236 38.2157L162.778 50.7718L183.253 63.9893L182.317 65.4321Z" fill="#EBEBEB"/>
<path d="M222.047 344.545C211.698 344.545 203.307 350.746 203.307 358.381C203.321 360.525 203.969 362.617 205.17 364.393L202.628 370.044L209.087 368.395C212.901 370.965 217.413 372.302 222.012 372.225C232.361 372.225 240.743 366.033 240.743 358.381C240.743 350.729 232.395 344.545 222.047 344.545ZM213.355 360.33C212.969 360.332 212.591 360.219 212.27 360.006C211.948 359.793 211.697 359.489 211.548 359.133C211.399 358.777 211.359 358.384 211.433 358.006C211.508 357.627 211.693 357.279 211.965 357.005C212.237 356.732 212.585 356.545 212.963 356.469C213.341 356.393 213.734 356.431 214.091 356.579C214.447 356.726 214.752 356.976 214.967 357.297C215.182 357.618 215.296 357.995 215.296 358.381C215.296 358.896 215.092 359.391 214.728 359.756C214.364 360.122 213.871 360.328 213.355 360.33ZM222.047 360.33C221.661 360.332 221.283 360.219 220.961 360.006C220.639 359.793 220.388 359.489 220.239 359.133C220.09 358.777 220.051 358.384 220.125 358.006C220.199 357.627 220.384 357.279 220.656 357.005C220.929 356.732 221.276 356.545 221.654 356.469C222.033 356.393 222.425 356.431 222.782 356.579C223.139 356.726 223.444 356.976 223.658 357.297C223.873 357.618 223.987 357.995 223.987 358.381C223.989 358.636 223.939 358.89 223.842 359.126C223.745 359.363 223.602 359.578 223.422 359.759C223.242 359.94 223.027 360.084 222.791 360.182C222.555 360.28 222.302 360.33 222.047 360.33ZM230.729 360.33C230.343 360.332 229.966 360.219 229.644 360.006C229.322 359.793 229.071 359.489 228.922 359.133C228.773 358.777 228.733 358.384 228.808 358.006C228.882 357.627 229.067 357.279 229.339 357.005C229.611 356.732 229.959 356.545 230.337 356.469C230.716 356.393 231.108 356.431 231.465 356.579C231.822 356.726 232.127 356.976 232.341 357.297C232.556 357.618 232.67 357.995 232.67 358.381C232.67 358.896 232.466 359.391 232.102 359.756C231.739 360.122 231.245 360.328 230.729 360.33Z" fill="#EBEBEB"/>
<path d="M291.198 86.1994C312.077 86.1994 329.003 69.2734 329.003 48.3941C329.003 27.5149 312.077 10.5889 291.198 10.5889C270.318 10.5889 253.392 27.5149 253.392 48.3941C253.392 69.2734 270.318 86.1994 291.198 86.1994Z" fill="white"/>
<path d="M291.198 86.5201C283.659 86.5125 276.291 84.27 270.027 80.076C263.762 75.8821 258.881 69.925 256.001 62.9578C253.122 55.9905 252.372 48.3259 253.848 40.9328C255.323 33.5397 258.957 26.7499 264.291 21.4218C269.624 16.0936 276.418 12.4663 283.812 10.9983C291.207 9.53036 298.871 10.2876 305.835 13.1744C312.799 16.0612 318.751 20.9479 322.939 27.2168C327.127 33.4857 329.362 40.8554 329.362 48.3943C329.35 58.5089 325.324 68.2052 318.168 75.3537C311.013 82.5022 301.312 86.5184 291.198 86.5201ZM291.198 10.8839C283.786 10.8915 276.544 13.0958 270.385 17.2181C264.227 21.3405 259.428 27.196 256.596 34.0446C253.764 40.8932 253.026 48.4276 254.474 55.6957C255.923 62.9638 259.494 69.6394 264.735 74.8789C269.976 80.1184 276.653 83.6867 283.922 85.1328C291.19 86.579 298.724 85.8381 305.572 83.0037C312.42 80.1694 318.273 75.3689 322.394 69.2087C326.514 63.0486 328.716 55.8054 328.721 48.3943C328.709 38.4497 324.751 28.9164 317.715 21.8881C310.68 14.8598 301.142 10.9112 291.198 10.9095V10.8839Z" fill="#EBEBEB"/>
<path d="M291.198 91.7377C282.624 91.7377 274.242 89.1951 267.113 84.4315C259.984 79.6679 254.428 72.8972 251.147 64.9757C247.866 57.0541 247.008 48.3376 248.681 39.9284C250.354 31.5192 254.484 23.795 260.547 17.7327C266.61 11.6704 274.335 7.54222 282.744 5.87028C291.154 4.19834 299.87 5.05772 307.791 8.33975C315.712 11.6218 322.482 17.179 327.245 24.3087C332.007 31.4384 334.549 39.8203 334.547 48.3943C334.534 59.8866 329.962 70.9043 321.835 79.03C313.708 87.1557 302.69 91.7258 291.198 91.7377ZM291.198 6.32648C282.877 6.32648 274.744 8.79372 267.826 13.4162C260.908 18.0387 255.516 24.6088 252.332 32.2956C249.148 39.9825 248.315 48.441 249.938 56.6013C251.561 64.7617 255.568 72.2575 261.451 78.1407C267.334 84.024 274.83 88.0306 282.991 89.6538C291.151 91.277 299.609 90.4439 307.296 87.2599C314.983 84.0759 321.553 78.684 326.176 71.7659C330.798 64.8479 333.265 56.7145 333.265 48.3943C333.254 37.2409 328.818 26.5477 320.931 18.661C313.044 10.7743 302.351 6.33836 291.198 6.32648Z" fill="#EBEBEB"/>
<path d="M278.801 2.23698C278.801 2.23698 285.32 -3.08319 294.294 2.68567C303.267 8.45453 301.517 32.3504 300.011 35.9656C300.011 35.9656 282.705 43.3882 267.847 36.2028C267.847 36.2028 276.775 18.9859 275.814 10.5634C275.256 5.68548 278.801 2.23698 278.801 2.23698Z" fill="#EBEBEB"/>
<path d="M274.878 17.0245L274.711 17.5052C273.95 19.5081 273.01 21.4388 271.904 23.2741C270.898 25.0514 269.642 26.6747 268.173 28.0943C268.135 28.1327 268.071 28.0943 268.109 28.0366C269.541 26.5272 270.719 24.7954 271.596 22.9087C272.521 21.0999 273.343 19.2402 274.058 17.3385C275.53 13.4462 276.51 9.38505 276.974 5.24957C276.974 5.16624 277.122 5.17265 277.122 5.24957C277.122 5.82646 277.064 6.40334 277.019 6.97382C277.03 6.96816 277.043 6.96597 277.056 6.9675C277.068 6.96904 277.08 6.97424 277.089 6.98246C277.099 6.99067 277.106 7.00153 277.109 7.01368C277.113 7.02583 277.113 7.03872 277.109 7.05074C276.855 10.8796 276.21 14.6725 275.186 18.3705C274.055 22.0089 272.442 25.4796 270.391 28.6904C269.26 30.5006 268.021 32.2409 266.68 33.9016C266.68 33.9016 266.622 33.9016 266.641 33.8631C270.33 28.7626 273.116 23.0671 274.878 17.0245Z" fill="#EBEBEB"/>
<path d="M292.448 1.68608C300.659 7.12804 302.703 17.3133 302.338 26.2743C302.246 29.0355 301.886 31.7812 301.261 34.4724C301.258 34.4808 301.252 34.4879 301.245 34.4929C301.237 34.498 301.228 34.5007 301.219 34.5007C301.21 34.5007 301.202 34.498 301.194 34.4929C301.187 34.4879 301.181 34.4808 301.178 34.4724C301.962 29.7571 302.054 24.9527 301.453 20.2105C300.87 15.7685 299.825 11.1598 297.434 7.24983C296.164 5.09704 294.441 3.2466 292.383 1.8271C292.307 1.75659 292.371 1.63481 292.448 1.68608Z" fill="#EBEBEB"/>
<path d="M288.339 42.1255C282.397 57.3489 263.437 75.1041 257.008 75.6874C249.508 76.3605 233.971 67.752 226.471 57.3232C224.696 54.849 240.573 43.0869 243.271 44.9266C248.784 48.702 255.322 53.8298 256.213 53.9004C257.982 54.035 269.776 44.8048 279.186 38.209C290.864 30.0044 290.678 36.0553 288.339 42.1255Z" fill="white"/>
<path d="M228.727 60.0862C228.727 60.0862 221.856 52.9905 221.125 46.3114C220.625 41.6835 221.125 29.4215 232.221 21.1208C234.855 19.1465 240.015 18.2107 236.874 22.9924C234.644 26.3896 232.201 27.8703 231.266 30.0817C231.266 30.0817 237.964 29.6715 239.836 32.3893C241.471 34.7742 242.936 37.2717 244.22 39.8631C243.8 40.2071 243.359 40.524 242.899 40.8118C242.899 40.8118 244.406 43.5168 243.361 48.1062L228.727 60.0862Z" fill="white"/>
<path d="M245.149 16.3642L252.771 40.5742C252.855 40.7068 252.902 40.8595 252.908 41.0165C252.914 41.1735 252.878 41.3292 252.803 41.4676C252.729 41.606 252.619 41.7221 252.485 41.8039C252.351 41.8857 252.197 41.9303 252.04 41.9331L239.355 42.6702C238.967 42.662 238.589 42.5446 238.265 42.3314C237.941 42.1183 237.683 41.8181 237.522 41.4652L229.9 17.2488C229.815 17.1153 229.767 16.9612 229.762 16.8027C229.756 16.6442 229.794 16.4872 229.871 16.3485C229.948 16.2099 230.061 16.0946 230.198 16.015C230.336 15.9353 230.492 15.8943 230.65 15.8963L243.329 15.1592C243.715 15.1675 244.091 15.2852 244.413 15.4984C244.736 15.7117 244.991 16.0119 245.149 16.3642Z" fill="#EBEBEB"/>
<path d="M243.643 16.4345L251.264 40.6509C251.35 40.7839 251.398 40.9375 251.403 41.0954C251.408 41.2534 251.371 41.4098 251.295 41.5483C251.219 41.6868 251.107 41.8022 250.97 41.8823C250.834 41.9624 250.679 42.0042 250.521 42.0034L237.836 42.7405C237.447 42.7346 237.068 42.6181 236.744 42.4047C236.419 42.1913 236.162 41.8898 236.002 41.5355L228.394 17.3255C228.086 16.614 228.394 16.0115 229.125 15.9666L241.803 15.2295C242.192 15.2373 242.571 15.3544 242.896 15.5676C243.222 15.7807 243.48 16.0812 243.643 16.4345Z" fill="#EBEBEB"/>
<path d="M240.265 17.7618C240.282 17.9741 240.362 18.1765 240.494 18.3434C240.626 18.5104 240.805 18.6344 241.008 18.6998C241.21 18.7652 241.428 18.7691 241.633 18.7109C241.838 18.6526 242.021 18.535 242.159 18.3728C242.297 18.2106 242.383 18.0112 242.408 17.7996C242.433 17.5881 242.394 17.374 242.297 17.1844C242.2 16.9949 242.049 16.8383 241.863 16.7346C241.677 16.6308 241.464 16.5845 241.252 16.6016C241.111 16.6121 240.973 16.6506 240.847 16.7147C240.72 16.7789 240.608 16.8675 240.516 16.9754C240.424 17.0834 240.355 17.2084 240.312 17.3434C240.269 17.4784 240.253 17.6206 240.265 17.7618Z" fill="#EBEBEB"/>
<path d="M221.805 39.7347C223.202 37.7349 226.227 33.5492 229.894 30.9853C233.971 28.1393 242.579 23.755 244.637 26.7804C246.149 29.0047 243.008 30.9661 243.008 30.9661C243.008 30.9661 246.951 29.902 247.886 32.2096C248.739 34.312 246.213 35.6837 246.213 35.6837C246.213 35.6837 248.72 35.453 249.149 37.6067C249.662 40.2347 244.335 40.2924 242.56 43.3755C242.188 44.1255 221.805 39.7347 221.805 39.7347Z" fill="white"/>
<path d="M232.189 35.7929C233.804 34.1263 238.451 31.306 242.938 30.9214C243.04 30.9214 243.098 30.9855 243.008 31.0111C239.229 32.1753 235.604 33.7939 232.214 35.8313L232.189 35.7929Z" fill="#EBEBEB"/>
<path d="M235.182 39.8237C236.727 38.5417 241.649 35.8175 246.2 35.5996C246.303 35.5996 246.361 35.6701 246.271 35.6958C242.435 36.6607 238.721 38.0585 235.201 39.8622C235.201 39.8622 235.137 39.8622 235.182 39.8237Z" fill="#EBEBEB"/>
<path d="M243.47 42.3506C243.47 43.8249 243.431 45.2542 243.297 46.6772C243.233 47.3887 243.124 48.0874 242.989 48.7925C242.838 49.4997 242.645 50.1974 242.412 50.8821C243.309 49.6758 243.837 48.2352 243.931 46.7349C243.999 45.9972 243.999 45.2548 243.931 44.5171C243.865 43.779 243.71 43.0516 243.47 42.3506Z" fill="#EBEBEB"/>
<path d="M280.256 57.8804L268.545 44.8043C268.545 44.8043 277.859 36.8176 284.608 33.7986C291.358 30.7795 292.3 35.1318 289.339 41.6955C286.377 48.2592 280.256 57.8804 280.256 57.8804Z" fill="#EBEBEB"/>
<path opacity="0.1" d="M271.673 48.2659L280.275 57.8807C280.275 57.8807 286.39 48.2659 289.358 41.6958C291.582 36.7602 291.608 33.0746 288.608 32.8374L271.673 48.2659Z" fill="#EBEBEB"/>
<path d="M271.898 42.8179C273.878 44.6768 279.102 49.8688 282.032 53.7596C282.032 53.7596 281.961 53.8621 281.942 53.8429C279 51.0225 273.609 44.9717 271.769 42.9461C271.737 42.9013 271.859 42.7795 271.898 42.8179Z" fill="#EBEBEB"/>
<path d="M315.594 77.2706C309.275 82.6056 301.382 85.7225 293.123 86.1439C284.864 86.5653 276.695 84.268 269.866 79.6037C271.673 70.2133 277.192 39.5102 283.211 33.3759C285.621 30.921 290.185 31.0428 292.903 31.9594C295.018 32.6773 298.569 33.7413 305.671 47.6571C308.998 54.1887 312.959 67.4955 315.594 77.2706Z" fill="#EBEBEB"/>
<path d="M284.384 40.6829C287.268 41.029 291.601 36.196 293.108 32.5039C293.21 32.2475 292.556 29.7797 291.909 26.735C291.524 24.889 291.14 22.825 290.922 20.9149C290.877 20.5239 279.275 25.1839 279.275 25.1839C280.239 27.4939 280.915 29.9136 281.288 32.3885C281.31 32.653 281.31 32.9189 281.288 33.1833C281.288 33.1833 281.288 33.2603 281.288 33.3115C281.198 34.8307 281.602 40.3496 284.384 40.6829Z" fill="white"/>
<path d="M290.191 21.0566C289.999 24.3449 288.877 32.37 282.499 33.2354C282.092 33.2954 281.68 33.319 281.269 33.3059C281.262 33.2634 281.262 33.2202 281.269 33.1777C281.291 32.9132 281.291 32.6473 281.269 32.3828C280.901 29.909 280.231 27.4894 279.275 25.1782C279.275 25.1782 287.647 21.8258 290.191 21.0566Z" fill="white"/>
<path d="M292.422 8.01878C293.704 12.3006 291.371 24.6331 288.32 27.3637C283.89 31.3314 276.673 31.6711 273.314 26.3573C270.058 21.2295 273.372 5.20486 276.782 2.70502C281.801 -0.948594 290.531 1.69867 292.422 8.01878Z" fill="white"/>
<path d="M282.846 12.8972C282.486 12.7903 282.133 12.664 281.788 12.519C281.398 12.4396 281.046 12.232 280.788 11.9293C280.725 11.819 280.699 11.691 280.715 11.5649C280.732 11.4388 280.789 11.3214 280.878 11.2306C281.084 11.0813 281.326 10.9896 281.58 10.9648C281.833 10.94 282.089 10.9831 282.32 11.0896C282.824 11.2329 283.256 11.5599 283.531 12.0062C283.578 12.1115 283.595 12.2272 283.581 12.3414C283.567 12.4555 283.523 12.5638 283.452 12.6549C283.382 12.746 283.289 12.8165 283.182 12.8592C283.075 12.9018 282.959 12.9149 282.846 12.8972Z" fill="#EBEBEB"/>
<path d="M274.173 11.4798C274.546 11.4714 274.918 11.4436 275.288 11.3964C275.687 11.4221 276.084 11.3163 276.416 11.0952C276.506 11.005 276.564 10.8875 276.58 10.7611C276.597 10.6347 276.571 10.5065 276.506 10.3965C276.347 10.1973 276.138 10.0441 275.901 9.95286C275.663 9.86158 275.405 9.83549 275.154 9.8773C274.633 9.88165 274.132 10.0805 273.75 10.435C273.677 10.524 273.628 10.6313 273.611 10.7454C273.593 10.8596 273.607 10.9763 273.65 11.0833C273.694 11.1904 273.765 11.2837 273.857 11.3535C273.949 11.4233 274.058 11.4669 274.173 11.4798Z" fill="#EBEBEB"/>
<path d="M280.269 23.4728C280.054 23.6777 279.776 23.8041 279.48 23.8317C279.174 23.7669 278.884 23.6405 278.628 23.46C278.628 23.46 278.57 23.46 278.583 23.46C278.673 23.6441 278.811 23.8007 278.983 23.9135C279.154 24.0262 279.352 24.0909 279.557 24.1009C279.738 24.0846 279.909 24.0149 280.049 23.9007C280.19 23.7865 280.293 23.6331 280.346 23.46C280.365 23.4792 280.307 23.4471 280.269 23.4728Z" fill="#EBEBEB"/>
<path d="M279.852 20.8189C279.582 21.1112 279.254 21.3438 278.888 21.5017C278.523 21.6595 278.129 21.7392 277.73 21.7355C277.384 21.7395 277.038 21.6919 276.705 21.5945C276.639 21.5829 276.574 21.5636 276.513 21.5368L276.333 21.4791C276.291 21.4614 276.256 21.4306 276.233 21.3914C276.21 21.3521 276.2 21.3064 276.205 21.2611C276.202 21.2334 276.202 21.2055 276.205 21.1778V21.1073C276.307 20.4663 276.545 19.4984 276.545 19.4984C276.288 19.5754 275 19.8958 275.077 19.5625C275.68 16.6919 276.571 13.8894 277.737 11.1977C277.743 11.1781 277.756 11.1617 277.774 11.1521C277.792 11.1425 277.813 11.1405 277.833 11.1464C277.853 11.1524 277.869 11.1658 277.879 11.1839C277.888 11.2019 277.89 11.223 277.884 11.2426C277.346 13.9026 276.346 16.4473 275.756 19.1074C276.216 18.9856 276.691 18.9317 277.166 18.9472C277.256 18.9856 276.673 20.7932 276.654 21.0881C276.65 21.0984 276.65 21.1098 276.654 21.1201C277.169 21.268 277.708 21.3108 278.24 21.2458C278.772 21.1808 279.285 21.0095 279.75 20.7419C279.859 20.6971 279.91 20.7612 279.852 20.8189Z" fill="#EBEBEB"/>
<path d="M277.141 21.3456C277.41 21.8644 277.807 22.3058 278.295 22.6276C278.566 22.7994 278.885 22.8782 279.205 22.8519C279.897 22.8007 280.025 22.2109 280 21.6533C279.984 21.3639 279.932 21.0775 279.846 20.8008C279.025 21.2662 278.078 21.4571 277.141 21.3456Z" fill="#EBEBEB"/>
<path d="M273.942 14.2559C274.037 14.0585 274.18 13.8886 274.359 13.7623C274.461 13.701 274.574 13.6608 274.692 13.6443C274.81 13.6278 274.93 13.6352 275.045 13.6661C275.162 13.6998 275.27 13.7609 275.359 13.8445C275.448 13.9281 275.516 14.0318 275.558 14.1469C275.63 14.3522 275.652 14.5722 275.622 14.7879C275.604 14.9138 275.576 15.0381 275.538 15.1596C275.473 15.4175 275.346 15.6553 275.167 15.8519C275.23 15.6715 275.273 15.4844 275.295 15.2942C275.318 15.1222 275.329 14.9487 275.327 14.7751C275.327 14.4225 275.199 14.102 274.936 14.0443C274.673 13.9866 274.404 14.1212 274.205 14.4161C274.007 14.7259 273.839 15.0544 273.705 15.3968C273.693 15.0031 273.774 14.6122 273.942 14.2559Z" fill="#EBEBEB"/>
<path d="M280.339 15.5759C280.4 15.3684 280.518 15.182 280.679 15.0374C280.772 14.9603 280.879 14.9033 280.995 14.8702C281.111 14.8371 281.233 14.8286 281.352 14.8452C281.472 14.8661 281.586 14.9139 281.684 14.985C281.783 15.056 281.865 15.1484 281.923 15.2554C282.023 15.454 282.073 15.6739 282.07 15.8964C282.069 16.0252 282.058 16.1537 282.038 16.281C282.007 16.5432 281.912 16.794 281.762 17.0117C281.801 16.8241 281.819 16.6327 281.814 16.4412C281.815 16.2692 281.8 16.0975 281.769 15.9284C281.711 15.5759 281.557 15.2874 281.288 15.249C281.019 15.2105 280.769 15.4028 280.615 15.7169C280.456 16.051 280.333 16.4013 280.25 16.7617C280.182 16.365 280.213 15.9579 280.339 15.5759Z" fill="#EBEBEB"/>
<path d="M289.986 19.5119C289.345 18.871 288.704 14.6725 288.704 14.6725C288.704 14.6725 281.07 11.1663 280.532 4.0578C280.532 4.0578 276.859 8.49983 273.532 9.23696C273.532 9.23696 274.071 1.63488 280.827 1.00672C280.827 1.00672 287.236 -1.33929 292.448 5.20516C297.659 11.7496 292.005 19.7747 292.005 19.7747L289.986 19.5119Z" fill="#EBEBEB"/>
<path d="M280.782 2.73049C280.474 3.89814 280.487 5.12723 280.82 6.28795C281.086 7.44641 281.518 8.5604 282.102 9.59543C282.676 10.6665 283.418 11.6383 284.301 12.4735C285.379 13.3452 286.58 14.0535 287.865 14.5759C287.903 14.5759 287.865 14.6592 287.832 14.6464C286.484 14.1448 285.207 13.4658 284.038 12.6273C283.071 11.807 282.25 10.8297 281.609 9.73645C280.897 8.67589 280.419 7.4765 280.205 6.21744C280.074 5.02178 280.225 3.81212 280.647 2.68562C280.679 2.6087 280.814 2.64716 280.782 2.73049Z" fill="#EBEBEB"/>
<path d="M289.076 17.9219C289.076 17.9219 291.967 14.0055 293.749 15.0439C295.531 16.0823 293.287 21.8191 291.14 22.5562C290.871 22.6697 290.582 22.7276 290.291 22.7264C289.999 22.7252 289.711 22.6651 289.443 22.5495C289.175 22.4339 288.934 22.2653 288.733 22.0538C288.532 21.8424 288.376 21.5924 288.275 21.3191L289.076 17.9219Z" fill="#EBEBEB"/>
<path d="M293.069 16.6714V16.7291C291.563 17.2931 290.742 18.652 290.159 20.075C290.25 19.9284 290.371 19.8032 290.515 19.7078C290.659 19.6124 290.821 19.5492 290.992 19.5224C291.162 19.4957 291.336 19.506 291.502 19.5527C291.668 19.5994 291.822 19.6813 291.954 19.793C291.963 19.7996 291.969 19.8092 291.971 19.8199C291.973 19.8307 291.971 19.8418 291.965 19.8513C291.96 19.8607 291.951 19.8678 291.941 19.8712C291.93 19.8747 291.919 19.8742 291.909 19.8699C291.649 19.7808 291.368 19.7742 291.104 19.8511C290.84 19.928 290.606 20.0845 290.435 20.2994C290.149 20.6602 289.904 21.0514 289.704 21.466C289.627 21.5942 289.39 21.5172 289.441 21.3698V21.3313C289.473 19.434 291.018 16.7868 293.069 16.6714Z" fill="#EBEBEB"/>
<path d="M278.884 25.0687C279.143 25.1989 279.43 25.2597 279.719 25.2451C280.008 25.2305 280.288 25.141 280.532 24.9854C280.657 25.4792 280.581 26.0025 280.32 26.4404L280.288 25.9276C280.236 26.4983 280.042 27.047 279.724 27.5236C279.475 27.2332 279.315 26.8771 279.262 26.4981L279.295 27.1391C279.074 26.8473 278.923 26.5094 278.852 26.1509C278.781 25.7923 278.792 25.4224 278.884 25.0687Z" fill="#EBEBEB"/>
<path d="M298.973 45.9649C295.729 65.8354 287.647 78.6872 283.865 79.2961C273.686 80.9755 256.482 64.3355 251.348 60.4255C249.271 58.8487 266.199 44.683 268.199 46.6251C272.917 51.1889 279.256 58.3616 279.589 58.4385C280.23 58.5987 282.653 54.0862 290.781 41.3242C297.357 31.0172 300.293 37.8501 298.973 45.9649Z" fill="#EBEBEB"/>
<path d="M241.925 27.5112C240.515 29.6521 246.091 32.6391 246.091 32.6391C244.987 32.6453 243.921 33.0402 243.079 33.7544C241.649 35.0812 243.079 37.9016 243.079 37.9016C241.935 38.1477 240.892 38.733 240.085 39.5809C238.842 40.9847 239.9 44.0678 239.9 44.0678C238.988 44.8872 238.387 45.997 238.201 47.2087C237.56 52.625 249.386 60.3809 253.232 61.8744L268.75 47.8561C268.75 47.8561 262.981 34.9851 258.302 31.6584C255.719 29.8188 244.072 24.2358 241.925 27.5112Z" fill="white"/>
<path d="M246.181 32.6385C249.521 33.6448 252.591 35.4524 255.578 37.2279C255.591 37.2364 255.6 37.2496 255.603 37.2647C255.606 37.2797 255.603 37.2953 255.594 37.308C255.586 37.3208 255.572 37.3296 255.557 37.3327C255.542 37.3357 255.527 37.3326 255.514 37.3241C252.585 35.5293 249.104 34.4717 246.111 32.7923C246.034 32.7474 246.085 32.6128 246.181 32.6385Z" fill="#EBEBEB"/>
<path d="M243.316 37.7662C244.058 38.0644 244.757 38.4611 245.393 38.9456C246.089 39.4114 246.782 39.8921 247.47 40.3878C248.841 41.3685 250.194 42.3813 251.508 43.4389C251.566 43.4838 251.508 43.5863 251.444 43.5414C250.081 42.5586 248.696 41.6057 247.29 40.6827L245.162 39.3238C244.457 38.9363 243.797 38.472 243.194 37.9392C243.185 37.9198 243.181 37.8983 243.183 37.8768C243.185 37.8554 243.193 37.8349 243.205 37.8173C243.217 37.7997 243.234 37.7858 243.254 37.7768C243.273 37.7678 243.295 37.7641 243.316 37.7662Z" fill="#EBEBEB"/>
<path d="M239.977 44.1124C240.64 44.3938 241.25 44.7886 241.778 45.279C242.419 45.7405 243.015 46.1956 243.637 46.6507C244.874 47.5609 246.117 48.4647 247.386 49.33C247.45 49.3749 247.386 49.4774 247.322 49.4326C246.04 48.5608 244.72 47.7083 243.432 46.8238L241.541 45.5418C240.93 45.1949 240.386 44.7436 239.932 44.2085C239.919 44.2026 239.909 44.1918 239.904 44.1786C239.9 44.1654 239.9 44.1508 239.906 44.138C239.912 44.1253 239.923 44.1154 239.936 44.1106C239.949 44.1058 239.964 44.1064 239.977 44.1124Z" fill="#EBEBEB"/>
<path d="M264.975 71.437C262.911 69.9756 260.892 68.4628 258.892 66.9501C257.892 66.1809 256.911 65.3925 255.937 64.5849C254.963 63.7772 254.014 62.9504 253.085 62.0722L253.149 62.1107C251.215 61.1843 249.339 60.1397 247.534 58.9827C245.724 57.8407 244.009 56.5545 242.406 55.1368C240.722 53.7398 239.368 51.989 238.438 50.0089C237.998 48.9657 237.85 47.8224 238.009 46.7014C238.094 46.1252 238.307 45.5752 238.63 45.0908C238.954 44.6065 239.381 44.1999 239.88 43.9003L239.733 44.2721C239.493 43.5938 239.342 42.887 239.284 42.1696C239.21 41.4288 239.325 40.6813 239.618 39.9967C239.777 39.6587 239.994 39.3508 240.259 39.0865C240.514 38.8174 240.805 38.5845 241.124 38.3942C241.755 38.0021 242.477 37.7812 243.22 37.7533L243.008 38.1571C242.646 37.565 242.39 36.9143 242.252 36.2341C242.091 35.5304 242.206 34.792 242.572 34.1702C242.971 33.5807 243.545 33.1321 244.213 32.8882C244.849 32.6475 245.521 32.5132 246.2 32.4908L246.124 32.8241C245.376 32.4191 244.661 31.9585 243.983 31.446C243.291 30.943 242.679 30.3379 242.169 29.6512C241.909 29.2992 241.743 28.8866 241.688 28.4526C241.667 28.2342 241.692 28.0139 241.76 27.8054C241.829 27.597 241.939 27.4049 242.085 27.2411C242.398 26.9494 242.773 26.7331 243.181 26.6087C243.59 26.4842 244.022 26.455 244.444 26.5232C244.031 26.4753 243.612 26.5214 243.219 26.6579C242.827 26.7944 242.47 27.0179 242.175 27.3116C242.046 27.4657 241.949 27.6449 241.892 27.8378C241.834 28.0308 241.817 28.2335 241.842 28.4333C241.913 28.8358 242.083 29.2145 242.335 29.5358C242.839 30.1748 243.438 30.7325 244.111 31.1896C244.793 31.6642 245.506 32.0925 246.245 32.4715L246.816 32.7664L246.175 32.8049C245.541 32.8413 244.918 32.9798 244.329 33.2151C243.749 33.4355 243.252 33.8295 242.906 34.3432C242.615 34.8759 242.537 35.4989 242.688 36.0867C242.829 36.6956 243.071 37.2764 243.406 37.8045L243.643 38.1763H243.188C242.545 38.2245 241.922 38.4267 241.374 38.766C241.1 38.9321 240.85 39.1348 240.63 39.3685C240.409 39.5942 240.225 39.8539 240.085 40.1377C239.835 40.7457 239.744 41.4078 239.823 42.0607C239.88 42.7173 240.022 43.3636 240.246 43.9836L240.335 44.2208L240.105 44.3554C239.693 44.6064 239.344 44.9485 239.086 45.3553C238.828 45.7775 238.653 46.2454 238.573 46.7335C238.442 47.7401 238.586 48.7632 238.989 49.6948C239.881 51.5905 241.171 53.2718 242.771 54.624C244.35 56.0413 246.041 57.3275 247.829 58.4699C249.609 59.6333 251.449 60.703 253.341 61.6748H253.379C255.155 63.4375 257.104 65.0528 259.039 66.6553C260.975 68.2577 262.994 69.873 264.975 71.437Z" fill="#EBEBEB"/>
<path d="M268.199 46.6377C268.84 47.1697 269.481 47.7402 270.09 48.3235C270.699 48.9068 271.295 49.4965 271.885 50.099C272.474 50.7015 273.045 51.3169 273.603 51.9515C274.16 52.586 274.712 53.2334 275.224 53.8744C274.583 53.336 273.942 52.7655 273.34 52.1886C272.737 51.6117 272.128 51.0156 271.539 50.4131C270.949 49.8106 270.378 49.1952 269.821 48.5606C269.263 47.9261 268.712 47.3107 268.199 46.6377Z" fill="#EBEBEB"/>
<path d="M296.979 62.0857L281.359 54.067C281.359 54.067 287.198 43.2792 292.416 38.0424C297.633 32.8056 300.107 36.5297 299.659 43.7215C299.21 50.9134 296.979 62.0857 296.979 62.0857Z" fill="#EBEBEB"/>
<path d="M284.147 51.0349C286.666 52.0668 293.409 55.0667 297.524 57.6242C297.524 57.6242 297.524 57.746 297.473 57.7331C293.723 56.1563 286.486 52.445 284.076 51.1887C284.031 51.1695 284.102 51.0156 284.147 51.0349Z" fill="#EBEBEB"/>
<path d="M273.226 89L244 125.755L245.003 126.553L274.23 89.7979L273.226 89Z" fill="#EBEBEB"/>
<path d="M113.956 115.175C119.997 90.2628 104.698 65.1708 79.7864 59.1301C54.8744 53.0895 29.7824 68.3877 23.7418 93.2997C17.7011 118.212 32.9993 143.304 57.9113 149.344C82.8232 155.385 107.915 140.087 113.956 115.175Z" fill="white"/>
<path d="M68.8511 151.06C59.5906 151.065 50.5366 148.323 42.8346 143.181C35.1325 138.039 29.1284 130.729 25.5816 122.174C22.0349 113.62 21.1049 104.206 22.9092 95.1226C24.7136 86.0395 29.1713 77.6956 35.7184 71.1463C42.2655 64.5969 50.6079 60.1365 59.6904 58.329C68.7729 56.5216 78.1874 57.4485 86.7431 60.9924C95.2987 64.5362 102.611 70.5379 107.755 78.2382C112.9 85.9386 115.645 94.9916 115.643 104.252C115.626 116.658 110.692 128.552 101.921 137.326C93.1495 146.1 81.2575 151.039 68.8511 151.06ZM68.8511 58.1999C59.7476 58.1953 50.847 60.8902 43.2751 65.944C35.7031 70.9978 29.7998 78.1835 26.3117 86.5923C22.8236 95.0012 21.9073 104.256 23.6788 113.185C25.4502 122.115 29.8298 130.318 36.2637 136.759C42.6976 143.199 50.8969 147.587 59.8247 149.368C68.7524 151.149 78.0077 150.242 86.4201 146.762C94.8325 143.283 102.024 137.387 107.086 129.82C112.147 122.254 114.851 113.356 114.856 104.252C114.842 92.0532 109.991 80.3576 101.367 71.7294C92.7432 63.1012 81.0501 58.2444 68.8511 58.2235V58.1999Z" fill="#EBEBEB"/>
<path d="M68.8512 157.465C58.3243 157.466 48.0334 154.346 39.28 148.498C30.5266 142.651 23.7039 134.339 19.6747 124.614C15.6455 114.889 14.5909 104.187 16.6442 93.8623C18.6975 83.5376 23.7665 74.0538 31.2101 66.6102C38.6537 59.1666 48.1376 54.0976 58.4623 52.0442C68.7869 49.9909 79.4886 51.0456 89.2138 55.0747C98.9391 59.1039 107.251 65.9266 113.098 74.68C118.946 83.4334 122.066 93.7243 122.065 104.251C122.046 118.359 116.433 131.883 106.458 141.858C96.4827 151.833 82.9585 157.446 68.8512 157.465ZM68.8512 52.6038C58.6359 52.6022 48.6497 55.6299 40.1552 61.3041C31.6608 66.9782 25.0398 75.0439 21.1296 84.4811C17.2193 93.9183 16.1954 104.303 18.1873 114.322C20.1792 124.341 25.0976 133.545 32.3203 140.769C39.543 147.992 48.7456 152.912 58.7645 154.906C68.7833 156.899 79.1683 155.877 88.6061 151.968C98.0439 148.059 106.111 141.439 111.786 132.946C117.461 124.452 120.491 114.466 120.491 104.251C120.476 90.5593 115.031 77.4322 105.35 67.7498C95.6693 58.0674 82.5431 52.6204 68.8512 52.6038Z" fill="#EBEBEB"/>
<path d="M45.9588 44.2473C45.9588 44.2473 53.6158 35.9057 63.5786 38.9827C76.0045 42.8151 76.4452 76.5516 77.901 82.7449C79.3569 88.9381 84.7003 90.5278 78.6407 96.1859C72.5812 101.844 64.0192 103.733 55.2684 103.568C46.5175 103.402 39.8914 99.7115 38.5221 95.8397C37.7352 93.4788 39.5609 91.1652 39.8521 87.1832C40.0409 84.8696 34.1309 45.7268 45.9588 44.2473Z" fill="#EBEBEB"/>
<path d="M37.8532 91.0547C37.9162 88.387 38.593 85.8294 38.5143 83.1223C38.4356 80.4152 37.7273 65.0225 37.4755 62.3547C36.783 55.6106 37.2788 45.1678 45.9824 44.4517C46.0114 44.4589 46.0372 44.4755 46.0556 44.4991C46.074 44.5226 46.084 44.5516 46.084 44.5815C46.084 44.6114 46.074 44.6404 46.0556 44.6639C46.0372 44.6875 46.0114 44.7042 45.9824 44.7114C35.2799 46.7259 38.0028 61.859 38.8999 76.8975C39.1282 80.6248 39.0176 84.365 38.5694 88.0722C37.9083 92.7939 38.53 96.8309 42.3152 100.073C42.333 100.088 42.3442 100.109 42.3464 100.132C42.3486 100.155 42.3417 100.177 42.327 100.195C42.3124 100.213 42.2914 100.224 42.2685 100.226C42.2456 100.229 42.2228 100.222 42.2051 100.207C40.8182 99.1247 39.7028 97.7339 38.9474 96.1452C38.192 94.5565 37.8173 92.8136 37.8532 91.0547Z" fill="#EBEBEB"/>
<path d="M47.6586 43.9564C52.034 40.1869 57.2594 36.9604 63.2952 38.6051C68.5206 40.0216 71.9989 44.6568 73.8167 49.4335C76.3586 56.1147 76.4766 76.355 79.2624 82.9575C80.2461 85.3184 82.5283 87.6792 82.481 90.3706C82.4338 92.7314 80.6002 93.5971 78.5463 94.1715C78.4361 94.1715 78.3653 94.0456 78.4833 94.0142C83.4805 92.4403 81.8672 89.0092 80.0572 85.7433C78.8304 83.4695 77.8944 81.0503 77.2714 78.5428C75.9887 73.5299 75.3277 55.4458 73.6594 50.5274C72.0382 45.7506 69.0636 41.0368 64.035 39.1953C57.7394 36.8975 52.4354 40.2971 47.6901 44.0429C47.6664 44.0902 47.6035 44.0036 47.6586 43.9564Z" fill="#EBEBEB"/>
<path d="M46.6198 44.1762C44.4636 45.8682 37.8296 45.0497 35.3114 41.595C31.8331 36.834 37.8768 28.8071 43.897 31.5614C49.9171 34.3158 48.2882 42.8699 46.6198 44.1762Z" fill="#EBEBEB"/>
<path d="M36.5941 33.1353C35.3028 34.5724 34.3841 36.3045 33.9185 38.1796C33.7053 39.0613 33.7684 39.9872 34.0992 40.8318C34.43 41.6764 35.0125 42.3989 35.7678 42.9013C36.5347 43.4458 37.371 43.8851 38.2546 44.2076C39.1347 44.5727 40.0534 44.8367 40.9931 44.9946C42.9052 45.2966 44.864 45.0227 46.6198 44.2076C44.9509 45.3822 42.9123 45.9108 40.883 45.6949C39.8706 45.6067 38.8737 45.3898 37.9162 45.0497C36.9438 44.7129 36.0224 44.2442 35.1776 43.6568C34.2995 43.0319 33.6259 42.1612 33.2417 41.1543C32.8971 40.1365 32.8751 39.0372 33.1787 38.0065C33.7876 36.0694 34.9805 34.3679 36.5941 33.1353Z" fill="#EBEBEB"/>
<path d="M14.1739 148.675C14.1925 148.524 14.2188 148.374 14.2526 148.226C14.2097 148.41 14.1782 148.597 14.1582 148.785C14.1661 148.745 14.1661 148.714 14.1739 148.675Z" fill="#EBEBEB"/>
<path d="M39.1995 153.145C39.1161 153.196 39.0291 153.241 38.9392 153.279V153.216L39.2074 153.161L39.1995 153.145Z" fill="#EBEBEB"/>
<path d="M49.5394 86.4827C33.8791 102.363 14.1739 135.754 17.8489 142.521C21.9411 150.06 43.7474 127.805 43.6609 126.507C43.5979 125.523 51.2706 105.259 57.0862 90.4883C62.9017 75.7173 53.4269 82.5637 49.5394 86.4827Z" fill="#EBEBEB"/>
<path d="M43.8261 126.53C44.4871 124.366 54.9299 97.618 57.9125 89.1583C60.895 80.6986 58.1328 78.086 49.6102 85.8295C41.0875 93.5731 22.4054 119.456 18.1322 133.196C14.0244 146.425 20.8315 146.425 29.8184 140.326C37.2 135.329 43.8261 126.53 43.8261 126.53Z" fill="#EBEBEB"/>
<path d="M94.2538 142.631C85.6937 147.802 75.8472 150.45 65.8482 150.27C55.8492 150.091 46.1042 147.091 37.7352 141.616L37.8533 140.916L40.0961 124.272C40.0961 124.272 34.8078 115.025 37.8847 108.399C39.4586 105.047 53.0335 84.1452 58.7703 79.998C64.1373 76.0632 71.9281 80.2734 74.832 83.3268C85.0623 94.1237 90.3506 114.702 94.2538 142.631Z" fill="#EBEBEB"/>
<path d="M37.8296 140.916C38.1024 138.13 38.404 135.347 38.7346 132.567C39.0729 129.789 39.3641 127.003 39.7419 124.233L39.8048 124.485C38.2235 122.193 37.1749 119.577 36.7357 116.828C36.518 115.457 36.4573 114.065 36.5547 112.68C36.7091 111.297 37.0533 109.941 37.5778 108.651C38.6175 106.118 39.9177 103.699 41.4574 101.435C42.9455 99.1583 44.5779 96.9792 46.3444 94.9111C44.7705 97.1067 43.2595 99.381 41.8587 101.687C40.4452 103.983 39.234 106.397 38.2388 108.903C37.7518 110.134 37.4367 111.426 37.3023 112.743C37.2325 114.058 37.2985 115.377 37.4991 116.678C37.8941 119.312 38.8698 121.826 40.3557 124.036L40.4422 124.162V124.296C40.0724 127.066 39.6553 129.804 39.2067 132.598C38.7582 135.392 38.3096 138.193 37.8296 140.916Z" fill="#EBEBEB"/>
<path d="M41.8037 101.474C41.8186 101.1 41.8821 100.73 41.9926 100.373C42.0985 100.014 42.2246 99.6621 42.3703 99.3181C42.5277 98.9797 42.6851 98.6491 42.874 98.3265C43.0592 98.0053 43.267 97.6976 43.4957 97.4058C43.2844 98.114 43.0214 98.8058 42.7087 99.4754C42.4569 100.152 42.1264 100.798 41.8037 101.474Z" fill="#EBEBEB"/>
<path d="M44.0308 123.65C47.1849 123.391 50.36 123.674 53.4191 124.484C53.4191 124.484 53.4191 124.555 53.4191 124.547C51.8452 124.366 50.3185 124.185 48.7525 124.051C47.1865 123.918 45.6047 123.839 44.0308 123.737C43.96 123.729 43.9678 123.658 44.0308 123.65Z" fill="#EBEBEB"/>
<path d="M17.8648 142.521C21.3903 147.565 30.9832 148.525 54.9143 153.216C58.2274 153.861 69.0794 131.724 65.5932 130.843C61.1863 129.741 43.8341 126.428 42.5356 126.341C31.5734 125.649 15.4725 139.098 17.8648 142.521Z" fill="#EBEBEB"/>
<path d="M60.8085 129.757C60.8085 129.757 70.9444 131.284 76.0202 133.739C82.8194 137.029 87.3444 142.663 89.0914 145.142C92.7428 150.312 98.0075 165.335 93.9468 167.602C90.2639 169.656 85.6603 154.027 85.6603 154.027C85.6603 154.027 92.9868 169.191 88.0998 170.852C83.2129 172.512 78.9083 154.066 78.9083 154.066C78.9083 154.066 86.0852 169.805 80.7733 170.726C76.7678 171.418 71.9202 154.932 71.9202 154.932C71.9202 154.932 77.9954 168.507 73.8954 169.396C69.3783 170.38 63.9484 155.443 63.9484 155.443C53.1593 155.947 47.8159 151.776 44.3691 148.361C43.5349 147.534 60.8085 129.757 60.8085 129.757Z" fill="white"/>
<path d="M83.4647 148.62C84.3933 150.375 85.3377 152.138 86.1089 153.963C86.8801 155.789 87.5726 157.646 88.1628 159.535C88.9818 161.988 89.5101 164.529 89.7367 167.105C88.9498 162.565 86.3292 155.986 85.5659 154.16C84.8025 152.334 84.1258 150.477 83.3624 148.651C83.3782 148.604 83.449 148.581 83.4647 148.62Z" fill="#EBEBEB"/>
<path d="M76.8229 151.272C77.9089 153.554 79.0657 155.781 80.0494 158.118C81.0331 160.456 81.7571 162.73 82.5676 165.114C82.6306 165.295 82.5125 165.272 82.4417 165.114C81.5288 162.754 80.5058 160.66 79.5694 158.323C78.6329 155.986 77.783 153.601 76.7678 151.311C76.7521 151.256 76.8072 151.233 76.8229 151.272Z" fill="#EBEBEB"/>
<path d="M70.7162 152.516C72.4629 155.984 73.8474 159.623 74.8476 163.376C74.9027 163.557 74.7532 163.501 74.6824 163.32C73.376 159.685 72.3766 156.828 70.5981 152.587C70.5666 152.508 70.6768 152.445 70.7162 152.516Z" fill="#EBEBEB"/>
<path d="M62.9176 129.757L41.9533 153.145C41.9533 153.145 20.7529 148.274 17.6287 142.836C15.5669 139.255 31.5341 124.736 43.598 126.452L62.9176 129.757Z" fill="#EBEBEB"/>
<path d="M29.2047 130.205C33.3721 127.211 38.4945 125.853 43.5979 126.389C43.6609 126.389 43.6609 126.499 43.5979 126.499C38.3411 126.349 31.235 129.104 29.2519 130.3C29.1968 130.324 29.1574 130.245 29.2047 130.205Z" fill="#EBEBEB"/>
<path d="M36.2163 149.21C38.3883 146.519 40.6941 143.945 43.0156 141.38C45.3371 138.814 47.6428 136.241 50.0273 133.731C51.3729 132.314 52.7108 130.882 54.1115 129.513C54.1115 129.513 54.2138 129.513 54.1824 129.576C52.0182 132.259 49.7125 134.848 47.4225 137.445C45.1324 140.042 42.7873 142.592 40.4344 145.126C39.1044 146.566 37.7509 147.975 36.358 149.344C36.2871 149.375 36.1612 149.273 36.2163 149.21Z" fill="#EBEBEB"/>
<path d="M62.9569 129.45C61.6676 129.062 60.3528 128.765 59.0221 128.561C57.7001 128.309 56.3701 128.081 55.0402 127.868C52.396 127.443 46.8481 126.247 41.9611 126.294C41.906 126.294 42.1814 126.554 42.2365 126.554C44.5974 126.428 61.2177 129.741 62.587 129.836C62.5325 129.925 62.4826 130.017 62.4375 130.111C62.4375 130.182 62.4375 130.268 62.5555 130.221C62.6736 130.174 62.8467 129.962 63.0041 129.836C63.049 129.823 63.0879 129.794 63.1136 129.755C63.1394 129.716 63.1505 129.669 63.1448 129.623C63.1391 129.576 63.1171 129.533 63.0826 129.502C63.0482 129.47 63.0036 129.452 62.9569 129.45Z" fill="#EBEBEB"/>
<path d="M78.6565 84.7831C98.6922 102.261 114.455 123.855 113.432 129.254C111.527 139.303 98.2908 139.932 96.2841 137.76C88.1707 128.97 79.6087 111.941 70.3148 92.9044C62.0046 75.9535 72.0225 79.0305 78.6565 84.7831Z" fill="#EBEBEB"/>
<path d="M92.9397 133.833C91.4681 131.559 90.0909 129.206 88.6823 126.885C87.2736 124.563 85.8886 122.226 84.5272 119.873C81.828 115.23 79.3255 110.484 76.9095 105.708C75.5402 102.993 74.1552 100.286 72.8489 97.5392C72.8095 97.4526 72.6679 97.5392 72.6993 97.61C73.9585 100.8 75.312 103.948 76.76 107.053L76.6813 106.951L75.7134 105.637C75.0917 104.763 74.5015 103.866 73.9349 102.953C73.9255 102.939 73.9107 102.929 73.8937 102.925C73.8767 102.921 73.859 102.924 73.8444 102.934C73.8298 102.943 73.8195 102.958 73.8158 102.975C73.8121 102.992 73.8153 103.01 73.8247 103.024C74.4728 104.267 75.2064 105.464 76.0203 106.605C76.4041 107.155 76.822 107.681 77.2715 108.179H77.3109C77.9719 109.559 78.6565 110.928 79.3648 112.287C81.883 117.087 84.5508 121.84 87.5412 126.381C88.3832 127.656 89.2253 128.931 90.1066 130.182C90.988 131.433 91.9245 132.637 92.8374 133.873C92.8767 133.959 92.9869 133.904 92.9397 133.833Z" fill="#EBEBEB"/>
<path d="M99.5657 135.832C95.7726 130.378 97.6927 119.542 101.864 93.5413C102.438 89.945 129.745 89.6617 129.328 93.5413C128.801 98.4125 123.937 117.693 122.67 120.534C116.469 134.392 102.139 139.507 99.5657 135.832Z" fill="#EBEBEB"/>
<path d="M130.217 82.7287C129.163 74.4579 127.62 72.4984 130.438 65.046C132.287 60.159 129.958 56.8775 125.889 60.4817C119.239 66.3838 118.358 77.3381 119.145 81.2257L130.217 82.7287Z" fill="white"/>
<path d="M103.839 52.3449L93.9312 85.6486C93.5298 86.6165 93.9941 87.4428 94.9621 87.4822L112.33 88.2219C112.862 88.2046 113.379 88.0363 113.819 87.7368C114.259 87.4372 114.605 87.0187 114.817 86.53L124.685 53.2027C125.086 52.2269 124.622 51.4006 123.654 51.3613L106.286 50.6294C105.758 50.657 105.249 50.8325 104.816 51.1359C104.384 51.4392 104.045 51.8582 103.839 52.3449Z" fill="#EBEBEB"/>
<path d="M105.861 52.416L95.9694 85.7197C95.5759 86.6876 96.0324 87.5139 97.0082 87.5532L114.376 88.2851C114.906 88.2679 115.421 88.1005 115.86 87.8024C116.299 87.5043 116.644 87.0877 116.855 86.601L126.763 53.2974C127.164 52.3216 126.7 51.5031 125.732 51.4638L108.364 50.7319C107.83 50.7447 107.31 50.91 106.867 51.2084C106.423 51.5068 106.074 51.9258 105.861 52.416Z" fill="#EBEBEB"/>
<path d="M110.559 54.1553C110.54 54.4474 110.435 54.7271 110.256 54.9592C110.078 55.1912 109.835 55.3651 109.558 55.459C109.28 55.5528 108.981 55.5623 108.699 55.4863C108.416 55.4102 108.163 55.2521 107.97 55.0318C107.777 54.8116 107.654 54.5391 107.616 54.2489C107.578 53.9587 107.627 53.6638 107.757 53.4015C107.887 53.1391 108.092 52.9212 108.345 52.7753C108.599 52.6293 108.89 52.5618 109.182 52.5814C109.376 52.5934 109.566 52.6438 109.741 52.7295C109.915 52.8153 110.071 52.9348 110.199 53.0812C110.327 53.2275 110.425 53.3978 110.487 53.5822C110.549 53.7666 110.573 53.9614 110.559 54.1553Z" fill="#EBEBEB"/>
<path d="M125.929 106.102C125.929 106.102 130.878 95.3602 130.65 86.4284C130.477 80.2587 128.604 66.8727 112.472 57.9566C108.647 55.8476 101.698 55.5485 106.688 61.2696C110.237 65.3303 113.715 66.8412 115.344 69.5798C115.344 69.5798 106.459 70.2487 104.492 74.1599C102.77 77.5839 101.295 81.1262 100.077 84.76C100.694 85.134 101.332 85.4704 101.99 85.7673C101.99 85.7673 100.494 89.5919 102.698 95.4468L125.929 106.102Z" fill="white"/>
<path d="M129.517 80.5734C127.321 78.2125 122.584 73.239 117.296 70.5319C111.425 67.5179 99.2982 63.3077 97.1262 67.6596C95.5523 70.8546 100.014 72.877 100.014 72.877C100.014 72.877 94.6394 72.1924 93.8289 75.3874C93.0891 78.307 96.654 79.6605 96.654 79.6605C96.654 79.6605 93.3173 79.8022 93.1521 82.7532C92.9475 86.2945 99.9671 85.4131 102.863 89.1826C103.508 90.0325 129.517 80.5734 129.517 80.5734Z" fill="white"/>
<path d="M115.155 77.2593C112.723 75.3628 106.097 72.4747 100.132 72.7973C99.9907 72.7973 99.9277 72.9075 100.054 72.9311C105.236 73.7765 110.296 75.2483 115.124 77.3144C115.124 77.3144 115.179 77.283 115.155 77.2593Z" fill="#EBEBEB"/>
<path d="M111.944 83.1062C109.678 81.6897 102.713 79.0141 96.6776 79.5492C96.5438 79.5492 96.4887 79.6673 96.6067 79.683C101.827 80.26 106.965 81.4296 111.921 83.1692L111.944 83.1062Z" fill="#EBEBEB"/>
<path d="M129.761 102.331L98.102 111.31C98.102 111.31 91.8064 132.07 95.7963 137.279C100.093 142.843 120.026 134.218 123.993 122.091L129.761 102.331Z" fill="#EBEBEB"/>
<path d="M99.1171 118.519C102.658 117.732 106.145 116.725 109.631 115.725C113.117 114.726 116.611 113.734 120.074 112.648C122.025 112.034 124.008 111.436 125.921 110.752C125.976 110.752 125.921 110.642 125.921 110.657C122.387 111.444 118.893 112.428 115.407 113.404C111.921 114.38 108.427 115.395 104.948 116.441C102.989 117.032 101.014 117.661 99.0935 118.338C98.9991 118.369 99.0305 118.519 99.1171 118.519Z" fill="#EBEBEB"/>
<path d="M99.2273 110.973C98.7315 111.028 98.2436 111.13 97.7557 111.217C97.7179 111.228 97.6839 111.249 97.6575 111.278C97.6311 111.308 97.6134 111.344 97.6062 111.382C97.0632 113.216 96.6776 115.12 96.292 117.001C95.9064 118.882 95.5837 120.716 95.2768 122.588C95.1115 123.588 94.962 124.595 94.844 125.61C94.2373 126.842 93.8663 128.177 93.7501 129.545C93.7501 129.616 93.8603 129.624 93.8682 129.545C94.0222 128.333 94.3371 127.148 94.8046 126.02C94.4964 128.486 94.5627 130.986 95.0014 133.433C94.3797 129.781 95.3004 125.964 95.8985 122.368C96.1975 120.566 96.5438 118.764 96.8901 116.97C97.2363 115.175 97.677 113.405 97.9918 111.611C98.4089 111.453 98.8338 111.296 99.2352 111.107C99.3217 111.068 99.2902 110.965 99.2273 110.973Z" fill="#EBEBEB"/>
<path d="M49.925 85.5457C49.925 85.5457 53.2538 94.0054 59.274 94.0054C66.5611 94.0054 76.9567 83.4524 76.9567 83.4524C76.9567 83.4524 70.3306 77.1568 61.808 78.4238C54.6074 79.4705 49.925 85.5457 49.925 85.5457Z" fill="white"/>
<path d="M68.5205 79.0778C68.3553 80.1245 63.9405 87.1519 59.2267 87.2778C57.6528 87.2778 57.1098 78.9441 57.1098 78.9441L56.9288 78.3381L54.3555 69.8233L64.0507 62.5519L65.4593 61.584C65.4593 61.584 66.0023 63.9448 66.6633 66.9195C66.6633 67.0611 66.7184 67.1949 66.7499 67.3444C66.7814 67.494 66.8365 67.6671 66.8679 67.8245C66.9702 68.2652 67.0726 68.7216 67.167 69.1702C67.2614 69.6187 67.3165 69.8469 67.3795 70.2089C67.4424 70.5709 67.5132 70.9329 67.5841 71.2949C68.0747 73.8646 68.3876 76.4651 68.5205 79.0778Z" fill="white"/>
<path d="M68.4262 77.4882C61.8788 78.6608 58.0935 77.1183 56.134 75.7333L54.3477 69.8233L64.0429 62.5519L65.4436 61.584C65.4436 61.584 65.9945 63.9448 66.6477 66.9195C66.6791 67.0506 66.7106 67.1923 66.7421 67.3444C66.7421 67.5097 66.8287 67.675 66.8601 67.8323C66.9624 68.273 67.0647 68.7216 67.1592 69.178C67.23 69.5164 67.3008 69.8548 67.3638 70.2168C67.4267 70.5788 67.5054 70.9329 67.5763 71.2949C68.0012 73.6007 68.2924 75.9694 68.4262 77.4882Z" fill="#EBEBEB"/>
<path d="M73.1951 55.8622C76.1462 71.192 67.293 74.686 63.9878 75.3156C60.9895 75.89 50.6963 77.4639 46.1792 62.5198C41.6621 47.5756 47.8632 41.3981 54.6546 39.6904C61.446 37.9827 70.2519 40.5325 73.1951 55.8622Z" fill="white"/>
<path d="M70.307 52.9272C69.9464 52.9209 69.5865 52.8946 69.2288 52.8485C68.8479 52.8767 68.4685 52.777 68.1507 52.5652C68.0611 52.4795 68.003 52.3661 67.9859 52.2432C67.9687 52.1204 67.9935 51.9954 68.0563 51.8885C68.2084 51.6967 68.4089 51.5489 68.6372 51.4604C68.8654 51.3719 69.1131 51.3458 69.3547 51.3848C69.8566 51.3898 70.3388 51.5804 70.7083 51.9199C70.7899 52.0015 70.8457 52.1052 70.869 52.2182C70.8923 52.3312 70.8819 52.4485 70.8392 52.5557C70.7965 52.6629 70.7233 52.7552 70.6287 52.8212C70.5341 52.8872 70.4223 52.9241 70.307 52.9272Z" fill="#EBEBEB"/>
<path d="M59.7697 55.2802C60.1317 55.1937 60.4465 55.052 60.7927 54.934C61.1693 54.8614 61.5118 54.668 61.7685 54.3831C61.8309 54.2766 61.8562 54.1524 61.8406 54.03C61.8249 53.9076 61.7691 53.7937 61.682 53.7063C61.486 53.5593 61.2543 53.4671 61.0108 53.4395C60.7674 53.4118 60.5209 53.4496 60.2969 53.549C59.8124 53.6824 59.3946 53.9909 59.1244 54.4146C59.0681 54.5142 59.042 54.628 59.0493 54.7421C59.0565 54.8563 59.0967 54.9659 59.1651 55.0576C59.2335 55.1493 59.327 55.2192 59.4343 55.2587C59.5417 55.2982 59.6582 55.3057 59.7697 55.2802Z" fill="#EBEBEB"/>
<path d="M62.6499 58.1285C62.6499 58.0891 62.5791 58.1914 62.587 58.2308C62.768 59.2774 62.8073 60.5129 61.9023 60.993C61.9023 60.993 61.9023 61.0638 61.9023 61.0559C63.0592 60.7254 62.9962 59.0886 62.6499 58.1285Z" fill="#EBEBEB"/>
<path d="M61.556 57.1373C59.8405 57.2554 60.2025 60.6707 61.7843 60.5606C63.366 60.4504 62.9883 57.0665 61.556 57.1373Z" fill="#EBEBEB"/>
<path d="M60.9029 57.4127C60.6275 57.641 60.3678 58.0108 60.0136 58.0817C59.6595 58.1525 59.2267 57.8456 58.9434 57.5308C58.9434 57.5308 58.8883 57.5308 58.8883 57.578C58.9513 58.2312 59.266 58.8765 59.9822 58.9001C60.6983 58.9237 61.0288 58.2941 61.1232 57.6174C61.139 57.4914 61.0131 57.3262 60.9029 57.4127Z" fill="#EBEBEB"/>
<path d="M68.7961 57.0588C68.7961 57.0195 68.8827 57.1061 68.8905 57.1454C68.9771 58.2078 69.2525 59.404 70.2519 59.6479V59.7109C69.0637 59.6794 68.7095 58.0819 68.7961 57.0588Z" fill="#EBEBEB"/>
<path d="M69.6145 55.8546C71.2986 55.532 71.818 58.9237 70.2598 59.2228C68.7016 59.5218 68.2059 56.1222 69.6145 55.8546Z" fill="#EBEBEB"/>
<path d="M70.3542 55.9646C70.6532 56.1062 70.968 56.3895 71.2907 56.3659C71.6133 56.3423 71.8809 55.9173 72.0776 55.5317C72.0776 55.5317 72.1327 55.5317 72.1406 55.5317C72.2586 56.177 72.1406 56.8853 71.5425 57.1056C70.9444 57.326 70.488 56.8145 70.2362 56.1928C70.1732 56.1062 70.2362 55.9095 70.3542 55.9646Z" fill="#EBEBEB"/>
<path d="M67.8438 62.0162C67.8438 62.0162 68.2452 63.5901 68.3317 64.3141C68.3317 64.3849 68.1665 64.4322 67.9147 64.4794C67.2894 64.6677 66.6246 64.6815 65.9921 64.5192C65.3596 64.3569 64.7835 64.0247 64.3262 63.5586C64.3133 63.5444 64.3061 63.5259 64.3059 63.5067C64.3057 63.4875 64.3126 63.4689 64.3251 63.4544C64.3377 63.4399 64.3552 63.4305 64.3742 63.4279C64.3932 63.4254 64.4125 63.4299 64.4285 63.4406C65.4532 63.9763 66.6226 64.1694 67.7651 63.9915C67.7651 63.779 66.9782 61.3552 67.1041 61.3316C67.687 61.3175 68.2692 61.381 68.8354 61.5204C68.0956 58.2625 66.8365 55.154 66.144 51.8961C66.1394 51.8723 66.1434 51.8478 66.1552 51.8267C66.167 51.8056 66.1859 51.7894 66.2086 51.7809C66.2312 51.7724 66.2561 51.7722 66.2788 51.7804C66.3016 51.7885 66.3207 51.8044 66.3329 51.8252C67.9068 54.973 68.8196 58.7189 69.6774 62.0556C69.7561 62.4884 68.1586 62.1107 67.8438 62.0162Z" fill="#EBEBEB"/>
<path d="M46.8874 62.5513C49.4371 62.5041 49.5394 57.1371 49.5394 57.1371C49.5394 57.1371 54.6782 56.6649 55.6697 49.1102C55.7309 51.3288 55.1428 53.5168 53.9778 55.4058C53.9778 55.4058 62.949 53.588 66.0417 45.6398C66.0417 45.6398 64.8849 49.6454 63.5943 51.1484C63.5943 51.1484 67.293 49.7241 68.8511 46.4267C68.8511 46.4267 70.8579 50.6527 72.1957 51.7465C72.1957 51.7465 70.307 35.9289 55.7799 39.0137C55.7799 39.0137 46.6356 40.501 44.0229 48.0951C41.4102 55.6891 46.8874 62.5513 46.8874 62.5513Z" fill="#EBEBEB"/>
<path d="M49.3348 62.843C49.3348 62.843 45.4473 58.3416 43.3697 59.7818C41.2922 61.2219 44.5738 67.9818 47.2573 68.6743C47.5949 68.7867 47.9519 68.8296 48.3066 68.8004C48.6613 68.7712 49.0064 68.6704 49.3211 68.5043C49.6358 68.3381 49.9136 68.1099 50.1378 67.8334C50.362 67.557 50.5278 67.238 50.6254 66.8958L49.3348 62.843Z" fill="#EBEBEB"/>
<path d="M44.3613 61.6935V61.7643C46.25 62.3152 47.3753 63.8891 48.2252 65.5653C48.1007 65.3955 47.941 65.2546 47.757 65.1522C47.5731 65.0498 47.3692 64.9882 47.1593 64.9718C46.9494 64.9554 46.7384 64.9844 46.5407 65.057C46.343 65.1295 46.1634 65.2438 46.0139 65.3922C45.9667 65.3922 46.0139 65.5023 46.069 65.4866C46.3774 65.3516 46.72 65.3154 47.0497 65.383C47.3795 65.4507 47.6802 65.6188 47.9105 65.8643C48.2894 66.277 48.6244 66.728 48.9099 67.21C49.0122 67.3674 49.2955 67.21 49.2089 67.0683C49.2131 67.0556 49.2131 67.0418 49.2089 67.029C48.9886 64.7154 46.8638 61.6699 44.3613 61.6935Z" fill="#EBEBEB"/>
<path d="M39.1601 153.145L38.8998 153.208L39.1601 153.145Z" fill="#EB9481"/>
<path d="M14.2526 148.226C14.2097 148.41 14.1782 148.597 14.1582 148.785C14.1582 148.745 14.1582 148.714 14.1582 148.675C14.182 148.524 14.2135 148.374 14.2526 148.226Z" fill="#EBEBEB"/>
<path d="M14.2526 148.226C14.2097 148.41 14.1782 148.597 14.1582 148.785C14.1582 148.745 14.1582 148.714 14.1582 148.675C14.182 148.524 14.2135 148.374 14.2526 148.226Z" fill="#EBEBEB"/>
<path d="M40.3479 155.829L39.5609 156.017L40.3479 155.829Z" fill="#EBEBEB"/>
<path d="M14.2526 148.226C14.2097 148.41 14.1782 148.597 14.1582 148.785C14.1582 148.745 14.1582 148.714 14.1582 148.675C14.182 148.524 14.2135 148.374 14.2526 148.226Z" fill="#EBEBEB"/>
<path d="M257.652 119.699V171.042H243.143V119.699C243.143 100.174 228.313 84.2982 210.071 84.2982C191.829 84.2982 176.999 100.174 176.999 119.699V171.042H162.49V119.699C162.49 91.7366 183.834 69.0161 210.071 69.0161C236.308 69.0161 257.652 91.7366 257.652 119.699Z" fill="#000BF5"/>
<path d="M162.49 133.049L176.999 133.633V171.042H162.49V133.049Z" fill="#12178F"/>
<path d="M257.652 136.923V171.041H243.143V136.329L257.652 136.923Z" fill="#12178F"/>
<path d="M276.253 141.807H143.899V261.886H276.253V141.807Z" fill="#E5B323"/>
<path opacity="0.1" d="M276.243 141.807H210.071V261.886H276.243V141.807Z" fill="black"/>
<path d="M215.671 206.244L221.205 232.519H197.693L203.236 206.244C201.068 204.893 199.399 202.873 198.482 200.49C197.564 198.106 197.448 195.489 198.151 193.033C198.853 190.577 200.336 188.417 202.375 186.88C204.415 185.342 206.899 184.51 209.453 184.51C212.008 184.51 214.492 185.342 216.531 186.88C218.571 188.417 220.054 190.577 220.756 193.033C221.459 195.489 221.342 198.106 220.425 200.49C219.507 202.873 217.839 204.893 215.671 206.244Z" fill="#000BF5"/>
<path d="M171.625 206.197C171.625 206.197 164.705 261.594 153.336 274.076C139.685 289.028 129.767 286.841 124.261 294.553C118.755 286.831 108.847 289.028 95.1768 274.066C83.8072 261.594 76.8967 206.188 76.8967 206.188C106.858 191.65 124.28 175.35 124.28 175.35C124.798 175.859 142.126 191.886 171.625 206.197Z" fill="#EBEBEB"/>
<path d="M124.28 175.36V294.543C118.774 286.822 108.866 289.019 95.1956 274.057C83.826 261.584 76.9155 206.178 76.9155 206.178C106.858 191.65 124.28 175.35 124.28 175.35V175.36Z" fill="#DBDBDB"/>
<path d="M164.281 210.666C164.281 210.666 158.436 257.456 148.829 267.996C137.28 280.647 128.909 278.79 124.252 285.305C119.594 278.79 111.223 280.647 99.6832 267.996C90.0765 257.456 84.2408 210.666 84.2408 210.666C109.554 198.411 124.252 184.599 124.252 184.599C124.252 184.599 138.968 198.373 164.281 210.666Z" fill="#DBDBDB"/>
<path d="M84.2502 210.666C84.2502 210.666 90.0954 257.455 99.7021 267.995C111.232 280.638 119.566 278.79 124.28 285.286V184.618C123.818 185.032 109.196 198.561 84.2502 210.666Z" fill="#C7C7C7"/>
<path d="M137.38 248.072C144.626 240.826 144.626 229.079 137.38 221.833C130.134 214.588 118.387 214.588 111.141 221.833C103.896 229.079 103.896 240.826 111.141 248.072C118.387 255.318 130.134 255.318 137.38 248.072Z" fill="#E5B323"/>
<path d="M122.149 247.009L113.881 238.411L116.945 235.46L121.499 240.202L131.322 225.137L134.886 227.456L122.149 247.009Z" fill="white"/>
<path d="M60.254 299.004L62.4549 287.734L194.104 313.443C195.306 313.678 196.366 314.381 197.05 315.397C197.735 316.414 197.987 317.66 197.752 318.862L197.322 321.065C197.087 322.267 196.385 323.327 195.368 324.011C194.352 324.695 193.105 324.948 191.903 324.713L60.254 299.004Z" fill="#E5B323"/>
<path opacity="0.1" d="M62.4451 287.722L60.2424 299.001L76.1387 302.106L78.3414 290.827L62.4451 287.722Z" fill="black"/>
<path d="M12.0914 273.35L8.21667 293.393C7.56112 296.753 7.5738 300.21 8.254 303.565C8.93419 306.92 10.2686 310.108 12.181 312.948C14.0933 315.787 16.5463 318.222 19.3997 320.114C22.2531 322.005 25.4512 323.316 28.8112 323.972C32.1713 324.627 35.6276 324.615 38.9828 323.934C42.3379 323.254 45.5263 321.92 48.3657 320.007C51.2052 318.095 53.6402 315.642 55.5317 312.789C57.4232 309.935 58.7341 306.737 59.3896 303.377L63.2927 283.381C64.6229 276.592 63.2014 269.551 59.3409 263.81C55.4804 258.068 49.4972 254.095 42.7075 252.765C35.9178 251.435 28.8778 252.856 23.1361 256.717C17.3945 260.577 13.4216 266.561 12.0914 273.35ZM55.0718 278.356C53.9122 284.305 48.7176 288.595 42.2974 289.622C47.8597 293.007 51.0651 298.918 49.8961 304.867C48.3499 312.824 39.5729 317.82 30.3055 316.01C21.0382 314.2 14.8066 306.271 16.3621 298.324C17.5217 292.375 22.7163 288.086 29.1459 287.011C23.5742 283.645 20.3783 277.715 21.5379 271.766C23.0934 263.8 31.8516 258.822 41.1095 260.632C50.3674 262.443 56.6651 270.399 55.1095 278.356H55.0718Z" fill="#E5B323"/>
<path d="M63.4339 282.642L59.2472 304.081C59.0217 305.236 59.7751 306.355 60.93 306.581L61.9478 306.779C63.1027 307.005 64.2218 306.252 64.4473 305.097L68.634 283.658C68.8595 282.503 68.1061 281.384 66.9512 281.158L65.9334 280.96C64.7785 280.734 63.6595 281.488 63.4339 282.642Z" fill="#E5B323"/>
<path d="M68.6342 283.66L64.4476 305.098C64.222 306.253 64.9754 307.372 66.1303 307.598L67.1481 307.797C68.303 308.022 69.4221 307.269 69.6476 306.114L73.8343 284.675C74.0599 283.52 73.3064 282.401 72.1515 282.176L71.1338 281.977C69.9789 281.751 68.8598 282.505 68.6342 283.66Z" fill="#E5B323"/>
<path d="M162.641 302.462L166.562 303.226L168.778 291.837L172.134 292.488L170.975 298.427L174.887 299.191L176.047 293.252L179.016 293.827L177.178 303.217L181.1 303.99L182.938 294.6L187.143 295.42L184.701 307.959L188.623 308.722L191.074 296.184L195.053 296.966L191.923 312.993L156.89 306.148L160.01 290.122L164.856 291.064L162.641 302.462Z" fill="#E5B323"/>
<path d="M313.472 83.8619C326.858 97.4535 336.996 113.8 335.996 117.64C334.135 124.788 324.68 124.585 323.36 122.92C318.025 116.182 312.785 103.483 307.125 89.3012C302.06 76.6716 309.038 79.3865 313.472 83.8619Z" fill="#E5B323"/>
<path d="M325.354 121.614C322.805 117.373 324.798 109.438 329.255 90.3751C329.87 87.7383 350.267 88.9491 349.756 91.8042C349.11 95.3888 344.483 109.432 343.391 111.473C338.046 121.426 327.085 124.473 325.354 121.614Z" fill="#D3766A"/>
<path d="M350.936 84.496C350.552 78.4752 349.481 76.9805 351.992 71.7546C353.64 68.3279 352.039 65.838 348.772 68.2224C343.433 72.1275 342.214 79.9813 342.615 82.8266L350.936 84.496Z" fill="#D3766A"/>
<path d="M332.632 61.898L323.847 84.7688C323.51 85.4278 323.805 86.031 324.502 86.1073L337.011 87.501C337.396 87.5156 337.777 87.4235 338.11 87.2355C338.442 87.0475 338.713 86.7712 338.89 86.4389L347.648 63.5496C347.985 62.8851 347.691 62.2819 346.993 62.2055L334.484 60.8174C334.102 60.8102 333.725 60.9077 333.398 61.0988C333.07 61.2899 332.805 61.5668 332.632 61.898Z" fill="#A6A6A6"/>
<path d="M333.931 61.9674L325.163 84.864C324.832 85.5242 325.121 86.1275 325.823 86.2043L338.317 87.5919C338.701 87.6065 339.08 87.5148 339.411 87.3274C339.742 87.1401 340.012 86.8648 340.188 86.5336L348.967 63.6378C349.305 62.9725 349.01 62.3742 348.313 62.2979L335.819 60.9103C335.432 60.8924 335.05 60.9824 334.715 61.1697C334.381 61.357 334.108 61.6338 333.931 61.9674Z" fill="#DBDBDB"/>
<path d="M337.133 63.7407C337.098 63.9998 336.986 64.2426 336.813 64.4384C336.639 64.6342 336.412 64.7742 336.159 64.8406C335.906 64.907 335.639 64.8969 335.392 64.8116C335.145 64.7262 334.928 64.5695 334.77 64.3611C334.612 64.1528 334.519 63.9022 334.504 63.6412C334.488 63.3801 334.55 63.1202 334.682 62.8944C334.814 62.6686 335.01 62.4871 335.245 62.3727C335.48 62.2583 335.744 62.2163 336.003 62.2519C336.176 62.2747 336.342 62.3313 336.492 62.4187C336.642 62.506 336.773 62.6222 336.879 62.7606C336.984 62.8991 337.06 63.057 337.104 63.2252C337.148 63.3934 337.157 63.5686 337.133 63.7407Z" fill="#263238"/>
<path d="M346.928 101.446C346.928 101.446 351.095 93.9765 351.376 87.5439C351.558 83.0998 350.856 73.3811 339.474 66.1469C336.775 64.4353 331.695 63.8651 335.067 68.2329C337.466 71.3335 339.94 72.5974 340.997 74.6494C340.997 74.6494 334.449 74.6761 332.811 77.3872C331.377 79.7607 330.118 82.2318 329.043 84.7818C329.476 85.0822 329.927 85.3566 330.394 85.6037C330.394 85.6037 329.106 88.2767 330.428 92.5983L346.928 101.446Z" fill="#D3766A"/>
<path d="M350.404 82.5579C348.843 80.8476 345.469 77.2387 341.569 75.1305C337.239 72.7843 328.202 69.2983 326.343 72.1207C324.994 74.1939 328.297 75.7961 328.297 75.7961C328.297 75.7961 324.236 75.0485 323.468 77.1623C322.767 79.0939 325.419 80.1968 325.419 80.1968C325.419 80.1968 322.871 80.1153 322.606 82.0986C322.284 84.4783 327.671 84.256 329.699 86.9543C330.151 87.5623 350.404 82.5579 350.404 82.5579Z" fill="#D3766A"/>
<path d="M339.994 79.7245C338.38 78.5052 333.89 76.5066 329.729 76.4048C329.631 76.398 329.582 76.4589 329.669 76.4787C333.238 77.2209 336.697 78.3211 339.97 79.755C339.97 79.755 340.01 79.7394 339.994 79.7245Z" fill="#263238"/>
<path d="M336.995 84.7812C335.548 83.1539 330.977 79.9519 326.802 80.2375C326.71 80.2311 326.664 80.3551 326.743 80.3776C330.277 81.2457 333.709 82.7453 336.974 84.8476L336.995 84.7812Z" fill="#263238"/>
<path d="M349.26 98.9576L325.145 103.766C325.145 103.766 319.398 118.37 322.119 122.325C325.052 126.55 340.385 121.385 343.958 112.87L349.26 98.9576Z" fill="#E5B323"/>
<path d="M326.162 107.95C328.793 107.736 331.392 107.408 333.99 107.083C336.588 106.759 339.192 106.439 341.776 106.07C343.232 105.861 344.711 105.662 346.141 105.416C346.182 105.418 346.145 105.36 346.145 105.368C343.519 105.583 340.916 105.899 338.318 106.211C335.721 106.524 333.116 106.855 330.522 107.204C329.061 107.4 327.587 107.616 326.151 107.858C326.08 107.869 326.098 107.946 326.162 107.95Z" fill="#263238"/>
<path d="M297.748 243.757L272.057 264.498C267.127 268.438 262.875 271.983 260.848 274.029C260.324 274.459 259.903 275 259.613 275.613C259.613 275.613 259.613 275.613 259.613 275.669C259.792 277.922 290.149 318.244 291.667 319.291C293.185 320.337 296.315 316.057 296.381 313.559C296.447 311.06 291.733 290.414 291.733 290.414L317.187 269.428L297.748 243.757Z" fill="#C95F50"/>
<path d="M277.299 260.264L272.029 264.516C267.099 268.456 262.847 272.001 260.82 274.047C260.347 274.524 259.932 275.056 259.585 275.631C259.585 275.631 259.585 275.631 259.585 275.687C259.764 277.94 290.121 318.262 291.639 319.309C293.156 320.355 296.286 316.075 296.352 313.577C296.418 311.078 291.705 290.432 291.705 290.432L297.116 286.18L277.299 260.264Z" fill="#EBEBEB"/>
<path d="M291.61 319.337C290.073 318.291 259.726 277.978 259.556 275.706C259.472 274.849 265.09 270.05 272.039 264.525L272.265 264.346L292.091 290.14L291.648 290.461C291.648 290.461 296.362 311.088 296.296 313.605C296.23 316.123 293.137 320.393 291.61 319.337Z" fill="#FFC727"/>
<path d="M292.826 317.707C287.877 310.787 267.268 283.343 261.847 276.876C261.847 276.819 261.772 276.876 261.847 276.876C266.561 283.843 287.434 311.126 292.76 317.763C292.836 317.905 292.939 317.905 292.826 317.707Z" fill="#263238"/>
<path d="M293.241 292.704C291.723 289.659 288.857 286.689 285.407 286.105C285.275 286.105 285.247 286.265 285.341 286.341C288.084 288.264 290.613 290.476 292.883 292.94C292.918 292.979 292.965 293.004 293.016 293.01C293.068 293.017 293.12 293.005 293.163 292.976C293.207 292.948 293.238 292.905 293.253 292.855C293.267 292.805 293.263 292.751 293.241 292.704Z" fill="#263238"/>
<path d="M293.533 295.514C292.016 292.459 289.14 289.499 285.699 288.915C285.567 288.915 285.539 289.084 285.624 289.15C288.366 291.074 290.895 293.287 293.166 295.75C293.181 295.774 293.201 295.795 293.225 295.811C293.248 295.827 293.275 295.839 293.303 295.845C293.331 295.851 293.36 295.852 293.388 295.847C293.416 295.842 293.443 295.831 293.467 295.816C293.492 295.8 293.512 295.78 293.529 295.756C293.545 295.733 293.557 295.706 293.563 295.678C293.569 295.65 293.57 295.621 293.565 295.593C293.559 295.565 293.549 295.538 293.533 295.514Z" fill="#263238"/>
<path d="M293.816 298.314C292.308 295.269 289.433 292.308 285.991 291.714C285.859 291.714 285.822 291.884 285.916 291.95C288.657 293.876 291.185 296.088 293.458 298.549C293.474 298.573 293.494 298.593 293.517 298.609C293.54 298.625 293.566 298.636 293.594 298.642C293.621 298.647 293.65 298.647 293.678 298.642C293.705 298.637 293.732 298.626 293.755 298.611C293.779 298.595 293.799 298.575 293.815 298.552C293.83 298.529 293.842 298.502 293.847 298.475C293.853 298.447 293.853 298.419 293.848 298.391C293.842 298.364 293.832 298.337 293.816 298.314Z" fill="#263238"/>
<path d="M311.606 219.038C309.787 228.022 272.519 263.856 272.519 263.856L298.502 293.846C298.502 293.846 351.409 241.051 348.647 221.187C346.243 203.925 320.364 134.51 320.364 134.51H290.592C290.592 134.51 313.388 210.204 311.606 219.038Z" fill="#37474F"/>
<path d="M311.606 219.038C309.787 228.022 272.519 263.856 272.519 263.856L298.502 293.846C298.502 293.846 351.409 241.051 348.647 221.187C346.243 203.925 320.364 134.51 320.364 134.51H290.592C290.592 134.51 313.388 210.204 311.606 219.038Z" fill="#37474F"/>
<path d="M301.453 286.718C298.002 282.419 299.058 283.607 295.56 279.346C293.845 277.262 282.579 263.583 280.637 261.914C280.637 261.914 280.523 261.914 280.552 261.989C281.853 264.186 293.354 277.668 295.108 279.723C298.69 283.909 297.71 282.674 301.33 286.822C301.405 286.897 301.519 286.794 301.453 286.718Z" fill="#263238"/>
<path d="M315.311 214.663C314.878 212.419 314.368 210.185 313.925 207.951C312.951 203.388 311.924 198.841 310.843 194.309C308.693 185.315 306.358 176.371 303.838 167.478C301.302 158.56 298.615 149.651 295.513 140.902C295.136 139.818 294.74 138.743 294.344 137.668C294.344 137.651 294.337 137.634 294.325 137.621C294.313 137.609 294.296 137.602 294.278 137.602C294.261 137.602 294.244 137.609 294.232 137.621C294.219 137.634 294.212 137.651 294.212 137.668C296.899 146.436 299.661 155.175 302.169 163.98C304.677 172.786 306.987 181.591 309.174 190.453C310.267 194.903 311.286 199.372 312.285 203.84C312.775 206.037 313.228 208.243 313.718 210.44C314.3 212.675 314.719 214.95 314.972 217.246C315.04 219.422 314.427 221.564 313.218 223.374C312.096 225.203 310.786 226.919 309.513 228.644C306.968 232.095 282.701 259.143 281.919 259.878C281.853 259.935 281.919 260.019 282.013 259.963C285.265 257.04 305.855 234.753 308.467 231.303C309.768 229.597 311.022 227.871 312.238 226.118C313.476 224.535 314.473 222.778 315.198 220.904C315.771 218.868 315.81 216.719 315.311 214.663Z" fill="#263238"/>
<path d="M315.245 134.51L309.834 205.547C304.667 181.233 290.592 134.51 290.592 134.51H315.245Z" fill="#263238"/>
<path d="M364.193 330.321C362.43 330.887 311.964 330.104 310.069 328.86C309.762 328.258 309.594 327.594 309.579 326.918C309.575 326.899 309.575 326.88 309.579 326.861C309.212 324.033 309.032 318.489 308.938 312.173L307.826 306.714H340.172L341.435 312.578C341.435 312.578 360.62 321.525 362.572 323.118C364.523 324.712 365.975 329.765 364.193 330.321Z" fill="#EBEBEB"/>
<path d="M364.193 330.321C362.421 330.887 311.964 330.104 310.069 328.86C309.334 328.398 309.023 321.035 308.9 312.135V311.853L341.454 311.994V312.55C341.454 312.55 360.63 321.488 362.572 323.081C364.514 324.674 365.966 329.765 364.193 330.321Z" fill="#FFC727"/>
<path d="M363.656 328.36C355.171 328.02 320.826 327.417 312.398 327.757C312.332 327.757 312.332 327.804 312.398 327.813C320.817 328.332 355.143 328.624 363.656 328.501C363.835 328.492 363.835 328.369 363.656 328.36Z" fill="#263238"/>
<path d="M344.169 312.691C340.832 312.012 336.731 312.465 334.129 314.812C334.034 314.897 334.129 315.039 334.27 315.01C337.486 314.029 340.799 313.397 344.15 313.125C344.179 313.126 344.207 313.122 344.234 313.112C344.261 313.102 344.285 313.087 344.306 313.068C344.327 313.049 344.344 313.026 344.356 313C344.368 312.974 344.375 312.946 344.376 312.918C344.378 312.889 344.373 312.861 344.364 312.834C344.354 312.807 344.339 312.782 344.32 312.761C344.3 312.74 344.277 312.723 344.251 312.711C344.225 312.699 344.198 312.692 344.169 312.691Z" fill="#263238"/>
<path d="M346.554 314.181C343.226 313.502 339.116 313.954 336.523 316.302C336.429 316.396 336.523 316.537 336.665 316.5C339.878 315.519 343.187 314.887 346.535 314.614C346.593 314.617 346.649 314.596 346.692 314.557C346.734 314.518 346.759 314.464 346.762 314.407C346.764 314.349 346.744 314.293 346.705 314.251C346.666 314.208 346.612 314.183 346.554 314.181Z" fill="#263238"/>
<path d="M348.949 315.68C345.611 315.001 341.511 315.453 338.918 317.792C338.814 317.886 338.918 318.027 339.059 317.999C342.274 317.023 345.582 316.391 348.93 316.113C348.958 316.115 348.987 316.11 349.014 316.101C349.04 316.091 349.065 316.076 349.086 316.057C349.107 316.037 349.124 316.014 349.136 315.988C349.148 315.962 349.155 315.934 349.156 315.906C349.158 315.878 349.153 315.849 349.143 315.822C349.134 315.796 349.119 315.771 349.099 315.75C349.08 315.729 349.057 315.712 349.031 315.7C349.005 315.688 348.977 315.681 348.949 315.68Z" fill="#263238"/>
<path d="M317.545 134.509C316.385 139.411 315.528 144.379 314.981 149.386C314.368 155.627 313.586 161.152 312.756 161.84C311.927 162.528 307.1 165.611 305.516 166.554C305.516 166.554 320.204 211.09 323.994 225.948C329.49 247.461 342.651 312.031 342.651 312.031H307.58C307.58 312.031 296.918 250.572 292.251 230.077C288.254 212.513 272.944 159.822 272.944 159.822C271.328 155.76 270.603 151.399 270.816 147.032C271.029 142.665 272.175 138.395 274.179 134.509C274.179 134.509 317.545 134.491 317.545 134.509Z" fill="#37474F"/>
<path d="M341.369 305.243C335.854 305.243 337.438 305.148 331.941 305.177C329.245 305.177 311.521 305.309 309.014 305.771C308.999 305.771 308.984 305.777 308.974 305.787C308.963 305.798 308.957 305.812 308.957 305.827C308.957 305.842 308.963 305.857 308.974 305.867C308.984 305.878 308.999 305.884 309.014 305.884C311.54 306.261 329.255 305.827 331.951 305.761C337.466 305.62 335.882 305.601 341.379 305.403C341.395 305.396 341.409 305.385 341.418 305.37C341.428 305.355 341.432 305.337 341.431 305.319C341.43 305.302 341.423 305.285 341.412 305.271C341.401 305.257 341.386 305.247 341.369 305.243Z" fill="#263238"/>
<path d="M315.217 160.077C311.811 161.952 308.575 164.119 305.544 166.554C305.526 166.574 305.515 166.6 305.512 166.628C305.51 166.655 305.517 166.682 305.533 166.705C305.548 166.728 305.57 166.745 305.596 166.753C305.622 166.762 305.65 166.761 305.676 166.752C308.957 164.697 312.275 162.698 315.471 160.464C315.511 160.426 315.535 160.375 315.541 160.321C315.547 160.266 315.534 160.211 315.504 160.166C315.474 160.12 315.428 160.086 315.376 160.07C315.324 160.054 315.267 160.057 315.217 160.077Z" fill="#263238"/>
<path d="M312.539 135.848C312.539 135.726 312.294 135.735 312.313 135.848C312.924 139.769 313.336 143.718 313.548 147.68C313.671 149.509 313.765 159.738 310.513 159.493C309.966 159.493 309.57 158.984 309.41 158.201C309.263 157.164 309.244 156.113 309.353 155.071C309.353 152.922 309.353 150.781 309.183 148.632C308.933 144.663 308.276 140.73 307.222 136.895C307.222 136.867 307.211 136.841 307.192 136.821C307.172 136.802 307.146 136.791 307.119 136.791C307.091 136.791 307.065 136.802 307.045 136.821C307.026 136.841 307.015 136.867 307.015 136.895C307.956 142.34 308.486 147.849 308.599 153.374C308.599 156.042 307.911 160.162 310.692 160.134C313.473 160.105 314.302 153.27 314.359 151.432C314.43 146.181 313.818 140.942 312.539 135.848Z" fill="#263238"/>
<path d="M310.635 159.775C310.462 160.492 310.336 161.22 310.258 161.953C310.154 162.533 310.154 163.127 310.258 163.707C310.267 163.729 310.283 163.748 310.303 163.761C310.323 163.775 310.347 163.782 310.371 163.782C310.395 163.782 310.419 163.775 310.439 163.761C310.459 163.748 310.475 163.729 310.484 163.707C310.737 163.145 310.896 162.547 310.956 161.934C311.097 161.255 311.248 160.586 311.37 159.898C311.387 159.8 311.364 159.7 311.306 159.62C311.249 159.54 311.162 159.485 311.064 159.469C310.967 159.453 310.867 159.476 310.786 159.533C310.706 159.591 310.651 159.678 310.635 159.775Z" fill="#263238"/>
<path d="M277.95 159.597C280.971 159.429 283.956 158.864 286.83 157.919C290.093 156.876 293.052 155.05 295.447 152.601C296.803 151.256 297.922 149.691 298.756 147.972C298.756 147.906 298.888 147.972 298.869 148.029C298.357 149.693 297.567 151.258 296.531 152.658C295.46 154.044 294.189 155.264 292.76 156.278C289.932 158.352 286.604 159.637 283.116 160.002C281.396 160.269 279.643 160.244 277.931 159.927C277.657 159.889 277.733 159.615 277.95 159.597Z" fill="#263238"/>
<path d="M303.479 285.917C303.395 285.106 303.282 284.295 303.168 283.484C302.952 281.938 302.688 280.383 302.442 278.837C301.971 275.716 301.434 272.605 300.877 269.503C299.784 263.309 298.511 257.134 297.172 250.987C296.409 247.518 295.532 244.086 294.599 240.617C294.542 240.372 294.203 240.495 294.24 240.721C294.806 243.87 295.353 247.009 295.994 250.148C296.635 253.288 297.276 256.38 297.88 259.501C299.105 265.666 300.246 271.86 301.471 278.026C301.811 279.77 302.131 281.514 302.471 283.258C302.64 284.125 302.81 285.002 302.999 285.86C303.187 286.718 303.451 287.576 303.593 288.443C303.593 288.528 303.734 288.49 303.725 288.443C303.593 287.604 303.583 286.793 303.479 285.917Z" fill="#263238"/>
<path d="M327.671 239.316C326.502 233.499 324.927 227.758 323.343 222.035C320.157 210.534 316.405 199.192 312.662 187.851C311.581 184.589 310.5 181.324 309.419 178.056C308.881 176.425 306.242 167.61 305.912 166.743C305.906 166.728 305.897 166.716 305.884 166.707C305.872 166.698 305.856 166.693 305.841 166.693C305.826 166.693 305.811 166.698 305.798 166.707C305.785 166.716 305.776 166.728 305.77 166.743C306.534 169.741 307.571 174.115 308.448 177.113C309.325 180.111 310.258 182.967 311.172 185.881C312.964 191.622 314.783 197.363 316.518 203.114C319.959 214.493 323.372 225.872 326.162 237.431C326.945 240.674 327.727 243.907 328.434 247.16C329.141 250.412 329.764 253.674 330.442 256.927C330.442 257.021 330.612 256.993 330.603 256.927C330.018 251.025 328.859 245.161 327.671 239.316Z" fill="#263238"/>
<path d="M305.865 269.757C303.932 258.661 301.622 247.621 299.058 236.648C296.494 225.674 293.618 214.663 290.46 203.793C287.302 192.923 283.804 182.109 280.09 171.456C278.198 166.43 276.608 161.295 275.329 156.08C274.169 150.894 273.585 145.285 274.791 140.053C275.086 138.725 275.486 137.423 275.989 136.159C275.989 136.074 275.894 135.999 275.857 136.084C271.643 145.917 274.377 156.664 277.591 166.356C279.345 171.663 281.221 176.933 282.965 182.25C284.709 187.568 286.444 193.187 288.084 198.692C291.318 209.6 294.325 220.574 297.012 231.623C299.699 242.672 302.103 253.797 304.215 264.978C306.327 276.159 308.108 287.462 309.919 298.728C310.154 300.199 310.333 301.67 310.531 303.141C310.531 303.225 310.663 303.225 310.654 303.141C309.259 291.969 307.788 280.844 305.865 269.757Z" fill="#263238"/>
<path d="M270.907 144.842C271.03 144.974 324.051 144.597 324.531 144.05C325.191 143.277 312.634 85.9575 307.119 78.915C305.94 77.4066 302.094 77.0295 298.832 77.4632C297.982 77.5688 297.143 77.7486 296.324 78.0006H296.239C295.577 78.2075 294.955 78.5264 294.401 78.9433C285.397 86.2874 278.016 111.704 276.309 119.331C273.481 131.908 270.464 144.343 270.907 144.842Z" fill="#EBEBEB"/>
<path d="M295.673 78.1328C295.673 78.1328 299.133 101.702 299.954 107.849C300.774 113.995 299.954 146.266 299.954 146.266L266.684 149.094C266.684 149.094 273.66 127.637 273.726 126.28C273.726 126.28 279.241 100.495 284.935 89.8513C287.479 85.1089 291.171 81.0799 295.673 78.1328Z" fill="#E5B323"/>
<path d="M306.751 78.5474C306.751 78.5474 311.248 102.418 311.644 104.388C312.04 106.359 317.8 145.153 317.8 145.153L326.125 145.332L321.609 127.609C321.609 127.609 311.945 82.2147 306.751 78.5474Z" fill="#E5B323"/>
<path d="M304.875 86.1745C302.348 86.4667 297.559 82.9502 296.22 79.2263C296.135 78.9624 296.89 76.5395 297.663 73.5698C298.125 71.7503 298.605 69.7233 298.898 67.8378C298.954 67.4513 310.267 72.5516 310.267 72.5516C309.217 74.7994 308.448 77.1678 307.977 79.6034C307.954 79.8669 307.954 80.1319 307.977 80.3954V80.5274C307.939 82.0452 307.59 85.8728 304.875 86.1745Z" fill="#C95F50"/>
<path d="M307.939 80.4144C307.943 80.4583 307.943 80.5025 307.939 80.5464C307.531 80.5317 307.124 80.4876 306.723 80.4144C299.793 79.1605 299.331 70.1572 299.322 67.8945C301.377 68.5262 310.277 72.6083 310.277 72.6083C309.228 74.8596 308.458 77.2311 307.986 79.6696C307.954 79.9165 307.938 80.1653 307.939 80.4144Z" fill="#263238"/>
<path d="M299.03 52.8003C297.21 56.8541 297.908 69.2986 300.557 72.3814C304.404 76.8595 311.465 78.1322 315.462 73.3241C319.337 68.6763 318.149 52.4703 315.113 49.5855C310.645 45.343 301.707 46.8232 299.03 52.8003Z" fill="#C95F50"/>
<path d="M308.193 61.6157C308.193 61.6157 308.127 61.6157 308.137 61.6911C308.203 62.5302 308.137 63.4918 307.401 63.8124C307.401 63.8124 307.401 63.8689 307.401 63.8595C308.325 63.6804 308.391 62.4171 308.193 61.6157Z" fill="#263238"/>
<path d="M307.401 60.7759C306.053 60.7759 306.082 63.4533 307.335 63.4816C308.589 63.5099 308.533 60.8042 307.401 60.7759Z" fill="#263238"/>
<path d="M313.36 61.5684C313.36 61.5684 313.426 61.6155 313.426 61.6438C313.426 62.4828 313.529 63.4539 314.293 63.7178C314.293 63.7178 314.293 63.7744 314.293 63.765C313.36 63.6518 313.209 62.4168 313.36 61.5684Z" fill="#263238"/>
<path d="M314.095 60.6915C315.443 60.569 315.585 63.2747 314.331 63.3878C313.077 63.501 312.964 60.7858 314.095 60.6915Z" fill="#263238"/>
<path d="M306.317 59.5882C306.685 59.4845 307.006 59.3336 307.364 59.2016C307.751 59.1204 308.1 58.9112 308.354 58.6077C308.415 58.4984 308.439 58.372 308.422 58.2477C308.405 58.1235 308.348 58.0082 308.259 57.9195C308.052 57.7713 307.81 57.681 307.556 57.6578C307.303 57.6346 307.047 57.6794 306.817 57.7875C306.317 57.9422 305.893 58.2785 305.629 58.7302C305.581 58.8339 305.562 58.9492 305.576 59.0629C305.589 59.1766 305.634 59.2842 305.706 59.3735C305.778 59.4628 305.873 59.5302 305.981 59.5682C306.089 59.6061 306.206 59.6131 306.317 59.5882Z" fill="#263238"/>
<path d="M315.132 58.4098C314.766 58.3408 314.404 58.2527 314.048 58.1458C313.656 58.1024 313.289 57.9338 313.001 57.665C312.924 57.5634 312.882 57.4392 312.882 57.3115C312.882 57.1838 312.924 57.0596 313.001 56.958C313.192 56.7909 313.422 56.6768 313.671 56.6271C313.919 56.5775 314.176 56.594 314.415 56.6751C314.924 56.77 315.381 57.0485 315.698 57.4576C315.762 57.5539 315.799 57.6665 315.802 57.7825C315.805 57.8984 315.775 58.0129 315.716 58.1127C315.657 58.2124 315.57 58.2933 315.467 58.3459C315.364 58.3985 315.247 58.4206 315.132 58.4098Z" fill="#263238"/>
<path d="M307.92 69.3738C308.118 69.5718 308.325 69.8358 308.627 69.8641C308.954 69.8592 309.276 69.7819 309.57 69.6378C309.57 69.6378 309.617 69.6378 309.57 69.6849C309.45 69.8503 309.288 69.9803 309.1 70.0616C308.913 70.1429 308.707 70.1723 308.505 70.1469C308.334 70.1059 308.179 70.0151 308.059 69.8858C307.94 69.7565 307.862 69.5947 307.835 69.421C307.826 69.3644 307.882 69.3456 307.92 69.3738Z" fill="#263238"/>
<path d="M308.768 66.8572C308.98 67.183 309.257 67.4617 309.582 67.6758C309.906 67.8899 310.271 68.0349 310.654 68.1016C310.995 68.1533 311.341 68.1533 311.682 68.1016C311.747 68.1114 311.814 68.1114 311.88 68.1016H312.059C312.104 68.0934 312.145 68.0704 312.176 68.0363C312.206 68.0022 312.225 67.9588 312.228 67.9131C312.233 67.885 312.233 67.8563 312.228 67.8282V67.7528C312.228 67.1023 312.162 66.1218 312.162 66.1218C312.398 66.2349 313.614 66.7629 313.586 66.4235C313.475 63.5117 313.071 60.6185 312.379 57.7878C312.379 57.7678 312.371 57.7486 312.357 57.7345C312.343 57.7204 312.324 57.7124 312.304 57.7124C312.284 57.7124 312.265 57.7204 312.25 57.7345C312.236 57.7486 312.228 57.7678 312.228 57.7878C312.313 60.4747 312.869 63.1333 313.001 65.839C312.57 65.6444 312.113 65.5111 311.644 65.443C311.55 65.443 311.823 67.3286 311.795 67.6302C311.266 67.6911 310.731 67.6448 310.221 67.4942C309.71 67.3435 309.236 67.0916 308.825 66.7535C308.787 66.7346 308.721 66.7912 308.768 66.8572Z" fill="#263238"/>
<path d="M311.333 67.8185C310.983 68.2801 310.522 68.6464 309.994 68.8838C309.694 69.0025 309.365 69.0255 309.051 68.9498C308.382 68.7801 308.363 68.1673 308.476 67.6394C308.541 67.3585 308.639 67.0863 308.768 66.8286C309.496 67.4232 310.394 67.77 311.333 67.8185Z" fill="#263238"/>
<path d="M310.003 68.8841C309.703 69.0027 309.374 69.0258 309.061 68.9501C308.391 68.7804 308.372 68.1676 308.486 67.6396C308.841 67.6479 309.184 67.7749 309.459 68.0004C309.734 68.2259 309.926 68.537 310.003 68.8841Z" fill="#FF9BBC"/>
<path d="M297.993 63.5576C297.993 63.5576 294.985 56.091 296.013 52.2445C296.475 50.5004 299.086 49.699 299.086 49.699C299.016 48.9491 299.155 48.1943 299.488 47.5186C299.821 46.8428 300.334 46.2727 300.972 45.8714C303.395 44.231 308.41 45.5038 308.41 45.5038C308.41 45.5038 312.483 41.2802 316.838 43.9294C321.194 46.5785 317.291 51.3677 317.291 51.3677C317.291 51.3677 318.611 54.0734 314.114 55.2896C309.617 56.5058 301.726 53.3004 301.726 53.3004C301.643 56.2267 301.125 59.1244 300.189 61.8983C300.009 62.3485 299.709 62.7408 299.322 63.0332C298.935 63.3255 298.475 63.5068 297.993 63.5576Z" fill="#263238"/>
<path d="M309.24 45.6829C308.265 45.0925 307.181 44.7046 306.053 44.5422C305.051 44.3772 304.029 44.3772 303.027 44.5422C302.132 44.6478 301.283 44.9936 300.569 45.5431C299.856 46.0925 299.304 46.825 298.973 47.6627C298.831 48.1035 298.778 48.5685 298.818 49.0301C298.859 49.4916 298.992 49.9403 299.209 50.3496C299.209 50.3496 299.275 50.3496 299.256 50.3496C298.398 48.8317 299.256 46.8519 300.595 45.9186C302.154 44.9559 304.011 44.594 305.818 44.9004C306.977 45.0765 308.11 45.3931 309.193 45.8432C309.203 45.8463 309.214 45.8473 309.225 45.8461C309.236 45.8449 309.247 45.8416 309.256 45.8364C309.266 45.8311 309.274 45.824 309.281 45.8155C309.288 45.807 309.293 45.7971 309.296 45.7866C309.299 45.7761 309.3 45.7651 309.299 45.7542C309.298 45.7433 309.295 45.7327 309.29 45.7231C309.284 45.7134 309.277 45.7049 309.269 45.698C309.26 45.6912 309.25 45.686 309.24 45.6829Z" fill="#263238"/>
<path d="M319.836 46.7009C319.724 46.0471 319.45 45.4316 319.041 44.9098C318.631 44.3881 318.098 43.9766 317.489 43.7124C316.115 43.0293 314.55 42.83 313.049 43.1467C311.539 43.469 310.143 44.1882 309.004 45.2302C309.004 45.2302 309.004 45.2962 309.004 45.2302C310.025 44.3146 311.274 43.6912 312.62 43.4258C313.965 43.1603 315.358 43.2626 316.65 43.7218C317.252 43.8836 317.804 44.192 318.257 44.6194C318.711 45.0468 319.051 45.5799 319.248 46.171C319.445 46.7622 319.493 47.3929 319.387 48.0069C319.28 48.6209 319.023 49.199 318.639 49.6895C317.736 50.8398 316.527 51.7122 315.151 52.2066C315.151 52.2066 315.151 52.2726 315.151 52.2538C316.439 51.864 317.61 51.1574 318.554 50.1986C319.004 49.74 319.351 49.1909 319.572 48.5878C319.793 47.9847 319.883 47.3415 319.836 46.7009Z" fill="#263238"/>
<path d="M300.84 63.2372C300.84 63.2372 298.502 59.0042 296.607 59.8055C294.712 60.6069 296.183 66.5274 298.2 67.5362C298.451 67.6818 298.728 67.7755 299.016 67.8117C299.304 67.8478 299.596 67.8256 299.875 67.7464C300.153 67.6672 300.414 67.5327 300.639 67.3508C300.865 67.1689 301.052 66.9433 301.189 66.6877L300.84 63.2372Z" fill="#C95F50"/>
<path d="M297.069 61.4746C297.069 61.4746 297.069 61.4746 297.069 61.5312C297.709 61.9371 298.257 62.4735 298.676 63.1054C299.095 63.7374 299.376 64.4506 299.501 65.1985C299.431 65.043 299.328 64.9044 299.199 64.7923C299.07 64.6802 298.919 64.5972 298.755 64.5489C298.591 64.5006 298.419 64.4881 298.25 64.5124C298.081 64.5366 297.919 64.597 297.776 64.6894C297.776 64.6894 297.776 64.7837 297.776 64.7743C298.045 64.7189 298.324 64.7481 298.575 64.8578C298.827 64.9676 299.038 65.1524 299.18 65.3871C299.407 65.7836 299.596 66.2001 299.746 66.6315C299.803 66.7729 300.048 66.7258 300.01 66.5655C300.246 64.68 299.067 61.8989 297.069 61.4746Z" fill="#263238"/>
<path d="M288.989 83.563C275.64 98.5529 265.599 119.661 265.694 124.639C265.826 130.107 272.783 149.368 279.411 158.418C280.269 159.578 285.435 159.087 289.781 156.683C294.391 154.147 298.172 149.622 297.267 148.274C293.863 143.211 285.803 123.602 285.878 120.538C285.944 117.71 292.553 100.344 295.07 90.3038C297.531 80.6405 295.202 76.5583 288.989 83.563Z" fill="#C95F50"/>
<path d="M271.35 156.919L296.211 144.776C296.211 144.776 286.435 122.961 286.435 120.604C286.435 118.247 292.864 99.8069 295.287 91.2843C297.71 82.7618 296.777 73.1834 286.161 86.0709C275.546 98.9584 266.269 118.125 265.213 123.216C264.157 128.306 271.35 156.919 271.35 156.919Z" fill="#E5B323"/>
<path d="M287.679 114.344C288.188 112.729 288.716 111.117 289.263 109.508C289.876 107.707 290.507 105.916 291.148 104.134C291.789 102.352 292.515 100.693 293.213 98.9771C293.213 98.8545 293.477 98.9771 293.439 99.0619C292.61 101.353 291.837 103.672 291.063 105.991C291.648 104.935 292.232 103.889 292.855 102.852C292.868 102.84 292.884 102.832 292.901 102.83C292.919 102.828 292.937 102.831 292.952 102.839C292.968 102.848 292.98 102.86 292.988 102.876C292.996 102.892 292.999 102.91 292.996 102.927C292.298 104.209 291.563 105.463 290.818 106.698C290.639 107.254 290.451 107.82 290.262 108.376C289.216 111.487 288.216 114.617 287.321 117.804C287.098 118.509 286.95 119.236 286.878 119.972C286.839 120.812 286.964 121.65 287.245 122.442C287.698 123.904 288.188 125.346 288.716 126.779C289.753 129.673 290.884 132.52 292.063 135.349C293.411 138.573 294.948 141.75 296.475 144.889C296.475 144.889 295.532 145.135 295.532 145.153C295.532 145.172 295.457 145.153 295.476 145.106C295.494 145.059 296.06 144.795 296.079 144.795C294.523 142.08 293.043 139.412 291.733 136.555C290.422 133.699 289.282 130.899 288.235 127.939C287.698 126.43 287.179 124.922 286.708 123.395C286.173 121.979 286.026 120.446 286.284 118.954C286.632 117.389 287.198 115.862 287.679 114.344Z" fill="#263238"/>
<path d="M270.926 149.914C271.807 149.438 272.713 149.01 273.641 148.632C274.452 148.255 275.253 147.869 276.073 147.501C277.846 146.7 279.618 145.889 281.4 145.097C283.182 144.305 284.954 143.504 286.736 142.731C288.518 141.957 290.271 141.128 292.082 140.458C292.148 140.458 292.195 140.534 292.138 140.572C290.488 141.59 288.725 142.457 286.991 143.296C285.256 144.135 283.55 144.946 281.805 145.729C280.061 146.511 278.232 147.275 276.432 148.001C275.564 148.349 274.688 148.67 273.801 149C272.882 149.397 271.937 149.734 270.973 150.009C270.962 150.01 270.95 150.007 270.94 150.002C270.931 149.996 270.922 149.988 270.917 149.978C270.912 149.967 270.91 149.956 270.912 149.945C270.913 149.933 270.918 149.923 270.926 149.914Z" fill="#263238"/>
</svg>
