<svg width="18" height="29" viewBox="0 0 18 29" fill="none" xmlns="http://www.w3.org/2000/svg">
<path d="M14.25 1.78418C14.7141 1.78418 15.1592 1.96855 15.4874 2.29674C15.8156 2.62493 16 3.07005 16 3.53418V24.5342C16 24.9983 15.8156 25.4434 15.4874 25.7716C15.1592 26.0998 14.7141 26.2842 14.25 26.2842H3.75C3.28587 26.2842 2.84075 26.0998 2.51256 25.7716C2.18437 25.4434 2 24.9983 2 24.5342V3.53418C2 3.07005 2.18437 2.62493 2.51256 2.29674C2.84075 1.96855 3.28587 1.78418 3.75 1.78418H14.25ZM3.75 0.0341797C2.82174 0.0341797 1.9315 0.402929 1.27513 1.05931C0.618749 1.71568 0.25 2.60592 0.25 3.53418V24.5342C0.25 25.4624 0.618749 26.3527 1.27513 27.0091C1.9315 27.6654 2.82174 28.0342 3.75 28.0342H14.25C15.1783 28.0342 16.0685 27.6654 16.7249 27.0091C17.3813 26.3527 17.75 25.4624 17.75 24.5342V3.53418C17.75 2.60592 17.3813 1.71568 16.7249 1.05931C16.0685 0.402929 15.1783 0.0341797 14.25 0.0341797L3.75 0.0341797Z" fill="#080F18"/>
<path d="M9 24.5342C9.46413 24.5342 9.90925 24.3498 10.2374 24.0216C10.5656 23.6934 10.75 23.2483 10.75 22.7842C10.75 22.3201 10.5656 21.8749 10.2374 21.5467C9.90925 21.2186 9.46413 21.0342 9 21.0342C8.53587 21.0342 8.09075 21.2186 7.76256 21.5467C7.43437 21.8749 7.25 22.3201 7.25 22.7842C7.25 23.2483 7.43437 23.6934 7.76256 24.0216C8.09075 24.3498 8.53587 24.5342 9 24.5342Z" fill="#080F18"/>
</svg>
