<svg width="72" height="143" viewBox="0 0 72 143" fill="none"
	xmlns="http://www.w3.org/2000/svg">
	<path d="M8.464 9.43579H6.796L4.636 5.95579H3.46V9.43579H2.08V0.567791H5.212C6.132 0.567791 6.84 0.831791 7.336 1.35979C7.832 1.89579 8.08 2.53179 8.08 3.26779C8.08 3.86779 7.904 4.40379 7.552 4.87579C7.208 5.33979 6.724 5.65579 6.1 5.82379L8.464 9.43579ZM5.212 1.87579H3.46V4.67179H4.996C5.532 4.67179 5.94 4.54379 6.22 4.28779C6.508 4.02379 6.652 3.67979 6.652 3.25579C6.652 2.85579 6.524 2.52779 6.268 2.27179C6.012 2.00779 5.66 1.87579 5.212 1.87579ZM15.2769 6.07579C15.2769 6.28379 15.2609 6.49579 15.2289 6.71179H10.1769C10.2729 7.23179 10.5009 7.64379 10.8609 7.94779C11.2289 8.25179 11.7169 8.40379 12.3249 8.40379C12.6929 8.40379 13.0769 8.33979 13.4769 8.21179C13.8849 8.08379 14.2329 7.91579 14.5209 7.70779L15.0729 8.67979C14.2649 9.27979 13.3329 9.57979 12.2769 9.57979C11.1409 9.57979 10.2769 9.24779 9.68491 8.58379C9.10091 7.91979 8.80891 7.11979 8.80891 6.18379C8.80891 5.20779 9.11291 4.40379 9.72091 3.77179C10.3369 3.13179 11.1329 2.81179 12.1089 2.81179C13.0449 2.81179 13.8049 3.10379 14.3889 3.68779C14.9809 4.27979 15.2769 5.07579 15.2769 6.07579ZM12.1089 3.95179C11.6129 3.95179 11.1889 4.10779 10.8369 4.41979C10.4929 4.72379 10.2729 5.12779 10.1769 5.63179H13.9449C13.8889 5.12779 13.6889 4.72379 13.3449 4.41979C13.0089 4.10779 12.5969 3.95179 12.1089 3.95179ZM21.3274 3.89179V2.96779H22.6474V12.0998H21.3274V8.53579C20.7434 9.23979 20.0034 9.59179 19.1074 9.59179C18.1794 9.59179 17.4114 9.26379 16.8034 8.60779C16.1954 7.95179 15.8914 7.14779 15.8914 6.19579C15.8914 5.25179 16.1954 4.45179 16.8034 3.79579C17.4114 3.13979 18.1834 2.81179 19.1194 2.81179C19.9914 2.81179 20.7274 3.17179 21.3274 3.89179ZM19.3114 8.37979C19.9194 8.37979 20.4154 8.17179 20.7994 7.75579C21.1834 7.33979 21.3754 6.81979 21.3754 6.19579C21.3754 5.58779 21.1834 5.07579 20.7994 4.65979C20.4154 4.23579 19.9194 4.02379 19.3114 4.02379C18.6954 4.02379 18.1954 4.23579 17.8114 4.65979C17.4274 5.07579 17.2354 5.58779 17.2354 6.19579C17.2354 6.81979 17.4274 7.33979 17.8114 7.75579C18.1954 8.17179 18.6954 8.37979 19.3114 8.37979ZM26.7977 9.59179C25.9337 9.59179 25.2457 9.33979 24.7337 8.83579C24.2217 8.33179 23.9657 7.64779 23.9657 6.78379V2.96779H25.2857V6.77179C25.2857 7.25979 25.4177 7.64779 25.6817 7.93579C25.9537 8.22379 26.3257 8.36779 26.7977 8.36779C27.2777 8.36779 27.6497 8.22779 27.9137 7.94779C28.1777 7.66779 28.3097 7.27579 28.3097 6.77179V2.96779H29.6417V6.78379C29.6417 7.66379 29.3897 8.35179 28.8857 8.84779C28.3817 9.34379 27.6857 9.59179 26.7977 9.59179ZM37.0527 6.07579C37.0527 6.28379 37.0367 6.49579 37.0047 6.71179H31.9527C32.0487 7.23179 32.2767 7.64379 32.6367 7.94779C33.0047 8.25179 33.4927 8.40379 34.1007 8.40379C34.4687 8.40379 34.8527 8.33979 35.2527 8.21179C35.6607 8.08379 36.0087 7.91579 36.2967 7.70779L36.8487 8.67979C36.0407 9.27979 35.1087 9.57979 34.0527 9.57979C32.9167 9.57979 32.0527 9.24779 31.4607 8.58379C30.8767 7.91979 30.5847 7.11979 30.5847 6.18379C30.5847 5.20779 30.8887 4.40379 31.4967 3.77179C32.1127 3.13179 32.9087 2.81179 33.8847 2.81179C34.8207 2.81179 35.5807 3.10379 36.1647 3.68779C36.7567 4.27979 37.0527 5.07579 37.0527 6.07579ZM33.8847 3.95179C33.3887 3.95179 32.9647 4.10779 32.6127 4.41979C32.2687 4.72379 32.0487 5.12779 31.9527 5.63179H35.7207C35.6647 5.12779 35.4647 4.72379 35.1207 4.41979C34.7847 4.10779 34.3727 3.95179 33.8847 3.95179ZM39.9595 9.59179C39.4475 9.59179 38.9715 9.47579 38.5315 9.24379C38.0915 9.01179 37.7395 8.67579 37.4755 8.23579L38.3275 7.46779C38.5195 7.77979 38.7635 8.02379 39.0595 8.19979C39.3635 8.36779 39.6715 8.45179 39.9835 8.45179C40.2955 8.45179 40.5515 8.37579 40.7515 8.22379C40.9515 8.06379 41.0515 7.87179 41.0515 7.64779C41.0515 7.32779 40.8675 7.07979 40.4995 6.90379C40.4035 6.84779 40.1435 6.73979 39.7195 6.57979C39.2875 6.39579 39.0155 6.27179 38.9035 6.20779C38.2155 5.84779 37.8715 5.31579 37.8715 4.61179C37.8715 4.07579 38.0715 3.63179 38.4715 3.27979C38.8875 2.92779 39.4235 2.75179 40.0795 2.75179C40.9995 2.75179 41.7075 3.08379 42.2035 3.74779L41.4355 4.56379C41.0515 4.09179 40.5795 3.85579 40.0195 3.85579C39.7555 3.85579 39.5435 3.92379 39.3835 4.05979C39.2315 4.19579 39.1555 4.36379 39.1555 4.56379C39.1555 4.88379 39.3355 5.11979 39.6955 5.27179L40.3555 5.54779C40.7795 5.72379 41.0835 5.85979 41.2675 5.95579C42.0035 6.33979 42.3715 6.88379 42.3715 7.58779C42.3715 8.15579 42.1475 8.63179 41.6995 9.01579C41.2515 9.39979 40.6715 9.59179 39.9595 9.59179ZM47.1945 8.01979L47.6505 9.05179C47.1705 9.41179 46.5745 9.59179 45.8625 9.59179C45.1665 9.59179 44.6385 9.37979 44.2785 8.95579C43.9185 8.53179 43.7385 7.91979 43.7385 7.11979V4.09579H42.6225V2.96779H43.7505V0.675791H45.0585V2.96779H47.2905V4.09579H45.0585V7.14379C45.0585 7.96779 45.3905 8.37979 46.0545 8.37979C46.4065 8.37979 46.7865 8.25979 47.1945 8.01979ZM54.2464 6.07579C54.2464 6.28379 54.2304 6.49579 54.1984 6.71179H49.1464C49.2424 7.23179 49.4704 7.64379 49.8304 7.94779C50.1984 8.25179 50.6864 8.40379 51.2944 8.40379C51.6624 8.40379 52.0464 8.33979 52.4464 8.21179C52.8544 8.08379 53.2024 7.91579 53.4904 7.70779L54.0424 8.67979C53.2344 9.27979 52.3024 9.57979 51.2464 9.57979C50.1104 9.57979 49.2464 9.24779 48.6544 8.58379C48.0704 7.91979 47.7784 7.11979 47.7784 6.18379C47.7784 5.20779 48.0824 4.40379 48.6904 3.77179C49.3064 3.13179 50.1024 2.81179 51.0784 2.81179C52.0144 2.81179 52.7744 3.10379 53.3584 3.68779C53.9504 4.27979 54.2464 5.07579 54.2464 6.07579ZM51.0784 3.95179C50.5824 3.95179 50.1584 4.10779 49.8064 4.41979C49.4624 4.72379 49.2424 5.12779 49.1464 5.63179H52.9144C52.8584 5.12779 52.6584 4.72379 52.3144 4.41979C51.9784 4.10779 51.5664 3.95179 51.0784 3.95179ZM56.565 9.43579H55.245V2.96779H56.505V3.89179C56.889 3.16379 57.501 2.79979 58.341 2.79979C58.613 2.79979 58.869 2.83579 59.109 2.90779L58.989 4.19179C58.773 4.11179 58.537 4.07179 58.281 4.07179C57.761 4.07179 57.345 4.24779 57.033 4.59979C56.721 4.95179 56.565 5.45979 56.565 6.12379V9.43579ZM60.4819 5.23579C60.2419 5.23579 60.0379 5.15579 59.8699 4.99579C59.7099 4.83579 59.6299 4.63579 59.6299 4.39579C59.6299 4.16379 59.7099 3.96779 59.8699 3.80779C60.0379 3.64779 60.2419 3.56779 60.4819 3.56779C60.7139 3.56779 60.9099 3.64779 61.0699 3.80779C61.2299 3.96779 61.3099 4.16379 61.3099 4.39579C61.3099 4.63579 61.2299 4.83579 61.0699 4.99579C60.9099 5.15579 60.7139 5.23579 60.4819 5.23579ZM60.4819 9.62779C60.2419 9.62779 60.0379 9.54779 59.8699 9.38779C59.7099 9.22779 59.6299 9.02779 59.6299 8.78779C59.6299 8.55579 59.7099 8.35979 59.8699 8.19979C60.0379 8.03979 60.2419 7.95979 60.4819 7.95979C60.7139 7.95979 60.9099 8.03979 61.0699 8.19979C61.2299 8.35979 61.3099 8.55579 61.3099 8.78779C61.3099 9.02779 61.2299 9.22779 61.0699 9.38779C60.9099 9.54779 60.7139 9.62779 60.4819 9.62779Z" fill="black"/>
	<rect x="1" y="27.7844" width="67" height="64" rx="16" fill="#F6F5F5"/>
	<path d="M49.3333 76.9094V72.9928C49.3333 70.9152 48.5256 68.9228 47.0878 67.4538C45.65 65.9847 43.7 65.1594 41.6667 65.1594H26.3333C24.3 65.1594 22.35 65.9847 20.9122 67.4538C19.4744 68.9228 18.6667 70.9152 18.6667 72.9928V76.9094" stroke="#C89C3B" stroke-width="2.33333" stroke-linecap="round" stroke-linejoin="round"/>
	<path d="M34 57.3261C38.2342 57.3261 41.6667 53.819 41.6667 49.4928C41.6667 45.1665 38.2342 41.6594 34 41.6594C29.7658 41.6594 26.3333 45.1665 26.3333 49.4928C26.3333 53.819 29.7658 57.3261 34 57.3261Z" stroke="#C89C3B" stroke-width="2.33333" stroke-linecap="round" stroke-linejoin="round"/>
	<rect x="0.230713" y="122.452" width="71.5386" height="20" rx="10" fill="#013FE0"/>
	<path d="M32.9517 136.536C32.7597 136.536 32.6277 136.472 32.5557 136.344C32.4837 136.216 32.4917 136.056 32.5797 135.864L35.8797 128.352C36.0077 128.056 36.2037 127.908 36.4677 127.908C36.5877 127.908 36.6957 127.944 36.7917 128.016C36.8957 128.08 36.9797 128.192 37.0437 128.352L40.3557 135.864C40.4437 136.056 40.4557 136.216 40.3917 136.344C40.3277 136.472 40.1997 136.536 40.0077 136.536C39.8637 136.536 39.7477 136.5 39.6597 136.428C39.5717 136.348 39.4997 136.236 39.4437 136.092L38.6637 134.292H34.2597L33.4917 136.092C33.3637 136.388 33.1837 136.536 32.9517 136.536ZM36.4557 129.144L34.6197 133.464H38.3157L36.4797 129.144H36.4557ZM43.6033 136.56C43.0833 136.56 42.6273 136.436 42.2353 136.188C41.8513 135.94 41.5513 135.592 41.3353 135.144C41.1273 134.688 41.0233 134.152 41.0233 133.536C41.0233 132.912 41.1273 132.376 41.3353 131.928C41.5513 131.472 41.8513 131.124 42.2353 130.884C42.6273 130.636 43.0833 130.512 43.6033 130.512C44.0593 130.512 44.4593 130.612 44.8033 130.812C45.1553 131.012 45.4153 131.288 45.5833 131.64V128.4C45.5833 128.072 45.7473 127.908 46.0753 127.908C46.3953 127.908 46.5553 128.072 46.5553 128.4V136.032C46.5553 136.368 46.3953 136.536 46.0753 136.536C45.7553 136.536 45.5953 136.368 45.5953 136.032V135.408C45.4193 135.768 45.1553 136.052 44.8033 136.26C44.4593 136.46 44.0593 136.56 43.6033 136.56ZM43.8073 135.78C44.3513 135.78 44.7873 135.588 45.1153 135.204C45.4433 134.812 45.6073 134.256 45.6073 133.536C45.6073 132.808 45.4433 132.252 45.1153 131.868C44.7873 131.484 44.3513 131.292 43.8073 131.292C43.2553 131.292 42.8153 131.484 42.4873 131.868C42.1673 132.252 42.0073 132.808 42.0073 133.536C42.0073 134.256 42.1673 134.812 42.4873 135.204C42.8153 135.588 43.2553 135.78 43.8073 135.78ZM50.2994 136.56C49.7794 136.56 49.3234 136.436 48.9314 136.188C48.5474 135.94 48.2474 135.592 48.0314 135.144C47.8234 134.688 47.7194 134.152 47.7194 133.536C47.7194 132.912 47.8234 132.376 48.0314 131.928C48.2474 131.472 48.5474 131.124 48.9314 130.884C49.3234 130.636 49.7794 130.512 50.2994 130.512C50.7554 130.512 51.1554 130.612 51.4994 130.812C51.8514 131.012 52.1114 131.288 52.2794 131.64V128.4C52.2794 128.072 52.4434 127.908 52.7714 127.908C53.0914 127.908 53.2514 128.072 53.2514 128.4V136.032C53.2514 136.368 53.0914 136.536 52.7714 136.536C52.4514 136.536 52.2914 136.368 52.2914 136.032V135.408C52.1154 135.768 51.8514 136.052 51.4994 136.26C51.1554 136.46 50.7554 136.56 50.2994 136.56ZM50.5034 135.78C51.0474 135.78 51.4834 135.588 51.8114 135.204C52.1394 134.812 52.3034 134.256 52.3034 133.536C52.3034 132.808 52.1394 132.252 51.8114 131.868C51.4834 131.484 51.0474 131.292 50.5034 131.292C49.9514 131.292 49.5114 131.484 49.1834 131.868C48.8634 132.252 48.7034 132.808 48.7034 133.536C48.7034 134.256 48.8634 134.812 49.1834 135.204C49.5114 135.588 49.9514 135.78 50.5034 135.78Z" fill="white"/>
	<path d="M18.5 125.722C14.876 125.722 11.9375 128.66 11.9375 132.284C11.9375 135.908 14.876 138.847 18.5 138.847C22.124 138.847 25.0625 135.908 25.0625 132.284C25.0625 128.66 22.124 125.722 18.5 125.722ZM21.3125 132.636C21.3125 132.7 21.2598 132.753 21.1953 132.753H18.9688V134.98C18.9688 135.044 18.916 135.097 18.8516 135.097H18.1484C18.084 135.097 18.0312 135.044 18.0312 134.98V132.753H15.8047C15.7402 132.753 15.6875 132.7 15.6875 132.636V131.933C15.6875 131.868 15.7402 131.816 15.8047 131.816H18.0312V129.589C18.0312 129.525 18.084 129.472 18.1484 129.472H18.8516C18.916 129.472 18.9688 129.525 18.9688 129.589V131.816H21.1953C21.2598 131.816 21.3125 131.868 21.3125 131.933V132.636Z" fill="white"/>
	<path d="M7.42 110.708C6.72667 110.708 6.13333 110.561 5.64 110.268C5.14667 109.975 4.76667 109.558 4.5 109.018C4.24 108.478 4.11 107.835 4.11 107.088C4.11 106.348 4.24 105.708 4.5 105.168C4.76667 104.628 5.14667 104.211 5.64 103.918C6.13333 103.625 6.72667 103.478 7.42 103.478C7.83333 103.478 8.22667 103.538 8.6 103.658C8.97333 103.778 9.29667 103.948 9.57 104.168C9.68333 104.248 9.74667 104.341 9.76 104.448C9.78 104.555 9.76333 104.651 9.71 104.738C9.65667 104.818 9.58 104.871 9.48 104.898C9.38667 104.918 9.28 104.885 9.16 104.798C8.68667 104.418 8.11333 104.228 7.44 104.228C6.64667 104.228 6.04 104.478 5.62 104.978C5.2 105.478 4.99 106.181 4.99 107.088C4.99 108.001 5.2 108.708 5.62 109.208C6.04 109.708 6.64667 109.958 7.44 109.958C8.11333 109.958 8.69333 109.765 9.18 109.378C9.3 109.298 9.40667 109.268 9.5 109.288C9.6 109.308 9.67333 109.358 9.72 109.438C9.77333 109.518 9.79333 109.608 9.78 109.708C9.76667 109.808 9.71 109.898 9.61 109.978C9.32333 110.218 8.99333 110.401 8.62 110.528C8.24667 110.648 7.84667 110.708 7.42 110.708ZM12.357 110.708C11.8836 110.708 11.4736 110.605 11.127 110.398C10.7803 110.191 10.5103 109.901 10.317 109.528C10.1303 109.148 10.037 108.701 10.037 108.188C10.037 107.675 10.1303 107.231 10.317 106.858C10.5103 106.478 10.7803 106.185 11.127 105.978C11.4736 105.771 11.8836 105.668 12.357 105.668C12.8236 105.668 13.2303 105.771 13.577 105.978C13.9303 106.185 14.2003 106.478 14.387 106.858C14.5803 107.231 14.677 107.675 14.677 108.188C14.677 108.701 14.5803 109.148 14.387 109.528C14.2003 109.901 13.9303 110.191 13.577 110.398C13.2303 110.605 12.8236 110.708 12.357 110.708ZM12.357 110.058C12.8103 110.058 13.1736 109.898 13.447 109.578C13.7203 109.251 13.857 108.788 13.857 108.188C13.857 107.581 13.7203 107.118 13.447 106.798C13.1736 106.478 12.8103 106.318 12.357 106.318C11.897 106.318 11.5303 106.478 11.257 106.798C10.9903 107.118 10.857 107.581 10.857 108.188C10.857 108.788 10.9903 109.251 11.257 109.578C11.5303 109.898 11.897 110.058 12.357 110.058ZM15.9936 110.688C15.7269 110.688 15.5936 110.548 15.5936 110.268V106.098C15.5936 105.825 15.7236 105.688 15.9836 105.688C16.2503 105.688 16.3836 105.825 16.3836 106.098V106.588C16.5436 106.281 16.7703 106.051 17.0636 105.898C17.3569 105.745 17.6869 105.668 18.0536 105.668C19.2069 105.668 19.7836 106.308 19.7836 107.588V110.268C19.7836 110.548 19.6503 110.688 19.3836 110.688C19.1103 110.688 18.9736 110.548 18.9736 110.268V107.638C18.9736 107.185 18.8836 106.855 18.7036 106.648C18.5303 106.435 18.2503 106.328 17.8636 106.328C17.4169 106.328 17.0603 106.468 16.7936 106.748C16.5336 107.021 16.4036 107.388 16.4036 107.848V110.268C16.4036 110.548 16.2669 110.688 15.9936 110.688ZM22.9272 110.708C22.3539 110.708 21.9239 110.558 21.6372 110.258C21.3505 109.951 21.2072 109.511 21.2072 108.938V106.388H20.5372C20.3039 106.388 20.1872 106.281 20.1872 106.068C20.1872 105.861 20.3039 105.758 20.5372 105.758H21.2072V104.608C21.2072 104.335 21.3439 104.198 21.6172 104.198C21.8839 104.198 22.0172 104.335 22.0172 104.608V105.758H23.2772C23.5105 105.758 23.6272 105.861 23.6272 106.068C23.6272 106.281 23.5105 106.388 23.2772 106.388H22.0172V108.858C22.0172 109.238 22.0972 109.528 22.2572 109.728C22.4172 109.921 22.6772 110.018 23.0372 110.018C23.1639 110.018 23.2705 110.005 23.3572 109.978C23.4439 109.951 23.5205 109.938 23.5872 109.938C23.6472 109.931 23.6972 109.951 23.7372 109.998C23.7772 110.045 23.7972 110.125 23.7972 110.238C23.7972 110.318 23.7805 110.391 23.7472 110.458C23.7205 110.525 23.6705 110.571 23.5972 110.598C23.5172 110.625 23.4105 110.648 23.2772 110.668C23.1505 110.695 23.0339 110.708 22.9272 110.708ZM25.7033 110.708C25.3699 110.708 25.0699 110.645 24.8033 110.518C24.5433 110.385 24.3366 110.205 24.1833 109.978C24.0299 109.751 23.9533 109.498 23.9533 109.218C23.9533 108.865 24.0433 108.585 24.2233 108.378C24.4099 108.171 24.7133 108.025 25.1333 107.938C25.5599 107.845 26.1399 107.798 26.8733 107.798H27.1933V107.488C27.1933 107.075 27.1066 106.778 26.9333 106.598C26.7666 106.411 26.4966 106.318 26.1233 106.318C25.8899 106.318 25.6533 106.348 25.4133 106.408C25.1799 106.468 24.9366 106.565 24.6833 106.698C24.5699 106.758 24.4733 106.771 24.3933 106.738C24.3199 106.698 24.2666 106.638 24.2333 106.558C24.2066 106.471 24.2066 106.385 24.2333 106.298C24.2666 106.205 24.3333 106.135 24.4333 106.088C24.7199 105.941 25.0066 105.835 25.2933 105.768C25.5866 105.701 25.8633 105.668 26.1233 105.668C26.7499 105.668 27.2133 105.821 27.5133 106.128C27.8199 106.435 27.9733 106.911 27.9733 107.558V110.268C27.9733 110.548 27.8499 110.688 27.6033 110.688C27.3433 110.688 27.2133 110.548 27.2133 110.268V109.778C27.0866 110.065 26.8899 110.291 26.6233 110.458C26.3633 110.625 26.0566 110.708 25.7033 110.708ZM25.8333 110.098C26.2333 110.098 26.5599 109.961 26.8133 109.688C27.0666 109.408 27.1933 109.055 27.1933 108.628V108.328H26.8833C26.3433 108.328 25.9166 108.355 25.6033 108.408C25.2966 108.455 25.0799 108.541 24.9533 108.668C24.8333 108.788 24.7733 108.955 24.7733 109.168C24.7733 109.441 24.8666 109.665 25.0533 109.838C25.2466 110.011 25.5066 110.098 25.8333 110.098ZM31.236 110.708C30.7493 110.708 30.3293 110.605 29.976 110.398C29.6227 110.185 29.3493 109.888 29.156 109.508C28.9693 109.121 28.876 108.671 28.876 108.158C28.876 107.385 29.086 106.778 29.506 106.338C29.926 105.891 30.5027 105.668 31.236 105.668C31.476 105.668 31.726 105.708 31.986 105.788C32.246 105.861 32.4827 105.985 32.696 106.158C32.8093 106.238 32.856 106.338 32.836 106.458C32.8227 106.578 32.766 106.668 32.666 106.728C32.5727 106.788 32.4627 106.775 32.336 106.688C32.156 106.555 31.976 106.461 31.796 106.408C31.6227 106.355 31.4527 106.328 31.286 106.328C30.7793 106.328 30.3893 106.488 30.116 106.808C29.8427 107.121 29.706 107.575 29.706 108.168C29.706 108.748 29.8427 109.208 30.116 109.548C30.3893 109.881 30.7793 110.048 31.286 110.048C31.4527 110.048 31.6227 110.021 31.796 109.968C31.976 109.915 32.156 109.821 32.336 109.688C32.4627 109.601 32.5727 109.591 32.666 109.658C32.7593 109.718 32.8093 109.808 32.816 109.928C32.8293 110.048 32.7827 110.145 32.676 110.218C32.4627 110.391 32.2293 110.518 31.976 110.598C31.7227 110.671 31.476 110.708 31.236 110.708ZM35.4549 110.708C34.8816 110.708 34.4516 110.558 34.1649 110.258C33.8783 109.951 33.7349 109.511 33.7349 108.938V106.388H33.0649C32.8316 106.388 32.7149 106.281 32.7149 106.068C32.7149 105.861 32.8316 105.758 33.0649 105.758H33.7349V104.608C33.7349 104.335 33.8716 104.198 34.1449 104.198C34.4116 104.198 34.5449 104.335 34.5449 104.608V105.758H35.8049C36.0383 105.758 36.1549 105.861 36.1549 106.068C36.1549 106.281 36.0383 106.388 35.8049 106.388H34.5449V108.858C34.5449 109.238 34.6249 109.528 34.7849 109.728C34.9449 109.921 35.2049 110.018 35.5649 110.018C35.6916 110.018 35.7983 110.005 35.8849 109.978C35.9716 109.951 36.0483 109.938 36.1149 109.938C36.1749 109.931 36.2249 109.951 36.2649 109.998C36.3049 110.045 36.3249 110.125 36.3249 110.238C36.3249 110.318 36.3083 110.391 36.2749 110.458C36.2483 110.525 36.1983 110.571 36.1249 110.598C36.0449 110.625 35.9383 110.648 35.8049 110.668C35.6783 110.695 35.5616 110.708 35.4549 110.708ZM39.4791 110.688C39.2191 110.688 39.0891 110.551 39.0891 110.278V103.918C39.0891 103.638 39.2091 103.498 39.4491 103.498C39.5491 103.498 39.6258 103.518 39.6791 103.558C39.7325 103.591 39.7925 103.655 39.8591 103.748L43.9791 109.238V103.898C43.9791 103.631 44.1091 103.498 44.3691 103.498C44.6158 103.498 44.7391 103.631 44.7391 103.898V110.288C44.7391 110.555 44.6291 110.688 44.4091 110.688C44.3091 110.688 44.2291 110.668 44.1691 110.628C44.1091 110.588 44.0458 110.525 43.9791 110.438L39.8591 104.928V110.278C39.8591 110.551 39.7325 110.688 39.4791 110.688ZM47.6115 110.708C47.2782 110.708 46.9782 110.645 46.7115 110.518C46.4515 110.385 46.2448 110.205 46.0915 109.978C45.9382 109.751 45.8615 109.498 45.8615 109.218C45.8615 108.865 45.9515 108.585 46.1315 108.378C46.3182 108.171 46.6215 108.025 47.0415 107.938C47.4682 107.845 48.0482 107.798 48.7815 107.798H49.1015V107.488C49.1015 107.075 49.0148 106.778 48.8415 106.598C48.6748 106.411 48.4048 106.318 48.0315 106.318C47.7982 106.318 47.5615 106.348 47.3215 106.408C47.0882 106.468 46.8448 106.565 46.5915 106.698C46.4782 106.758 46.3815 106.771 46.3015 106.738C46.2282 106.698 46.1748 106.638 46.1415 106.558C46.1148 106.471 46.1148 106.385 46.1415 106.298C46.1748 106.205 46.2415 106.135 46.3415 106.088C46.6282 105.941 46.9148 105.835 47.2015 105.768C47.4948 105.701 47.7715 105.668 48.0315 105.668C48.6582 105.668 49.1215 105.821 49.4215 106.128C49.7282 106.435 49.8815 106.911 49.8815 107.558V110.268C49.8815 110.548 49.7582 110.688 49.5115 110.688C49.2515 110.688 49.1215 110.548 49.1215 110.268V109.778C48.9948 110.065 48.7982 110.291 48.5315 110.458C48.2715 110.625 47.9648 110.708 47.6115 110.708ZM47.7415 110.098C48.1415 110.098 48.4682 109.961 48.7215 109.688C48.9748 109.408 49.1015 109.055 49.1015 108.628V108.328H48.7915C48.2515 108.328 47.8248 108.355 47.5115 108.408C47.2048 108.455 46.9882 108.541 46.8615 108.668C46.7415 108.788 46.6815 108.955 46.6815 109.168C46.6815 109.441 46.7748 109.665 46.9615 109.838C47.1548 110.011 47.4148 110.098 47.7415 110.098ZM51.5042 110.688C51.2376 110.688 51.1042 110.548 51.1042 110.268V106.098C51.1042 105.825 51.2342 105.688 51.4942 105.688C51.7609 105.688 51.8942 105.825 51.8942 106.098V106.578C52.0409 106.285 52.2442 106.061 52.5042 105.908C52.7642 105.748 53.0676 105.668 53.4142 105.668C54.1742 105.668 54.6609 105.998 54.8742 106.658C55.0209 106.351 55.2376 106.111 55.5242 105.938C55.8109 105.758 56.1409 105.668 56.5142 105.668C57.5942 105.668 58.1342 106.308 58.1342 107.588V110.268C58.1342 110.548 57.9976 110.688 57.7242 110.688C57.4576 110.688 57.3242 110.548 57.3242 110.268V107.628C57.3242 107.181 57.2442 106.855 57.0842 106.648C56.9309 106.435 56.6742 106.328 56.3142 106.328C55.9209 106.328 55.6076 106.468 55.3742 106.748C55.1409 107.028 55.0242 107.401 55.0242 107.868V110.268C55.0242 110.548 54.8876 110.688 54.6142 110.688C54.3476 110.688 54.2142 110.548 54.2142 110.268V107.628C54.2142 107.181 54.1342 106.855 53.9742 106.648C53.8209 106.435 53.5642 106.328 53.2042 106.328C52.8042 106.328 52.4876 106.468 52.2542 106.748C52.0276 107.028 51.9142 107.401 51.9142 107.868V110.268C51.9142 110.548 51.7776 110.688 51.5042 110.688ZM61.5387 110.708C60.772 110.708 60.1653 110.485 59.7187 110.038C59.272 109.585 59.0487 108.971 59.0487 108.198C59.0487 107.698 59.1487 107.258 59.3487 106.878C59.5487 106.491 59.822 106.195 60.1687 105.988C60.522 105.775 60.9287 105.668 61.3887 105.668C62.0487 105.668 62.5653 105.881 62.9387 106.308C63.312 106.728 63.4987 107.308 63.4987 108.048C63.4987 108.255 63.382 108.358 63.1487 108.358H59.8387C59.8653 108.911 60.0253 109.335 60.3187 109.628C60.612 109.915 61.0187 110.058 61.5387 110.058C61.7587 110.058 61.982 110.031 62.2087 109.978C62.4353 109.918 62.6553 109.815 62.8687 109.668C63.022 109.568 63.1487 109.548 63.2487 109.608C63.3553 109.668 63.4087 109.761 63.4087 109.888C63.4153 110.008 63.3487 110.115 63.2087 110.208C62.9887 110.368 62.7253 110.491 62.4187 110.578C62.1187 110.665 61.8253 110.708 61.5387 110.708ZM61.4087 106.268C60.9487 106.268 60.5853 106.411 60.3187 106.698C60.052 106.985 59.8953 107.361 59.8487 107.828H62.7987C62.7787 107.335 62.6487 106.951 62.4087 106.678C62.1753 106.405 61.842 106.268 61.4087 106.268Z" fill="#8D8D8D"/>
</svg>
