<svg width="143" height="213" viewBox="0 0 143 213" fill="none" xmlns="http://www.w3.org/2000/svg">
<path d="M34.464 20H32.796L30.636 16.52H29.46V20H28.08V11.132H31.212C32.132 11.132 32.84 11.396 33.336 11.924C33.832 12.46 34.08 13.096 34.08 13.832C34.08 14.432 33.904 14.968 33.552 15.44C33.208 15.904 32.724 16.22 32.1 16.388L34.464 20ZM31.212 12.44H29.46V15.236H30.996C31.532 15.236 31.94 15.108 32.22 14.852C32.508 14.588 32.652 14.244 32.652 13.82C32.652 13.42 32.524 13.092 32.268 12.836C32.012 12.572 31.66 12.44 31.212 12.44ZM41.2769 16.64C41.2769 16.848 41.2609 17.06 41.2289 17.276H36.1769C36.2729 17.796 36.5009 18.208 36.8609 18.512C37.2289 18.816 37.7169 18.968 38.3249 18.968C38.6929 18.968 39.0769 18.904 39.4769 18.776C39.8849 18.648 40.2329 18.48 40.5209 18.272L41.0729 19.244C40.2649 19.844 39.3329 20.144 38.2769 20.144C37.1409 20.144 36.2769 19.812 35.6849 19.148C35.1009 18.484 34.8089 17.684 34.8089 16.748C34.8089 15.772 35.1129 14.968 35.7209 14.336C36.3369 13.696 37.1329 13.376 38.1089 13.376C39.0449 13.376 39.8049 13.668 40.3889 14.252C40.9809 14.844 41.2769 15.64 41.2769 16.64ZM38.1089 14.516C37.6129 14.516 37.1889 14.672 36.8369 14.984C36.4929 15.288 36.2729 15.692 36.1769 16.196H39.9449C39.8889 15.692 39.6889 15.288 39.3449 14.984C39.0089 14.672 38.5969 14.516 38.1089 14.516ZM47.3274 14.456V13.532H48.6474V22.664H47.3274V19.1C46.7434 19.804 46.0034 20.156 45.1074 20.156C44.1794 20.156 43.4114 19.828 42.8034 19.172C42.1954 18.516 41.8914 17.712 41.8914 16.76C41.8914 15.816 42.1954 15.016 42.8034 14.36C43.4114 13.704 44.1834 13.376 45.1194 13.376C45.9914 13.376 46.7274 13.736 47.3274 14.456ZM45.3114 18.944C45.9194 18.944 46.4154 18.736 46.7994 18.32C47.1834 17.904 47.3754 17.384 47.3754 16.76C47.3754 16.152 47.1834 15.64 46.7994 15.224C46.4154 14.8 45.9194 14.588 45.3114 14.588C44.6954 14.588 44.1954 14.8 43.8114 15.224C43.4274 15.64 43.2354 16.152 43.2354 16.76C43.2354 17.384 43.4274 17.904 43.8114 18.32C44.1954 18.736 44.6954 18.944 45.3114 18.944ZM52.7977 20.156C51.9337 20.156 51.2457 19.904 50.7337 19.4C50.2217 18.896 49.9657 18.212 49.9657 17.348V13.532H51.2857V17.336C51.2857 17.824 51.4177 18.212 51.6817 18.5C51.9537 18.788 52.3257 18.932 52.7977 18.932C53.2777 18.932 53.6497 18.792 53.9137 18.512C54.1777 18.232 54.3097 17.84 54.3097 17.336V13.532H55.6417V17.348C55.6417 18.228 55.3897 18.916 54.8857 19.412C54.3817 19.908 53.6857 20.156 52.7977 20.156ZM63.0527 16.64C63.0527 16.848 63.0367 17.06 63.0047 17.276H57.9527C58.0487 17.796 58.2767 18.208 58.6367 18.512C59.0047 18.816 59.4927 18.968 60.1007 18.968C60.4687 18.968 60.8527 18.904 61.2527 18.776C61.6607 18.648 62.0087 18.48 62.2967 18.272L62.8487 19.244C62.0407 19.844 61.1087 20.144 60.0527 20.144C58.9167 20.144 58.0527 19.812 57.4607 19.148C56.8767 18.484 56.5847 17.684 56.5847 16.748C56.5847 15.772 56.8887 14.968 57.4967 14.336C58.1127 13.696 58.9087 13.376 59.8847 13.376C60.8207 13.376 61.5807 13.668 62.1647 14.252C62.7567 14.844 63.0527 15.64 63.0527 16.64ZM59.8847 14.516C59.3887 14.516 58.9647 14.672 58.6127 14.984C58.2687 15.288 58.0487 15.692 57.9527 16.196H61.7207C61.6647 15.692 61.4647 15.288 61.1207 14.984C60.7847 14.672 60.3727 14.516 59.8847 14.516ZM65.9595 20.156C65.4475 20.156 64.9715 20.04 64.5315 19.808C64.0915 19.576 63.7395 19.24 63.4755 18.8L64.3275 18.032C64.5195 18.344 64.7635 18.588 65.0595 18.764C65.3635 18.932 65.6715 19.016 65.9835 19.016C66.2955 19.016 66.5515 18.94 66.7515 18.788C66.9515 18.628 67.0515 18.436 67.0515 18.212C67.0515 17.892 66.8675 17.644 66.4995 17.468C66.4035 17.412 66.1435 17.304 65.7195 17.144C65.2875 16.96 65.0155 16.836 64.9035 16.772C64.2155 16.412 63.8715 15.88 63.8715 15.176C63.8715 14.64 64.0715 14.196 64.4715 13.844C64.8875 13.492 65.4235 13.316 66.0795 13.316C66.9995 13.316 67.7075 13.648 68.2035 14.312L67.4355 15.128C67.0515 14.656 66.5795 14.42 66.0195 14.42C65.7555 14.42 65.5435 14.488 65.3835 14.624C65.2315 14.76 65.1555 14.928 65.1555 15.128C65.1555 15.448 65.3355 15.684 65.6955 15.836L66.3555 16.112C66.7795 16.288 67.0835 16.424 67.2675 16.52C68.0035 16.904 68.3715 17.448 68.3715 18.152C68.3715 18.72 68.1475 19.196 67.6995 19.58C67.2515 19.964 66.6715 20.156 65.9595 20.156ZM73.1945 18.584L73.6505 19.616C73.1705 19.976 72.5745 20.156 71.8625 20.156C71.1665 20.156 70.6385 19.944 70.2785 19.52C69.9185 19.096 69.7385 18.484 69.7385 17.684V14.66H68.6225V13.532H69.7505V11.24H71.0585V13.532H73.2905V14.66H71.0585V17.708C71.0585 18.532 71.3905 18.944 72.0545 18.944C72.4065 18.944 72.7865 18.824 73.1945 18.584ZM80.2464 16.64C80.2464 16.848 80.2304 17.06 80.1984 17.276H75.1464C75.2424 17.796 75.4704 18.208 75.8304 18.512C76.1984 18.816 76.6864 18.968 77.2944 18.968C77.6624 18.968 78.0464 18.904 78.4464 18.776C78.8544 18.648 79.2024 18.48 79.4904 18.272L80.0424 19.244C79.2344 19.844 78.3024 20.144 77.2464 20.144C76.1104 20.144 75.2464 19.812 74.6544 19.148C74.0704 18.484 73.7784 17.684 73.7784 16.748C73.7784 15.772 74.0824 14.968 74.6904 14.336C75.3064 13.696 76.1024 13.376 77.0784 13.376C78.0144 13.376 78.7744 13.668 79.3584 14.252C79.9504 14.844 80.2464 15.64 80.2464 16.64ZM77.0784 14.516C76.5824 14.516 76.1584 14.672 75.8064 14.984C75.4624 15.288 75.2424 15.692 75.1464 16.196H78.9144C78.8584 15.692 78.6584 15.288 78.3144 14.984C77.9784 14.672 77.5664 14.516 77.0784 14.516ZM82.565 20H81.245V13.532H82.505V14.456C82.889 13.728 83.501 13.364 84.341 13.364C84.613 13.364 84.869 13.4 85.109 13.472L84.989 14.756C84.773 14.676 84.537 14.636 84.281 14.636C83.761 14.636 83.345 14.812 83.033 15.164C82.721 15.516 82.565 16.024 82.565 16.688V20ZM86.4819 15.8C86.2419 15.8 86.0379 15.72 85.8699 15.56C85.7099 15.4 85.6299 15.2 85.6299 14.96C85.6299 14.728 85.7099 14.532 85.8699 14.372C86.0379 14.212 86.2419 14.132 86.4819 14.132C86.7139 14.132 86.9099 14.212 87.0699 14.372C87.2299 14.532 87.3099 14.728 87.3099 14.96C87.3099 15.2 87.2299 15.4 87.0699 15.56C86.9099 15.72 86.7139 15.8 86.4819 15.8ZM86.4819 20.192C86.2419 20.192 86.0379 20.112 85.8699 19.952C85.7099 19.792 85.6299 19.592 85.6299 19.352C85.6299 19.12 85.7099 18.924 85.8699 18.764C86.0379 18.604 86.2419 18.524 86.4819 18.524C86.7139 18.524 86.9099 18.604 87.0699 18.764C87.2299 18.924 87.3099 19.12 87.3099 19.352C87.3099 19.592 87.2299 19.792 87.0699 19.952C86.9099 20.112 86.7139 20.192 86.4819 20.192Z" fill="black"/>
<g filter="url(#filter0_d_786_2593)">
<rect x="18" y="40" width="85" height="132.516" rx="15" fill="white"/>
</g>
<rect x="27" y="49" width="67" height="64" rx="16" fill="#F6F5F5"/>
<path d="M75.3333 98.125V94.2083C75.3333 92.1308 74.5256 90.1384 73.0878 88.6693C71.65 87.2003 69.7 86.375 67.6667 86.375H52.3333C50.3 86.375 48.35 87.2003 46.9122 88.6693C45.4744 90.1384 44.6667 92.1308 44.6667 94.2083V98.125" stroke="#C89C3B" stroke-width="2.33333" stroke-linecap="round" stroke-linejoin="round"/>
<path d="M60 78.5417C64.2342 78.5417 67.6667 75.0346 67.6667 70.7083C67.6667 66.3821 64.2342 62.875 60 62.875C55.7658 62.875 52.3333 66.3821 52.3333 70.7083C52.3333 75.0346 55.7658 78.5417 60 78.5417Z" stroke="#C89C3B" stroke-width="2.33333" stroke-linecap="round" stroke-linejoin="round"/>
<rect x="26.2307" y="143.667" width="71.5386" height="20" rx="10" fill="#013FE0"/>
<path d="M58.9517 157.751C58.7597 157.751 58.6277 157.687 58.5557 157.559C58.4837 157.431 58.4917 157.271 58.5797 157.079L61.8797 149.567C62.0077 149.271 62.2037 149.123 62.4677 149.123C62.5877 149.123 62.6957 149.159 62.7917 149.231C62.8957 149.295 62.9797 149.407 63.0437 149.567L66.3557 157.079C66.4437 157.271 66.4557 157.431 66.3917 157.559C66.3277 157.687 66.1997 157.751 66.0077 157.751C65.8637 157.751 65.7477 157.715 65.6597 157.643C65.5717 157.563 65.4997 157.451 65.4437 157.307L64.6637 155.507H60.2597L59.4917 157.307C59.3637 157.603 59.1837 157.751 58.9517 157.751ZM62.4557 150.359L60.6197 154.679H64.3157L62.4797 150.359H62.4557ZM69.6033 157.775C69.0833 157.775 68.6273 157.651 68.2353 157.403C67.8513 157.155 67.5513 156.807 67.3353 156.359C67.1273 155.903 67.0233 155.367 67.0233 154.751C67.0233 154.127 67.1273 153.591 67.3353 153.143C67.5513 152.687 67.8513 152.339 68.2353 152.099C68.6273 151.851 69.0833 151.727 69.6033 151.727C70.0593 151.727 70.4593 151.827 70.8033 152.027C71.1553 152.227 71.4153 152.503 71.5833 152.855V149.615C71.5833 149.287 71.7473 149.123 72.0753 149.123C72.3953 149.123 72.5553 149.287 72.5553 149.615V157.247C72.5553 157.583 72.3953 157.751 72.0753 157.751C71.7553 157.751 71.5953 157.583 71.5953 157.247V156.623C71.4193 156.983 71.1553 157.267 70.8033 157.475C70.4593 157.675 70.0593 157.775 69.6033 157.775ZM69.8073 156.995C70.3513 156.995 70.7873 156.803 71.1153 156.419C71.4433 156.027 71.6073 155.471 71.6073 154.751C71.6073 154.023 71.4433 153.467 71.1153 153.083C70.7873 152.699 70.3513 152.507 69.8073 152.507C69.2553 152.507 68.8153 152.699 68.4873 153.083C68.1673 153.467 68.0073 154.023 68.0073 154.751C68.0073 155.471 68.1673 156.027 68.4873 156.419C68.8153 156.803 69.2553 156.995 69.8073 156.995ZM76.2994 157.775C75.7794 157.775 75.3234 157.651 74.9314 157.403C74.5474 157.155 74.2474 156.807 74.0314 156.359C73.8234 155.903 73.7194 155.367 73.7194 154.751C73.7194 154.127 73.8234 153.591 74.0314 153.143C74.2474 152.687 74.5474 152.339 74.9314 152.099C75.3234 151.851 75.7794 151.727 76.2994 151.727C76.7554 151.727 77.1554 151.827 77.4994 152.027C77.8514 152.227 78.1114 152.503 78.2794 152.855V149.615C78.2794 149.287 78.4434 149.123 78.7714 149.123C79.0914 149.123 79.2514 149.287 79.2514 149.615V157.247C79.2514 157.583 79.0914 157.751 78.7714 157.751C78.4514 157.751 78.2914 157.583 78.2914 157.247V156.623C78.1154 156.983 77.8514 157.267 77.4994 157.475C77.1554 157.675 76.7554 157.775 76.2994 157.775ZM76.5034 156.995C77.0474 156.995 77.4834 156.803 77.8114 156.419C78.1394 156.027 78.3034 155.471 78.3034 154.751C78.3034 154.023 78.1394 153.467 77.8114 153.083C77.4834 152.699 77.0474 152.507 76.5034 152.507C75.9514 152.507 75.5114 152.699 75.1834 153.083C74.8634 153.467 74.7034 154.023 74.7034 154.751C74.7034 155.471 74.8634 156.027 75.1834 156.419C75.5114 156.803 75.9514 156.995 76.5034 156.995Z" fill="white"/>
<path d="M44.5 146.938C40.876 146.938 37.9375 149.876 37.9375 153.5C37.9375 157.124 40.876 160.062 44.5 160.062C48.124 160.062 51.0625 157.124 51.0625 153.5C51.0625 149.876 48.124 146.938 44.5 146.938ZM47.3125 153.852C47.3125 153.916 47.2598 153.969 47.1953 153.969H44.9688V156.195C44.9688 156.26 44.916 156.312 44.8516 156.312H44.1484C44.084 156.312 44.0312 156.26 44.0312 156.195V153.969H41.8047C41.7402 153.969 41.6875 153.916 41.6875 153.852V153.148C41.6875 153.084 41.7402 153.031 41.8047 153.031H44.0312V150.805C44.0312 150.74 44.084 150.688 44.1484 150.688H44.8516C44.916 150.688 44.9688 150.74 44.9688 150.805V153.031H47.1953C47.2598 153.031 47.3125 153.084 47.3125 153.148V153.852Z" fill="white"/>
<path d="M30.78 131.904C30.6467 131.904 30.5433 131.867 30.47 131.794C30.4033 131.714 30.37 131.607 30.37 131.474V125.204C30.37 125.064 30.4067 124.96 30.48 124.894C30.5533 124.82 30.6567 124.784 30.79 124.784H33.16C33.9133 124.784 34.4933 124.96 34.9 125.314C35.3067 125.667 35.51 126.17 35.51 126.824C35.51 127.237 35.4167 127.597 35.23 127.904C35.05 128.204 34.7833 128.434 34.43 128.594C34.0767 128.747 33.6533 128.824 33.16 128.824L33.26 128.694H33.46C33.72 128.694 33.9467 128.76 34.14 128.894C34.3333 129.027 34.51 129.24 34.67 129.534L35.63 131.324C35.6833 131.417 35.7067 131.51 35.7 131.604C35.7 131.69 35.67 131.764 35.61 131.824C35.55 131.877 35.4633 131.904 35.35 131.904C35.2367 131.904 35.1433 131.877 35.07 131.824C34.9967 131.77 34.9333 131.694 34.88 131.594L33.79 129.574C33.6367 129.287 33.46 129.097 33.26 129.004C33.06 128.904 32.7967 128.854 32.47 128.854H31.19V131.474C31.19 131.607 31.1567 131.714 31.09 131.794C31.0233 131.867 30.92 131.904 30.78 131.904ZM31.19 128.204H33.04C33.5867 128.204 34 128.09 34.28 127.864C34.56 127.63 34.7 127.284 34.7 126.824C34.7 126.377 34.56 126.04 34.28 125.814C34 125.58 33.5867 125.464 33.04 125.464H31.19V128.204ZM38.732 131.924C38.2187 131.924 37.7754 131.824 37.402 131.624C37.0354 131.417 36.7487 131.127 36.542 130.754C36.342 130.38 36.242 129.934 36.242 129.414C36.242 128.907 36.342 128.467 36.542 128.094C36.742 127.714 37.0154 127.417 37.362 127.204C37.7154 126.99 38.122 126.884 38.582 126.884C38.9087 126.884 39.202 126.94 39.462 127.054C39.722 127.16 39.942 127.317 40.122 127.524C40.3087 127.73 40.4487 127.98 40.542 128.274C40.642 128.567 40.692 128.897 40.692 129.264C40.692 129.37 40.662 129.45 40.602 129.504C40.542 129.55 40.4554 129.574 40.342 129.574H36.862V129.044H40.152L39.992 129.174C39.992 128.814 39.9387 128.51 39.832 128.264C39.7254 128.01 39.5687 127.817 39.362 127.684C39.162 127.55 38.9087 127.484 38.602 127.484C38.262 127.484 37.972 127.564 37.732 127.724C37.4987 127.877 37.322 128.094 37.202 128.374C37.082 128.647 37.022 128.967 37.022 129.334V129.394C37.022 130.007 37.1687 130.474 37.462 130.794C37.762 131.114 38.1854 131.274 38.732 131.274C38.9587 131.274 39.182 131.244 39.402 131.184C39.6287 131.124 39.8487 131.024 40.062 130.884C40.1554 130.824 40.2387 130.797 40.312 130.804C40.392 130.804 40.4554 130.827 40.502 130.874C40.5487 130.914 40.5787 130.967 40.592 131.034C40.612 131.094 40.6054 131.16 40.572 131.234C40.5454 131.307 40.4887 131.37 40.402 131.424C40.182 131.584 39.922 131.707 39.622 131.794C39.322 131.88 39.0254 131.924 38.732 131.924ZM45.4743 133.704C45.341 133.704 45.2376 133.667 45.1643 133.594C45.0976 133.527 45.0643 133.427 45.0643 133.294V130.694H45.1743C45.0676 131.067 44.8576 131.367 44.5443 131.594C44.231 131.814 43.8543 131.924 43.4143 131.924C42.981 131.924 42.601 131.82 42.2743 131.614C41.9543 131.407 41.7043 131.117 41.5243 130.744C41.351 130.364 41.2643 129.917 41.2643 129.404C41.2643 128.884 41.351 128.437 41.5243 128.064C41.7043 127.684 41.9543 127.394 42.2743 127.194C42.601 126.987 42.981 126.884 43.4143 126.884C43.8543 126.884 44.231 126.997 44.5443 127.224C44.8643 127.444 45.0776 127.744 45.1843 128.124L45.0743 128.264V127.314C45.0743 127.18 45.1076 127.08 45.1743 127.014C45.2476 126.94 45.3476 126.904 45.4743 126.904C45.6076 126.904 45.7076 126.94 45.7743 127.014C45.841 127.08 45.8743 127.18 45.8743 127.314V133.294C45.8743 133.427 45.8376 133.527 45.7643 133.594C45.6976 133.667 45.601 133.704 45.4743 133.704ZM43.5843 131.274C43.8843 131.274 44.1476 131.2 44.3743 131.054C44.601 130.907 44.7743 130.694 44.8943 130.414C45.021 130.134 45.0843 129.797 45.0843 129.404C45.0843 128.797 44.9476 128.334 44.6743 128.014C44.4076 127.694 44.0443 127.534 43.5843 127.534C43.2776 127.534 43.011 127.607 42.7843 127.754C42.5643 127.894 42.391 128.104 42.2643 128.384C42.1443 128.657 42.0843 128.997 42.0843 129.404C42.0843 130.004 42.221 130.467 42.4943 130.794C42.7676 131.114 43.131 131.274 43.5843 131.274ZM48.8144 131.924C48.421 131.924 48.0944 131.854 47.8344 131.714C47.581 131.567 47.3877 131.35 47.2544 131.064C47.1277 130.777 47.0644 130.42 47.0644 129.994V127.314C47.0644 127.174 47.0977 127.07 47.1644 127.004C47.2377 126.937 47.3377 126.904 47.4644 126.904C47.5977 126.904 47.6977 126.937 47.7644 127.004C47.8377 127.07 47.8744 127.174 47.8744 127.314V129.984C47.8744 130.41 47.961 130.73 48.1344 130.944C48.3144 131.15 48.5944 131.254 48.9744 131.254C49.3877 131.254 49.7244 131.114 49.9844 130.834C50.2444 130.554 50.3744 130.187 50.3744 129.734V127.314C50.3744 127.174 50.4077 127.07 50.4744 127.004C50.5477 126.937 50.651 126.904 50.7844 126.904C50.911 126.904 51.0077 126.937 51.0744 127.004C51.1477 127.07 51.1844 127.174 51.1844 127.314V131.484C51.1844 131.764 51.0544 131.904 50.7944 131.904C50.6677 131.904 50.5677 131.867 50.4944 131.794C50.4277 131.72 50.3944 131.617 50.3944 131.484V130.574L50.5244 130.714C50.391 131.107 50.171 131.407 49.8644 131.614C49.5644 131.82 49.2144 131.924 48.8144 131.924ZM54.5898 131.924C54.0765 131.924 53.6332 131.824 53.2598 131.624C52.8932 131.417 52.6065 131.127 52.3998 130.754C52.1998 130.38 52.0998 129.934 52.0998 129.414C52.0998 128.907 52.1998 128.467 52.3998 128.094C52.5998 127.714 52.8732 127.417 53.2198 127.204C53.5732 126.99 53.9798 126.884 54.4398 126.884C54.7665 126.884 55.0598 126.94 55.3198 127.054C55.5798 127.16 55.7998 127.317 55.9798 127.524C56.1665 127.73 56.3065 127.98 56.3998 128.274C56.4998 128.567 56.5498 128.897 56.5498 129.264C56.5498 129.37 56.5198 129.45 56.4598 129.504C56.3998 129.55 56.3132 129.574 56.1998 129.574H52.7198V129.044H56.0098L55.8498 129.174C55.8498 128.814 55.7965 128.51 55.6898 128.264C55.5832 128.01 55.4265 127.817 55.2198 127.684C55.0198 127.55 54.7665 127.484 54.4598 127.484C54.1198 127.484 53.8298 127.564 53.5898 127.724C53.3565 127.877 53.1798 128.094 53.0598 128.374C52.9398 128.647 52.8798 128.967 52.8798 129.334V129.394C52.8798 130.007 53.0265 130.474 53.3198 130.794C53.6198 131.114 54.0432 131.274 54.5898 131.274C54.8165 131.274 55.0398 131.244 55.2598 131.184C55.4865 131.124 55.7065 131.024 55.9198 130.884C56.0132 130.824 56.0965 130.797 56.1698 130.804C56.2498 130.804 56.3132 130.827 56.3598 130.874C56.4065 130.914 56.4365 130.967 56.4498 131.034C56.4698 131.094 56.4632 131.16 56.4298 131.234C56.4032 131.307 56.3465 131.37 56.2598 131.424C56.0398 131.584 55.7798 131.707 55.4798 131.794C55.1798 131.88 54.8832 131.924 54.5898 131.924ZM59.0621 131.924C58.7621 131.924 58.4588 131.887 58.1521 131.814C57.8521 131.74 57.5721 131.614 57.3121 131.434C57.2454 131.387 57.1988 131.334 57.1721 131.274C57.1454 131.207 57.1354 131.144 57.1421 131.084C57.1554 131.017 57.1821 130.96 57.2221 130.914C57.2688 130.867 57.3221 130.84 57.3821 130.834C57.4488 130.82 57.5221 130.834 57.6021 130.874C57.8621 131.034 58.1121 131.147 58.3521 131.214C58.5988 131.274 58.8421 131.304 59.0821 131.304C59.4621 131.304 59.7488 131.234 59.9421 131.094C60.1354 130.954 60.2321 130.764 60.2321 130.524C60.2321 130.337 60.1688 130.19 60.0421 130.084C59.9154 129.97 59.7154 129.884 59.4421 129.824L58.5321 129.624C58.1121 129.537 57.7988 129.387 57.5921 129.174C57.3921 128.96 57.2921 128.684 57.2921 128.344C57.2921 128.044 57.3688 127.787 57.5221 127.574C57.6821 127.354 57.9054 127.184 58.1921 127.064C58.4788 126.944 58.8121 126.884 59.1921 126.884C59.4854 126.884 59.7621 126.924 60.0221 127.004C60.2888 127.077 60.5288 127.197 60.7421 127.364C60.8088 127.41 60.8521 127.467 60.8721 127.534C60.8988 127.594 60.9021 127.657 60.8821 127.724C60.8688 127.784 60.8388 127.837 60.7921 127.884C60.7454 127.924 60.6888 127.947 60.6221 127.954C60.5554 127.96 60.4854 127.94 60.4121 127.894C60.2121 127.76 60.0088 127.664 59.8021 127.604C59.5954 127.537 59.3921 127.504 59.1921 127.504C58.8188 127.504 58.5354 127.577 58.3421 127.724C58.1488 127.87 58.0521 128.064 58.0521 128.304C58.0521 128.49 58.1121 128.644 58.2321 128.764C58.3521 128.884 58.5388 128.97 58.7921 129.024L59.7021 129.214C60.1354 129.307 60.4588 129.457 60.6721 129.664C60.8921 129.864 61.0021 130.137 61.0021 130.484C61.0021 130.924 60.8254 131.274 60.4721 131.534C60.1188 131.794 59.6488 131.924 59.0621 131.924ZM63.8377 131.924C63.4577 131.924 63.1377 131.857 62.8777 131.724C62.6244 131.584 62.4344 131.384 62.3077 131.124C62.1811 130.857 62.1177 130.534 62.1177 130.154V127.604H61.4477C61.3344 127.604 61.2477 127.577 61.1877 127.524C61.1277 127.464 61.0977 127.384 61.0977 127.284C61.0977 127.184 61.1277 127.107 61.1877 127.054C61.2477 127 61.3344 126.974 61.4477 126.974H62.1177V125.824C62.1177 125.69 62.1544 125.59 62.2277 125.524C62.3011 125.45 62.4011 125.414 62.5277 125.414C62.6544 125.414 62.7511 125.45 62.8177 125.524C62.8911 125.59 62.9277 125.69 62.9277 125.824V126.974H64.1877C64.3011 126.974 64.3877 127 64.4477 127.054C64.5077 127.107 64.5377 127.184 64.5377 127.284C64.5377 127.384 64.5077 127.464 64.4477 127.524C64.3877 127.577 64.3011 127.604 64.1877 127.604H62.9277V130.074C62.9277 130.454 63.0077 130.744 63.1677 130.944C63.3277 131.137 63.5877 131.234 63.9477 131.234C64.0744 131.234 64.1811 131.22 64.2677 131.194C64.3611 131.167 64.4377 131.154 64.4977 131.154C64.5577 131.147 64.6077 131.167 64.6477 131.214C64.6877 131.26 64.7077 131.34 64.7077 131.454C64.7077 131.534 64.6911 131.607 64.6577 131.674C64.6311 131.74 64.5811 131.787 64.5077 131.814C64.4277 131.84 64.3211 131.864 64.1877 131.884C64.0611 131.91 63.9444 131.924 63.8377 131.924ZM67.225 131.924C66.7117 131.924 66.2683 131.824 65.895 131.624C65.5283 131.417 65.2417 131.127 65.035 130.754C64.835 130.38 64.735 129.934 64.735 129.414C64.735 128.907 64.835 128.467 65.035 128.094C65.235 127.714 65.5083 127.417 65.855 127.204C66.2083 126.99 66.615 126.884 67.075 126.884C67.4017 126.884 67.695 126.94 67.955 127.054C68.215 127.16 68.435 127.317 68.615 127.524C68.8017 127.73 68.9417 127.98 69.035 128.274C69.135 128.567 69.185 128.897 69.185 129.264C69.185 129.37 69.155 129.45 69.095 129.504C69.035 129.55 68.9483 129.574 68.835 129.574H65.355V129.044H68.645L68.485 129.174C68.485 128.814 68.4317 128.51 68.325 128.264C68.2183 128.01 68.0617 127.817 67.855 127.684C67.655 127.55 67.4017 127.484 67.095 127.484C66.755 127.484 66.465 127.564 66.225 127.724C65.9917 127.877 65.815 128.094 65.695 128.374C65.575 128.647 65.515 128.967 65.515 129.334V129.394C65.515 130.007 65.6617 130.474 65.955 130.794C66.255 131.114 66.6783 131.274 67.225 131.274C67.4517 131.274 67.675 131.244 67.895 131.184C68.1217 131.124 68.3417 131.024 68.555 130.884C68.6483 130.824 68.7317 130.797 68.805 130.804C68.885 130.804 68.9483 130.827 68.995 130.874C69.0417 130.914 69.0717 130.967 69.085 131.034C69.105 131.094 69.0983 131.16 69.065 131.234C69.0383 131.307 68.9817 131.37 68.895 131.424C68.675 131.584 68.415 131.707 68.115 131.794C67.815 131.88 67.5183 131.924 67.225 131.924ZM70.4673 131.904C70.3339 131.904 70.2306 131.867 70.1573 131.794C70.0906 131.72 70.0573 131.617 70.0573 131.484V127.314C70.0573 127.18 70.0906 127.08 70.1573 127.014C70.2239 126.94 70.3206 126.904 70.4473 126.904C70.5739 126.904 70.6706 126.94 70.7373 127.014C70.8106 127.08 70.8473 127.18 70.8473 127.314V128.124H70.7473C70.8539 127.73 71.0573 127.427 71.3573 127.214C71.6573 127 72.0273 126.887 72.4673 126.874C72.5673 126.867 72.6473 126.89 72.7073 126.944C72.7673 126.99 72.8006 127.074 72.8073 127.194C72.8139 127.307 72.7873 127.397 72.7273 127.464C72.6673 127.53 72.5739 127.57 72.4473 127.584L72.2873 127.604C71.8339 127.644 71.4839 127.79 71.2373 128.044C70.9973 128.29 70.8773 128.63 70.8773 129.064V131.484C70.8773 131.617 70.8406 131.72 70.7673 131.794C70.7006 131.867 70.6006 131.904 70.4673 131.904ZM76.1194 131.904C75.9927 131.904 75.896 131.87 75.8294 131.804C75.7627 131.73 75.7294 131.627 75.7294 131.494V125.134C75.7294 125 75.7627 124.897 75.8294 124.824C75.896 124.75 75.9827 124.714 76.0894 124.714C76.196 124.714 76.2727 124.734 76.3194 124.774C76.3727 124.807 76.4327 124.87 76.4994 124.964L80.8594 130.774H80.6194V125.114C80.6194 124.987 80.6527 124.89 80.7194 124.824C80.786 124.75 80.8827 124.714 81.0094 124.714C81.1294 124.714 81.2194 124.75 81.2794 124.824C81.346 124.89 81.3794 124.987 81.3794 125.114V131.504C81.3794 131.63 81.3494 131.73 81.2894 131.804C81.236 131.87 81.156 131.904 81.0494 131.904C80.9494 131.904 80.8694 131.884 80.8094 131.844C80.7494 131.804 80.686 131.74 80.6194 131.654L76.2694 125.844H76.4994V131.494C76.4994 131.627 76.466 131.73 76.3994 131.804C76.3327 131.87 76.2394 131.904 76.1194 131.904ZM84.2517 131.924C83.9184 131.924 83.6184 131.86 83.3517 131.734C83.0917 131.6 82.8851 131.42 82.7317 131.194C82.5784 130.967 82.5017 130.714 82.5017 130.434C82.5017 130.074 82.5917 129.79 82.7717 129.584C82.9584 129.377 83.2617 129.23 83.6817 129.144C84.1084 129.057 84.6884 129.014 85.4217 129.014H85.8717V129.544H85.4317C84.8917 129.544 84.4651 129.57 84.1517 129.624C83.8451 129.67 83.6284 129.754 83.5017 129.874C83.3817 129.994 83.3217 130.164 83.3217 130.384C83.3217 130.657 83.4151 130.88 83.6017 131.054C83.7951 131.227 84.0551 131.314 84.3817 131.314C84.6484 131.314 84.8817 131.25 85.0817 131.124C85.2884 130.997 85.4484 130.824 85.5617 130.604C85.6817 130.384 85.7417 130.13 85.7417 129.844V128.704C85.7417 128.29 85.6584 127.994 85.4917 127.814C85.3251 127.627 85.0517 127.534 84.6717 127.534C84.4384 127.534 84.2051 127.564 83.9717 127.624C83.7384 127.684 83.4917 127.78 83.2317 127.914C83.1384 127.96 83.0584 127.977 82.9917 127.964C82.9251 127.944 82.8717 127.907 82.8317 127.854C82.7917 127.8 82.7684 127.74 82.7617 127.674C82.7551 127.6 82.7684 127.53 82.8017 127.464C82.8417 127.397 82.9017 127.344 82.9817 127.304C83.2751 127.157 83.5651 127.05 83.8517 126.984C84.1384 126.917 84.4117 126.884 84.6717 126.884C85.0917 126.884 85.4384 126.954 85.7117 127.094C85.9851 127.227 86.1884 127.434 86.3217 127.714C86.4551 127.987 86.5217 128.34 86.5217 128.774V131.484C86.5217 131.617 86.4884 131.72 86.4217 131.794C86.3617 131.867 86.2717 131.904 86.1517 131.904C86.0251 131.904 85.9284 131.867 85.8617 131.794C85.7951 131.72 85.7617 131.617 85.7617 131.484V130.704H85.8517C85.7984 130.957 85.6951 131.174 85.5417 131.354C85.3951 131.534 85.2117 131.674 84.9917 131.774C84.7717 131.874 84.5251 131.924 84.2517 131.924ZM88.1445 131.904C88.0111 131.904 87.9111 131.867 87.8445 131.794C87.7778 131.72 87.7445 131.617 87.7445 131.484V127.314C87.7445 127.18 87.7778 127.08 87.8445 127.014C87.9111 126.94 88.0078 126.904 88.1345 126.904C88.2611 126.904 88.3578 126.94 88.4245 127.014C88.4978 127.08 88.5345 127.18 88.5345 127.314V128.194L88.4245 128.054C88.5511 127.68 88.7545 127.394 89.0345 127.194C89.3211 126.987 89.6611 126.884 90.0545 126.884C90.4678 126.884 90.8011 126.984 91.0545 127.184C91.3145 127.377 91.4878 127.68 91.5745 128.094H91.4245C91.5445 127.72 91.7578 127.427 92.0645 127.214C92.3778 126.994 92.7411 126.884 93.1545 126.884C93.5211 126.884 93.8211 126.954 94.0545 127.094C94.2945 127.234 94.4745 127.447 94.5945 127.734C94.7145 128.014 94.7745 128.37 94.7745 128.804V131.484C94.7745 131.617 94.7378 131.72 94.6645 131.794C94.5978 131.867 94.4978 131.904 94.3645 131.904C94.2378 131.904 94.1378 131.867 94.0645 131.794C93.9978 131.72 93.9645 131.617 93.9645 131.484V128.844C93.9645 128.397 93.8878 128.07 93.7345 127.864C93.5811 127.65 93.3211 127.544 92.9545 127.544C92.5545 127.544 92.2378 127.684 92.0045 127.964C91.7778 128.237 91.6645 128.61 91.6645 129.084V131.484C91.6645 131.617 91.6278 131.72 91.5545 131.794C91.4878 131.867 91.3878 131.904 91.2545 131.904C91.1278 131.904 91.0278 131.867 90.9545 131.794C90.8878 131.72 90.8545 131.617 90.8545 131.484V128.844C90.8545 128.397 90.7745 128.07 90.6145 127.864C90.4611 127.65 90.2045 127.544 89.8445 127.544C89.4445 127.544 89.1278 127.684 88.8945 127.964C88.6678 128.237 88.5545 128.61 88.5545 129.084V131.484C88.5545 131.764 88.4178 131.904 88.1445 131.904ZM98.1789 131.924C97.6656 131.924 97.2222 131.824 96.8489 131.624C96.4822 131.417 96.1956 131.127 95.9889 130.754C95.7889 130.38 95.6889 129.934 95.6889 129.414C95.6889 128.907 95.7889 128.467 95.9889 128.094C96.1889 127.714 96.4622 127.417 96.8089 127.204C97.1622 126.99 97.5689 126.884 98.0289 126.884C98.3556 126.884 98.6489 126.94 98.9089 127.054C99.1689 127.16 99.3889 127.317 99.5689 127.524C99.7556 127.73 99.8956 127.98 99.9889 128.274C100.089 128.567 100.139 128.897 100.139 129.264C100.139 129.37 100.109 129.45 100.049 129.504C99.9889 129.55 99.9022 129.574 99.7889 129.574H96.3089V129.044H99.5989L99.4389 129.174C99.4389 128.814 99.3856 128.51 99.2789 128.264C99.1722 128.01 99.0156 127.817 98.8089 127.684C98.6089 127.55 98.3556 127.484 98.0489 127.484C97.7089 127.484 97.4189 127.564 97.1789 127.724C96.9456 127.877 96.7689 128.094 96.6489 128.374C96.5289 128.647 96.4689 128.967 96.4689 129.334V129.394C96.4689 130.007 96.6156 130.474 96.9089 130.794C97.2089 131.114 97.6322 131.274 98.1789 131.274C98.4056 131.274 98.6289 131.244 98.8489 131.184C99.0756 131.124 99.2956 131.024 99.5089 130.884C99.6022 130.824 99.6856 130.797 99.7589 130.804C99.8389 130.804 99.9022 130.827 99.9489 130.874C99.9956 130.914 100.026 130.967 100.039 131.034C100.059 131.094 100.052 131.16 100.019 131.234C99.9922 131.307 99.9356 131.37 99.8489 131.424C99.6289 131.584 99.3689 131.707 99.0689 131.794C98.7689 131.88 98.4722 131.924 98.1789 131.924Z" fill="#8D8D8D"/>
<defs>
<filter id="filter0_d_786_2593" x="-22" y="0" width="165" height="212.516" filterUnits="userSpaceOnUse" color-interpolation-filters="sRGB">
<feFlood flood-opacity="0" result="BackgroundImageFix"/>
<feColorMatrix in="SourceAlpha" type="matrix" values="0 0 0 0 0 0 0 0 0 0 0 0 0 0 0 0 0 0 127 0" result="hardAlpha"/>
<feOffset/>
<feGaussianBlur stdDeviation="20"/>
<feComposite in2="hardAlpha" operator="out"/>
<feColorMatrix type="matrix" values="0 0 0 0 0 0 0 0 0 0 0 0 0 0 0 0 0 0 0.05 0"/>
<feBlend mode="normal" in2="BackgroundImageFix" result="effect1_dropShadow_786_2593"/>
<feBlend mode="normal" in="SourceGraphic" in2="effect1_dropShadow_786_2593" result="shape"/>
</filter>
</defs>
</svg>
