<svg width="218" height="241" viewBox="0 0 218 241" fill="none" xmlns="http://www.w3.org/2000/svg">
<rect opacity="0.1" x="165.382" y="22.3203" width="52.5371" height="55.3415" rx="14" fill="#000BFF"/>
<rect opacity="0.1" x="24.8286" y="54.8857" width="65.5868" height="69.0878" rx="14" fill="#000BFF"/>
<rect opacity="0.1" x="122.655" y="12.4833" width="17.5651" height="18.5027" rx="6" fill="#000BFF"/>
<rect opacity="0.1" x="182.868" y="107.069" width="17.5651" height="18.5027" rx="6" fill="#000BFF"/>
<rect opacity="0.1" x="8.875" y="0.540283" width="28.0362" height="29.5327" rx="6" fill="#000BFF"/>
<rect opacity="0.1" x="0.85144" y="177.297" width="44.0833" height="46.4364" rx="14" fill="#000BFF"/>
<rect opacity="0.1" x="112.326" y="143.822" width="92.1631" height="97.0827" rx="14" fill="#000BFF"/>
<rect x="59.5054" y="52.5603" width="115.642" height="117.52" rx="23" fill="#D8B831"/>
<rect x="54.5054" y="57.5603" width="115.642" height="117.52" rx="23" fill="#2029FF"/>
<path d="M135.943 90.6982C137.123 89.507 138.726 88.8315 140.403 88.8191C142.08 88.8068 143.693 89.4587 144.891 90.6323C146.088 91.8059 146.772 93.4058 146.794 95.0824C146.815 96.759 146.172 98.3759 145.005 99.5797L111.236 141.795C110.656 142.42 109.956 142.921 109.178 143.269C108.4 143.617 107.559 143.805 106.707 143.821C105.855 143.837 105.008 143.681 104.217 143.363C103.427 143.044 102.708 142.57 102.105 141.967L79.7157 119.587C78.5259 118.397 77.8578 116.782 77.8582 115.099C77.8586 113.416 78.5275 111.803 79.7178 110.613C80.9082 109.423 82.5224 108.755 84.2054 108.755C85.8884 108.756 87.5023 109.425 88.692 110.615L106.399 128.326L135.775 90.8963C135.828 90.8282 135.886 90.7635 135.947 90.7025L135.943 90.6982Z" fill="#D8B831"/>
</svg>
