<svg width="218" height="241" viewBox="0 0 218 241" fill="none" xmlns="http://www.w3.org/2000/svg">
<rect opacity="0.1" x="165.382" y="22.3203" width="52.5371" height="55.3415" rx="14" fill="#000BFF"/>
<rect opacity="0.1" x="24.8287" y="54.8857" width="65.5868" height="69.0878" rx="14" fill="#000BFF"/>
<rect opacity="0.1" x="122.655" y="12.4833" width="17.5651" height="18.5027" rx="6" fill="#000BFF"/>
<rect opacity="0.1" x="182.868" y="107.069" width="17.5651" height="18.5027" rx="6" fill="#000BFF"/>
<rect opacity="0.1" x="8.875" y="0.540283" width="28.0362" height="29.5327" rx="6" fill="#000BFF"/>
<rect opacity="0.1" x="0.851433" y="177.297" width="44.0833" height="46.4364" rx="14" fill="#000BFF"/>
<rect opacity="0.1" x="112.326" y="143.822" width="92.1631" height="97.0827" rx="14" fill="#000BFF"/>
<g clip-path="url(#clip0_166_1159)">
<path d="M59.5028 154.177C56.6616 154.177 53.8115 154.186 50.9703 154.204C48.1291 154.213 45.2879 154.231 42.4467 154.231H42V191.297H49.7195V180.65H59.5118C63.7467 180.65 67.3027 179.221 69.8044 176.515C72.0202 174.112 73.2442 170.888 73.2442 167.431C73.2353 161.045 68.9377 154.177 59.5028 154.177ZM64.0773 171.656C62.9784 172.871 61.3969 173.505 59.5028 173.505H49.7195V161.581H59.5118C63.6931 161.581 65.5962 164.681 65.5962 167.556C65.5962 169.128 65.0512 170.575 64.0773 171.656Z" fill="#000BFF"/>
<path d="M83.6262 154.284H76.4785V191.306H83.6262V154.284Z" fill="#000BFF"/>
<path d="M107.392 178.399C107.392 182.213 104.783 185.08 101.326 185.08C97.8053 185.08 95.6163 182.633 95.6163 178.703V164.931H88.4151V178.766C88.4151 186.634 92.7305 191.716 99.4046 191.716C102.63 191.716 105.087 190.743 107.696 188.376L108.053 191.35H114.531V164.931H107.383V178.399H107.392Z" fill="#000BFF"/>
<path d="M133.946 164.564C130.863 164.564 128.397 165.565 126.432 167.628V154.231H119.23V191.297H126.432V177.828C126.432 174.103 128.951 171.299 132.293 171.299C135.786 171.299 137.636 173.433 137.636 177.471V191.306H144.837V177.426C144.828 169.128 140.968 164.564 133.946 164.564Z" fill="#000BFF"/>
<path d="M174.66 177.471C174.66 174.461 173.821 171.987 172.105 169.914L175 166.226L169.639 162.171L167.084 165.404C165.172 164.261 163.028 164.1 161.339 164.1C153.593 164.1 147.973 169.718 147.973 177.462C147.973 185.643 153.092 190.725 161.339 190.725C164.332 190.725 167.352 192.172 167.352 195.396C167.352 198.451 164.993 200.425 161.339 200.425C157.792 200.425 155.121 198.263 155.121 195.396V194.95H147.973V195.396C147.973 202.354 153.468 207.213 161.339 207.213C169.246 207.213 174.553 202.461 174.553 195.396C174.553 192.931 174.044 189.448 169.791 186.983C174.294 184.401 174.66 179.096 174.66 177.471ZM161.339 170.727C164.913 170.727 167.513 173.559 167.513 177.462C167.513 181.365 164.975 184.098 161.339 184.098C157.676 184.098 155.121 181.374 155.121 177.462C155.121 173.505 157.676 170.727 161.339 170.727Z" fill="#000BFF"/>
<path d="M154.772 72.2657V115.584C154.772 129.419 143.55 140.628 129.711 140.628H118.06C115.674 140.628 113.745 138.699 113.745 136.314V131.205C113.745 129.222 115.067 127.454 116.988 126.963C121.634 125.775 126.083 123.649 130.05 120.594C138.788 113.86 142.889 105.161 143.675 95.1394C144.051 90.3878 140.45 86.3061 135.777 85.9846V84.2786C135.777 82.0815 134.884 80.0897 133.445 78.6428C131.989 77.187 129.961 76.2938 127.736 76.3117C123.331 76.3563 119.838 80.0808 119.838 84.4841V85.9667H115.755V77.187C115.755 74.9898 114.861 72.9981 113.423 71.5512C111.967 70.0953 109.938 69.2022 107.714 69.22C103.309 69.2647 99.8156 72.9891 99.8156 77.3924V85.9756H96.1077V84.2786C96.1077 82.0815 95.2143 80.0897 93.7758 78.6428C92.3195 77.187 90.2913 76.2938 88.0666 76.3117C83.6619 76.3563 80.1685 80.0808 80.1685 84.4841V85.9935C75.5672 86.3686 72.0202 90.4057 72.4222 95.0858C73.4229 106.688 78.4262 116.173 88.8529 122.613C92.7573 125.024 96.9833 126.641 101.308 127.463C103.336 127.847 104.801 129.624 104.801 131.696V136.332C104.801 138.716 102.871 140.646 100.486 140.646H86.378C72.5384 140.646 61.3255 129.428 61.3255 115.602V72.2835C61.3165 58.4307 72.5384 47.2126 86.378 47.2126H129.711C143.55 47.2126 154.772 58.4307 154.772 72.2657Z" fill="#000BFF"/>
<path d="M88.1292 74.3199C90.9517 74.3199 93.2398 72.0326 93.2398 69.211C93.2398 66.3895 90.9517 64.1022 88.1292 64.1022C85.3067 64.1022 83.0186 66.3895 83.0186 69.211C83.0186 72.0326 85.3067 74.3199 88.1292 74.3199Z" fill="#D8B831"/>
<path d="M108.009 66.5762C110.831 66.5762 113.119 64.2889 113.119 61.4674C113.119 58.6458 110.831 56.3585 108.009 56.3585C105.186 56.3585 102.898 58.6458 102.898 61.4674C102.898 64.2889 105.186 66.5762 108.009 66.5762Z" fill="#D8B831"/>
<path d="M128.067 74.3199C130.889 74.3199 133.177 72.0326 133.177 69.211C133.177 66.3895 130.889 64.1022 128.067 64.1022C125.244 64.1022 122.956 66.3895 122.956 69.211C122.956 72.0326 125.244 74.3199 128.067 74.3199Z" fill="#D8B831"/>
<path d="M87.4591 93.1833C95.6878 93.1833 120.49 93.1833 128.639 93.1833C130.14 93.1833 131.39 94.3802 131.426 95.8807C131.649 104.5 128.639 111.868 120.642 117.093C113.602 121.693 104.765 122.032 97.305 118.138C88.2721 113.413 84.609 105.652 84.6715 95.9521C84.6715 94.4248 85.9313 93.1833 87.4591 93.1833ZM120.428 101.945H95.6968C94.9373 101.945 94.4012 102.713 94.6693 103.419C96.6528 108.519 102.317 112.234 108.223 112.163C114.03 112.091 119.632 108.304 121.455 103.401C121.723 102.695 121.178 101.945 120.428 101.945Z" fill="#000BFF"/>
</g>
<defs>
<clipPath id="clip0_166_1159">
<rect width="133" height="160" fill="white" transform="translate(42 47.2126)"/>
</clipPath>
</defs>
</svg>
