<svg width="49" height="49" viewBox="0 0 49 49" fill="none" xmlns="http://www.w3.org/2000/svg">
<circle cx="24.5676" cy="24.2212" r="23.9285" fill="#4098FF" fill-opacity="0.18"/>
<circle cx="24.5678" cy="24.2212" r="20.6506" fill="#4098FF" fill-opacity="0.22"/>
<circle cx="24.5677" cy="24.2211" r="17.1406" fill="#4098FF" fill-opacity="0.45"/>
<path d="M24.5677 37.5034C32.0081 37.5034 38.0398 31.5261 38.0398 24.1527C38.0398 16.7793 32.0081 10.802 24.5677 10.802C17.1273 10.802 11.0956 16.7793 11.0956 24.1527C11.0956 31.5261 17.1273 37.5034 24.5677 37.5034Z" fill="#000BFF"/>
<path d="M33.8329 23.4974C33.6284 26.0791 32.562 28.3225 30.2897 30.0551C29.2558 30.8443 28.0987 31.392 26.8929 31.698C26.3934 31.8245 26.0495 32.2778 26.0495 32.7886V36.1141C26.0495 36.6802 26.477 37.1473 27.03 37.2163C25.2444 37.5455 24.2941 37.5701 22.6672 37.3993C23.2178 37.3302 23.7214 36.6802 23.7214 36.1141V32.9106C23.7214 32.3791 23.3404 31.9212 22.813 31.8222C21.6885 31.6106 20.5895 31.1941 19.5742 30.5728C16.8651 28.9139 15.564 26.4702 15.3038 23.4813C15.1992 22.2756 16.1193 21.2379 17.3158 21.139V20.7524C17.3158 19.6157 18.2243 18.6562 19.3697 18.647C19.9506 18.6401 20.4757 18.8725 20.8544 19.2476C21.2308 19.618 21.4608 20.1311 21.4608 20.6995V21.1321H22.4273V18.9208C22.4273 17.7865 23.3334 16.827 24.4789 16.8178C25.0597 16.8109 25.5848 17.0433 25.9659 17.4183C26.3399 17.7888 26.5723 18.3019 26.5723 18.8702V21.1321H27.6341V20.7524C27.6341 19.6157 28.5425 18.6562 29.688 18.647C30.2665 18.6401 30.7939 18.8725 31.1726 19.2476C31.5467 19.618 31.779 20.1311 31.779 20.6995V21.139C32.9942 21.2218 33.9305 22.2756 33.8329 23.4974Z" fill="white"/>
<path d="M20.0365 23.1821C21.9487 23.1821 27.7107 23.1821 29.6043 23.1821C29.9528 23.1821 30.2432 23.4582 30.2525 23.8034C30.3036 25.7868 29.6043 27.4826 27.7479 28.6837C26.1122 29.7421 24.0583 29.8204 22.3251 28.923C20.227 27.8369 19.3743 26.0491 19.3906 23.8172C19.3906 23.4697 19.681 23.1821 20.0365 23.1821ZM27.6968 25.2001H21.951C21.7744 25.2001 21.649 25.3772 21.7117 25.5383C22.1717 26.7118 23.4891 27.5677 24.8599 27.5493C26.2098 27.5332 27.5109 26.6612 27.9338 25.5337C27.9988 25.3726 27.871 25.2001 27.6968 25.2001Z" fill="#000BFF"/>
<path d="M19.3883 18.1342C20.1223 18.1342 20.7173 17.545 20.7173 16.8181C20.7173 16.0912 20.1223 15.502 19.3883 15.502C18.6543 15.502 18.0593 16.0912 18.0593 16.8181C18.0593 17.545 18.6543 18.1342 19.3883 18.1342Z" fill="#D8B831"/>
<path d="M24.5579 16.1394C25.2919 16.1394 25.8869 15.5501 25.8869 14.8232C25.8869 14.0963 25.2919 13.5071 24.5579 13.5071C23.8239 13.5071 23.2289 14.0963 23.2289 14.8232C23.2289 15.5501 23.8239 16.1394 24.5579 16.1394Z" fill="#D8B831"/>
<path d="M29.7739 18.1342C30.5079 18.1342 31.1029 17.545 31.1029 16.8181C31.1029 16.0912 30.5079 15.502 29.7739 15.502C29.04 15.502 28.4449 16.0912 28.4449 16.8181C28.4449 17.545 29.04 18.1342 29.7739 18.1342Z" fill="#D8B831"/>
</svg>
