<svg width="23" height="23" viewBox="0 0 23 23" fill="none" xmlns="http://www.w3.org/2000/svg">
<path d="M18.8471 0C21.0608 0 22.8721 1.73362 22.9928 3.91719L23 4.15294V12.8369C23 13.5988 22.7269 14.3348 22.2367 14.9097L22.0642 15.0966L15.0966 22.0642C14.5576 22.6033 13.846 22.9296 13.0899 22.9899L12.8369 23H4.15437C1.94062 23 0.129375 21.2664 0.00862506 19.0828L0 18.8471V4.15437C0 1.94062 1.73362 0.129375 3.91719 0.00862506L4.15294 0H18.8456H18.8471ZM18.7321 1.4375H4.26937C2.7715 1.4375 1.54531 2.60187 1.44613 4.07387L1.4375 4.26794V18.7306C1.4375 20.2285 2.60187 21.4547 4.07387 21.5539L4.26794 21.5611H12.9346V17.1163C11.6824 17.351 10.3917 17.2752 9.17551 16.8956C7.95934 16.5159 6.85476 15.8439 5.95844 14.9385C5.82797 14.8024 5.7562 14.6205 5.75859 14.432C5.76097 14.2435 5.83733 14.0635 5.97121 13.9307C6.10508 13.798 6.28575 13.7231 6.47427 13.7224C6.6628 13.7216 6.84408 13.7949 6.97906 13.9265C7.74907 14.7041 8.70664 15.2699 9.75922 15.5693C10.8118 15.8688 11.9238 15.8916 12.9878 15.6357C12.9951 15.5616 13.0047 15.4878 13.0166 15.4143C13.5686 13.9308 14.9601 13.0352 16.6132 12.9418L16.8475 12.9375H21.5625V4.26794C21.5625 2.77006 20.3981 1.54388 18.9261 1.44469L18.7321 1.4375ZM20.9659 14.375H16.9956C15.6084 14.375 14.4727 15.4531 14.3807 16.8159L14.375 16.9956V20.9645L14.5001 20.8524L20.8524 14.4986C20.8922 14.4593 20.9301 14.418 20.9659 14.375ZM7.1875 7.1875C7.56875 7.1875 7.93438 7.33895 8.20397 7.60853C8.47355 7.87812 8.625 8.24375 8.625 8.625C8.625 9.00625 8.47355 9.37188 8.20397 9.64147C7.93438 9.91105 7.56875 10.0625 7.1875 10.0625C6.80625 10.0625 6.44062 9.91105 6.17103 9.64147C5.90145 9.37188 5.75 9.00625 5.75 8.625C5.75 8.24375 5.90145 7.87812 6.17103 7.60853C6.44062 7.33895 6.80625 7.1875 7.1875 7.1875ZM15.8125 7.1875C16.1937 7.1875 16.5594 7.33895 16.829 7.60853C17.0985 7.87812 17.25 8.24375 17.25 8.625C17.25 9.00625 17.0985 9.37188 16.829 9.64147C16.5594 9.91105 16.1937 10.0625 15.8125 10.0625C15.4313 10.0625 15.0656 9.91105 14.796 9.64147C14.5265 9.37188 14.375 9.00625 14.375 8.625C14.375 8.24375 14.5265 7.87812 14.796 7.60853C15.0656 7.33895 15.4313 7.1875 15.8125 7.1875Z" fill="#2255C8"/>
</svg>
