<svg width="28" height="31" viewBox="0 0 28 31" fill="none" xmlns="http://www.w3.org/2000/svg">
<path d="M10.322 3.17302C10.5379 2.63962 10.908 2.18281 11.3852 1.86116C11.8623 1.53951 12.4246 1.36768 13 1.36768C13.5754 1.36768 14.1377 1.53951 14.6148 1.86116C15.0919 2.18281 15.4621 2.63962 15.678 3.17302C17.8139 3.76045 19.6979 5.0328 21.0407 6.79467C22.3835 8.55654 23.1108 10.7105 23.1109 12.9258V19.7102L25.7571 23.6795C25.9023 23.897 25.9856 24.1498 25.9983 24.411C26.011 24.6722 25.9525 24.932 25.8292 25.1625C25.7058 25.3931 25.5221 25.5859 25.2978 25.7202C25.0735 25.8546 24.8169 25.9256 24.5554 25.9255H18.0049C17.831 27.1289 17.2294 28.2293 16.3102 29.0252C15.391 29.8211 14.2159 30.2591 13 30.2591C11.7841 30.2591 10.609 29.8211 9.68982 29.0252C8.77065 28.2293 8.16899 27.1289 7.99508 25.9255H1.44464C1.18313 25.9256 0.926527 25.8546 0.702192 25.7202C0.477856 25.5859 0.294207 25.3931 0.17084 25.1625C0.0474723 24.932 -0.0109859 24.6722 0.00170131 24.411C0.0143885 24.1498 0.0977453 23.897 0.242879 23.6795L2.88906 19.7102V12.9258C2.88906 8.26894 6.03789 4.34589 10.322 3.17302ZM10.9576 25.9255C11.1068 26.3482 11.3834 26.7143 11.7493 26.9732C12.1152 27.2321 12.5525 27.3711 13.0007 27.3711C13.449 27.3711 13.8862 27.2321 14.2521 26.9732C14.6181 26.7143 14.8947 26.3482 15.0439 25.9255H10.9561H10.9576ZM13 5.70365C11.0846 5.70365 9.24761 6.46455 7.8932 7.81895C6.53879 9.17336 5.7779 11.0103 5.7779 12.9258V20.1479C5.77796 20.4332 5.69352 20.7121 5.53523 20.9495L4.14426 23.0367H21.8543L20.4633 20.9495C20.3055 20.712 20.2216 20.433 20.2221 20.1479V12.9258C20.2221 11.0103 19.4612 9.17336 18.1068 7.81895C16.7524 6.46455 14.9154 5.70365 13 5.70365Z" fill="#34495E"/>
<circle cx="21" cy="7" r="7" fill="#FF0F0F"/>
</svg>
