<svg width="22" height="24" viewBox="0 0 22 24" fill="none" xmlns="http://www.w3.org/2000/svg">
<path d="M15.6061 7.66483L14.0836 6.14383L6.47107 13.7548C6.17126 14.0547 5.93346 14.4108 5.77124 14.8026C5.60903 15.1944 5.52557 15.6143 5.52564 16.0384C5.52571 16.4624 5.6093 16.8823 5.77165 17.2741C5.934 17.6658 6.17191 18.0218 6.47182 18.3216C6.77173 18.6214 7.12775 18.8592 7.51956 19.0214C7.91136 19.1836 8.33129 19.2671 8.75535 19.267C9.17941 19.2669 9.59931 19.1833 9.99106 19.021C10.3828 18.8587 10.7388 18.6207 11.0386 18.3208L20.1736 9.18733C21.1829 8.17785 21.7498 6.80878 21.7496 5.3813C21.7495 3.95382 21.1823 2.58486 20.1728 1.57558C19.1633 0.5663 17.7943 -0.000628907 16.3668 -0.000488255C14.9393 -0.000347603 13.5704 0.566851 12.5611 1.57633L2.97007 11.1658L2.94907 11.1853C0.0165699 14.1178 0.0165699 18.8698 2.94907 21.8008C5.88157 24.7318 10.6336 24.7318 13.5661 21.8008L13.5856 21.7798L13.5871 21.7813L20.1346 15.2353L18.6121 13.7143L12.0646 20.2588L12.0451 20.2783C9.95707 22.3663 6.56107 22.3663 4.47307 20.2783C3.97501 19.7792 3.58038 19.1866 3.31179 18.5347C3.04321 17.8827 2.90596 17.1841 2.90791 16.479C2.90986 15.7738 3.05097 15.076 3.32316 14.4256C3.59535 13.7751 3.99326 13.1847 4.49407 12.6883L4.49257 12.6868L14.0851 3.09733C15.3436 1.83733 17.3926 1.83733 18.6526 3.09733C19.9126 4.35733 19.9111 6.40483 18.6526 7.66333L9.51757 16.7968C9.31313 16.9849 9.04395 17.0867 8.76625 17.0809C8.48854 17.0752 8.22378 16.9624 8.02727 16.7661C7.83077 16.5698 7.71771 16.3051 7.7117 16.0274C7.7057 15.7497 7.80723 15.4805 7.99507 15.2758L15.6076 7.66333L15.6061 7.66483Z" fill="white"/>
</svg>
