<svg width="22" height="22" viewBox="0 0 22 22" fill="none" xmlns="http://www.w3.org/2000/svg">
<path d="M8.18657 15.4556L8.87991 15.341C9.01424 15.3181 9.17457 15.2848 9.35982 15.239C11.65 14.6869 13.1667 13.041 13.1667 11.2619C13.1667 9.03792 10.8093 7.09521 7.74999 7.09521C4.69066 7.09521 2.33332 9.03792 2.33332 11.2619C2.33332 12.5306 3.09382 13.739 4.42524 14.5431L4.46424 14.564L5.58332 15.1577V18.0358L8.18657 15.4556ZM9.25041 17.3931L5.27782 21.3306C5.12769 21.4795 4.93475 21.582 4.72371 21.6248C4.51266 21.6676 4.29313 21.6489 4.09322 21.571C3.89331 21.4932 3.72213 21.3597 3.60159 21.1877C3.48106 21.0157 3.41667 20.813 3.41666 20.6056V16.3869C3.36826 16.3617 3.32057 16.3353 3.27366 16.3077C1.38974 15.1702 0.166656 13.3338 0.166656 11.2619C0.166656 7.8098 3.56182 5.01188 7.74999 5.01188C11.9382 5.01188 15.3333 7.8098 15.3333 11.2619C15.3333 14.1015 13.0356 16.4994 9.88849 17.2598C9.67757 17.3118 9.46473 17.3562 9.25041 17.3931ZM7.68066 3.97021C8.99149 2.10251 11.4442 0.845215 14.25 0.845215C18.4382 0.845215 21.8333 3.64313 21.8333 7.09521C21.8333 9.16709 20.6092 11.0035 18.7263 12.141C18.6794 12.1687 18.6317 12.1951 18.5833 12.2202V16.439C18.5833 16.6464 18.5189 16.849 18.3984 17.021C18.2779 17.193 18.1067 17.3265 17.9068 17.4044C17.7068 17.4822 17.4873 17.501 17.2763 17.4581C17.0652 17.4153 16.8723 17.3129 16.7222 17.164L14.8426 15.3015L15.9725 13.4285L16.4167 13.8692V10.991L17.5357 10.3973L17.5747 10.3765C18.9072 9.5723 19.6667 8.36396 19.6667 7.09521C19.6667 4.87126 17.3093 2.92855 14.25 2.92855C12.8633 2.92855 11.6218 3.32751 10.6782 3.97021H7.68066Z" fill="#000BFF"/>
</svg>
