<svg width="23" height="26" viewBox="0 0 23 26" fill="none" xmlns="http://www.w3.org/2000/svg">
<path d="M9.0158 2.34701C9.20257 1.8854 9.52293 1.49009 9.93583 1.21173C10.3487 0.933376 10.8353 0.784668 11.3333 0.784668C11.8313 0.784668 12.3179 0.933376 12.7308 1.21173C13.1437 1.49009 13.464 1.8854 13.6508 2.34701C15.4992 2.85537 17.1297 3.95646 18.2918 5.48118C19.4538 7.00591 20.0832 8.86994 20.0833 10.787V16.6583L22.3733 20.0933C22.4989 20.2815 22.571 20.5003 22.582 20.7264C22.593 20.9524 22.5424 21.1772 22.4356 21.3767C22.3289 21.5763 22.17 21.7431 21.9758 21.8594C21.7817 21.9756 21.5596 22.037 21.3333 22.037H15.6645C15.514 23.0784 14.9934 24.0307 14.1979 24.7194C13.4025 25.4082 12.3855 25.7873 11.3333 25.7873C10.2811 25.7873 9.26412 25.4082 8.46867 24.7194C7.67322 24.0307 7.15255 23.0784 7.00205 22.037H1.3333C1.107 22.037 0.884931 21.9756 0.69079 21.8594C0.49665 21.7431 0.337721 21.5763 0.230959 21.3767C0.124197 21.1772 0.0736074 20.9524 0.0845869 20.7264C0.0955664 20.5003 0.167703 20.2815 0.293302 20.0933L2.5833 16.6583V10.787C2.5833 6.75701 5.3083 3.36201 9.0158 2.34701ZM9.5658 22.037C9.6949 22.4028 9.93428 22.7196 10.251 22.9436C10.5676 23.1677 10.946 23.288 11.3339 23.288C11.7218 23.288 12.1002 23.1677 12.4169 22.9436C12.7336 22.7196 12.973 22.4028 13.102 22.037H9.56455H9.5658ZM11.3333 4.53701C9.6757 4.53701 8.08599 5.19549 6.91388 6.3676C5.74178 7.5397 5.0833 9.12941 5.0833 10.787V17.037C5.08336 17.2839 5.01028 17.5253 4.8733 17.7308L3.66955 19.537H18.9958L17.792 17.7308C17.6555 17.5252 17.5829 17.2838 17.5833 17.037V10.787C17.5833 9.12941 16.9248 7.5397 15.7527 6.3676C14.5806 5.19549 12.9909 4.53701 11.3333 4.53701Z" fill="#080F18"/>
</svg>
