<svg width="33" height="32" viewBox="0 0 33 32" fill="none" xmlns="http://www.w3.org/2000/svg">
<circle cx="16.3689" cy="16.0686" r="15.826" fill="white"/>
<circle cx="16.3689" cy="16.0689" r="13.4908" fill="#000BFF"/>
<path d="M9.02441 21.2096V13.8652C9.02441 13.4756 9.17917 13.102 9.45464 12.8265C9.73011 12.551 10.1037 12.3963 10.4933 12.3963H10.8605C11.0886 12.3963 11.3135 12.3432 11.5174 12.2412C11.7214 12.1392 11.8988 11.9912 12.0356 11.8087L13.6661 9.63476C13.7072 9.58003 13.7604 9.53561 13.8216 9.50502C13.8828 9.47442 13.9502 9.4585 14.0186 9.4585H18.7191C18.7875 9.4585 18.855 9.47442 18.9162 9.50502C18.9774 9.53561 19.0306 9.58003 19.0716 9.63476L20.7021 11.8087C20.8389 11.9912 21.0163 12.1392 21.2203 12.2412C21.4243 12.3432 21.6492 12.3963 21.8772 12.3963H22.2444C22.634 12.3963 23.0076 12.551 23.2831 12.8265C23.5586 13.102 23.7133 13.4756 23.7133 13.8652V21.2096C23.7133 21.5992 23.5586 21.9728 23.2831 22.2483C23.0076 22.5238 22.634 22.6785 22.2444 22.6785H10.4933C10.1037 22.6785 9.73011 22.5238 9.45464 22.2483C9.17917 21.9728 9.02441 21.5992 9.02441 21.2096Z" stroke="white" stroke-width="1.75" stroke-linecap="round" stroke-linejoin="round"/>
<path d="M16.3689 19.7408C17.1481 19.7408 17.8953 19.4313 18.4462 18.8803C18.9972 18.3294 19.3067 17.5822 19.3067 16.803C19.3067 16.0239 18.9972 15.2766 18.4462 14.7257C17.8953 14.1747 17.1481 13.8652 16.3689 13.8652C15.5898 13.8652 14.8425 14.1747 14.2916 14.7257C13.7406 15.2766 13.4311 16.0239 13.4311 16.803C13.4311 17.5822 13.7406 18.3294 14.2916 18.8803C14.8425 19.4313 15.5898 19.7408 16.3689 19.7408V19.7408Z" stroke="white" stroke-width="1.75" stroke-linecap="round" stroke-linejoin="round"/>
</svg>
