<svg width="73" height="143" viewBox="0 0 73 143" fill="none"
	xmlns="http://www.w3.org/2000/svg">
	<path d="M6.44487 9.56779C5.15687 9.56779 4.07687 9.14379 3.20487 8.29579C2.32487 7.43979 1.88487 6.35179 1.88487 5.03179C1.88487 3.68779 2.33287 2.58379 3.22887 1.71979C4.12487 0.847791 5.20887 0.411791 6.48087 0.411791C7.27287 0.411791 8.01287 0.587791 8.70087 0.939791C9.38087 1.28379 9.91287 1.74379 10.2969 2.31979L9.31287 3.20779C8.58487 2.23979 7.65287 1.75579 6.51687 1.75579C5.62087 1.75579 4.86087 2.06779 4.23687 2.69179C3.62087 3.32379 3.31287 4.10379 3.31287 5.03179C3.31287 5.96779 3.61687 6.73579 4.22487 7.33579C4.84087 7.93579 5.60087 8.23579 6.50487 8.23579C7.68087 8.23579 8.63287 7.75579 9.36087 6.79579L10.3449 7.65979C9.92087 8.24379 9.36487 8.70779 8.67687 9.05179C7.98887 9.39579 7.24487 9.56779 6.44487 9.56779ZM10.7827 6.19579C10.7827 5.25979 11.1027 4.45979 11.7427 3.79579C12.3907 3.13179 13.2107 2.79979 14.2027 2.79979C15.1947 2.79979 16.0107 3.13179 16.6507 3.79579C17.2987 4.45179 17.6227 5.25179 17.6227 6.19579C17.6227 7.15579 17.2987 7.96379 16.6507 8.61979C16.0187 9.27579 15.2027 9.60379 14.2027 9.60379C13.2107 9.60379 12.3907 9.27579 11.7427 8.61979C11.1027 7.95579 10.7827 7.14779 10.7827 6.19579ZM16.2907 6.19579C16.2907 5.60379 16.0867 5.09579 15.6787 4.67179C15.2867 4.23979 14.7947 4.02379 14.2027 4.02379C13.6187 4.02379 13.1227 4.23979 12.7147 4.67179C12.3147 5.09579 12.1147 5.60379 12.1147 6.19579C12.1147 6.79579 12.3147 7.30779 12.7147 7.73179C13.1227 8.15579 13.6187 8.36779 14.2027 8.36779C14.7867 8.36779 15.2787 8.15579 15.6787 7.73179C16.0867 7.30779 16.2907 6.79579 16.2907 6.19579ZM19.9679 9.43579H18.6479V2.96779H19.9439V3.87979C20.1359 3.54379 20.4119 3.27979 20.7719 3.08779C21.1319 2.89579 21.5399 2.79979 21.9959 2.79979C22.7079 2.79979 23.3079 3.03179 23.7959 3.49579C24.2919 3.96779 24.5399 4.63579 24.5399 5.49979V9.43579H23.2079V5.87179C23.2079 5.28779 23.0679 4.83579 22.7879 4.51579C22.5079 4.18779 22.1319 4.02379 21.6599 4.02379C21.1639 4.02379 20.7559 4.19979 20.4359 4.55179C20.1239 4.89579 19.9679 5.34379 19.9679 5.89579V9.43579ZM29.7013 8.01979L30.1573 9.05179C29.6773 9.41179 29.0813 9.59179 28.3693 9.59179C27.6733 9.59179 27.1453 9.37979 26.7853 8.95579C26.4253 8.53179 26.2453 7.91979 26.2453 7.11979V4.09579H25.1293V2.96779H26.2573V0.675791H27.5653V2.96779H29.7973V4.09579H27.5653V7.14379C27.5653 7.96779 27.8973 8.37979 28.5613 8.37979C28.9133 8.37979 29.2933 8.25979 29.7013 8.01979ZM35.7093 3.86779V2.96779H36.9813V9.43579H35.7093V8.54779C35.1253 9.24379 34.3893 9.59179 33.5013 9.59179C32.5653 9.59179 31.7933 9.26379 31.1853 8.60779C30.5773 7.95179 30.2733 7.13579 30.2733 6.15979C30.2733 5.19179 30.5773 4.39179 31.1853 3.75979C31.7933 3.12779 32.5653 2.81179 33.5013 2.81179C34.3893 2.81179 35.1253 3.16379 35.7093 3.86779ZM33.6813 8.37979C34.2813 8.37979 34.7813 8.16779 35.1813 7.74379C35.5733 7.32779 35.7693 6.81179 35.7693 6.19579C35.7693 5.58779 35.5733 5.07579 35.1813 4.65979C34.7813 4.23579 34.2813 4.02379 33.6813 4.02379C33.0653 4.02379 32.5653 4.23579 32.1813 4.65979C31.7973 5.07579 31.6053 5.59179 31.6053 6.20779C31.6053 6.82379 31.7973 7.33979 32.1813 7.75579C32.5653 8.17179 33.0653 8.37979 33.6813 8.37979ZM41.4207 9.57979C40.4127 9.57979 39.5927 9.26379 38.9607 8.63179C38.3207 7.99179 38.0007 7.18379 38.0007 6.20779C38.0007 5.22379 38.3247 4.41179 38.9727 3.77179C39.6287 3.13179 40.4607 2.81179 41.4687 2.81179C42.1167 2.81179 42.7087 2.96779 43.2447 3.27979C43.7887 3.59179 44.1887 4.01179 44.4447 4.53979L43.3527 5.15179C43.1527 4.80779 42.8847 4.53579 42.5487 4.33579C42.2207 4.12779 41.8647 4.02379 41.4807 4.02379C40.8647 4.02379 40.3527 4.23179 39.9447 4.64779C39.5367 5.07179 39.3327 5.59179 39.3327 6.20779C39.3327 6.80779 39.5327 7.31979 39.9327 7.74379C40.3247 8.15979 40.8247 8.36779 41.4327 8.36779C41.8167 8.36779 42.1847 8.26379 42.5367 8.05579C42.8887 7.84779 43.1487 7.58379 43.3167 7.26379L44.4087 7.89979C44.1447 8.40379 43.7407 8.81179 43.1967 9.12379C42.6607 9.42779 42.0687 9.57979 41.4207 9.57979ZM49.192 8.01979L49.648 9.05179C49.168 9.41179 48.572 9.59179 47.86 9.59179C47.164 9.59179 46.636 9.37979 46.276 8.95579C45.916 8.53179 45.736 7.91979 45.736 7.11979V4.09579H44.62V2.96779H45.748V0.675791H47.056V2.96779H49.288V4.09579H47.056V7.14379C47.056 7.96779 47.388 8.37979 48.052 8.37979C48.404 8.37979 48.784 8.25979 49.192 8.01979ZM50.9857 5.23579C50.7457 5.23579 50.5417 5.15579 50.3737 4.99579C50.2137 4.83579 50.1337 4.63579 50.1337 4.39579C50.1337 4.16379 50.2137 3.96779 50.3737 3.80779C50.5417 3.64779 50.7457 3.56779 50.9857 3.56779C51.2177 3.56779 51.4137 3.64779 51.5737 3.80779C51.7337 3.96779 51.8137 4.16379 51.8137 4.39579C51.8137 4.63579 51.7337 4.83579 51.5737 4.99579C51.4137 5.15579 51.2177 5.23579 50.9857 5.23579ZM50.9857 9.62779C50.7457 9.62779 50.5417 9.54779 50.3737 9.38779C50.2137 9.22779 50.1337 9.02779 50.1337 8.78779C50.1337 8.55579 50.2137 8.35979 50.3737 8.19979C50.5417 8.03979 50.7457 7.95979 50.9857 7.95979C51.2177 7.95979 51.4137 8.03979 51.5737 8.19979C51.7337 8.35979 51.8137 8.55579 51.8137 8.78779C51.8137 9.02779 51.7337 9.22779 51.5737 9.38779C51.4137 9.54779 51.2177 9.62779 50.9857 9.62779Z" fill="black"/>
	<rect x="1.35689" y="27.7844" width="67" height="64" rx="16" fill="#F6F5F5"/>
	<path d="M49.6902 76.9094V72.9928C49.6902 70.9152 48.8825 68.9228 47.4447 67.4538C46.0069 65.9847 44.0569 65.1594 42.0236 65.1594H26.6902C24.6569 65.1594 22.7069 65.9847 21.2691 67.4538C19.8313 68.9228 19.0236 70.9152 19.0236 72.9928V76.9094" stroke="#C89C3B" stroke-width="2.33333" stroke-linecap="round" stroke-linejoin="round"/>
	<path d="M34.3569 57.3261C38.5911 57.3261 42.0236 53.819 42.0236 49.4928C42.0236 45.1665 38.5911 41.6594 34.3569 41.6594C30.1227 41.6594 26.6902 45.1665 26.6902 49.4928C26.6902 53.819 30.1227 57.3261 34.3569 57.3261Z" stroke="#C89C3B" stroke-width="2.33333" stroke-linecap="round" stroke-linejoin="round"/>
	<rect x="0.587601" y="122.452" width="71.5386" height="20" rx="10" fill="#013FE0"/>
	<path d="M33.3086 136.536C33.1166 136.536 32.9846 136.472 32.9126 136.344C32.8406 136.216 32.8486 136.056 32.9366 135.864L36.2366 128.352C36.3646 128.056 36.5606 127.908 36.8246 127.908C36.9446 127.908 37.0526 127.944 37.1486 128.016C37.2526 128.08 37.3366 128.192 37.4006 128.352L40.7126 135.864C40.8006 136.056 40.8126 136.216 40.7486 136.344C40.6846 136.472 40.5566 136.536 40.3646 136.536C40.2206 136.536 40.1046 136.5 40.0166 136.428C39.9286 136.348 39.8566 136.236 39.8006 136.092L39.0206 134.292H34.6166L33.8486 136.092C33.7206 136.388 33.5406 136.536 33.3086 136.536ZM36.8126 129.144L34.9766 133.464H38.6726L36.8366 129.144H36.8126ZM43.9602 136.56C43.4402 136.56 42.9842 136.436 42.5922 136.188C42.2082 135.94 41.9082 135.592 41.6922 135.144C41.4842 134.688 41.3802 134.152 41.3802 133.536C41.3802 132.912 41.4842 132.376 41.6922 131.928C41.9082 131.472 42.2082 131.124 42.5922 130.884C42.9842 130.636 43.4402 130.512 43.9602 130.512C44.4162 130.512 44.8162 130.612 45.1602 130.812C45.5122 131.012 45.7722 131.288 45.9402 131.64V128.4C45.9402 128.072 46.1042 127.908 46.4322 127.908C46.7522 127.908 46.9122 128.072 46.9122 128.4V136.032C46.9122 136.368 46.7522 136.536 46.4322 136.536C46.1122 136.536 45.9522 136.368 45.9522 136.032V135.408C45.7762 135.768 45.5122 136.052 45.1602 136.26C44.8162 136.46 44.4162 136.56 43.9602 136.56ZM44.1642 135.78C44.7082 135.78 45.1442 135.588 45.4722 135.204C45.8002 134.812 45.9642 134.256 45.9642 133.536C45.9642 132.808 45.8002 132.252 45.4722 131.868C45.1442 131.484 44.7082 131.292 44.1642 131.292C43.6122 131.292 43.1722 131.484 42.8442 131.868C42.5242 132.252 42.3642 132.808 42.3642 133.536C42.3642 134.256 42.5242 134.812 42.8442 135.204C43.1722 135.588 43.6122 135.78 44.1642 135.78ZM50.6563 136.56C50.1363 136.56 49.6803 136.436 49.2883 136.188C48.9043 135.94 48.6043 135.592 48.3883 135.144C48.1803 134.688 48.0763 134.152 48.0763 133.536C48.0763 132.912 48.1803 132.376 48.3883 131.928C48.6043 131.472 48.9043 131.124 49.2883 130.884C49.6803 130.636 50.1363 130.512 50.6563 130.512C51.1123 130.512 51.5123 130.612 51.8563 130.812C52.2083 131.012 52.4683 131.288 52.6363 131.64V128.4C52.6363 128.072 52.8003 127.908 53.1283 127.908C53.4483 127.908 53.6083 128.072 53.6083 128.4V136.032C53.6083 136.368 53.4483 136.536 53.1283 136.536C52.8083 136.536 52.6483 136.368 52.6483 136.032V135.408C52.4723 135.768 52.2083 136.052 51.8563 136.26C51.5123 136.46 51.1123 136.56 50.6563 136.56ZM50.8603 135.78C51.4043 135.78 51.8403 135.588 52.1683 135.204C52.4963 134.812 52.6603 134.256 52.6603 133.536C52.6603 132.808 52.4963 132.252 52.1683 131.868C51.8403 131.484 51.4043 131.292 50.8603 131.292C50.3083 131.292 49.8683 131.484 49.5403 131.868C49.2203 132.252 49.0603 132.808 49.0603 133.536C49.0603 134.256 49.2203 134.812 49.5403 135.204C49.8683 135.588 50.3083 135.78 50.8603 135.78Z" fill="white"/>
	<path d="M18.8569 125.722C15.2329 125.722 12.2944 128.66 12.2944 132.284C12.2944 135.908 15.2329 138.847 18.8569 138.847C22.4809 138.847 25.4194 135.908 25.4194 132.284C25.4194 128.66 22.4809 125.722 18.8569 125.722ZM21.6694 132.636C21.6694 132.7 21.6167 132.753 21.5522 132.753H19.3256V134.98C19.3256 135.044 19.2729 135.097 19.2085 135.097H18.5053C18.4409 135.097 18.3881 135.044 18.3881 134.98V132.753H16.1616C16.0971 132.753 16.0444 132.7 16.0444 132.636V131.933C16.0444 131.868 16.0971 131.816 16.1616 131.816H18.3881V129.589C18.3881 129.525 18.4409 129.472 18.5053 129.472H19.2085C19.2729 129.472 19.3256 129.525 19.3256 129.589V131.816H21.5522C21.6167 131.816 21.6694 131.868 21.6694 131.933V132.636Z" fill="white"/>
	<path d="M7.77689 110.708C7.08355 110.708 6.49022 110.561 5.99689 110.268C5.50355 109.975 5.12355 109.558 4.85689 109.018C4.59689 108.478 4.46689 107.835 4.46689 107.088C4.46689 106.348 4.59689 105.708 4.85689 105.168C5.12355 104.628 5.50355 104.211 5.99689 103.918C6.49022 103.625 7.08355 103.478 7.77689 103.478C8.19022 103.478 8.58355 103.538 8.95689 103.658C9.33022 103.778 9.65355 103.948 9.92689 104.168C10.0402 104.248 10.1036 104.341 10.1169 104.448C10.1369 104.555 10.1202 104.651 10.0669 104.738C10.0136 104.818 9.93689 104.871 9.83689 104.898C9.74355 104.918 9.63689 104.885 9.51689 104.798C9.04355 104.418 8.47022 104.228 7.79689 104.228C7.00355 104.228 6.39689 104.478 5.97689 104.978C5.55689 105.478 5.34689 106.181 5.34689 107.088C5.34689 108.001 5.55689 108.708 5.97689 109.208C6.39689 109.708 7.00355 109.958 7.79689 109.958C8.47022 109.958 9.05022 109.765 9.53689 109.378C9.65689 109.298 9.76355 109.268 9.85689 109.288C9.95689 109.308 10.0302 109.358 10.0769 109.438C10.1302 109.518 10.1502 109.608 10.1369 109.708C10.1236 109.808 10.0669 109.898 9.96689 109.978C9.68022 110.218 9.35022 110.401 8.97689 110.528C8.60355 110.648 8.20355 110.708 7.77689 110.708ZM12.7138 110.708C12.2405 110.708 11.8305 110.605 11.4838 110.398C11.1372 110.191 10.8672 109.901 10.6738 109.528C10.4872 109.148 10.3938 108.701 10.3938 108.188C10.3938 107.675 10.4872 107.231 10.6738 106.858C10.8672 106.478 11.1372 106.185 11.4838 105.978C11.8305 105.771 12.2405 105.668 12.7138 105.668C13.1805 105.668 13.5872 105.771 13.9338 105.978C14.2872 106.185 14.5572 106.478 14.7438 106.858C14.9372 107.231 15.0338 107.675 15.0338 108.188C15.0338 108.701 14.9372 109.148 14.7438 109.528C14.5572 109.901 14.2872 110.191 13.9338 110.398C13.5872 110.605 13.1805 110.708 12.7138 110.708ZM12.7138 110.058C13.1672 110.058 13.5305 109.898 13.8038 109.578C14.0772 109.251 14.2138 108.788 14.2138 108.188C14.2138 107.581 14.0772 107.118 13.8038 106.798C13.5305 106.478 13.1672 106.318 12.7138 106.318C12.2538 106.318 11.8872 106.478 11.6138 106.798C11.3472 107.118 11.2138 107.581 11.2138 108.188C11.2138 108.788 11.3472 109.251 11.6138 109.578C11.8872 109.898 12.2538 110.058 12.7138 110.058ZM16.3505 110.688C16.0838 110.688 15.9505 110.548 15.9505 110.268V106.098C15.9505 105.825 16.0805 105.688 16.3405 105.688C16.6071 105.688 16.7405 105.825 16.7405 106.098V106.588C16.9005 106.281 17.1271 106.051 17.4205 105.898C17.7138 105.745 18.0438 105.668 18.4105 105.668C19.5638 105.668 20.1405 106.308 20.1405 107.588V110.268C20.1405 110.548 20.0071 110.688 19.7405 110.688C19.4671 110.688 19.3305 110.548 19.3305 110.268V107.638C19.3305 107.185 19.2405 106.855 19.0605 106.648C18.8871 106.435 18.6071 106.328 18.2205 106.328C17.7738 106.328 17.4171 106.468 17.1505 106.748C16.8905 107.021 16.7605 107.388 16.7605 107.848V110.268C16.7605 110.548 16.6238 110.688 16.3505 110.688ZM23.2841 110.708C22.7107 110.708 22.2807 110.558 21.9941 110.258C21.7074 109.951 21.5641 109.511 21.5641 108.938V106.388H20.8941C20.6607 106.388 20.5441 106.281 20.5441 106.068C20.5441 105.861 20.6607 105.758 20.8941 105.758H21.5641V104.608C21.5641 104.335 21.7007 104.198 21.9741 104.198C22.2407 104.198 22.3741 104.335 22.3741 104.608V105.758H23.6341C23.8674 105.758 23.9841 105.861 23.9841 106.068C23.9841 106.281 23.8674 106.388 23.6341 106.388H22.3741V108.858C22.3741 109.238 22.4541 109.528 22.6141 109.728C22.7741 109.921 23.0341 110.018 23.3941 110.018C23.5207 110.018 23.6274 110.005 23.7141 109.978C23.8007 109.951 23.8774 109.938 23.9441 109.938C24.0041 109.931 24.0541 109.951 24.0941 109.998C24.1341 110.045 24.1541 110.125 24.1541 110.238C24.1541 110.318 24.1374 110.391 24.1041 110.458C24.0774 110.525 24.0274 110.571 23.9541 110.598C23.8741 110.625 23.7674 110.648 23.6341 110.668C23.5074 110.695 23.3907 110.708 23.2841 110.708ZM26.0602 110.708C25.7268 110.708 25.4268 110.645 25.1602 110.518C24.9002 110.385 24.6935 110.205 24.5402 109.978C24.3868 109.751 24.3102 109.498 24.3102 109.218C24.3102 108.865 24.4002 108.585 24.5802 108.378C24.7668 108.171 25.0702 108.025 25.4902 107.938C25.9168 107.845 26.4968 107.798 27.2302 107.798H27.5502V107.488C27.5502 107.075 27.4635 106.778 27.2902 106.598C27.1235 106.411 26.8535 106.318 26.4802 106.318C26.2468 106.318 26.0102 106.348 25.7702 106.408C25.5368 106.468 25.2935 106.565 25.0402 106.698C24.9268 106.758 24.8302 106.771 24.7502 106.738C24.6768 106.698 24.6235 106.638 24.5902 106.558C24.5635 106.471 24.5635 106.385 24.5902 106.298C24.6235 106.205 24.6902 106.135 24.7902 106.088C25.0768 105.941 25.3635 105.835 25.6502 105.768C25.9435 105.701 26.2202 105.668 26.4802 105.668C27.1068 105.668 27.5702 105.821 27.8702 106.128C28.1768 106.435 28.3302 106.911 28.3302 107.558V110.268C28.3302 110.548 28.2068 110.688 27.9602 110.688C27.7002 110.688 27.5702 110.548 27.5702 110.268V109.778C27.4435 110.065 27.2468 110.291 26.9802 110.458C26.7202 110.625 26.4135 110.708 26.0602 110.708ZM26.1902 110.098C26.5902 110.098 26.9168 109.961 27.1702 109.688C27.4235 109.408 27.5502 109.055 27.5502 108.628V108.328H27.2402C26.7002 108.328 26.2735 108.355 25.9602 108.408C25.6535 108.455 25.4368 108.541 25.3102 108.668C25.1902 108.788 25.1302 108.955 25.1302 109.168C25.1302 109.441 25.2235 109.665 25.4102 109.838C25.6035 110.011 25.8635 110.098 26.1902 110.098ZM31.5929 110.708C31.1062 110.708 30.6862 110.605 30.3329 110.398C29.9796 110.185 29.7062 109.888 29.5129 109.508C29.3262 109.121 29.2329 108.671 29.2329 108.158C29.2329 107.385 29.4429 106.778 29.8629 106.338C30.2829 105.891 30.8596 105.668 31.5929 105.668C31.8329 105.668 32.0829 105.708 32.3429 105.788C32.6029 105.861 32.8396 105.985 33.0529 106.158C33.1662 106.238 33.2129 106.338 33.1929 106.458C33.1796 106.578 33.1229 106.668 33.0229 106.728C32.9296 106.788 32.8196 106.775 32.6929 106.688C32.5129 106.555 32.3329 106.461 32.1529 106.408C31.9796 106.355 31.8096 106.328 31.6429 106.328C31.1362 106.328 30.7462 106.488 30.4729 106.808C30.1996 107.121 30.0629 107.575 30.0629 108.168C30.0629 108.748 30.1996 109.208 30.4729 109.548C30.7462 109.881 31.1362 110.048 31.6429 110.048C31.8096 110.048 31.9796 110.021 32.1529 109.968C32.3329 109.915 32.5129 109.821 32.6929 109.688C32.8196 109.601 32.9296 109.591 33.0229 109.658C33.1162 109.718 33.1662 109.808 33.1729 109.928C33.1862 110.048 33.1396 110.145 33.0329 110.218C32.8196 110.391 32.5862 110.518 32.3329 110.598C32.0796 110.671 31.8329 110.708 31.5929 110.708ZM35.8118 110.708C35.2385 110.708 34.8085 110.558 34.5218 110.258C34.2351 109.951 34.0918 109.511 34.0918 108.938V106.388H33.4218C33.1885 106.388 33.0718 106.281 33.0718 106.068C33.0718 105.861 33.1885 105.758 33.4218 105.758H34.0918V104.608C34.0918 104.335 34.2285 104.198 34.5018 104.198C34.7685 104.198 34.9018 104.335 34.9018 104.608V105.758H36.1618C36.3951 105.758 36.5118 105.861 36.5118 106.068C36.5118 106.281 36.3951 106.388 36.1618 106.388H34.9018V108.858C34.9018 109.238 34.9818 109.528 35.1418 109.728C35.3018 109.921 35.5618 110.018 35.9218 110.018C36.0485 110.018 36.1551 110.005 36.2418 109.978C36.3285 109.951 36.4051 109.938 36.4718 109.938C36.5318 109.931 36.5818 109.951 36.6218 109.998C36.6618 110.045 36.6818 110.125 36.6818 110.238C36.6818 110.318 36.6651 110.391 36.6318 110.458C36.6051 110.525 36.5551 110.571 36.4818 110.598C36.4018 110.625 36.2951 110.648 36.1618 110.668C36.0351 110.695 35.9185 110.708 35.8118 110.708ZM39.836 110.688C39.576 110.688 39.446 110.551 39.446 110.278V103.918C39.446 103.638 39.566 103.498 39.806 103.498C39.906 103.498 39.9827 103.518 40.036 103.558C40.0894 103.591 40.1494 103.655 40.216 103.748L44.336 109.238V103.898C44.336 103.631 44.466 103.498 44.726 103.498C44.9727 103.498 45.096 103.631 45.096 103.898V110.288C45.096 110.555 44.986 110.688 44.766 110.688C44.666 110.688 44.586 110.668 44.526 110.628C44.466 110.588 44.4027 110.525 44.336 110.438L40.216 104.928V110.278C40.216 110.551 40.0894 110.688 39.836 110.688ZM47.9684 110.708C47.635 110.708 47.335 110.645 47.0684 110.518C46.8084 110.385 46.6017 110.205 46.4484 109.978C46.295 109.751 46.2184 109.498 46.2184 109.218C46.2184 108.865 46.3084 108.585 46.4884 108.378C46.675 108.171 46.9784 108.025 47.3984 107.938C47.825 107.845 48.405 107.798 49.1384 107.798H49.4584V107.488C49.4584 107.075 49.3717 106.778 49.1984 106.598C49.0317 106.411 48.7617 106.318 48.3884 106.318C48.155 106.318 47.9184 106.348 47.6784 106.408C47.445 106.468 47.2017 106.565 46.9484 106.698C46.835 106.758 46.7384 106.771 46.6584 106.738C46.585 106.698 46.5317 106.638 46.4984 106.558C46.4717 106.471 46.4717 106.385 46.4984 106.298C46.5317 106.205 46.5984 106.135 46.6984 106.088C46.985 105.941 47.2717 105.835 47.5584 105.768C47.8517 105.701 48.1284 105.668 48.3884 105.668C49.015 105.668 49.4784 105.821 49.7784 106.128C50.085 106.435 50.2384 106.911 50.2384 107.558V110.268C50.2384 110.548 50.115 110.688 49.8684 110.688C49.6084 110.688 49.4784 110.548 49.4784 110.268V109.778C49.3517 110.065 49.155 110.291 48.8884 110.458C48.6284 110.625 48.3217 110.708 47.9684 110.708ZM48.0984 110.098C48.4984 110.098 48.825 109.961 49.0784 109.688C49.3317 109.408 49.4584 109.055 49.4584 108.628V108.328H49.1484C48.6084 108.328 48.1817 108.355 47.8684 108.408C47.5617 108.455 47.345 108.541 47.2184 108.668C47.0984 108.788 47.0384 108.955 47.0384 109.168C47.0384 109.441 47.1317 109.665 47.3184 109.838C47.5117 110.011 47.7717 110.098 48.0984 110.098ZM51.8611 110.688C51.5944 110.688 51.4611 110.548 51.4611 110.268V106.098C51.4611 105.825 51.5911 105.688 51.8511 105.688C52.1178 105.688 52.2511 105.825 52.2511 106.098V106.578C52.3978 106.285 52.6011 106.061 52.8611 105.908C53.1211 105.748 53.4244 105.668 53.7711 105.668C54.5311 105.668 55.0178 105.998 55.2311 106.658C55.3778 106.351 55.5944 106.111 55.8811 105.938C56.1678 105.758 56.4978 105.668 56.8711 105.668C57.9511 105.668 58.4911 106.308 58.4911 107.588V110.268C58.4911 110.548 58.3544 110.688 58.0811 110.688C57.8144 110.688 57.6811 110.548 57.6811 110.268V107.628C57.6811 107.181 57.6011 106.855 57.4411 106.648C57.2878 106.435 57.0311 106.328 56.6711 106.328C56.2778 106.328 55.9644 106.468 55.7311 106.748C55.4978 107.028 55.3811 107.401 55.3811 107.868V110.268C55.3811 110.548 55.2444 110.688 54.9711 110.688C54.7044 110.688 54.5711 110.548 54.5711 110.268V107.628C54.5711 107.181 54.4911 106.855 54.3311 106.648C54.1778 106.435 53.9211 106.328 53.5611 106.328C53.1611 106.328 52.8444 106.468 52.6111 106.748C52.3844 107.028 52.2711 107.401 52.2711 107.868V110.268C52.2711 110.548 52.1344 110.688 51.8611 110.688ZM61.8956 110.708C61.1289 110.708 60.5222 110.485 60.0756 110.038C59.6289 109.585 59.4056 108.971 59.4056 108.198C59.4056 107.698 59.5056 107.258 59.7056 106.878C59.9056 106.491 60.1789 106.195 60.5256 105.988C60.8789 105.775 61.2856 105.668 61.7456 105.668C62.4056 105.668 62.9222 105.881 63.2956 106.308C63.6689 106.728 63.8556 107.308 63.8556 108.048C63.8556 108.255 63.7389 108.358 63.5056 108.358H60.1956C60.2222 108.911 60.3822 109.335 60.6756 109.628C60.9689 109.915 61.3756 110.058 61.8956 110.058C62.1156 110.058 62.3389 110.031 62.5656 109.978C62.7922 109.918 63.0122 109.815 63.2256 109.668C63.3789 109.568 63.5056 109.548 63.6056 109.608C63.7122 109.668 63.7656 109.761 63.7656 109.888C63.7722 110.008 63.7056 110.115 63.5656 110.208C63.3456 110.368 63.0822 110.491 62.7756 110.578C62.4756 110.665 62.1822 110.708 61.8956 110.708ZM61.7656 106.268C61.3056 106.268 60.9422 106.411 60.6756 106.698C60.4089 106.985 60.2522 107.361 60.2056 107.828H63.1556C63.1356 107.335 63.0056 106.951 62.7656 106.678C62.5322 106.405 62.1989 106.268 61.7656 106.268Z" fill="#8D8D8D"/>
</svg>
