<svg width="218" height="241" viewBox="0 0 218 241" fill="none" xmlns="http://www.w3.org/2000/svg">
<rect opacity="0.1" x="165.434" y="22.0791" width="52.5371" height="55.3415" rx="14" fill="#000BFF"/>
<rect opacity="0.1" x="24.8807" y="54.6445" width="65.5868" height="69.0878" rx="14" fill="#000BFF"/>
<rect opacity="0.1" x="122.707" y="12.2417" width="17.5651" height="18.5027" rx="6" fill="#000BFF"/>
<rect opacity="0.1" x="182.92" y="106.828" width="17.5651" height="18.5027" rx="6" fill="#000BFF"/>
<rect opacity="0.1" x="8.927" y="0.298828" width="28.0362" height="29.5327" rx="6" fill="#000BFF"/>
<rect opacity="0.1" x="0.903442" y="177.056" width="44.0833" height="46.4364" rx="14" fill="#000BFF"/>
<rect opacity="0.1" x="112.379" y="143.581" width="92.1631" height="97.0827" rx="14" fill="#000BFF"/>
<rect x="59.5574" y="52.3188" width="115.642" height="117.52" rx="23" fill="#D8B831"/>
<rect x="54.5574" y="57.3188" width="115.642" height="117.52" rx="23" fill="#2029FF"/>
<path d="M117.378 84.5288C99.9817 84.5288 85.8284 98.6821 85.8284 116.079V129.15C85.8284 132.381 88.6584 135.009 92.1384 135.009H95.2934C96.1301 135.009 96.9326 134.676 97.5243 134.085C98.116 133.493 98.4484 132.691 98.4484 131.854V115.628C98.4484 114.791 98.116 113.988 97.5243 113.397C96.9326 112.805 96.1301 112.473 95.2934 112.473H92.4286C94.1828 100.263 104.689 90.8388 117.378 90.8388C130.068 90.8388 140.574 100.263 142.328 112.473H139.463C138.627 112.473 137.824 112.805 137.232 113.397C136.641 113.988 136.308 114.791 136.308 115.628V135.009C136.308 138.489 133.478 141.319 129.998 141.319H123.688V138.164H111.068V147.629H129.998C136.958 147.629 142.618 141.969 142.618 135.009C146.098 135.009 148.928 132.381 148.928 129.15V116.079C148.928 98.6821 134.775 84.5288 117.378 84.5288Z" fill="#D8B831"/>
</svg>
