<svg width="162" height="58" viewBox="0 0 162 58" fill="none"
	xmlns="http://www.w3.org/2000/svg">
	<path d="M4.32648 27.2571C3.7742 27.2571 3.32648 27.7048 3.32648 28.2571C3.32648 28.8094 3.7742 29.2571 4.32648 29.2571V27.2571ZM44.5556 29.2571C45.1079 29.2571 45.5556 28.8094 45.5556 28.2571C45.5556 27.7048 45.1079 27.2571 44.5556 27.2571V29.2571ZM7.2 29.2571C7.75228 29.2571 8.2 28.8094 8.2 28.2571C8.2 27.7048 7.75228 27.2571 7.2 27.2571V29.2571ZM14.8627 27.2571C14.3104 27.2571 13.8627 27.7048 13.8627 28.2571C13.8627 28.8094 14.3104 29.2571 14.8627 29.2571V27.2571ZM20.6097 29.2571C21.162 29.2571 21.6097 28.8094 21.6097 28.2571C21.6097 27.7048 21.162 27.2571 20.6097 27.2571V29.2571ZM28.2724 27.2571C27.7201 27.2571 27.2724 27.7048 27.2724 28.2571C27.2724 28.8094 27.7201 29.2571 28.2724 29.2571V27.2571ZM34.0194 29.2571C34.5717 29.2571 35.0194 28.8094 35.0194 28.2571C35.0194 27.7048 34.5717 27.2571 34.0194 27.2571V29.2571ZM41.6821 27.2571C41.1298 27.2571 40.6821 27.7048 40.6821 28.2571C40.6821 28.8094 41.1298 29.2571 41.6821 29.2571V27.2571ZM4.32648 29.2571H7.2V27.2571H4.32648V29.2571ZM14.8627 29.2571H20.6097V27.2571H14.8627V29.2571ZM28.2724 29.2571H34.0194V27.2571H28.2724V29.2571ZM41.6821 29.2571H44.5556V27.2571H41.6821V29.2571Z" fill="#C8C8C8"/>
	<path d="M116.801 27.2571C116.249 27.2571 115.801 27.7048 115.801 28.2571C115.801 28.8094 116.249 29.2571 116.801 29.2571V27.2571ZM157.03 29.2571C157.583 29.2571 158.03 28.8094 158.03 28.2571C158.03 27.7048 157.583 27.2571 157.03 27.2571V29.2571ZM119.675 29.2571C120.227 29.2571 120.675 28.8094 120.675 28.2571C120.675 27.7048 120.227 27.2571 119.675 27.2571V29.2571ZM127.337 27.2571C126.785 27.2571 126.337 27.7048 126.337 28.2571C126.337 28.8094 126.785 29.2571 127.337 29.2571V27.2571ZM133.084 29.2571C133.637 29.2571 134.084 28.8094 134.084 28.2571C134.084 27.7048 133.637 27.2571 133.084 27.2571V29.2571ZM140.747 27.2571C140.195 27.2571 139.747 27.7048 139.747 28.2571C139.747 28.8094 140.195 29.2571 140.747 29.2571V27.2571ZM146.494 29.2571C147.046 29.2571 147.494 28.8094 147.494 28.2571C147.494 27.7048 147.046 27.2571 146.494 27.2571V29.2571ZM154.157 27.2571C153.605 27.2571 153.157 27.7048 153.157 28.2571C153.157 28.8094 153.605 29.2571 154.157 29.2571V27.2571ZM116.801 29.2571H119.675V27.2571H116.801V29.2571ZM127.337 29.2571H133.084V27.2571H127.337V29.2571ZM140.747 29.2571H146.494V27.2571H140.747V29.2571ZM154.157 29.2571H157.03V27.2571H154.157V29.2571Z" fill="#C8C8C8"/>
	<circle cx="80.6784" cy="29.1247" r="28.7963" fill="#4098FF" fill-opacity="0.18"/>
	<circle cx="80.6785" cy="29.1246" r="24.8516" fill="#4098FF" fill-opacity="0.22"/>
	<circle cx="80.6785" cy="29.1246" r="20.6275" fill="#4098FF" fill-opacity="0.45"/>
	<path d="M80.6785 45.1089C89.6325 45.1089 96.8912 37.9156 96.8912 29.0422C96.8912 20.1689 89.6325 12.9756 80.6785 12.9756C71.7244 12.9756 64.4657 20.1689 64.4657 29.0422C64.4657 37.9156 71.7244 45.1089 80.6785 45.1089Z" fill="#000BFF"/>
	<path d="M91.8284 28.2535C91.5824 31.3604 90.299 34.0602 87.5644 36.1453C86.3202 37.095 84.9277 37.7541 83.4766 38.1224C82.8754 38.2747 82.4616 38.8201 82.4616 39.4349V43.4369C82.4616 44.1181 82.9761 44.6802 83.6416 44.7633C81.4927 45.1595 80.3491 45.1891 78.3912 44.9834C79.0539 44.9004 79.66 44.1181 79.66 43.4369V39.5816C79.66 38.942 79.2014 38.3909 78.5667 38.2719C77.2134 38.0171 75.8909 37.5159 74.669 36.7683C71.4088 34.7718 69.843 31.8311 69.5299 28.2341C69.404 26.7832 70.5113 25.5343 71.9512 25.4153V24.9501C71.9512 23.5822 73.0445 22.4275 74.423 22.4164C75.122 22.4081 75.7539 22.6878 76.2096 23.1391C76.6626 23.5849 76.9394 24.2024 76.9394 24.8864V25.407H78.1026V22.7459C78.1026 21.3808 79.193 20.2261 80.5715 20.215C81.2705 20.2067 81.9024 20.4864 82.361 20.9377C82.8111 21.3836 83.0907 22.001 83.0907 22.685V25.407H84.3685V24.9501C84.3685 23.5822 85.4618 22.4275 86.8402 22.4164C87.5365 22.4081 88.1712 22.6878 88.6269 23.1391C89.0771 23.5849 89.3567 24.2024 89.3567 24.8864V25.4153C90.819 25.515 91.9459 26.7832 91.8284 28.2535Z" fill="white"/>
	<path d="M75.2254 27.8743C77.5266 27.8743 84.4608 27.8743 86.7396 27.8743C87.159 27.8743 87.5085 28.2066 87.5197 28.6219C87.5812 31.0088 86.7396 33.0496 84.5055 34.495C82.5371 35.7688 80.0654 35.8629 77.9795 34.783C75.4547 33.476 74.4285 31.3245 74.4481 28.6385C74.4481 28.2204 74.7976 27.8743 75.2254 27.8743ZM84.444 30.3027H77.5294C77.3169 30.3027 77.1659 30.5159 77.2414 30.7098C77.795 32.122 79.3804 33.152 81.03 33.1299C82.6545 33.1105 84.2203 32.061 84.7292 30.7042C84.8075 30.5104 84.6537 30.3027 84.444 30.3027Z" fill="#000BFF"/>
	<path d="M74.4453 21.7991C75.3286 21.7991 76.0447 21.09 76.0447 20.2152C76.0447 19.3405 75.3286 18.6313 74.4453 18.6313C73.562 18.6313 72.846 19.3405 72.846 20.2152C72.846 21.09 73.562 21.7991 74.4453 21.7991Z" fill="#D8B831"/>
	<path d="M80.6666 19.3985C81.5498 19.3985 82.2659 18.6894 82.2659 17.8146C82.2659 16.9398 81.5498 16.2307 80.6666 16.2307C79.7833 16.2307 79.0672 16.9398 79.0672 17.8146C79.0672 18.6894 79.7833 19.3985 80.6666 19.3985Z" fill="#D8B831"/>
	<path d="M86.9437 21.7991C87.827 21.7991 88.543 21.09 88.543 20.2152C88.543 19.3405 87.827 18.6313 86.9437 18.6313C86.0604 18.6313 85.3444 19.3405 85.3444 20.2152C85.3444 21.09 86.0604 21.7991 86.9437 21.7991Z" fill="#D8B831"/>
	<circle cx="3.36769" cy="28.2572" r="3.20881" fill="#C4C4C4"/>
	<circle cx="158.06" cy="28.2572" r="3.20881" fill="#C4C4C4"/>
</svg>
