<svg width="22" height="22" viewBox="0 0 22 22" fill="none" xmlns="http://www.w3.org/2000/svg">
<path d="M10.7392 0.616699C4.99541 0.616699 0.322495 5.28962 0.322495 11.0334V15.349C0.322495 16.4157 1.25687 17.2834 2.40583 17.2834H3.44749C3.72376 17.2834 3.98871 17.1736 4.18406 16.9783C4.37941 16.7829 4.48916 16.518 4.48916 16.2417V10.8844C4.48916 10.6081 4.37941 10.3432 4.18406 10.1478C3.98871 9.95249 3.72376 9.84274 3.44749 9.84274H2.50166C3.08083 5.81149 6.54958 2.70003 10.7392 2.70003C14.9287 2.70003 18.3975 5.81149 18.9767 9.84274H18.0308C17.7546 9.84274 17.4896 9.95249 17.2943 10.1478C17.0989 10.3432 16.9892 10.6081 16.9892 10.8844V17.2834C16.9892 18.4323 16.0548 19.3667 14.9058 19.3667H12.8225V18.325H8.65583V21.45H14.9058C17.2037 21.45 19.0725 19.5813 19.0725 17.2834C20.2215 17.2834 21.1558 16.4157 21.1558 15.349V11.0334C21.1558 5.28962 16.4829 0.616699 10.7392 0.616699Z" fill="#080F18"/>
</svg>
