<svg width="258" height="250" viewBox="0 0 258 250" fill="none"
	xmlns="http://www.w3.org/2000/svg">
	<path d="M135.926 214.139C203.274 214.139 257.871 210.952 257.871 207.02C257.871 203.088 203.274 199.9 135.926 199.9C68.5772 199.9 13.9805 203.088 13.9805 207.02C13.9805 210.952 68.5772 214.139 135.926 214.139Z" fill="#263238"/>
	<path d="M177.933 25.7843H177.279V29.9227H177.933V25.7843Z" fill="#407BFF"/>
	<path d="M177.933 22.4195H177.304C177.3 20.0091 176.341 17.6984 174.636 15.9946C172.931 14.2908 170.62 13.3329 168.209 13.3313V12.7023C170.784 12.7106 173.252 13.7368 175.073 15.5572C176.895 17.3775 177.923 19.8443 177.933 22.4195Z" fill="#407BFF"/>
	<path d="M168.184 14.9665H81.3777C77.2581 14.9665 73.9185 18.3061 73.9185 22.4257V199.473C73.9185 203.592 77.2581 206.932 81.3777 206.932H168.184C172.304 206.932 175.643 203.592 175.643 199.473V22.4257C175.643 18.3061 172.304 14.9665 168.184 14.9665Z" fill="#FFFFFE"/>
	<path opacity="0.95" d="M172.26 199.473V22.4195C172.26 19.8872 170.207 17.8345 167.675 17.8345L80.8683 17.8345C78.3361 17.8345 76.2833 19.8872 76.2833 22.4195L76.2833 199.473C76.2833 202.005 78.3361 204.058 80.8683 204.058H167.675C170.207 204.058 172.26 202.005 172.26 199.473Z" fill="#EBEBEB"/>
	<path d="M124.278 196.951C127.143 196.951 129.467 194.627 129.467 191.762C129.467 188.896 127.143 186.573 124.278 186.573C121.412 186.573 119.089 188.896 119.089 191.762C119.089 194.627 121.412 196.951 124.278 196.951Z" fill="#4A4FB5"/>
	<path d="M120.309 17.3124C120.309 18.4484 120.76 19.5378 121.564 20.341C122.367 21.1443 123.456 21.5955 124.592 21.5955C125.728 21.5955 126.818 21.1443 127.621 20.341C128.424 19.5378 128.875 18.4484 128.875 17.3124H120.309Z" fill="#FFFFFE"/>
	<path opacity="0.7" d="M152.599 35.8976H96.6232C94.34 35.9043 92.1522 36.8142 90.5378 38.4287C88.9233 40.0432 88.0134 42.2309 88.0067 44.5141V50.2626C88.0134 52.5458 88.9233 54.7336 90.5378 56.3481C92.1522 57.9626 94.34 58.8725 96.6232 58.8791H152.599L161.215 63.9861V44.489C161.201 42.2107 160.287 40.0303 158.674 38.4216C157.06 36.8129 154.877 35.9059 152.599 35.8976Z" fill="#050C9D"/>
	<path d="M151.039 44.1305H98.1516V45.5645H151.039V44.1305Z" fill="white"/>
	<path d="M151.039 49.2123H108.328V50.6463H151.039V49.2123Z" fill="white"/>
	<path opacity="0.15" d="M96.5918 74.1624H152.568C154.851 74.1691 157.039 75.079 158.653 76.6935C160.267 78.3079 161.177 80.4957 161.184 82.7789V88.5211C161.177 90.8043 160.267 92.9921 158.653 94.6066C157.039 96.221 154.851 97.131 152.568 97.1376H96.5918L87.9753 102.245V82.7475C87.9886 80.4692 88.9017 78.2885 90.5156 76.6805C92.1295 75.0724 94.3136 74.1674 96.5918 74.1624Z" fill="#FFC727"/>
	<path opacity="0.5" d="M151.039 82.389H98.1516V83.823H151.039V82.389Z" fill="#407BFF"/>
	<path opacity="0.5" d="M122.68 87.4771H98.1516V88.911H122.68V87.4771Z" fill="#407BFF"/>
	<path opacity="0.5" d="M136.485 87.4771H126.51V88.911H136.485V87.4771Z" fill="#407BFF"/>
	<path opacity="0.7" d="M152.599 112.421H96.6232C94.34 112.427 92.1522 113.337 90.5378 114.952C88.9233 116.566 88.0134 118.754 88.0067 121.037V126.78C88.0117 129.063 88.9211 131.252 90.5359 132.867C92.1508 134.482 94.3395 135.391 96.6232 135.396H152.599L161.215 140.503V121.006C161.199 118.729 160.285 116.55 158.672 114.943C157.058 113.335 154.876 112.429 152.599 112.421Z" fill="#050C9D"/>
	<path d="M151.039 120.647H98.1516V122.081H151.039V120.647Z" fill="white"/>
	<path d="M151.039 125.736H108.328V127.17H151.039V125.736Z" fill="white"/>
	<path opacity="0.15" d="M96.5918 150.679H118.372C120.655 150.688 122.842 151.598 124.456 153.212C126.07 154.826 126.98 157.013 126.989 159.296V165.044C126.98 167.327 126.07 169.514 124.456 171.128C122.842 172.742 120.655 173.653 118.372 173.661H96.5918L87.9753 178.762V159.296C87.982 157.013 88.8919 154.825 90.5064 153.21C92.1209 151.596 94.3086 150.686 96.5918 150.679Z" fill="#FFC727"/>
	<path opacity="0.5" d="M100.957 162.17C100.957 162.668 100.809 163.154 100.533 163.568C100.256 163.981 99.8634 164.304 99.4037 164.494C98.944 164.685 98.4382 164.735 97.9501 164.637C97.4621 164.54 97.0139 164.301 96.662 163.949C96.3102 163.597 96.0706 163.149 95.9735 162.661C95.8764 162.173 95.9263 161.667 96.1167 161.207C96.3071 160.748 96.6295 160.355 97.0433 160.078C97.457 159.802 97.9434 159.654 98.4409 159.654C99.1056 159.662 99.7408 159.93 100.211 160.4C100.681 160.87 100.949 161.505 100.957 162.17Z" fill="#407BFF"/>
	<path opacity="0.5" d="M106.045 162.679C107.452 162.679 108.592 161.539 108.592 160.132C108.592 158.725 107.452 157.585 106.045 157.585C104.638 157.585 103.498 158.725 103.498 160.132C103.498 161.539 104.638 162.679 106.045 162.679Z" fill="#407BFF"/>
	<path opacity="0.5" d="M116.221 165.22C116.221 165.718 116.073 166.204 115.797 166.618C115.521 167.032 115.128 167.354 114.668 167.545C114.208 167.735 113.702 167.785 113.214 167.688C112.726 167.591 112.278 167.351 111.926 166.999C111.574 166.647 111.335 166.199 111.238 165.711C111.141 165.223 111.191 164.717 111.381 164.258C111.571 163.798 111.894 163.405 112.308 163.129C112.721 162.852 113.208 162.705 113.705 162.705C114.372 162.705 115.012 162.97 115.484 163.441C115.956 163.913 116.221 164.553 116.221 165.22Z" fill="#407BFF"/>
	<path d="M195.254 156.05C195.946 157.428 196.562 158.812 197.21 160.195C197.858 161.579 198.468 162.988 199.046 164.397C199.625 165.805 200.229 167.22 200.782 168.661C201.336 170.101 201.895 171.541 202.405 173.063L200.153 170.944C201.466 171.392 202.842 171.63 204.229 171.648C205.838 171.692 207.448 171.618 209.046 171.428C210.707 171.252 212.38 170.975 214.078 170.661C215.776 170.346 217.474 169.956 219.109 169.573L220.6 173.195C218.964 174.095 217.27 174.887 215.531 175.567C213.789 176.266 212.005 176.858 210.191 177.34C208.305 177.849 206.377 178.185 204.43 178.346C202.259 178.557 200.067 178.378 197.958 177.818L196.48 177.409L195.675 175.68C194.468 173.032 193.159 170.315 191.902 167.604C191.273 166.246 190.612 164.881 189.983 163.516C189.354 162.151 188.725 160.78 188.096 159.409L195.254 156.05Z" fill="#FFC3BD"/>
	<path d="M217.059 170.68L219.531 168.264L223.455 172.51C223.455 172.51 222.034 174.994 218.499 173.548L217.059 170.68Z" fill="#FFC3BD"/>
	<path d="M223.26 166.667L225.424 170.195L223.462 172.51L219.537 168.264L223.26 166.667Z" fill="#FFC3BD"/>
	<path d="M184.147 150.396C189.178 148.453 193.078 151.352 199.436 159.378L191.99 167.032C191.99 167.032 174.335 154.157 184.147 150.396Z" fill="#C7C7C7"/>
	<path opacity="0.2" d="M193.593 158.698C191.216 157.157 189.147 157.591 187.398 159.025C188.059 161.472 189.751 164.277 191.38 166.573C191.763 166.874 192.008 167.038 192.008 167.038L196.159 162.768C196.051 161.944 195.766 161.154 195.323 160.452C194.88 159.749 194.29 159.151 193.593 158.698Z" fill="black"/>
	<path d="M222.468 203.749L228.493 203.051L227.99 190.699L221.971 191.391L222.468 203.749Z" fill="#FFC3BD"/>
	<path d="M228.544 200.454L221.757 200.548C221.647 200.554 221.543 200.599 221.463 200.675C221.383 200.751 221.334 200.853 221.323 200.963L220.556 206.303C220.533 206.429 220.538 206.558 220.57 206.682C220.602 206.807 220.66 206.922 220.741 207.022C220.821 207.122 220.922 207.203 221.037 207.26C221.151 207.317 221.277 207.349 221.405 207.353C223.512 207.284 224.481 207.127 227.141 207.083C228.783 207.083 233.726 207.177 235.99 207.146C238.254 207.114 238.405 204.63 237.468 204.41C233.261 203.466 230.839 202.114 229.437 200.806C229.197 200.575 228.876 200.448 228.544 200.454Z" fill="#263238"/>
	<path d="M229.984 198.881C230.079 198.845 230.181 198.833 230.282 198.845C230.382 198.857 230.479 198.893 230.562 198.951C230.629 198.983 230.686 199.032 230.729 199.092C230.772 199.153 230.799 199.223 230.808 199.296C230.883 199.925 229.55 201.057 229.367 201.183C229.349 201.197 229.327 201.204 229.305 201.204C229.282 201.204 229.26 201.197 229.242 201.183C229.22 201.172 229.203 201.155 229.192 201.133C229.181 201.112 229.176 201.088 229.179 201.064C229.223 200.384 229.38 199.177 229.915 198.906L229.984 198.881ZM229.437 200.806C229.965 200.347 230.619 199.655 230.575 199.309C230.575 199.271 230.575 199.215 230.468 199.164C230.406 199.119 230.333 199.092 230.256 199.085C230.18 199.078 230.103 199.093 230.034 199.127C229.745 199.284 229.525 199.906 229.437 200.806Z" fill="#407BFF"/>
	<path d="M229.921 200.579C230.144 200.462 230.387 200.391 230.638 200.369C230.888 200.348 231.141 200.376 231.38 200.454C231.462 200.506 231.526 200.582 231.561 200.673C231.596 200.764 231.601 200.863 231.575 200.957C231.562 201.045 231.529 201.129 231.477 201.203C231.426 201.276 231.358 201.336 231.279 201.378C230.651 201.724 229.317 201.208 229.261 201.19C229.241 201.181 229.224 201.167 229.209 201.151C229.195 201.135 229.185 201.116 229.179 201.095C229.175 201.075 229.176 201.053 229.183 201.034C229.189 201.014 229.201 200.996 229.217 200.982C229.426 200.808 229.665 200.672 229.921 200.579ZM231.091 201.208L231.16 201.177C231.209 201.148 231.252 201.109 231.284 201.063C231.317 201.016 231.339 200.963 231.349 200.907C231.349 200.756 231.317 200.699 231.267 200.674C230.965 200.479 230.04 200.73 229.544 201.051C230.035 201.246 230.57 201.301 231.091 201.208Z" fill="#407BFF"/>
	<path opacity="0.2" d="M221.971 191.397L227.99 190.699L228.248 197.07L222.198 197.095L221.971 191.397Z" fill="black"/>
	<path d="M192.43 184.227C192.43 184.227 208.065 169.686 218.216 169.466C225.625 169.308 230.921 193.812 230.921 193.812L222.116 193.982C222.116 193.982 220.569 185.315 214.814 182.925C206.499 195.403 172.605 220.064 175.819 193.328C180.851 191.435 192.43 184.227 192.43 184.227Z" fill="#263238"/>
	<path d="M230.889 195.026L220.537 196.02L220.569 192.246L231.518 190.944L230.889 195.026Z" fill="#263238"/>
	<path d="M171.901 194.252C171.901 194.252 165.178 181.12 164.354 159.969C164.165 154.988 168.65 150.289 173.788 150.025C178.103 149.799 182.669 149.742 186.367 149.755C190.065 149.767 192.895 152.22 193.317 155.78C194.247 163.629 194.411 175.548 199.222 189.743L171.901 194.252Z" fill="#C7C7C7"/>
	<path opacity="0.2" d="M167.505 160.076C171.209 155.893 172.486 157.227 173.04 157.73C178.172 162.378 170.637 176.85 169.128 178.982C168.067 173.577 167.436 168.096 167.241 162.591C167.202 161.744 167.291 160.896 167.505 160.076Z" fill="black"/>
	<path d="M178.794 137.453C178.379 141.308 177.36 147.226 174.738 149.975C176.801 151.918 180.159 153.83 184.933 154.629C187.398 153.61 187.725 151.34 186.53 149.761C182.316 149.025 182.367 147.83 183.958 145.145L178.794 137.453Z" fill="#FFC3BD"/>
	<path opacity="0.2" d="M180.901 140.591L183.958 145.138C183.553 145.764 183.237 146.444 183.021 147.157C181.524 146.528 179.876 144.239 180.203 142.553C180.317 141.863 180.554 141.199 180.901 140.591Z" fill="black"/>
	<path d="M189.839 130.346C192.31 132.968 197.505 132.981 195.273 129.874C193.04 126.767 187.914 128.302 189.839 130.346Z" fill="#263238"/>
	<path d="M179.82 130.063C178.442 135.094 177.386 137.912 178.952 141.384C179.427 142.516 180.205 143.495 181.201 144.215C182.196 144.934 183.37 145.366 184.594 145.463C185.818 145.56 187.046 145.318 188.141 144.764C189.237 144.209 190.16 143.364 190.807 142.321C193.323 138.346 195.172 130.83 191.141 127.012C190.305 126.159 189.258 125.544 188.106 125.23C186.955 124.916 185.74 124.914 184.587 125.224C183.435 125.535 182.385 126.147 181.547 126.997C180.71 127.847 180.113 128.906 179.82 130.063Z" fill="#FFC3BD"/>
	<path d="M178.694 134.729C179.323 134.616 182.43 133.673 183.945 132.214C185.65 130.572 185.662 128.981 185.203 128.258C184.744 127.534 181.147 126.144 179.467 126.465C176.813 126.975 177.467 131.673 177.505 132.943C177.525 133.32 177.646 133.685 177.855 133.999C178.064 134.313 178.354 134.565 178.694 134.729Z" fill="#FFC3BD"/>
	<path opacity="0.7" d="M178.694 134.729C179.323 134.616 182.43 133.673 183.945 132.214C185.65 130.572 185.662 128.981 185.203 128.258C184.744 127.534 181.147 126.144 179.467 126.465C176.813 126.975 177.467 131.673 177.505 132.943C177.525 133.32 177.646 133.685 177.855 133.999C178.064 134.313 178.354 134.565 178.694 134.729Z" fill="#263238"/>
	<path d="M176.058 135.075C176.548 136.156 177.426 137.014 178.518 137.478C179.964 138.063 180.788 136.849 180.474 135.371C180.191 134.069 179.096 132.188 177.606 132.226C176.115 132.264 175.467 133.742 176.058 135.075Z" fill="#FFC3BD"/>
	<path d="M180.788 127.968C187.203 129.339 191.763 132.949 194.795 130.78C196.939 129.245 195.53 126.446 193.071 124.421C190.971 122.691 188.04 122.157 187.159 120.742C187.057 121.212 187.096 121.703 187.273 122.151C187.45 122.599 187.756 122.984 188.153 123.258C188.153 123.258 182.36 122.364 180.757 120.855C180.373 121.754 181.857 123.49 181.857 123.49C181.857 123.49 180.222 125.044 175.568 123.289C175.845 124.792 177.14 127.188 180.788 127.968Z" fill="#263238"/>
	<path d="M193.53 131.289H193.279V130.962C193.833 131.031 194.394 130.916 194.877 130.636C195.36 130.355 195.737 129.924 195.952 129.409C196.193 128.719 196.21 127.972 196.003 127.272C195.795 126.572 195.372 125.955 194.795 125.509C194.239 125.077 193.633 124.713 192.99 124.427C191.499 123.679 189.807 122.83 188.99 120.358L189.298 120.257C190.071 122.597 191.631 123.402 193.141 124.132C193.813 124.431 194.446 124.812 195.027 125.264C195.663 125.75 196.127 126.426 196.353 127.194C196.579 127.961 196.555 128.781 196.285 129.534C196.064 130.076 195.681 130.536 195.187 130.85C194.694 131.165 194.115 131.318 193.53 131.289Z" fill="#263238"/>
	<path d="M187.09 134.949C186.952 135.346 187.052 135.755 187.304 135.855C187.556 135.956 187.876 135.717 188.015 135.321C188.153 134.924 188.052 134.516 187.801 134.415C187.549 134.314 187.222 134.541 187.09 134.949Z" fill="#263238"/>
	<path d="M191.832 136.383C191.7 136.78 191.795 137.182 192.052 137.283C192.31 137.383 192.625 137.151 192.757 136.748C192.889 136.346 192.801 135.949 192.543 135.843C192.285 135.736 191.971 135.981 191.832 136.383Z" fill="#263238"/>
	<path d="M190.09 135.899C190.139 137.308 190.376 138.704 190.795 140.05C189.876 140.428 188.801 139.66 188.801 139.66L190.09 135.899Z" fill="#ED847E"/>
	<path d="M186.241 140.616C185.389 140.147 184.756 139.36 184.48 138.428C184.475 138.412 184.474 138.396 184.476 138.38C184.478 138.364 184.483 138.349 184.491 138.335C184.5 138.322 184.511 138.31 184.524 138.301C184.537 138.292 184.552 138.286 184.568 138.283C184.584 138.279 184.6 138.279 184.616 138.282C184.632 138.284 184.647 138.29 184.66 138.299C184.674 138.308 184.686 138.319 184.695 138.333C184.704 138.346 184.71 138.361 184.713 138.377C184.874 138.884 185.147 139.349 185.511 139.736C185.876 140.124 186.323 140.425 186.82 140.616C186.85 140.629 186.875 140.653 186.888 140.684C186.901 140.714 186.901 140.749 186.889 140.78C186.885 140.795 186.877 140.809 186.867 140.822C186.857 140.834 186.844 140.844 186.83 140.85C186.815 140.857 186.8 140.86 186.784 140.86C186.768 140.86 186.752 140.856 186.738 140.849C186.567 140.783 186.401 140.705 186.241 140.616Z" fill="#263238"/>
	<path d="M185.801 132.346C185.762 132.325 185.73 132.295 185.706 132.258C185.671 132.203 185.658 132.137 185.671 132.074C185.684 132.01 185.721 131.954 185.776 131.918C186.094 131.702 186.462 131.569 186.845 131.531C187.228 131.492 187.615 131.55 187.971 131.698C188.001 131.712 188.028 131.731 188.051 131.755C188.073 131.779 188.091 131.808 188.103 131.838C188.114 131.869 188.12 131.902 188.119 131.936C188.118 131.969 188.11 132.001 188.096 132.031C188.084 132.06 188.066 132.086 188.043 132.108C188.021 132.13 187.994 132.147 187.965 132.158C187.935 132.169 187.904 132.174 187.873 132.173C187.841 132.172 187.81 132.164 187.782 132.151C187.498 132.041 187.192 132.001 186.89 132.035C186.588 132.069 186.298 132.176 186.046 132.346C186.009 132.367 185.966 132.379 185.923 132.379C185.88 132.379 185.838 132.367 185.801 132.346Z" fill="#263238"/>
	<path d="M193.449 135.207C193.41 135.194 193.375 135.172 193.346 135.142C193.318 135.113 193.297 135.077 193.285 135.038C193.204 134.731 193.055 134.447 192.848 134.208C192.641 133.968 192.382 133.778 192.09 133.654C192.028 133.632 191.976 133.588 191.946 133.529C191.915 133.471 191.909 133.403 191.927 133.339C191.934 133.309 191.949 133.28 191.968 133.255C191.987 133.231 192.012 133.21 192.04 133.195C192.068 133.181 192.098 133.172 192.13 133.17C192.161 133.167 192.193 133.172 192.222 133.182C192.593 133.331 192.923 133.565 193.187 133.864C193.451 134.163 193.642 134.52 193.744 134.905C193.755 134.936 193.759 134.968 193.757 135.001C193.755 135.033 193.746 135.064 193.732 135.093C193.717 135.122 193.697 135.148 193.672 135.168C193.647 135.189 193.618 135.204 193.587 135.214C193.541 135.224 193.493 135.222 193.449 135.207Z" fill="#263238"/>
	<path d="M243.368 206.686L246.953 201.473L237.298 193.064L233.713 198.278L243.368 206.686Z" fill="#FFC3BD"/>
	<path d="M244.475 199.007L240.267 204.246C240.193 204.334 240.153 204.446 240.153 204.561C240.153 204.676 240.193 204.787 240.267 204.875L243.544 208.951C243.622 209.048 243.72 209.126 243.832 209.18C243.944 209.234 244.067 209.262 244.192 209.262C244.316 209.262 244.439 209.234 244.551 209.18C244.663 209.126 244.762 209.048 244.839 208.951C246.166 207.24 247.053 205.925 248.758 203.8C249.808 202.491 253.11 198.667 254.563 196.881C256.016 195.095 254.355 193.334 253.594 193.938C250.179 196.636 247.141 198.29 245.305 198.542C244.98 198.588 244.684 198.754 244.475 199.007Z" fill="#263238"/>
	<path d="M244.198 196.856C244.228 196.759 244.28 196.67 244.35 196.596C244.42 196.522 244.505 196.465 244.6 196.428C244.667 196.394 244.74 196.376 244.814 196.376C244.889 196.376 244.962 196.394 245.028 196.428C245.6 196.762 245.657 198.51 245.657 198.711C245.656 198.735 245.649 198.757 245.635 198.776C245.622 198.795 245.603 198.81 245.582 198.818C245.562 198.831 245.539 198.837 245.516 198.837C245.492 198.837 245.469 198.831 245.449 198.818C244.934 198.378 244.078 197.561 244.192 196.932C244.19 196.906 244.192 196.881 244.198 196.856ZM245.412 198.447C245.361 197.743 245.204 196.812 244.902 196.636C244.873 196.622 244.841 196.614 244.808 196.614C244.775 196.614 244.743 196.622 244.714 196.636C244.641 196.661 244.577 196.704 244.526 196.762C244.476 196.819 244.44 196.888 244.424 196.963C244.38 197.29 244.732 197.837 245.412 198.447Z" fill="#407BFF"/>
	<path d="M245.531 197.925C245.676 197.391 245.953 196.812 246.299 196.667C246.39 196.632 246.489 196.627 246.584 196.653C246.678 196.679 246.761 196.735 246.821 196.812C246.883 196.876 246.93 196.954 246.959 197.039C246.987 197.124 246.996 197.214 246.984 197.303C246.896 197.995 245.676 198.774 245.619 198.806C245.601 198.817 245.581 198.823 245.56 198.823C245.538 198.823 245.518 198.817 245.5 198.806C245.48 198.799 245.462 198.787 245.45 198.77C245.438 198.753 245.431 198.732 245.431 198.711C245.42 198.446 245.454 198.18 245.531 197.925ZM246.726 197.353C246.726 197.353 246.726 197.309 246.726 197.284C246.734 197.228 246.728 197.17 246.71 197.117C246.691 197.063 246.66 197.015 246.619 196.976C246.519 196.862 246.443 196.869 246.387 196.894C246.053 197.02 245.701 197.913 245.657 198.498C246.111 198.221 246.481 197.825 246.726 197.353Z" fill="#407BFF"/>
	<path opacity="0.2" d="M233.713 198.278L237.298 193.064L242.28 197.397L238.166 202.158L233.713 198.278Z" fill="black"/>
	<path d="M181.719 192.334C181.719 192.334 209.204 164.409 221.575 176.359C229.279 183.806 240.6 194.064 240.6 194.064L234.04 200.447C234.04 200.447 217.424 191.611 213.097 186.73C190.392 212.114 170.102 213.85 171.926 194.278C175.145 193.418 178.416 192.769 181.719 192.334Z" fill="#263238"/>
	<path d="M242.556 194.12L235.349 203.177L232.292 201.127L239.657 191.51L242.556 194.12Z" fill="#263238"/>
	<path d="M171.996 158.195L172.536 169.642C172.637 171.529 172.757 173.416 172.901 175.302C172.977 176.227 173.077 177.139 173.178 178.013C173.235 178.453 173.291 178.881 173.36 179.271C173.429 179.661 173.505 180.026 173.555 180.246C173.558 180.279 173.558 180.313 173.555 180.346C173.452 180.16 173.305 180 173.128 179.881C173.025 179.807 172.91 179.751 172.788 179.717C172.719 179.717 172.681 179.717 172.712 179.717C173.227 179.797 173.753 179.763 174.253 179.617C175.917 179.202 177.537 178.627 179.09 177.9C180.769 177.164 182.442 176.315 184.121 175.434C185.801 174.554 187.48 173.617 189.109 172.705L191.461 175.849C188.512 178.594 185.309 181.052 181.895 183.189C181.021 183.724 180.115 184.24 179.159 184.724C178.161 185.239 177.124 185.676 176.058 186.032C175.452 186.232 174.832 186.388 174.203 186.497C173.43 186.642 172.641 186.68 171.857 186.611C171.351 186.563 170.852 186.453 170.373 186.284C169.795 186.08 169.252 185.79 168.763 185.422C168.253 185.026 167.813 184.548 167.461 184.007C167.3 183.759 167.157 183.501 167.033 183.233L166.794 182.655C166.573 182.056 166.386 181.445 166.234 180.824C166.096 180.265 165.983 179.743 165.882 179.221C165.675 178.183 165.517 177.17 165.379 176.17C165.09 174.17 164.882 172.195 164.706 170.227C164.354 166.29 164.146 162.396 164.077 158.44L171.996 158.195Z" fill="#FFC3BD"/>
	<path d="M170.065 150.818C167.102 151.151 162.668 153.962 162.517 167.032L175.222 166.032C175.222 166.032 181.209 149.541 170.065 150.818Z" fill="#C7C7C7"/>
	<path d="M199.795 166.082L195.078 166.39C194.799 166.429 194.539 166.55 194.33 166.739C194.122 166.927 193.974 167.174 193.908 167.447L191.7 177.812C191.663 177.925 191.654 178.045 191.675 178.162C191.696 178.279 191.746 178.389 191.821 178.481C191.895 178.574 191.992 178.646 192.101 178.692C192.211 178.738 192.33 178.755 192.449 178.743L197.166 178.434C197.445 178.397 197.706 178.277 197.915 178.088C198.124 177.899 198.27 177.652 198.335 177.378L200.543 167.013C200.581 166.9 200.589 166.78 200.568 166.663C200.547 166.546 200.497 166.436 200.422 166.344C200.348 166.251 200.252 166.179 200.142 166.133C200.032 166.087 199.913 166.07 199.795 166.082Z" fill="#407BFF"/>
	<path d="M189.493 172.46L193.398 171.101L192.436 177.221C192.436 177.221 188.084 178.177 187.725 175.837L188.354 173.755C188.434 173.467 188.577 173.201 188.775 172.976C188.972 172.752 189.217 172.575 189.493 172.46Z" fill="#FFC3BD"/>
	<path d="M197.864 171.617L196.172 177.063L192.436 177.221L193.398 171.101L197.864 171.617Z" fill="#FFC3BD"/>
	<path d="M62.5786 43.3443C59.5094 36.2184 76.2455 28.7592 80.9752 39.8537C89.0067 43.3443 78.7424 58.1873 81.0632 60.7031C83.384 63.2188 85.1325 60.1685 85.1325 60.1685C85.1325 60.1685 87.4784 66.4201 81.4972 71.4265C76.1386 75.9234 60.0189 77.1436 59.9811 68.2818C59.9308 56.7596 66.6039 52.6841 62.5786 43.3443Z" fill="#263238"/>
	<path d="M77.9689 192.944L73.4657 195.567L62.6542 183.208L68.2643 178.145L77.9689 192.944Z" fill="#FF8B7B"/>
	<path d="M72.95 194.435L77.5978 190.869C77.6705 190.804 77.7645 190.768 77.862 190.768C77.9595 190.768 78.0535 190.804 78.1262 190.869L81.208 193.913C81.2833 193.998 81.3397 194.098 81.3735 194.207C81.4073 194.315 81.4177 194.43 81.4041 194.543C81.3904 194.656 81.3529 194.764 81.2942 194.862C81.2355 194.959 81.1568 195.043 81.0633 195.108C79.4281 196.322 78.579 196.831 76.5349 198.403C75.2771 199.366 72.7613 201.479 71.038 202.806C69.3147 204.133 68.0065 202.605 68.6166 201.907C71.3713 198.762 71.9688 196.875 72.3902 195.196C72.4855 194.886 72.6828 194.618 72.95 194.435Z" fill="#263238"/>
	<path d="M71.9059 196.296C71.5825 196.598 71.1696 196.786 70.7298 196.831C70.625 196.827 70.5228 196.796 70.4328 196.742C70.3427 196.689 70.2675 196.613 70.2141 196.523C70.1833 196.466 70.1671 196.402 70.1671 196.337C70.1671 196.272 70.1833 196.209 70.2141 196.152C70.5286 195.523 72.7676 195.026 73.0192 194.969C73.0434 194.965 73.0681 194.969 73.0905 194.979C73.1128 194.989 73.1318 195.005 73.1449 195.026C73.1571 195.047 73.1635 195.071 73.1635 195.095C73.1635 195.119 73.1571 195.143 73.1449 195.164C72.7673 195.579 72.3526 195.958 71.9059 196.296ZM70.5726 196.064C70.5068 196.109 70.4528 196.169 70.4153 196.24C70.4013 196.261 70.3938 196.286 70.3938 196.312C70.3938 196.338 70.4013 196.363 70.4153 196.384C70.4481 196.445 70.496 196.496 70.5545 196.532C70.6129 196.569 70.6799 196.589 70.7487 196.592C71.1575 196.592 71.8682 196.127 72.6732 195.284C71.935 195.427 71.2253 195.69 70.5726 196.064Z" fill="#407BFF"/>
	<path d="M73.0883 195.177H73.0379C72.409 195.347 70.7926 195.259 70.5222 194.762C70.4656 194.649 70.4467 194.454 70.6983 194.221C70.8776 194.054 71.1137 193.962 71.3587 193.963C72.1826 193.963 73.0631 194.938 73.0946 194.982C73.1051 194.999 73.1108 195.018 73.1108 195.039C73.1108 195.059 73.1051 195.078 73.0946 195.095C73.1008 195.122 73.0986 195.151 73.0883 195.177ZM70.9247 194.366L70.8681 194.416C70.7046 194.567 70.7423 194.642 70.7549 194.667C70.9058 194.969 72.0568 195.114 72.7738 195.013C72.3985 194.603 71.8993 194.327 71.3524 194.227C71.1983 194.224 71.0477 194.273 70.9247 194.366Z" fill="#407BFF"/>
	<path d="M61.5976 69.1812C61.302 70.5334 60.9687 71.7536 60.5913 73.0177C60.214 74.2819 59.824 75.5335 59.3712 76.7411C58.501 79.2224 57.4802 81.6483 56.3145 84.0053L55.39 85.7664C55.0566 86.345 54.761 86.9236 54.3837 87.4959L53.8428 88.345C53.6541 88.6343 53.5094 88.8922 53.2516 89.2318C53.1258 89.3953 53 89.5589 52.8302 89.7538C52.6166 90.0056 52.3761 90.2334 52.1132 90.4331C51.7952 90.6765 51.4283 90.8481 51.0377 90.9362C50.856 90.9771 50.6705 90.9982 50.4842 90.9991C50.2565 91.0015 50.0296 90.9697 49.8113 90.9048C49.4032 90.7945 49.032 90.5774 48.7358 90.2759C48.4389 89.9785 48.2225 89.6106 48.1068 89.2067C48.0485 89.0202 48.0085 88.8285 47.9873 88.6343C47.9381 88.1807 47.9381 87.7231 47.9873 87.2695C48.0314 86.8922 48.0943 86.54 48.1572 86.2003C48.2829 85.5148 48.4465 84.8733 48.6163 84.2317C48.9694 82.9692 49.3893 81.7264 49.8742 80.5084L52.3899 81.0619L52.2201 84.8355C52.2201 85.4645 52.1824 86.0557 52.1761 86.6343C52.1761 86.9236 52.1761 87.2066 52.1761 87.4582C52.1749 87.6391 52.2003 87.8193 52.2516 87.9928C52.2516 87.9928 52.2516 87.9928 52.2516 87.8796C52.1739 87.6417 52.0402 87.426 51.8616 87.2507C51.6178 87.0025 51.3148 86.8207 50.9811 86.7223C50.8004 86.6736 50.6147 86.6462 50.4276 86.6406C50.2796 86.6431 50.1322 86.66 49.9874 86.6909C49.7621 86.7458 49.5489 86.8417 49.3584 86.9739C49.2264 87.0683 49.2767 87.0179 49.3018 86.9739L49.4465 86.7286L50.2893 85.2192C50.5723 84.6909 50.8302 84.15 51.1069 83.6154L51.8805 81.9801C52.8616 79.76 53.7673 77.4769 54.522 75.1498C54.912 73.9863 55.2705 72.8102 55.629 71.6341C55.9875 70.4579 56.3082 69.2441 56.5913 68.1309L61.5976 69.1812Z" fill="#FF8B7B"/>
	<path d="M59.4465 62.6339C57.6226 62.9295 54.7295 74.5209 54.7295 74.5209L58.9371 77.7599C58.9371 77.7599 63.1573 69.3825 63.3397 65.6151C63.4655 62.8855 60.8239 62.4138 59.4465 62.6339Z" fill="#FF8B7B"/>
	<path d="M52.8491 81.6216L52.1384 75.8605L48.8364 80.7034C48.977 81.2871 49.2843 81.8173 49.721 82.2294C50.1576 82.6415 50.7047 82.9176 51.2956 83.0242L52.8491 81.6216Z" fill="#FF8B7B"/>
	<path d="M75.9248 202.724L70.8933 202.894L69.931 185.334L76.9123 185.435L75.9248 202.724Z" fill="#FF8B7B"/>
	<path d="M70.5537 201.29L76.2142 201.252C76.3088 201.249 76.4012 201.282 76.4716 201.346C76.542 201.409 76.585 201.498 76.5915 201.592L76.9311 206.051C76.9345 206.285 76.8452 206.511 76.6826 206.68C76.52 206.848 76.2973 206.946 76.0632 206.951C74.1009 206.951 73.1575 206.819 70.6795 206.837C69.1511 206.837 66.9058 207.02 64.8052 207.039C62.7045 207.058 62.7234 204.969 63.6165 204.775C67.6102 203.9 68.3084 202.73 69.7109 201.63C69.9476 201.428 70.2434 201.309 70.5537 201.29Z" fill="#263238"/>
	<path d="M59.1384 62.5962C59.1384 62.5962 56.6227 63.2251 56.6227 92.9929L76.8054 94.7791C77.818 86.4833 78.6356 81.3826 85.3212 64.766C82.5783 63.9262 79.7757 63.2955 76.9375 62.8792C73.9088 62.3867 70.8482 62.1155 67.7801 62.0679C63.7549 62.0742 59.1384 62.5962 59.1384 62.5962Z" fill="#455A64"/>
	<path opacity="0.2" d="M81.3148 68.5648L82.3903 72.2315C81.5475 74.502 80.8494 76.5083 80.2645 78.3134C79.8187 75.0268 80.1792 71.6811 81.3148 68.5648Z" fill="black"/>
	<path d="M52.1384 75.8605L48.8364 80.7034L52.8491 80.4707L54.9875 76.0429L52.1384 75.8605Z" fill="#FF8B7B"/>
	<path d="M54.2327 86.9991L58.0063 86.9425C58.1306 86.9401 58.253 86.9114 58.3654 86.8583C58.4778 86.8052 58.5777 86.7289 58.6585 86.6345C58.7393 86.54 58.7991 86.4295 58.8342 86.3102C58.8692 86.191 58.8786 86.0656 58.8617 85.9425L57.6856 77.4832C57.6577 77.271 57.5524 77.0765 57.3899 76.9372C57.2273 76.7979 57.019 76.7236 56.805 76.7285L53.0314 76.7851C52.9071 76.7856 52.7843 76.8128 52.6714 76.8648C52.5585 76.9169 52.4581 76.9926 52.377 77.0868C52.2959 77.181 52.236 77.2916 52.2013 77.411C52.1666 77.5304 52.158 77.6558 52.176 77.7788L53.3522 86.2381C53.3799 86.4509 53.485 86.6461 53.6474 86.7864C53.8098 86.9267 54.0181 87.0025 54.2327 86.9991Z" fill="#263238"/>
	<path d="M77.6922 52.4073C76.6293 55.3256 75.1764 60.7094 76.906 62.8729C73.8974 65.3882 70.5259 67.4344 66.9058 68.9422C64.7989 64.0239 67.7486 62.0616 67.7486 62.0616C71.1638 61.5647 71.4782 59.0993 71.277 56.7407L77.6922 52.4073Z" fill="#FF8B7B"/>
	<path d="M63.8681 49.0614C63.3398 57.7974 58.0881 60.3006 59.3208 64.7849C61.063 71.0743 68.17 66.1497 68.17 66.1497C68.17 66.1497 64.3021 67.4076 64.0568 64.3509C63.8555 61.8352 72.7865 62.2251 70.3084 56.3068C68.7172 52.4954 63.8681 49.0614 63.8681 49.0614Z" fill="#263238"/>
	<path opacity="0.2" d="M75.862 54.6149L71.2833 56.7408C71.3336 57.2931 71.3336 57.8488 71.2833 58.4012C72.2393 58.4892 74.7173 57.7722 75.6545 56.225C75.9141 55.7305 75.9878 55.1592 75.862 54.6149Z" fill="black"/>
	<path d="M78.4846 44.1934C78.9437 49.1494 79.2456 51.2438 77.1512 54.1495C74.0065 58.5207 67.8114 58.0049 65.8806 53.2753C64.1384 49.0237 63.6793 41.6273 68.1888 38.9292C69.1795 38.3277 70.3077 37.9898 71.466 37.9475C72.6242 37.9052 73.774 38.16 74.806 38.6877C75.8379 39.2153 76.7177 39.9982 77.3616 40.9619C78.0055 41.9256 78.3921 43.0381 78.4846 44.1934Z" fill="#FF8B7B"/>
	<path d="M77.3903 39.2185C73.4783 36.5329 70.2267 41.6902 77.1702 46.7029C84.1137 51.7155 81.8369 42.2688 77.3903 39.2185Z" fill="#263238"/>
	<path d="M75.3084 37.7782C76.9248 39.231 67.302 44.5896 62.0692 42.8097C56.8365 41.0298 61.0378 37.036 62.9435 36.5203C61.3082 38.0989 64.1699 40.4952 65.5536 38.9983C66.9372 37.5014 72.0631 34.8662 75.3084 37.7782Z" fill="#263238"/>
	<path d="M56.5975 92.9929C56.5975 92.9929 45.9495 138.082 46.8867 149.466C47.9747 162.774 62.5284 184.227 62.5284 184.227L69.2141 178.158C69.2141 178.158 62.5787 160.585 57.6667 149.138C59.2391 137.692 73.1386 105.352 73.1386 94.4584L56.5975 92.9929Z" fill="#407BFF"/>
	<path opacity="0.6" d="M56.5975 92.9929C56.5975 92.9929 45.9495 138.082 46.8867 149.466C47.9747 162.774 62.5284 184.227 62.5284 184.227L69.2141 178.158C69.2141 178.158 62.5787 160.585 57.6667 149.138C59.2391 137.692 73.1386 105.352 73.1386 94.4584L56.5975 92.9929Z" fill="black"/>
	<path d="M70.4468 179.063L62.5473 184.95L60.5221 183.409L69.1889 176.573L70.4468 179.063Z" fill="#407BFF"/>
	<path opacity="0.2" d="M64.4781 112.823C58.61 120.949 58.327 135.893 58.6918 144.27C60.7044 136.56 64.9246 125.044 68.2894 114.666C68.2077 110.691 67.2202 109.018 64.4781 112.823Z" fill="black"/>
	<path d="M60.3837 93.0306C60.3837 93.0306 64.2831 131.968 65.585 145.113C67.1322 160.717 69.4027 185.743 69.4027 185.743L76.9122 185.428C76.9122 185.428 78.5601 164.214 77.3399 150.208C77.56 131.654 80.2959 106.427 76.7739 94.7539L60.3837 93.0306Z" fill="#407BFF"/>
	<path opacity="0.6" d="M60.3837 93.0306C60.3837 93.0306 64.2831 131.968 65.585 145.113C67.1322 160.717 69.4027 185.743 69.4027 185.743L76.9122 185.428C76.9122 185.428 78.5601 164.214 77.3399 150.208C77.56 131.654 80.2959 106.427 76.7739 94.7539L60.3837 93.0306Z" fill="black"/>
	<path d="M77.4846 186.806L68.8681 186.56L68.2643 183.85L78.0129 183.579L77.4846 186.806Z" fill="#407BFF"/>
	<path d="M70.7738 46.9293C70.8367 47.3255 70.6732 47.684 70.409 47.728C70.1449 47.7721 69.887 47.4765 69.8241 47.0991C69.7612 46.7217 69.9248 46.3444 70.1889 46.3003C70.4531 46.2563 70.7109 46.5268 70.7738 46.9293Z" fill="#263238"/>
	<path d="M66.2517 47.6274C66.3146 48.0299 66.1511 48.3884 65.8869 48.4261C65.6228 48.4639 65.3649 48.1746 65.302 47.7972C65.2391 47.4198 65.4027 47.0362 65.6668 46.9984C65.931 46.9607 66.1888 47.2312 66.2517 47.6274Z" fill="#263238"/>
	<path d="M65.78 46.9796L64.78 46.8538C64.78 46.8538 65.3901 47.5268 65.78 46.9796Z" fill="#263238"/>
	<path d="M67.7361 48.0236C67.5192 48.9906 67.1723 49.9236 66.7046 50.7973C66.931 50.9106 67.1794 50.9733 67.4324 50.9809C67.6855 50.9885 67.9372 50.9409 68.17 50.8413L67.7361 48.0236Z" fill="#FF5652"/>
	<path d="M70.7738 51.9419C70.5696 52.0143 70.359 52.067 70.1448 52.0992C70.114 52.1047 70.0822 52.0979 70.0564 52.0803C70.0305 52.0626 70.0126 52.0355 70.0065 52.0048C70.0038 51.9891 70.0043 51.973 70.0079 51.9575C70.0115 51.942 70.0182 51.9273 70.0276 51.9144C70.037 51.9015 70.0489 51.8906 70.0625 51.8824C70.0762 51.8742 70.0913 51.8687 70.1071 51.8665C70.607 51.8017 71.0844 51.6191 71.4999 51.3337C71.9154 51.0483 72.2572 50.6683 72.4971 50.2249C72.5118 50.1979 72.5359 50.1772 72.5649 50.1667C72.5939 50.1563 72.6257 50.1569 72.6543 50.1683C72.6688 50.1745 72.6819 50.1835 72.6929 50.1947C72.7039 50.206 72.7126 50.2193 72.7184 50.2339C72.7243 50.2485 72.7272 50.2641 72.7269 50.2798C72.7267 50.2956 72.7234 50.3111 72.7172 50.3256C72.3051 51.0973 71.6077 51.6774 70.7738 51.9419Z" fill="#263238"/>
	<path d="M79.862 47.5771C79.8282 48.0586 79.6997 48.5287 79.4839 48.9604C79.268 49.3921 78.969 49.777 78.6041 50.0929C77.6355 50.9231 76.6104 50.1935 76.428 48.9922C76.2582 47.9168 76.5663 46.1872 77.755 45.8475C78.0131 45.7683 78.2867 45.7541 78.5515 45.8063C78.8164 45.8585 79.0642 45.9755 79.2728 46.1468C79.4814 46.318 79.6444 46.5383 79.7472 46.7879C79.85 47.0375 79.8895 47.3086 79.862 47.5771Z" fill="#FF8B7B"/>
	<path d="M72.8305 44.4513C72.7991 44.4575 72.7668 44.4574 72.7354 44.4509C72.7041 44.4444 72.6744 44.4317 72.6481 44.4135C72.4078 44.235 72.1284 44.1163 71.8332 44.0671C71.5379 44.0178 71.2352 44.0396 70.9499 44.1305C70.9211 44.1427 70.8901 44.1489 70.8588 44.1488C70.8275 44.1488 70.7965 44.1424 70.7678 44.13C70.739 44.1177 70.713 44.0997 70.6913 44.0771C70.6697 44.0545 70.6528 44.0277 70.6418 43.9984C70.6189 43.94 70.62 43.875 70.6447 43.8173C70.6694 43.7596 70.7158 43.714 70.7738 43.6903C71.1317 43.5684 71.5137 43.5351 71.8872 43.5932C72.2607 43.6512 72.6146 43.7989 72.9185 44.0236C72.9695 44.0592 73.0046 44.1133 73.0163 44.1744C73.0281 44.2354 73.0155 44.2987 72.9814 44.3506C72.9442 44.4006 72.8909 44.4361 72.8305 44.4513Z" fill="#263238"/>
	<path d="M64.2894 45.8915C64.2617 45.904 64.2317 45.9105 64.2013 45.9105C64.1709 45.9105 64.1409 45.904 64.1133 45.8915C64.0848 45.8787 64.0593 45.8603 64.0381 45.8374C64.017 45.8145 64.0006 45.7876 63.9901 45.7583C63.9795 45.7289 63.975 45.6978 63.9767 45.6667C63.9784 45.6355 63.9863 45.6051 64 45.5771C64.149 45.2303 64.3795 44.9246 64.6718 44.6859C64.9642 44.4472 65.3098 44.2826 65.6793 44.206C65.7396 44.2015 65.7992 44.2201 65.8464 44.2579C65.8935 44.2956 65.9246 44.3499 65.9333 44.4096C65.9421 44.4694 65.9279 44.5303 65.8936 44.58C65.8593 44.6297 65.8075 44.6646 65.7485 44.6777C65.4569 44.7434 65.1851 44.8775 64.9555 45.0688C64.7258 45.2602 64.545 45.5034 64.4277 45.7783C64.4136 45.8056 64.394 45.8297 64.3702 45.8492C64.3464 45.8686 64.3189 45.883 64.2894 45.8915Z" fill="#263238"/>
	<path d="M86.6483 70.8039C86.7426 71.7159 86.7929 72.5146 86.8181 73.3637C86.8433 74.2127 86.8621 75.0304 86.8558 75.8794C86.8307 77.5566 86.7238 79.2338 86.5351 80.911C86.3423 82.6087 86.027 84.2902 85.5917 85.9425C85.3671 86.7959 85.0941 87.6359 84.774 88.4583C84.6168 88.8734 84.4407 89.2885 84.2583 89.7161C84.2583 89.7161 84.164 89.9174 84.1011 90.0306C84.0347 90.161 83.9568 90.2851 83.8684 90.4017C83.713 90.6315 83.5315 90.8426 83.3275 91.0306C82.9965 91.314 82.6257 91.5471 82.2268 91.7225C81.6571 91.9609 81.0552 92.1135 80.4406 92.1753C79.9499 92.2295 79.4562 92.2505 78.9626 92.2382C78.074 92.2142 77.1877 92.1365 76.3085 92.0055C74.661 91.7451 73.0295 91.3923 71.4216 90.9489C69.843 90.5149 68.2769 90.0369 66.7486 89.5275C65.2203 89.018 63.6982 88.452 62.1825 87.8167L62.9687 85.4016C64.497 85.7349 66.0505 86.0871 67.5977 86.3827C69.1449 86.6784 70.6858 87.0117 72.2204 87.2381C73.755 87.4645 75.2896 87.6972 76.7739 87.7916C77.4832 87.8476 78.1952 87.8602 78.906 87.8293C79.2097 87.8148 79.5122 87.7812 79.8117 87.7287C79.9929 87.7004 80.1688 87.6452 80.3337 87.5652C80.3337 87.5652 80.3337 87.5652 80.2394 87.6155C80.1815 87.66 80.1306 87.713 80.0884 87.7727L80.013 87.8859C80.013 87.8859 79.9564 88.0117 80.013 87.9299C80.1325 87.6029 80.252 87.301 80.3526 86.9362C80.5664 86.257 80.7425 85.5588 80.8998 84.8481C81.1942 83.394 81.4042 81.924 81.5287 80.4456C81.6671 78.9487 81.7111 77.4266 81.7111 75.9046C81.7111 75.1436 81.7111 74.3826 81.7111 73.6215C81.7111 72.8605 81.6419 72.0744 81.5979 71.3951L86.6483 70.8039Z" fill="#FF8B7B"/>
	<path d="M85.2709 64.7661C87.4407 66.1812 86.7048 78.5147 86.7048 78.5147L81.5978 79.5399C81.5978 79.5399 81.5538 73.2505 81.0066 69.1687C80.6356 66.395 83.7237 63.7535 85.2709 64.7661Z" fill="#FF8B7B"/>
	<path d="M67.7864 201.875C67.7251 201.794 67.6835 201.699 67.6649 201.598C67.6464 201.498 67.6514 201.395 67.6795 201.297C67.6912 201.224 67.7209 201.155 67.7659 201.097C67.811 201.039 67.8699 200.993 67.9373 200.963C68.5663 200.693 70.0003 201.668 70.1638 201.775C70.1823 201.788 70.1963 201.806 70.2042 201.827C70.212 201.849 70.2133 201.872 70.2078 201.894C70.2023 201.918 70.1906 201.939 70.1741 201.957C70.1575 201.975 70.1366 201.988 70.1135 201.995C69.4531 202.152 68.277 202.353 67.8367 201.925L67.7864 201.875ZM69.7864 201.825C69.1575 201.454 68.3399 201.032 68.0191 201.196C67.9898 201.21 67.9646 201.231 67.9459 201.257C67.9271 201.284 67.9155 201.315 67.9122 201.347C67.8891 201.419 67.8857 201.496 67.9023 201.57C67.9188 201.644 67.9548 201.713 68.0065 201.768C68.2455 201.982 68.8996 202.007 69.7864 201.837V201.825Z" fill="#407BFF"/>
	<path d="M69.4342 201.429C69.2562 201.25 69.1151 201.038 69.019 200.805C68.923 200.572 68.8738 200.322 68.8744 200.07C68.9019 199.977 68.958 199.894 69.0347 199.835C69.1114 199.775 69.2049 199.741 69.3021 199.737C69.3899 199.723 69.4798 199.729 69.5648 199.755C69.6498 199.782 69.7277 199.827 69.7927 199.888C70.3021 200.366 70.214 201.812 70.2077 201.875C70.2068 201.897 70.2006 201.918 70.1896 201.936C70.1787 201.955 70.1633 201.971 70.1449 201.982C70.1263 201.991 70.1059 201.996 70.0851 201.996C70.0643 201.996 70.0439 201.991 70.0254 201.982C69.8004 201.83 69.6009 201.643 69.4342 201.429ZM69.6732 200.12C69.658 200.102 69.6412 200.085 69.6228 200.07C69.5824 200.031 69.5337 200.002 69.4803 199.984C69.4269 199.967 69.3703 199.962 69.3147 199.969C69.1574 199.969 69.126 200.057 69.1071 200.114C69.0128 200.46 69.5285 201.271 69.9813 201.649C70.023 201.12 69.9163 200.591 69.6732 200.12Z" fill="#407BFF"/>
	<path d="M77.2707 93.6092L77.4908 95.4961C77.5412 95.6407 77.3525 95.7728 77.1198 95.7476L56.3647 93.9111C56.1823 93.9111 56.044 93.7916 56.0503 93.6784L56.1698 91.8419C56.1698 91.7161 56.3521 91.6218 56.5471 91.6407L76.9814 93.452C77.0391 93.4509 77.0961 93.4648 77.1468 93.4924C77.1975 93.52 77.2402 93.5602 77.2707 93.6092Z" fill="white"/>
	<path d="M74.1513 95.6722L74.6984 95.7162C74.8117 95.7162 74.8997 95.6785 74.906 95.6093L75.0318 93.2256C75.0318 93.1564 74.95 93.0872 74.8431 93.081L74.2896 93.0306C74.1827 93.0306 74.0884 93.0684 74.0821 93.1376L73.9563 95.5275C73.9563 95.5967 74.0443 95.6596 74.1513 95.6722Z" fill="#407BFF"/>
	<path opacity="0.6" d="M74.1513 95.6722L74.6984 95.7162C74.8117 95.7162 74.8997 95.6785 74.906 95.6093L75.0318 93.2256C75.0318 93.1564 74.95 93.0872 74.8431 93.081L74.2896 93.0306C74.1827 93.0306 74.0884 93.0684 74.0821 93.1376L73.9563 95.5275C73.9563 95.5967 74.0443 95.6596 74.1513 95.6722Z" fill="black"/>
	<path d="M57.8554 94.2256L58.4026 94.276C58.5158 94.276 58.6038 94.2382 58.6101 94.169L58.7359 91.7791C58.7359 91.7099 58.6541 91.647 58.5472 91.6344L58 91.5904C57.8868 91.5904 57.7988 91.6281 57.7925 91.6973L57.6667 94.081C57.6604 94.1502 57.7485 94.2194 57.8554 94.2256Z" fill="#407BFF"/>
	<path opacity="0.6" d="M57.8554 94.2256L58.4026 94.276C58.5158 94.276 58.6038 94.2382 58.6101 94.169L58.7359 91.7791C58.7359 91.7099 58.6541 91.647 58.5472 91.6344L58 91.5904C57.8868 91.5904 57.7988 91.6281 57.7925 91.6973L57.6667 94.081C57.6604 94.1502 57.7485 94.2194 57.8554 94.2256Z" fill="black"/>
	<path d="M66.0065 94.9489L66.5537 94.9992C66.6606 94.9992 66.7549 94.9552 66.7549 94.886L66.887 92.5023C66.887 92.4332 66.8052 92.3703 66.692 92.3577L66.1449 92.3074C66.0379 92.3074 65.9436 92.3514 65.9436 92.4206L65.8115 94.8043C65.8115 94.8735 65.8996 94.9175 66.0065 94.9489Z" fill="#407BFF"/>
	<path opacity="0.6" d="M66.0065 94.9489L66.5537 94.9992C66.6606 94.9992 66.7549 94.9552 66.7549 94.886L66.887 92.5023C66.887 92.4332 66.8052 92.3703 66.692 92.3577L66.1449 92.3074C66.0379 92.3074 65.9436 92.3514 65.9436 92.4206L65.8115 94.8043C65.8115 94.8735 65.8996 94.9175 66.0065 94.9489Z" fill="black"/>
	<path d="M63.7548 85.5525L60.6101 81.3575L59.3019 86.389C59.3019 86.389 61.6415 88.4331 63.629 87.6469L63.7548 85.5525Z" fill="#FF8B7B"/>
	<path d="M56.5849 80.4329L55.7107 84.6783L59.956 86.8481L60.629 81.3575L56.5849 80.4329Z" fill="#FF8B7B"/>
	<path d="M70.3084 46.2815L69.3021 46.1557C69.3021 46.1557 69.887 46.8287 70.3084 46.2815Z" fill="#263238"/>
	<path d="M186.994 248.967C186.994 248.865 187.03 248.763 187.05 248.661C187.025 248.788 186.999 248.911 186.984 249.038C186.989 249.018 186.989 248.992 186.994 248.967Z" fill="#FFC727"/>
	<path d="M187.05 248.666C187.025 248.793 186.999 248.916 186.984 249.043C186.984 249.043 186.984 248.997 186.984 248.972C186.984 248.946 187.03 248.763 187.05 248.666Z" fill="#FFC727"/>
	<path d="M187.05 248.666C187.025 248.793 186.999 248.916 186.984 249.043C186.984 249.043 186.984 248.997 186.984 248.972C186.984 248.946 187.03 248.763 187.05 248.666Z" fill="#FFC727"/>
	<path d="M187.05 248.666C187.025 248.793 186.999 248.916 186.984 249.043C186.984 249.043 186.984 248.997 186.984 248.972C186.984 248.946 187.03 248.763 187.05 248.666Z" fill="#DBDBDB"/>
</svg>
