<svg width="21" height="21" viewBox="0 0 21 21" fill="none" xmlns="http://www.w3.org/2000/svg">
<path d="M17.8017 20.0728H17.6727C2.76871 19.2154 0.652563 6.63529 0.356757 2.79599C0.332923 2.49748 0.368202 2.1972 0.460574 1.91235C0.552945 1.62751 0.700594 1.36369 0.89506 1.13603C1.08953 0.908362 1.32699 0.72132 1.59384 0.585618C1.86069 0.449916 2.15168 0.368222 2.45015 0.345216H6.62935C6.93316 0.344921 7.23006 0.435894 7.48159 0.60635C7.73312 0.776805 7.9277 1.01889 8.04011 1.30125L9.19299 4.13899C9.30399 4.41483 9.33154 4.71722 9.27221 5.00859C9.21288 5.29996 9.06928 5.56747 8.85926 5.7779L7.24371 7.40922C7.49607 8.84383 8.18284 10.1663 9.21111 11.1976C10.2394 12.229 11.5595 12.9195 12.9929 13.1757L14.6388 11.5444C14.8523 11.3366 15.1223 11.1963 15.415 11.141C15.7077 11.0857 16.0102 11.1178 16.2847 11.2333L19.1442 12.3791C19.4222 12.4951 19.6594 12.6912 19.8255 12.9426C19.9916 13.1939 20.0792 13.489 20.0771 13.7903V17.7966C20.0771 18.4003 19.8374 18.9792 19.4106 19.4061C18.9839 19.833 18.4052 20.0728 17.8017 20.0728ZM2.63218 1.86272C2.43102 1.86272 2.2381 1.94266 2.09586 2.08496C1.95362 2.22725 1.87371 2.42024 1.87371 2.62148V2.68218C2.22261 7.174 4.46011 17.7966 17.7562 18.5553C17.8558 18.5615 17.9557 18.5479 18.0501 18.5154C18.1445 18.4828 18.2315 18.432 18.3062 18.3657C18.3809 18.2994 18.4418 18.2191 18.4854 18.1292C18.5289 18.0394 18.5544 17.9418 18.5602 17.8421V13.7903L15.7007 12.6446L13.5239 14.8071L13.1598 14.7615C6.56108 13.9345 5.66608 7.33334 5.66608 7.26505L5.62057 6.90085L7.77464 4.72323L6.63693 1.86272H2.63218Z" fill="#080F18"/>
</svg>
