<svg width="21" height="21" viewBox="0 0 21 21" fill="none" xmlns="http://www.w3.org/2000/svg">
<path d="M10.9075 20.2258C5.33354 20.2258 0.814972 15.748 0.814972 10.2242C0.814972 4.70052 5.33354 0.222656 10.9075 0.222656C16.4814 0.222656 21 4.70052 21 10.2242C21 15.748 16.4814 20.2258 10.9075 20.2258Z" fill="white"/>
<path d="M10.9074 17.966C6.59269 17.966 3.09495 14.4998 3.09495 10.224C3.09495 5.94816 6.59269 2.48193 10.9074 2.48193C15.222 2.48193 18.7198 5.94816 18.7198 10.224C18.7198 14.4998 15.222 17.966 10.9074 17.966Z" fill="#000BFF"/>
<path d="M16.0269 10.2273C15.9139 11.6539 15.3246 12.8935 14.0691 13.8508C13.4978 14.2869 12.8584 14.5895 12.1921 14.7586C11.9161 14.8286 11.7261 15.079 11.7261 15.3613V17.1988C11.7261 17.5116 11.9623 17.7697 12.2679 17.8078C11.2812 17.9897 10.7561 18.0033 9.85718 17.9089C10.1614 17.8708 10.4397 17.5116 10.4397 17.1988V15.4287C10.4397 15.135 10.2292 14.882 9.93776 14.8273C9.31639 14.7103 8.70915 14.4802 8.14812 14.1369C6.6512 13.2202 5.93226 11.87 5.78847 10.2184C5.7307 9.55223 6.23909 8.97883 6.90026 8.92416V8.71056C6.90026 8.08249 7.40223 7.55231 8.03515 7.54723C8.3561 7.54341 8.64624 7.67182 8.8555 7.87906C9.06348 8.08376 9.19058 8.36728 9.19058 8.68132V8.92034H9.72464V7.69852C9.72464 7.07172 10.2253 6.54155 10.8583 6.53646C11.1792 6.53265 11.4693 6.66106 11.6799 6.8683C11.8866 7.07299 12.015 7.35652 12.015 7.67055V8.92034H12.6017V8.71056C12.6017 8.08249 13.1036 7.55231 13.7366 7.54723C14.0562 7.54341 14.3477 7.67182 14.5569 7.87906C14.7636 8.08376 14.892 8.36728 14.892 8.68132V8.92416C15.5634 8.96993 16.0808 9.55223 16.0269 10.2273Z" fill="white"/>
<path d="M8.4036 10.053C9.46017 10.053 12.644 10.053 13.6903 10.053C13.8829 10.053 14.0434 10.2055 14.0485 10.3963C14.0768 11.4922 13.6903 12.4292 12.6646 13.0929C11.7608 13.6777 10.6259 13.721 9.66815 13.2251C8.50887 12.625 8.03771 11.6371 8.0467 10.4039C8.0467 10.2119 8.20717 10.053 8.4036 10.053ZM12.6363 11.168H9.46146C9.36389 11.168 9.29456 11.2659 9.32922 11.3549C9.58342 12.0033 10.3113 12.4763 11.0688 12.4661C11.8147 12.4572 12.5336 11.9753 12.7673 11.3524C12.8032 11.2634 12.7326 11.168 12.6363 11.168Z" fill="#000BFF"/>
<path d="M8.04538 7.26357C8.45094 7.26357 8.77972 6.93797 8.77972 6.53632C8.77972 6.13468 8.45094 5.80908 8.04538 5.80908C7.63981 5.80908 7.31104 6.13468 7.31104 6.53632C7.31104 6.93797 7.63981 7.26357 8.04538 7.26357Z" fill="#D8B831"/>
<path d="M10.902 6.16103C11.3076 6.16103 11.6363 5.83543 11.6363 5.43379C11.6363 5.03214 11.3076 4.70654 10.902 4.70654C10.4964 4.70654 10.1677 5.03214 10.1677 5.43379C10.1677 5.83543 10.4964 6.16103 10.902 6.16103Z" fill="#D8B831"/>
<path d="M13.7841 7.26357C14.1897 7.26357 14.5184 6.93797 14.5184 6.53632C14.5184 6.13468 14.1897 5.80908 13.7841 5.80908C13.3785 5.80908 13.0497 6.13468 13.0497 6.53632C13.0497 6.93797 13.3785 7.26357 13.7841 7.26357Z" fill="#D8B831"/>
</svg>
