<svg width="20" height="22" viewBox="0 0 20 22" fill="none" xmlns="http://www.w3.org/2000/svg">
<path d="M7.80792 2.17012C7.96356 1.78544 8.23053 1.45601 8.57461 1.22405C8.91869 0.992087 9.3242 0.868164 9.73917 0.868164C10.1541 0.868164 10.5597 0.992087 10.9037 1.22405C11.2478 1.45601 11.5148 1.78544 11.6704 2.17012C13.2108 2.59375 14.5695 3.51132 15.5379 4.78193C16.5063 6.05253 17.0308 7.60589 17.0308 9.20345V14.0962L18.9392 16.9587C19.0438 17.1155 19.1039 17.2979 19.1131 17.4862C19.1222 17.6746 19.0801 17.8619 18.9911 18.0282C18.9022 18.1945 18.7697 18.3335 18.6079 18.4304C18.4461 18.5273 18.2611 18.5785 18.0725 18.5785H13.3485C13.2231 19.4463 12.7892 20.2398 12.1264 20.8138C11.4635 21.3878 10.616 21.7037 9.73917 21.7037C8.86234 21.7037 8.01486 21.3878 7.35198 20.8138C6.6891 20.2398 6.25521 19.4463 6.12979 18.5785H1.40584C1.21725 18.5785 1.03219 18.5273 0.87041 18.4304C0.708627 18.3335 0.576186 18.1945 0.487218 18.0282C0.398249 17.8619 0.356091 17.6746 0.365241 17.4862C0.37439 17.2979 0.434504 17.1155 0.53917 16.9587L2.4475 14.0962V9.20345C2.4475 5.84512 4.71834 3.01595 7.80792 2.17012ZM8.26625 18.5785C8.37383 18.8833 8.57332 19.1473 8.83721 19.334C9.10111 19.5207 9.41642 19.621 9.73969 19.621C10.063 19.621 10.3783 19.5207 10.6422 19.334C10.9061 19.1473 11.1055 18.8833 11.2131 18.5785H8.26521H8.26625ZM9.73917 3.99512C8.35783 3.99512 7.03307 4.54385 6.05632 5.52061C5.07957 6.49736 4.53084 7.82212 4.53084 9.20345V14.4118C4.53088 14.6175 4.46999 14.8187 4.35584 14.9899L3.35271 16.4951H16.1246L15.1215 14.9899C15.0077 14.8186 14.9471 14.6174 14.9475 14.4118V9.20345C14.9475 7.82212 14.3988 6.49736 13.422 5.52061C12.4453 4.54385 11.1205 3.99512 9.73917 3.99512Z" fill="#080F18"/>
</svg>
