<svg width="23" height="26" viewBox="0 0 23 26" fill="none" xmlns="http://www.w3.org/2000/svg">
<path d="M9.01574 2.19223C9.20251 1.73062 9.52287 1.3353 9.93577 1.05695C10.3487 0.778591 10.8353 0.629883 11.3332 0.629883C11.8312 0.629883 12.3178 0.778591 12.7307 1.05695C13.1436 1.3353 13.464 1.73062 13.6507 2.19223C15.4992 2.70058 17.1296 3.80168 18.2917 5.3264C19.4538 6.85112 20.0832 8.71516 20.0832 10.6322V16.5035L22.3732 19.9385C22.4988 20.1267 22.571 20.3455 22.582 20.5716C22.5929 20.7976 22.5423 21.0224 22.4356 21.2219C22.3288 21.4215 22.1699 21.5883 21.9757 21.7046C21.7816 21.8209 21.5595 21.8823 21.3332 21.8822H15.6645C15.514 22.9236 14.9933 23.8759 14.1979 24.5647C13.4024 25.2534 12.3854 25.6325 11.3332 25.6325C10.281 25.6325 9.26406 25.2534 8.46861 24.5647C7.67316 23.8759 7.15249 22.9236 7.00199 21.8822H1.33324C1.10694 21.8823 0.88487 21.8209 0.690729 21.7046C0.496589 21.5883 0.33766 21.4215 0.230898 21.2219C0.124136 21.0224 0.0735464 20.7976 0.0845259 20.5716C0.0955054 20.3455 0.167642 20.1267 0.293241 19.9385L2.58324 16.5035V10.6322C2.58324 6.60223 5.30824 3.20723 9.01574 2.19223ZM9.56574 21.8822C9.69484 22.248 9.93422 22.5648 10.2509 22.7889C10.5676 23.0129 10.9459 23.1332 11.3339 23.1332C11.7218 23.1332 12.1002 23.0129 12.4168 22.7889C12.7335 22.5648 12.9729 22.248 13.102 21.8822H9.56449H9.56574ZM11.3332 4.38223C9.67564 4.38223 8.08592 5.04071 6.91382 6.21281C5.74172 7.38491 5.08324 8.97463 5.08324 10.6322V16.8822C5.0833 17.1291 5.01022 17.3705 4.87324 17.576L3.66949 19.3822H18.9957L17.792 17.576C17.6554 17.3704 17.5828 17.129 17.5832 16.8822V10.6322C17.5832 8.97463 16.9248 7.38491 15.7527 6.21281C14.5806 5.04071 12.9908 4.38223 11.3332 4.38223Z" fill="#080F18"/>
</svg>
