<svg width="30" height="31" viewBox="0 0 30 31" fill="none"
	xmlns="http://www.w3.org/2000/svg">
	<path d="M10.7625 28.3281C10.1525 28.3245 9.56025 28.1227 9.07498 27.7531L6.48748 25.8281C5.89037 25.3626 5.49418 24.6861 5.38027 23.9375C5.26636 23.189 5.44338 22.4252 5.87498 21.8031C6.10334 21.4659 6.24847 21.0794 6.29845 20.6752C6.34843 20.271 6.30183 19.8608 6.16248 19.4781L6.08748 19.2781C5.99046 18.9318 5.81312 18.6132 5.56987 18.3482C5.32662 18.0832 5.02431 17.8793 4.68748 17.7531H4.48748C3.75732 17.5076 3.15349 16.9839 2.80712 16.2959C2.46074 15.6078 2.39979 14.8109 2.63748 14.0781L3.66248 10.8281C3.75684 10.4516 3.93055 10.0995 4.172 9.79557C4.41345 9.49161 4.71705 9.24274 5.06248 9.06563C5.38417 8.89988 5.73615 8.80112 6.09711 8.77534C6.45806 8.74956 6.8205 8.79728 7.16248 8.91562C7.53484 9.04094 7.93216 9.07342 8.31993 9.01025C8.70769 8.94707 9.07416 8.79015 9.38748 8.55312L9.54998 8.42812C9.8336 8.20182 10.0628 7.91475 10.2207 7.58808C10.3787 7.26141 10.4613 6.90347 10.4625 6.54063V6.24062C10.4591 5.47579 10.758 4.74059 11.2942 4.1951C11.8303 3.64962 12.5602 3.33801 13.325 3.32812H16.5125C16.8846 3.32913 17.2528 3.40363 17.596 3.54735C17.9393 3.69108 18.2507 3.90119 18.5125 4.16563C19.0629 4.72536 19.3686 5.48066 19.3625 6.26562V6.61563C19.3561 6.96031 19.4309 7.30167 19.5807 7.61216C19.7305 7.92266 19.9512 8.19359 20.225 8.40312L20.3625 8.50312C20.643 8.7135 20.9703 8.85293 21.3164 8.90952C21.6624 8.96611 22.017 8.93818 22.35 8.82812L22.775 8.69063C23.1351 8.57126 23.5155 8.52565 23.8936 8.55649C24.2717 8.58734 24.6397 8.69402 24.9757 8.87017C25.3116 9.04633 25.6087 9.28834 25.8491 9.58178C26.0895 9.87522 26.2684 10.2141 26.375 10.5781L27.3625 13.7281C27.591 14.4561 27.5285 15.2443 27.1882 15.9272C26.8479 16.6102 26.2563 17.1347 25.5375 17.3906L25.2875 17.4781C24.9198 17.5985 24.5873 17.8074 24.3192 18.0864C24.0511 18.3654 23.8556 18.7059 23.75 19.0781C23.6505 19.4241 23.6269 19.7876 23.6808 20.1435C23.7348 20.4995 23.865 20.8396 24.0625 21.1406L24.3875 21.6156C24.8185 22.2412 24.9939 23.0079 24.8776 23.7586C24.7614 24.5093 24.3624 25.1872 23.7625 25.6531L21.25 27.5906C20.9464 27.8228 20.5986 27.9903 20.2279 28.083C19.8571 28.1756 19.4714 28.1914 19.0943 28.1293C18.7172 28.0672 18.3569 27.9287 18.0354 27.7221C17.7139 27.5155 17.4381 27.2453 17.225 26.9281L17.075 26.7156C16.8703 26.408 16.5909 26.1572 16.263 25.9867C15.9352 25.8162 15.5694 25.7315 15.2 25.7406C14.8475 25.7498 14.502 25.8416 14.1915 26.0088C13.881 26.176 13.6142 26.4138 13.4125 26.7031L13.125 27.1156C12.9118 27.435 12.6354 27.7074 12.313 27.9159C11.9905 28.1245 11.6287 28.2647 11.25 28.3281C11.0879 28.344 10.9246 28.344 10.7625 28.3281ZM5.49998 15.3531C6.20585 15.6048 6.84276 16.0187 7.35948 16.5615C7.8762 17.1043 8.25828 17.7607 8.47498 18.4781V18.6281C8.7449 19.3739 8.83353 20.1732 8.73355 20.96C8.63357 21.7468 8.34785 22.4985 7.89998 23.1531C7.82093 23.2405 7.77715 23.3541 7.77715 23.4719C7.77715 23.5897 7.82093 23.7033 7.89998 23.7906L10.5875 25.8281C10.6225 25.8557 10.6631 25.8754 10.7064 25.886C10.7497 25.8965 10.7948 25.8977 10.8386 25.8894C10.8824 25.8811 10.9239 25.8636 10.9604 25.8379C10.9969 25.8122 11.0274 25.7791 11.05 25.7406L11.3375 25.3281C11.7711 24.7016 12.3502 24.1895 13.0251 23.8359C13.6999 23.4822 14.4505 23.2974 15.2125 23.2974C15.9744 23.2974 16.725 23.4822 17.3999 23.8359C18.0748 24.1895 18.6539 24.7016 19.0875 25.3281L19.2375 25.5531C19.2912 25.6294 19.3714 25.6828 19.4625 25.7031C19.5042 25.7093 19.5468 25.7069 19.5876 25.6962C19.6284 25.6854 19.6667 25.6665 19.7 25.6406L22.275 23.6906C22.3651 23.6191 22.4244 23.5157 22.4407 23.4018C22.457 23.2879 22.429 23.172 22.3625 23.0781L22.0375 22.6031C21.614 21.9856 21.3346 21.2809 21.22 20.541C21.1053 19.8011 21.1583 19.0448 21.375 18.3281C21.5947 17.5748 21.992 16.8853 22.5337 16.3176C23.0753 15.7498 23.7454 15.3205 24.4875 15.0656L24.7375 14.9781C24.8417 14.9364 24.9251 14.8551 24.9696 14.7521C25.0141 14.649 25.016 14.5326 24.975 14.4281L24 11.3156C23.9766 11.2612 23.9423 11.212 23.8994 11.1712C23.8564 11.1304 23.8056 11.0987 23.75 11.0781C23.7132 11.0595 23.6725 11.0497 23.6312 11.0497C23.59 11.0497 23.5493 11.0595 23.5125 11.0781L23.0875 11.2156C22.3685 11.4529 21.6027 11.512 20.8559 11.3879C20.1091 11.2638 19.4035 10.9602 18.8 10.5031L18.75 10.3906C18.1708 9.95203 17.7012 9.38514 17.3781 8.73448C17.0549 8.08383 16.887 7.36711 16.8875 6.64062V6.25313C16.8897 6.13264 16.8449 6.01604 16.7625 5.92812C16.6906 5.86313 16.5969 5.82745 16.5 5.82812H13.325C13.2741 5.8313 13.2243 5.84451 13.1785 5.86698C13.1326 5.88945 13.0917 5.92075 13.058 5.95908C13.0244 5.9974 12.9986 6.04201 12.9822 6.09032C12.9658 6.13864 12.9591 6.18971 12.9625 6.24062V6.55312C12.9626 7.29942 12.7913 8.03578 12.4619 8.70544C12.1325 9.3751 11.6537 9.96019 11.0625 10.4156L10.9 10.5406C10.2621 11.0263 9.51464 11.3475 8.72335 11.4761C7.93207 11.6048 7.12129 11.5368 6.36248 11.2781C6.30571 11.2591 6.24426 11.2591 6.18748 11.2781C6.11694 11.321 6.06381 11.3874 6.03748 11.4656L4.99998 14.7281C4.96382 14.8392 4.97229 14.9601 5.02361 15.065C5.07494 15.17 5.16508 15.2509 5.27498 15.2906L5.49998 15.3531Z" fill="#7F8C8D"/>
	<path d="M15 20.2031C14.1347 20.2031 13.2888 19.9465 12.5694 19.4658C11.8499 18.9851 11.2892 18.3018 10.958 17.5024C10.6269 16.7029 10.5403 15.8233 10.7091 14.9746C10.8779 14.1259 11.2946 13.3464 11.9064 12.7345C12.5183 12.1227 13.2978 11.706 14.1465 11.5372C14.9951 11.3684 15.8748 11.455 16.6742 11.7862C17.4737 12.1173 18.1569 12.678 18.6377 13.3975C19.1184 14.117 19.375 14.9628 19.375 15.8281C19.375 16.9884 18.9141 18.1012 18.0936 18.9217C17.2731 19.7422 16.1603 20.2031 15 20.2031ZM15 13.9531C14.6292 13.9531 14.2667 14.0631 13.9583 14.2691C13.65 14.4751 13.4096 14.768 13.2677 15.1106C13.1258 15.4532 13.0887 15.8302 13.161 16.1939C13.2334 16.5576 13.412 16.8917 13.6742 17.154C13.9364 17.4162 14.2705 17.5948 14.6342 17.6671C14.9979 17.7394 15.3749 17.7023 15.7175 17.5604C16.0601 17.4185 16.353 17.1782 16.559 16.8698C16.765 16.5615 16.875 16.199 16.875 15.8281C16.875 15.3308 16.6775 14.8539 16.3258 14.5023C15.9742 14.1507 15.4973 13.9531 15 13.9531Z" fill="#7F8C8D"/>
</svg>
