<svg width="222" height="224" viewBox="0 0 222 224" fill="none"
	xmlns="http://www.w3.org/2000/svg">
	<rect x="25.4716" y="68.9613" width="57.9857" height="57.9857" rx="15" fill="#0001F0"/>
	<rect x="119.182" y="116.223" width="78.217" height="78.217" rx="18" fill="#0001F0"/>
	<rect x="7.5089" y="180.589" width="35.9254" height="35.9254" rx="12" fill="#0001F0"/>
	<path d="M55.2882 193.432H43.8382V205.352H36.1982V164.852C42.5682 164.852 48.9282 164.792 55.2882 164.792C75.0782 164.792 75.1382 193.432 55.2882 193.432ZM43.8382 186.432H55.2982C65.0782 186.432 65.0182 172.082 55.2982 172.082H43.8382V186.432Z" fill="white" stroke="white" stroke-miterlimit="10"/>
	<path d="M81.7882 164.912V205.362H74.7882V164.912H81.7882Z" fill="white" stroke="white" stroke-miterlimit="10"/>
	<path d="M95.2082 176.832V191.762C95.2082 196.102 97.5782 199.402 102.098 199.402C106.438 199.402 109.388 195.752 109.388 191.422V176.832H116.388V205.412H110.078L109.618 201.532C106.668 204.422 103.948 205.812 99.9582 205.812C93.1282 205.812 88.1582 200.662 88.1582 191.812V176.832H95.2082Z" fill="white" stroke="white" stroke-miterlimit="10"/>
	<path d="M129.698 164.852V180.702C132.248 177.402 135.368 176.422 138.608 176.422C146.708 176.422 150.298 181.922 150.298 190.312V205.352H143.238V190.362C143.238 185.152 140.518 182.952 136.758 182.952C132.588 182.952 129.698 186.482 129.698 190.762V205.342H122.638V164.842H129.698V164.852Z" fill="white" stroke="white" stroke-miterlimit="10"/>
	<path d="M178.638 173.932L183.848 177.862L180.668 181.912C182.868 184.402 183.678 187.232 183.678 190.362C183.678 193.892 182.348 198.872 177.658 201.012C182.398 203.382 183.558 206.802 183.558 210.442C183.558 218.312 177.538 223.172 169.268 223.172C160.998 223.172 154.808 218.142 154.808 210.442H161.808C161.808 214.142 165.218 216.572 169.268 216.572C173.318 216.572 176.498 214.372 176.498 210.442C176.498 206.512 172.798 204.712 169.268 204.712C160.358 204.712 154.808 199.272 154.808 190.362C154.808 181.452 161.288 175.902 169.268 175.902C171.528 175.902 173.838 176.192 175.808 177.522L178.638 173.932ZM161.808 190.372C161.808 195.352 165.168 198.302 169.268 198.302C173.318 198.302 176.678 195.292 176.678 190.372C176.678 185.452 173.318 182.332 169.268 182.332C165.158 182.322 161.808 185.392 161.808 190.372Z" fill="white" stroke="white" stroke-miterlimit="10"/>
	<path d="M161.918 72.5821V121.082C161.918 136.572 149.358 149.122 133.868 149.122H120.828C118.158 149.122 115.998 146.962 115.998 144.292V138.572C115.998 136.352 117.478 134.372 119.628 133.822C124.828 132.492 129.808 130.112 134.248 126.692C144.028 119.152 148.618 109.412 149.498 98.1921C149.918 92.8721 145.888 88.3021 140.658 87.9421V86.0321C140.658 83.5721 139.658 81.3421 138.048 79.7221C136.418 78.0921 134.148 77.0921 131.658 77.1121C126.728 77.1621 122.818 81.3321 122.818 86.2621V87.9221H118.248V78.0921C118.248 75.6321 117.248 73.4021 115.638 71.7821C114.008 70.1521 111.738 69.1521 109.248 69.1721C104.318 69.2221 100.408 73.3921 100.408 78.3221V87.9321H96.2582V86.0321C96.2582 83.5721 95.2582 81.3421 93.6482 79.7221C92.0182 78.0921 89.7482 77.0921 87.2582 77.1121C82.3282 77.1621 78.4182 81.3321 78.4182 86.2621V87.9521C73.2682 88.3721 69.2982 92.8921 69.7482 98.1321C70.8682 111.122 76.4682 121.742 88.1382 128.952C92.5082 131.652 97.2382 133.462 102.078 134.382C104.348 134.812 105.988 136.802 105.988 139.122V144.312C105.988 146.982 103.828 149.142 101.158 149.142H85.3682C69.8782 149.142 57.3282 136.582 57.3282 121.102V72.6021C57.3182 57.0921 69.8782 44.5321 85.3682 44.5321H133.868C149.358 44.5321 161.918 57.0921 161.918 72.5821Z" fill="white"/>
	<path d="M87.3282 74.8821C90.4873 74.8821 93.0482 72.3212 93.0482 69.1621C93.0482 66.0031 90.4873 63.4421 87.3282 63.4421C84.1692 63.4421 81.6082 66.0031 81.6082 69.1621C81.6082 72.3212 84.1692 74.8821 87.3282 74.8821Z" fill="#D8B831"/>
	<path d="M109.578 66.2121C112.737 66.2121 115.298 63.6512 115.298 60.4921C115.298 57.3331 112.737 54.7721 109.578 54.7721C106.419 54.7721 103.858 57.3331 103.858 60.4921C103.858 63.6512 106.419 66.2121 109.578 66.2121Z" fill="#D8B831"/>
	<path d="M132.028 74.8821C135.187 74.8821 137.748 72.3212 137.748 69.1621C137.748 66.0031 135.187 63.4421 132.028 63.4421C128.869 63.4421 126.308 66.0031 126.308 69.1621C126.308 72.3212 128.869 74.8821 132.028 74.8821Z" fill="#D8B831"/>
	<path d="M86.5782 96.0021C95.7882 96.0021 123.548 96.0021 132.668 96.0021C134.348 96.0021 135.748 97.3421 135.788 99.0221C136.038 108.672 132.668 116.922 123.718 122.772C115.838 127.922 105.948 128.302 97.5982 123.942C87.4882 118.652 83.3882 109.962 83.4582 99.1021C83.4582 97.3921 84.8682 96.0021 86.5782 96.0021ZM123.478 105.812H95.7982C94.9482 105.812 94.3482 106.672 94.6482 107.462C96.8682 113.172 103.208 117.332 109.818 117.252C116.318 117.172 122.588 112.932 124.628 107.442C124.928 106.652 124.318 105.812 123.478 105.812Z" fill="white"/>
	<rect x="0.3144" y="0.748337" width="21.8221" height="21.8221" rx="6" fill="#0001F0"/>
	<rect x="173.74" y="11.6594" width="47.3176" height="47.3176" rx="13" fill="#0001F0"/>
</svg>
