<svg width="23" height="26" viewBox="0 0 23 26" fill="none"
	xmlns="http://www.w3.org/2000/svg">
	<path d="M7.66313 2.5249C6.17498 2.93503 4.69695 3.381 3.23032 3.8624C3.09639 3.90578 2.97735 3.98591 2.88674 4.09364C2.79613 4.20138 2.7376 4.3324 2.71782 4.47178C1.85219 10.9671 3.85219 15.7062 6.23813 18.828C7.24831 20.163 8.45283 21.3391 9.81157 22.3171C10.3522 22.6983 10.8303 22.9733 11.2069 23.1499C11.3944 23.239 11.5475 23.2983 11.6647 23.3343C11.7159 23.3523 11.7688 23.3653 11.8225 23.3733C11.8756 23.3647 11.9279 23.3516 11.9788 23.3343C12.0975 23.2983 12.2506 23.239 12.4381 23.1499C12.8131 22.9733 13.2928 22.6968 13.8334 22.3171C15.1922 21.3391 16.3967 20.163 17.4069 18.828C19.7928 15.7077 21.7928 10.9671 20.9272 4.47178C20.9076 4.33234 20.8491 4.20123 20.7585 4.09346C20.6679 3.9857 20.5487 3.90562 20.4147 3.8624C19.3975 3.52959 17.6803 2.9874 15.9819 2.52646C14.2475 2.05615 12.6522 1.70771 11.8225 1.70771C10.9944 1.70771 9.3975 2.05615 7.66313 2.52646V2.5249ZM7.2475 0.915527C8.94282 0.45459 10.7444 0.0405273 11.8225 0.0405273C12.9006 0.0405273 14.7022 0.45459 16.3975 0.915527C18.1319 1.38428 19.8803 1.93896 20.9084 2.2749C21.3383 2.41686 21.7194 2.67719 22.0079 3.026C22.2965 3.3748 22.4808 3.79793 22.5397 4.24678C23.4709 11.2421 21.31 16.4265 18.6881 19.8562C17.5763 21.3233 16.2506 22.6153 14.7553 23.689C14.2383 24.0605 13.6904 24.3872 13.1178 24.6655C12.6803 24.8718 12.21 25.0405 11.8225 25.0405C11.435 25.0405 10.9663 24.8718 10.5272 24.6655C9.95456 24.3872 9.40673 24.0605 8.88969 23.689C7.39442 22.6153 6.06872 21.3233 4.95688 19.8562C2.335 16.4265 0.174065 11.2421 1.10532 4.24678C1.1642 3.79793 1.34851 3.3748 1.63706 3.026C1.92561 2.67719 2.30671 2.41686 2.73657 2.2749C4.22905 1.78554 5.73314 1.33228 7.2475 0.915527Z" fill="#080F18"/>
</svg>
