<svg width="22" height="23" viewBox="0 0 22 23" fill="none" xmlns="http://www.w3.org/2000/svg">
<path d="M10.5771 0.0778809C9.42342 0.0778809 8.29561 0.42 7.33632 1.06097C6.37704 1.70195 5.62936 2.61299 5.18785 3.67889C4.74634 4.7448 4.63082 5.91769 4.8559 7.04924C5.08098 8.1808 5.63655 9.2202 6.45236 10.036C7.26817 10.8518 8.30757 11.4074 9.43912 11.6325C10.5707 11.8575 11.7436 11.742 12.8095 11.3005C13.8754 10.859 14.7864 10.1113 15.4274 9.15204C16.0684 8.19275 16.4105 7.06494 16.4105 5.91121C16.4105 4.36412 15.7959 2.88039 14.7019 1.78642C13.608 0.692462 12.1242 0.0778809 10.5771 0.0778809ZM10.5771 9.41121C9.88491 9.41121 9.20822 9.20594 8.63265 8.82136C8.05708 8.43677 7.60848 7.89015 7.34357 7.25061C7.07866 6.61106 7.00935 5.90733 7.1444 5.2284C7.27945 4.54946 7.61279 3.92582 8.10227 3.43634C8.59176 2.94686 9.2154 2.61351 9.89433 2.47847C10.5733 2.34342 11.277 2.41273 11.9165 2.67764C12.5561 2.94254 13.1027 3.39115 13.4873 3.96672C13.8719 4.54229 14.0771 5.21898 14.0771 5.91121C14.0771 6.83947 13.7084 7.72971 13.052 8.38609C12.3956 9.04247 11.5054 9.41121 10.5771 9.41121ZM21.0771 22.2445V21.0779C21.0771 18.9119 20.2167 16.8347 18.6852 15.3032C17.1536 13.7716 15.0764 12.9112 12.9105 12.9112H8.24381C6.07788 12.9112 4.00066 13.7716 2.46911 15.3032C0.937563 16.8347 0.0771484 18.9119 0.0771484 21.0779V22.2445H2.41048V21.0779C2.41048 19.5308 3.02506 18.0471 4.11903 16.9531C5.21299 15.8591 6.69672 15.2445 8.24381 15.2445H12.9105C14.4576 15.2445 15.9413 15.8591 17.0353 16.9531C18.1292 18.0471 18.7438 19.5308 18.7438 21.0779V22.2445H21.0771Z" fill="#080F18"/>
</svg>
