<svg width="362" height="319" viewBox="0 0 362 319" fill="none" xmlns="http://www.w3.org/2000/svg">
<mask id="mask0_22_1261" style="mask-type:alpha" maskUnits="userSpaceOnUse" x="0" y="-1" width="362" height="320">
<rect x="0.931152" y="-0.426575" width="360.878" height="318.828" fill="#C4C4C4"/>
</mask>
<g mask="url(#mask0_22_1261)">
<path d="M135.926 260.139C203.274 260.139 257.871 256.952 257.871 253.02C257.871 249.088 203.274 245.9 135.926 245.9C68.5772 245.9 13.9805 249.088 13.9805 253.02C13.9805 256.952 68.5772 260.139 135.926 260.139Z" fill="#263238"/>
<path d="M177.933 71.7843H177.279V75.9227H177.933V71.7843Z" fill="#407BFF"/>
<path d="M177.933 68.4195H177.304C177.3 66.0091 176.341 63.6984 174.636 61.9946C172.931 60.2908 170.62 59.3329 168.209 59.3313V58.7023C170.784 58.7106 173.252 59.7368 175.073 61.5572C176.895 63.3775 177.923 65.8443 177.933 68.4195Z" fill="#407BFF"/>
<path d="M168.184 60.9665H81.3777C77.2581 60.9665 73.9185 64.3061 73.9185 68.4257V245.473C73.9185 249.592 77.2581 252.932 81.3777 252.932H168.184C172.304 252.932 175.643 249.592 175.643 245.473V68.4257C175.643 64.3061 172.304 60.9665 168.184 60.9665Z" fill="#FFFFFE"/>
<path opacity="0.95" d="M172.26 245.473V68.4195C172.26 65.8872 170.207 63.8345 167.675 63.8345L80.8683 63.8345C78.3361 63.8345 76.2833 65.8872 76.2833 68.4195L76.2833 245.473C76.2833 248.005 78.3361 250.058 80.8683 250.058H167.675C170.207 250.058 172.26 248.005 172.26 245.473Z" fill="#EBEBEB"/>
<path d="M124.278 242.951C127.143 242.951 129.467 240.627 129.467 237.762C129.467 234.896 127.143 232.573 124.278 232.573C121.412 232.573 119.089 234.896 119.089 237.762C119.089 240.627 121.412 242.951 124.278 242.951Z" fill="#4A4FB5"/>
<path d="M120.309 63.3124C120.309 64.4484 120.76 65.5378 121.564 66.341C122.367 67.1443 123.456 67.5955 124.592 67.5955C125.728 67.5955 126.818 67.1443 127.621 66.341C128.424 65.5378 128.875 64.4484 128.875 63.3124H120.309Z" fill="#FFFFFE"/>
<path opacity="0.7" d="M152.599 81.8976H96.6232C94.34 81.9043 92.1522 82.8142 90.5378 84.4287C88.9233 86.0432 88.0134 88.2309 88.0067 90.5141V96.2626C88.0134 98.5458 88.9233 100.734 90.5378 102.348C92.1522 103.963 94.34 104.872 96.6232 104.879H152.599L161.215 109.986V90.489C161.201 88.2107 160.287 86.0303 158.674 84.4216C157.06 82.8129 154.877 81.9059 152.599 81.8976Z" fill="#050C9D"/>
<path d="M151.039 90.1305H98.1516V91.5645H151.039V90.1305Z" fill="white"/>
<path d="M151.039 95.2123H108.328V96.6463H151.039V95.2123Z" fill="white"/>
<path opacity="0.15" d="M96.5918 120.162H152.568C154.851 120.169 157.039 121.079 158.653 122.693C160.267 124.308 161.177 126.496 161.184 128.779V134.521C161.177 136.804 160.267 138.992 158.653 140.607C157.039 142.221 154.851 143.131 152.568 143.138H96.5918L87.9753 148.245V128.747C87.9886 126.469 88.9017 124.289 90.5156 122.68C92.1295 121.072 94.3136 120.167 96.5918 120.162Z" fill="#FFC727"/>
<path opacity="0.5" d="M151.039 128.389H98.1516V129.823H151.039V128.389Z" fill="#407BFF"/>
<path opacity="0.5" d="M122.68 133.477H98.1516V134.911H122.68V133.477Z" fill="#407BFF"/>
<path opacity="0.5" d="M136.485 133.477H126.51V134.911H136.485V133.477Z" fill="#407BFF"/>
<path opacity="0.7" d="M152.599 158.421H96.6232C94.34 158.427 92.1522 159.337 90.5378 160.952C88.9233 162.566 88.0134 164.754 88.0067 167.037V172.78C88.0117 175.063 88.9211 177.252 90.5359 178.867C92.1508 180.482 94.3395 181.391 96.6232 181.396H152.599L161.215 186.503V167.006C161.199 164.729 160.285 162.55 158.672 160.943C157.058 159.335 154.876 158.429 152.599 158.421Z" fill="#050C9D"/>
<path d="M151.039 166.647H98.1516V168.081H151.039V166.647Z" fill="white"/>
<path d="M151.039 171.736H108.328V173.17H151.039V171.736Z" fill="white"/>
<path opacity="0.15" d="M96.5918 196.679H118.372C120.655 196.688 122.842 197.598 124.456 199.212C126.07 200.826 126.98 203.013 126.989 205.296V211.044C126.98 213.327 126.07 215.514 124.456 217.128C122.842 218.742 120.655 219.653 118.372 219.661H96.5918L87.9753 224.762V205.296C87.982 203.013 88.8919 200.825 90.5064 199.21C92.1209 197.596 94.3086 196.686 96.5918 196.679Z" fill="#FFC727"/>
<path opacity="0.5" d="M100.957 208.17C100.957 208.668 100.809 209.154 100.533 209.568C100.256 209.981 99.8634 210.304 99.4037 210.494C98.944 210.685 98.4382 210.735 97.9501 210.637C97.4621 210.54 97.0139 210.301 96.662 209.949C96.3102 209.597 96.0706 209.149 95.9735 208.661C95.8764 208.173 95.9263 207.667 96.1167 207.207C96.3071 206.748 96.6295 206.355 97.0433 206.078C97.457 205.802 97.9434 205.654 98.4409 205.654C99.1056 205.662 99.7408 205.93 100.211 206.4C100.681 206.87 100.949 207.505 100.957 208.17Z" fill="#407BFF"/>
<path opacity="0.5" d="M106.045 208.679C107.452 208.679 108.592 207.539 108.592 206.132C108.592 204.725 107.452 203.585 106.045 203.585C104.638 203.585 103.498 204.725 103.498 206.132C103.498 207.539 104.638 208.679 106.045 208.679Z" fill="#407BFF"/>
<path opacity="0.5" d="M116.221 211.22C116.221 211.718 116.073 212.204 115.797 212.618C115.521 213.032 115.128 213.354 114.668 213.545C114.208 213.735 113.702 213.785 113.214 213.688C112.726 213.591 112.278 213.351 111.926 212.999C111.574 212.647 111.335 212.199 111.238 211.711C111.141 211.223 111.191 210.717 111.381 210.258C111.571 209.798 111.894 209.405 112.308 209.129C112.721 208.852 113.208 208.705 113.705 208.705C114.372 208.705 115.012 208.97 115.484 209.441C115.956 209.913 116.221 210.553 116.221 211.22Z" fill="#407BFF"/>
<path d="M195.254 202.05C195.946 203.428 196.562 204.812 197.21 206.195C197.858 207.579 198.468 208.988 199.046 210.397C199.625 211.805 200.229 213.22 200.782 214.661C201.336 216.101 201.895 217.541 202.405 219.063L200.153 216.944C201.466 217.392 202.842 217.63 204.229 217.648C205.838 217.692 207.448 217.618 209.046 217.428C210.707 217.252 212.38 216.975 214.078 216.661C215.776 216.346 217.474 215.956 219.109 215.573L220.6 219.195C218.964 220.095 217.27 220.887 215.531 221.567C213.789 222.266 212.005 222.858 210.191 223.34C208.305 223.849 206.377 224.185 204.43 224.346C202.259 224.557 200.067 224.378 197.958 223.818L196.48 223.409L195.675 221.68C194.468 219.032 193.159 216.315 191.902 213.604C191.273 212.246 190.612 210.881 189.983 209.516C189.354 208.151 188.725 206.78 188.096 205.409L195.254 202.05Z" fill="#FFC3BD"/>
<path d="M217.059 216.68L219.531 214.264L223.455 218.51C223.455 218.51 222.034 220.994 218.499 219.548L217.059 216.68Z" fill="#FFC3BD"/>
<path d="M223.26 212.667L225.424 216.195L223.462 218.51L219.537 214.264L223.26 212.667Z" fill="#FFC3BD"/>
<path d="M184.147 196.396C189.178 194.453 193.078 197.352 199.436 205.378L191.99 213.032C191.99 213.032 174.335 200.157 184.147 196.396Z" fill="#C7C7C7"/>
<path opacity="0.2" d="M193.593 204.698C191.216 203.157 189.147 203.591 187.398 205.025C188.059 207.472 189.751 210.277 191.38 212.573C191.763 212.874 192.008 213.038 192.008 213.038L196.159 208.768C196.051 207.944 195.766 207.154 195.323 206.452C194.88 205.749 194.29 205.151 193.593 204.698Z" fill="black"/>
<path d="M222.468 249.749L228.493 249.051L227.99 236.699L221.971 237.391L222.468 249.749Z" fill="#FFC3BD"/>
<path d="M228.544 246.454L221.757 246.548C221.647 246.554 221.543 246.599 221.463 246.675C221.383 246.751 221.334 246.853 221.323 246.963L220.556 252.303C220.533 252.429 220.538 252.558 220.57 252.682C220.602 252.807 220.66 252.922 220.741 253.022C220.821 253.122 220.922 253.203 221.037 253.26C221.151 253.317 221.277 253.349 221.405 253.353C223.512 253.284 224.481 253.127 227.141 253.083C228.783 253.083 233.726 253.177 235.99 253.146C238.254 253.114 238.405 250.63 237.468 250.41C233.261 249.466 230.839 248.114 229.437 246.806C229.197 246.575 228.876 246.448 228.544 246.454Z" fill="#263238"/>
<path d="M229.984 244.881C230.079 244.845 230.181 244.833 230.282 244.845C230.382 244.857 230.479 244.893 230.562 244.951C230.629 244.983 230.686 245.032 230.729 245.092C230.772 245.153 230.799 245.223 230.808 245.296C230.883 245.925 229.55 247.057 229.367 247.183C229.349 247.197 229.327 247.204 229.305 247.204C229.282 247.204 229.26 247.197 229.242 247.183C229.22 247.172 229.203 247.155 229.192 247.133C229.181 247.112 229.176 247.088 229.179 247.064C229.223 246.384 229.38 245.177 229.915 244.906L229.984 244.881ZM229.437 246.806C229.965 246.347 230.619 245.655 230.575 245.309C230.575 245.271 230.575 245.215 230.468 245.164C230.406 245.119 230.333 245.092 230.256 245.085C230.18 245.078 230.103 245.093 230.034 245.127C229.745 245.284 229.525 245.906 229.437 246.806Z" fill="#407BFF"/>
<path d="M229.921 246.579C230.144 246.462 230.387 246.391 230.638 246.369C230.888 246.348 231.141 246.376 231.38 246.454C231.462 246.506 231.526 246.582 231.561 246.673C231.596 246.764 231.601 246.863 231.575 246.957C231.562 247.045 231.529 247.129 231.477 247.203C231.426 247.276 231.358 247.336 231.279 247.378C230.651 247.724 229.317 247.208 229.261 247.19C229.241 247.181 229.224 247.167 229.209 247.151C229.195 247.135 229.185 247.116 229.179 247.095C229.175 247.075 229.176 247.053 229.183 247.034C229.189 247.014 229.201 246.996 229.217 246.982C229.426 246.808 229.665 246.672 229.921 246.579ZM231.091 247.208L231.16 247.177C231.209 247.148 231.252 247.109 231.284 247.063C231.317 247.016 231.339 246.963 231.349 246.907C231.349 246.756 231.317 246.699 231.267 246.674C230.965 246.479 230.04 246.73 229.544 247.051C230.035 247.246 230.57 247.301 231.091 247.208Z" fill="#407BFF"/>
<path opacity="0.2" d="M221.971 237.397L227.99 236.699L228.248 243.07L222.198 243.095L221.971 237.397Z" fill="black"/>
<path d="M192.43 230.227C192.43 230.227 208.065 215.686 218.216 215.466C225.625 215.308 230.921 239.812 230.921 239.812L222.116 239.982C222.116 239.982 220.569 231.315 214.814 228.925C206.499 241.403 172.605 266.064 175.819 239.328C180.851 237.435 192.43 230.227 192.43 230.227Z" fill="#263238"/>
<path d="M230.889 241.026L220.537 242.02L220.569 238.246L231.518 236.944L230.889 241.026Z" fill="#263238"/>
<path d="M171.901 240.252C171.901 240.252 165.178 227.12 164.354 205.969C164.165 200.988 168.65 196.289 173.788 196.025C178.103 195.799 182.669 195.742 186.367 195.755C190.065 195.767 192.895 198.22 193.317 201.78C194.247 209.629 194.411 221.548 199.222 235.743L171.901 240.252Z" fill="#C7C7C7"/>
<path opacity="0.2" d="M167.505 206.076C171.209 201.893 172.486 203.227 173.04 203.73C178.172 208.378 170.637 222.85 169.128 224.982C168.067 219.577 167.436 214.096 167.241 208.591C167.202 207.744 167.291 206.896 167.505 206.076Z" fill="black"/>
<path d="M178.794 183.453C178.379 187.308 177.36 193.226 174.738 195.975C176.801 197.918 180.159 199.83 184.933 200.629C187.398 199.61 187.725 197.34 186.53 195.761C182.316 195.025 182.367 193.83 183.958 191.145L178.794 183.453Z" fill="#FFC3BD"/>
<path opacity="0.2" d="M180.901 186.591L183.958 191.138C183.553 191.764 183.237 192.444 183.021 193.157C181.524 192.528 179.876 190.239 180.203 188.553C180.317 187.863 180.554 187.199 180.901 186.591Z" fill="black"/>
<path d="M189.839 176.346C192.31 178.968 197.505 178.981 195.273 175.874C193.04 172.767 187.914 174.302 189.839 176.346Z" fill="#263238"/>
<path d="M179.82 176.063C178.442 181.094 177.386 183.912 178.952 187.384C179.427 188.516 180.205 189.495 181.201 190.215C182.196 190.934 183.37 191.366 184.594 191.463C185.818 191.56 187.046 191.318 188.141 190.764C189.237 190.209 190.16 189.364 190.807 188.321C193.323 184.346 195.172 176.83 191.141 173.012C190.305 172.159 189.258 171.544 188.106 171.23C186.955 170.916 185.74 170.914 184.587 171.224C183.435 171.535 182.385 172.147 181.547 172.997C180.71 173.847 180.113 174.906 179.82 176.063Z" fill="#FFC3BD"/>
<path d="M178.694 180.729C179.323 180.616 182.43 179.673 183.945 178.214C185.65 176.572 185.662 174.981 185.203 174.258C184.744 173.534 181.147 172.144 179.467 172.465C176.813 172.975 177.467 177.673 177.505 178.943C177.525 179.32 177.646 179.685 177.855 179.999C178.064 180.313 178.354 180.565 178.694 180.729Z" fill="#FFC3BD"/>
<path opacity="0.7" d="M178.694 180.729C179.323 180.616 182.43 179.673 183.945 178.214C185.65 176.572 185.662 174.981 185.203 174.258C184.744 173.534 181.147 172.144 179.467 172.465C176.813 172.975 177.467 177.673 177.505 178.943C177.525 179.32 177.646 179.685 177.855 179.999C178.064 180.313 178.354 180.565 178.694 180.729Z" fill="#263238"/>
<path d="M176.058 181.075C176.548 182.156 177.426 183.014 178.518 183.478C179.964 184.063 180.788 182.849 180.474 181.371C180.191 180.069 179.096 178.188 177.606 178.226C176.115 178.264 175.467 179.742 176.058 181.075Z" fill="#FFC3BD"/>
<path d="M180.788 173.968C187.203 175.339 191.763 178.949 194.795 176.78C196.939 175.245 195.53 172.446 193.071 170.421C190.971 168.691 188.04 168.157 187.159 166.742C187.057 167.212 187.096 167.703 187.273 168.151C187.45 168.599 187.756 168.984 188.153 169.258C188.153 169.258 182.36 168.364 180.757 166.855C180.373 167.754 181.857 169.49 181.857 169.49C181.857 169.49 180.222 171.044 175.568 169.289C175.845 170.792 177.14 173.188 180.788 173.968Z" fill="#263238"/>
<path d="M193.53 177.289H193.279V176.962C193.833 177.031 194.394 176.916 194.877 176.636C195.36 176.355 195.737 175.924 195.952 175.409C196.193 174.719 196.21 173.972 196.003 173.272C195.795 172.572 195.372 171.955 194.795 171.509C194.239 171.077 193.633 170.713 192.99 170.427C191.499 169.679 189.807 168.83 188.99 166.358L189.298 166.257C190.071 168.597 191.631 169.402 193.141 170.132C193.813 170.431 194.446 170.812 195.027 171.264C195.663 171.75 196.127 172.426 196.353 173.194C196.579 173.961 196.555 174.781 196.285 175.534C196.064 176.076 195.681 176.536 195.187 176.85C194.694 177.165 194.115 177.318 193.53 177.289Z" fill="#263238"/>
<path d="M187.09 180.949C186.952 181.346 187.052 181.755 187.304 181.855C187.556 181.956 187.876 181.717 188.015 181.321C188.153 180.924 188.052 180.516 187.801 180.415C187.549 180.314 187.222 180.541 187.09 180.949Z" fill="#263238"/>
<path d="M191.832 182.383C191.7 182.78 191.795 183.182 192.052 183.283C192.31 183.383 192.625 183.151 192.757 182.748C192.889 182.346 192.801 181.949 192.543 181.843C192.285 181.736 191.971 181.981 191.832 182.383Z" fill="#263238"/>
<path d="M190.09 181.899C190.139 183.308 190.376 184.704 190.795 186.05C189.876 186.428 188.801 185.66 188.801 185.66L190.09 181.899Z" fill="#ED847E"/>
<path d="M186.241 186.616C185.389 186.147 184.756 185.36 184.48 184.428C184.475 184.412 184.474 184.396 184.476 184.38C184.478 184.364 184.483 184.349 184.491 184.335C184.5 184.322 184.511 184.31 184.524 184.301C184.537 184.292 184.552 184.286 184.568 184.283C184.584 184.279 184.6 184.279 184.616 184.282C184.632 184.284 184.647 184.29 184.66 184.299C184.674 184.308 184.686 184.319 184.695 184.333C184.704 184.346 184.71 184.361 184.713 184.377C184.874 184.884 185.147 185.349 185.511 185.736C185.876 186.124 186.323 186.425 186.82 186.616C186.85 186.629 186.875 186.653 186.888 186.684C186.901 186.714 186.901 186.749 186.889 186.78C186.885 186.795 186.877 186.809 186.867 186.822C186.857 186.834 186.844 186.844 186.83 186.85C186.815 186.857 186.8 186.86 186.784 186.86C186.768 186.86 186.752 186.856 186.738 186.849C186.567 186.783 186.401 186.705 186.241 186.616Z" fill="#263238"/>
<path d="M185.801 178.346C185.762 178.325 185.73 178.295 185.706 178.258C185.671 178.203 185.658 178.137 185.671 178.074C185.684 178.01 185.721 177.954 185.776 177.918C186.094 177.702 186.462 177.569 186.845 177.531C187.228 177.492 187.615 177.55 187.971 177.698C188.001 177.712 188.028 177.731 188.051 177.755C188.073 177.779 188.091 177.808 188.103 177.838C188.114 177.869 188.12 177.902 188.119 177.936C188.118 177.969 188.11 178.001 188.096 178.031C188.084 178.06 188.066 178.086 188.043 178.108C188.021 178.13 187.994 178.147 187.965 178.158C187.935 178.169 187.904 178.174 187.873 178.173C187.841 178.172 187.81 178.164 187.782 178.151C187.498 178.041 187.192 178.001 186.89 178.035C186.588 178.069 186.298 178.176 186.046 178.346C186.009 178.367 185.966 178.379 185.923 178.379C185.88 178.379 185.838 178.367 185.801 178.346Z" fill="#263238"/>
<path d="M193.449 181.207C193.41 181.194 193.375 181.172 193.346 181.142C193.318 181.113 193.297 181.077 193.285 181.038C193.204 180.731 193.055 180.447 192.848 180.208C192.641 179.968 192.382 179.778 192.09 179.654C192.028 179.632 191.976 179.588 191.946 179.529C191.915 179.471 191.909 179.403 191.927 179.339C191.934 179.309 191.949 179.28 191.968 179.255C191.987 179.231 192.012 179.21 192.04 179.195C192.068 179.181 192.098 179.172 192.13 179.17C192.161 179.167 192.193 179.172 192.222 179.182C192.593 179.331 192.923 179.565 193.187 179.864C193.451 180.163 193.642 180.52 193.744 180.905C193.755 180.936 193.759 180.968 193.757 181.001C193.755 181.033 193.746 181.064 193.732 181.093C193.717 181.122 193.697 181.148 193.672 181.168C193.647 181.189 193.618 181.204 193.587 181.214C193.541 181.224 193.493 181.222 193.449 181.207Z" fill="#263238"/>
<path d="M243.368 252.686L246.953 247.473L237.298 239.064L233.713 244.278L243.368 252.686Z" fill="#FFC3BD"/>
<path d="M244.475 245.007L240.267 250.246C240.193 250.334 240.153 250.446 240.153 250.561C240.153 250.676 240.193 250.787 240.267 250.875L243.544 254.951C243.622 255.048 243.72 255.126 243.832 255.18C243.944 255.234 244.067 255.262 244.192 255.262C244.316 255.262 244.439 255.234 244.551 255.18C244.663 255.126 244.762 255.048 244.839 254.951C246.166 253.24 247.053 251.925 248.758 249.8C249.808 248.491 253.11 244.667 254.563 242.881C256.016 241.095 254.355 239.334 253.594 239.938C250.179 242.636 247.141 244.29 245.305 244.542C244.98 244.588 244.684 244.754 244.475 245.007Z" fill="#263238"/>
<path d="M244.198 242.856C244.228 242.759 244.28 242.67 244.35 242.596C244.42 242.522 244.505 242.465 244.6 242.428C244.667 242.394 244.74 242.376 244.814 242.376C244.889 242.376 244.962 242.394 245.028 242.428C245.6 242.762 245.657 244.51 245.657 244.711C245.656 244.735 245.649 244.757 245.635 244.776C245.622 244.795 245.603 244.81 245.582 244.818C245.562 244.831 245.539 244.837 245.516 244.837C245.492 244.837 245.469 244.831 245.449 244.818C244.934 244.378 244.078 243.561 244.192 242.932C244.19 242.906 244.192 242.881 244.198 242.856ZM245.412 244.447C245.361 243.743 245.204 242.812 244.902 242.636C244.873 242.622 244.841 242.614 244.808 242.614C244.775 242.614 244.743 242.622 244.714 242.636C244.641 242.661 244.577 242.704 244.526 242.762C244.476 242.819 244.44 242.888 244.424 242.963C244.38 243.29 244.732 243.837 245.412 244.447Z" fill="#407BFF"/>
<path d="M245.531 243.925C245.676 243.391 245.953 242.812 246.299 242.667C246.39 242.632 246.489 242.627 246.584 242.653C246.678 242.679 246.761 242.735 246.821 242.812C246.883 242.876 246.93 242.954 246.959 243.039C246.987 243.124 246.996 243.214 246.984 243.303C246.896 243.995 245.676 244.774 245.619 244.806C245.601 244.817 245.581 244.823 245.56 244.823C245.538 244.823 245.518 244.817 245.5 244.806C245.48 244.799 245.462 244.787 245.45 244.77C245.438 244.753 245.431 244.732 245.431 244.711C245.42 244.446 245.454 244.18 245.531 243.925ZM246.726 243.353C246.726 243.353 246.726 243.309 246.726 243.284C246.734 243.228 246.728 243.17 246.71 243.117C246.691 243.063 246.66 243.015 246.619 242.976C246.519 242.862 246.443 242.869 246.387 242.894C246.053 243.02 245.701 243.913 245.657 244.498C246.111 244.221 246.481 243.825 246.726 243.353Z" fill="#407BFF"/>
<path opacity="0.2" d="M233.713 244.278L237.298 239.064L242.28 243.397L238.166 248.158L233.713 244.278Z" fill="black"/>
<path d="M181.719 238.334C181.719 238.334 209.204 210.409 221.575 222.359C229.279 229.806 240.6 240.064 240.6 240.064L234.04 246.447C234.04 246.447 217.424 237.611 213.097 232.73C190.392 258.114 170.102 259.85 171.926 240.278C175.145 239.418 178.416 238.769 181.719 238.334Z" fill="#263238"/>
<path d="M242.556 240.12L235.349 249.177L232.292 247.127L239.657 237.51L242.556 240.12Z" fill="#263238"/>
<path d="M171.996 204.195L172.536 215.642C172.637 217.529 172.757 219.416 172.901 221.302C172.977 222.227 173.077 223.139 173.178 224.013C173.235 224.453 173.291 224.881 173.36 225.271C173.429 225.661 173.505 226.026 173.555 226.246C173.558 226.279 173.558 226.313 173.555 226.346C173.452 226.16 173.305 226 173.128 225.881C173.025 225.807 172.91 225.751 172.788 225.717C172.719 225.717 172.681 225.717 172.712 225.717C173.227 225.797 173.753 225.763 174.253 225.617C175.917 225.202 177.537 224.627 179.09 223.9C180.769 223.164 182.442 222.315 184.121 221.434C185.801 220.554 187.48 219.617 189.109 218.705L191.461 221.849C188.512 224.594 185.309 227.052 181.895 229.189C181.021 229.724 180.115 230.24 179.159 230.724C178.161 231.239 177.124 231.676 176.058 232.032C175.452 232.232 174.832 232.388 174.203 232.497C173.43 232.642 172.641 232.68 171.857 232.611C171.351 232.563 170.852 232.453 170.373 232.284C169.795 232.08 169.252 231.79 168.763 231.422C168.253 231.026 167.813 230.548 167.461 230.007C167.3 229.759 167.157 229.501 167.033 229.233L166.794 228.655C166.573 228.056 166.386 227.445 166.234 226.824C166.096 226.265 165.983 225.743 165.882 225.221C165.675 224.183 165.517 223.17 165.379 222.17C165.09 220.17 164.882 218.195 164.706 216.227C164.354 212.29 164.146 208.396 164.077 204.44L171.996 204.195Z" fill="#FFC3BD"/>
<path d="M170.065 196.818C167.102 197.151 162.668 199.962 162.517 213.032L175.222 212.032C175.222 212.032 181.209 195.541 170.065 196.818Z" fill="#C7C7C7"/>
<path d="M199.795 212.082L195.078 212.39C194.799 212.429 194.539 212.55 194.33 212.739C194.122 212.927 193.974 213.174 193.908 213.447L191.7 223.812C191.663 223.925 191.654 224.045 191.675 224.162C191.696 224.279 191.746 224.389 191.821 224.481C191.895 224.574 191.992 224.646 192.101 224.692C192.211 224.738 192.33 224.755 192.449 224.743L197.166 224.434C197.445 224.397 197.706 224.277 197.915 224.088C198.124 223.899 198.27 223.652 198.335 223.378L200.543 213.013C200.581 212.9 200.589 212.78 200.568 212.663C200.547 212.546 200.497 212.436 200.422 212.344C200.348 212.251 200.252 212.179 200.142 212.133C200.032 212.087 199.913 212.07 199.795 212.082Z" fill="#407BFF"/>
<path d="M189.493 218.46L193.398 217.101L192.436 223.221C192.436 223.221 188.084 224.177 187.725 221.837L188.354 219.755C188.434 219.467 188.577 219.201 188.775 218.976C188.972 218.752 189.217 218.575 189.493 218.46Z" fill="#FFC3BD"/>
<path d="M197.864 217.617L196.172 223.063L192.436 223.221L193.398 217.101L197.864 217.617Z" fill="#FFC3BD"/>
<path d="M62.5786 89.3443C59.5094 82.2184 76.2455 74.7592 80.9752 85.8537C89.0067 89.3443 78.7424 104.187 81.0632 106.703C83.384 109.219 85.1325 106.168 85.1325 106.168C85.1325 106.168 87.4784 112.42 81.4972 117.427C76.1386 121.923 60.0189 123.144 59.9811 114.282C59.9308 102.76 66.6039 98.6841 62.5786 89.3443Z" fill="#263238"/>
<path d="M77.9689 238.944L73.4657 241.567L62.6542 229.208L68.2643 224.145L77.9689 238.944Z" fill="#FF8B7B"/>
<path d="M72.95 240.435L77.5978 236.869C77.6705 236.804 77.7645 236.768 77.862 236.768C77.9595 236.768 78.0535 236.804 78.1262 236.869L81.208 239.913C81.2833 239.998 81.3397 240.098 81.3735 240.207C81.4073 240.315 81.4177 240.43 81.4041 240.543C81.3904 240.656 81.3529 240.764 81.2942 240.862C81.2355 240.959 81.1568 241.043 81.0633 241.108C79.4281 242.322 78.579 242.831 76.5349 244.403C75.2771 245.366 72.7613 247.479 71.038 248.806C69.3147 250.133 68.0065 248.605 68.6166 247.907C71.3713 244.762 71.9688 242.875 72.3902 241.196C72.4855 240.886 72.6828 240.618 72.95 240.435Z" fill="#263238"/>
<path d="M71.9059 242.296C71.5825 242.598 71.1696 242.786 70.7298 242.831C70.625 242.827 70.5228 242.796 70.4328 242.742C70.3427 242.689 70.2675 242.613 70.2141 242.523C70.1833 242.466 70.1671 242.402 70.1671 242.337C70.1671 242.272 70.1833 242.209 70.2141 242.152C70.5286 241.523 72.7676 241.026 73.0192 240.969C73.0434 240.965 73.0681 240.969 73.0905 240.979C73.1128 240.989 73.1318 241.005 73.1449 241.026C73.1571 241.047 73.1635 241.071 73.1635 241.095C73.1635 241.119 73.1571 241.143 73.1449 241.164C72.7673 241.579 72.3526 241.958 71.9059 242.296ZM70.5726 242.064C70.5068 242.109 70.4528 242.169 70.4153 242.24C70.4013 242.261 70.3938 242.286 70.3938 242.312C70.3938 242.338 70.4013 242.363 70.4153 242.384C70.4481 242.445 70.496 242.496 70.5545 242.532C70.6129 242.569 70.6799 242.589 70.7487 242.592C71.1575 242.592 71.8682 242.127 72.6732 241.284C71.935 241.427 71.2253 241.69 70.5726 242.064Z" fill="#407BFF"/>
<path d="M73.0883 241.177H73.0379C72.409 241.347 70.7926 241.259 70.5222 240.762C70.4656 240.649 70.4467 240.454 70.6983 240.221C70.8776 240.054 71.1137 239.962 71.3587 239.963C72.1826 239.963 73.0631 240.938 73.0946 240.982C73.1051 240.999 73.1108 241.018 73.1108 241.039C73.1108 241.059 73.1051 241.078 73.0946 241.095C73.1008 241.122 73.0986 241.151 73.0883 241.177ZM70.9247 240.366L70.8681 240.416C70.7046 240.567 70.7423 240.642 70.7549 240.667C70.9058 240.969 72.0568 241.114 72.7738 241.013C72.3985 240.603 71.8993 240.327 71.3524 240.227C71.1983 240.224 71.0477 240.273 70.9247 240.366Z" fill="#407BFF"/>
<path d="M61.5976 115.181C61.302 116.533 60.9687 117.754 60.5913 119.018C60.214 120.282 59.824 121.533 59.3712 122.741C58.501 125.222 57.4802 127.648 56.3145 130.005L55.39 131.766C55.0566 132.345 54.761 132.924 54.3837 133.496L53.8428 134.345C53.6541 134.634 53.5094 134.892 53.2516 135.232C53.1258 135.395 53 135.559 52.8302 135.754C52.6166 136.006 52.3761 136.233 52.1132 136.433C51.7952 136.676 51.4283 136.848 51.0377 136.936C50.856 136.977 50.6705 136.998 50.4842 136.999C50.2565 137.002 50.0296 136.97 49.8113 136.905C49.4032 136.794 49.032 136.577 48.7358 136.276C48.4389 135.979 48.2225 135.611 48.1068 135.207C48.0485 135.02 48.0085 134.829 47.9873 134.634C47.9381 134.181 47.9381 133.723 47.9873 133.27C48.0314 132.892 48.0943 132.54 48.1572 132.2C48.2829 131.515 48.4465 130.873 48.6163 130.232C48.9694 128.969 49.3893 127.726 49.8742 126.508L52.3899 127.062L52.2201 130.836C52.2201 131.464 52.1824 132.056 52.1761 132.634C52.1761 132.924 52.1761 133.207 52.1761 133.458C52.1749 133.639 52.2003 133.819 52.2516 133.993C52.2516 133.993 52.2516 133.993 52.2516 133.88C52.1739 133.642 52.0402 133.426 51.8616 133.251C51.6178 133.002 51.3148 132.821 50.9811 132.722C50.8004 132.674 50.6147 132.646 50.4276 132.641C50.2796 132.643 50.1322 132.66 49.9874 132.691C49.7621 132.746 49.5489 132.842 49.3584 132.974C49.2264 133.068 49.2767 133.018 49.3018 132.974L49.4465 132.729L50.2893 131.219C50.5723 130.691 50.8302 130.15 51.1069 129.615L51.8805 127.98C52.8616 125.76 53.7673 123.477 54.522 121.15C54.912 119.986 55.2705 118.81 55.629 117.634C55.9875 116.458 56.3082 115.244 56.5913 114.131L61.5976 115.181Z" fill="#FF8B7B"/>
<path d="M59.4465 108.634C57.6226 108.93 54.7295 120.521 54.7295 120.521L58.9371 123.76C58.9371 123.76 63.1573 115.382 63.3397 111.615C63.4655 108.885 60.8239 108.414 59.4465 108.634Z" fill="#FF8B7B"/>
<path d="M52.8491 127.622L52.1384 121.861L48.8364 126.703C48.977 127.287 49.2843 127.817 49.721 128.229C50.1576 128.641 50.7047 128.918 51.2956 129.024L52.8491 127.622Z" fill="#FF8B7B"/>
<path d="M75.9248 248.724L70.8933 248.894L69.931 231.334L76.9123 231.435L75.9248 248.724Z" fill="#FF8B7B"/>
<path d="M70.5537 247.29L76.2142 247.252C76.3088 247.249 76.4012 247.282 76.4716 247.346C76.542 247.409 76.585 247.498 76.5915 247.592L76.9311 252.051C76.9345 252.285 76.8452 252.511 76.6826 252.68C76.52 252.848 76.2973 252.946 76.0632 252.951C74.1009 252.951 73.1575 252.819 70.6795 252.837C69.1511 252.837 66.9058 253.02 64.8052 253.039C62.7045 253.058 62.7234 250.969 63.6165 250.775C67.6102 249.9 68.3084 248.73 69.7109 247.63C69.9476 247.428 70.2434 247.309 70.5537 247.29Z" fill="#263238"/>
<path d="M59.1384 108.596C59.1384 108.596 56.6227 109.225 56.6227 138.993L76.8054 140.779C77.818 132.483 78.6356 127.383 85.3212 110.766C82.5783 109.926 79.7757 109.295 76.9375 108.879C73.9088 108.387 70.8482 108.116 67.7801 108.068C63.7549 108.074 59.1384 108.596 59.1384 108.596Z" fill="#455A64"/>
<path opacity="0.2" d="M81.3148 114.565L82.3903 118.232C81.5475 120.502 80.8494 122.508 80.2645 124.313C79.8187 121.027 80.1792 117.681 81.3148 114.565Z" fill="black"/>
<path d="M52.1384 121.861L48.8364 126.703L52.8491 126.471L54.9875 122.043L52.1384 121.861Z" fill="#FF8B7B"/>
<path d="M54.2327 132.999L58.0063 132.943C58.1306 132.94 58.253 132.911 58.3654 132.858C58.4778 132.805 58.5777 132.729 58.6585 132.634C58.7393 132.54 58.7991 132.43 58.8342 132.31C58.8692 132.191 58.8786 132.066 58.8617 131.942L57.6856 123.483C57.6577 123.271 57.5524 123.077 57.3899 122.937C57.2273 122.798 57.019 122.724 56.805 122.729L53.0314 122.785C52.9071 122.786 52.7843 122.813 52.6714 122.865C52.5585 122.917 52.4581 122.993 52.377 123.087C52.2959 123.181 52.236 123.292 52.2013 123.411C52.1666 123.53 52.158 123.656 52.176 123.779L53.3522 132.238C53.3799 132.451 53.485 132.646 53.6474 132.786C53.8098 132.927 54.0181 133.002 54.2327 132.999Z" fill="#263238"/>
<path d="M77.6922 98.4073C76.6293 101.326 75.1764 106.709 76.906 108.873C73.8974 111.388 70.5259 113.434 66.9058 114.942C64.7989 110.024 67.7486 108.062 67.7486 108.062C71.1638 107.565 71.4782 105.099 71.277 102.741L77.6922 98.4073Z" fill="#FF8B7B"/>
<path d="M63.8681 95.0614C63.3398 103.797 58.0881 106.301 59.3208 110.785C61.063 117.074 68.17 112.15 68.17 112.15C68.17 112.15 64.3021 113.408 64.0568 110.351C63.8555 107.835 72.7865 108.225 70.3084 102.307C68.7172 98.4954 63.8681 95.0614 63.8681 95.0614Z" fill="#263238"/>
<path opacity="0.2" d="M75.862 100.615L71.2833 102.741C71.3336 103.293 71.3336 103.849 71.2833 104.401C72.2393 104.489 74.7173 103.772 75.6545 102.225C75.9141 101.73 75.9878 101.159 75.862 100.615Z" fill="black"/>
<path d="M78.4846 90.1934C78.9437 95.1494 79.2456 97.2438 77.1512 100.15C74.0065 104.521 67.8114 104.005 65.8806 99.2753C64.1384 95.0237 63.6793 87.6273 68.1888 84.9292C69.1795 84.3277 70.3077 83.9898 71.466 83.9475C72.6242 83.9052 73.774 84.16 74.806 84.6877C75.8379 85.2153 76.7177 85.9982 77.3616 86.9619C78.0055 87.9256 78.3921 89.0381 78.4846 90.1934Z" fill="#FF8B7B"/>
<path d="M77.3903 85.2185C73.4783 82.5329 70.2267 87.6902 77.1702 92.7029C84.1137 97.7155 81.8369 88.2688 77.3903 85.2185Z" fill="#263238"/>
<path d="M75.3084 83.7782C76.9248 85.231 67.302 90.5896 62.0692 88.8097C56.8365 87.0298 61.0378 83.036 62.9435 82.5203C61.3082 84.0989 64.1699 86.4952 65.5536 84.9983C66.9372 83.5014 72.0631 80.8662 75.3084 83.7782Z" fill="#263238"/>
<path d="M56.5975 138.993C56.5975 138.993 45.9495 184.082 46.8867 195.466C47.9747 208.774 62.5284 230.227 62.5284 230.227L69.2141 224.158C69.2141 224.158 62.5787 206.585 57.6667 195.138C59.2391 183.692 73.1386 151.352 73.1386 140.458L56.5975 138.993Z" fill="#407BFF"/>
<path opacity="0.6" d="M56.5975 138.993C56.5975 138.993 45.9495 184.082 46.8867 195.466C47.9747 208.774 62.5284 230.227 62.5284 230.227L69.2141 224.158C69.2141 224.158 62.5787 206.585 57.6667 195.138C59.2391 183.692 73.1386 151.352 73.1386 140.458L56.5975 138.993Z" fill="black"/>
<path d="M70.4468 225.063L62.5473 230.95L60.5221 229.409L69.1889 222.573L70.4468 225.063Z" fill="#407BFF"/>
<path opacity="0.2" d="M64.4781 158.823C58.61 166.949 58.327 181.893 58.6918 190.27C60.7044 182.56 64.9246 171.044 68.2894 160.666C68.2077 156.691 67.2202 155.018 64.4781 158.823Z" fill="black"/>
<path d="M60.3837 139.031C60.3837 139.031 64.2831 177.968 65.585 191.113C67.1322 206.717 69.4027 231.743 69.4027 231.743L76.9122 231.428C76.9122 231.428 78.5601 210.214 77.3399 196.208C77.56 177.654 80.2959 152.427 76.7739 140.754L60.3837 139.031Z" fill="#407BFF"/>
<path opacity="0.6" d="M60.3837 139.031C60.3837 139.031 64.2831 177.968 65.585 191.113C67.1322 206.717 69.4027 231.743 69.4027 231.743L76.9122 231.428C76.9122 231.428 78.5601 210.214 77.3399 196.208C77.56 177.654 80.2959 152.427 76.7739 140.754L60.3837 139.031Z" fill="black"/>
<path d="M77.4846 232.806L68.8681 232.56L68.2643 229.85L78.0129 229.579L77.4846 232.806Z" fill="#407BFF"/>
<path d="M70.7738 92.9293C70.8367 93.3255 70.6732 93.684 70.409 93.728C70.1449 93.7721 69.887 93.4765 69.8241 93.0991C69.7612 92.7217 69.9248 92.3444 70.1889 92.3003C70.4531 92.2563 70.7109 92.5268 70.7738 92.9293Z" fill="#263238"/>
<path d="M66.2517 93.6274C66.3146 94.0299 66.1511 94.3884 65.8869 94.4261C65.6228 94.4639 65.3649 94.1746 65.302 93.7972C65.2391 93.4198 65.4027 93.0362 65.6668 92.9984C65.931 92.9607 66.1888 93.2312 66.2517 93.6274Z" fill="#263238"/>
<path d="M65.78 92.9796L64.78 92.8538C64.78 92.8538 65.3901 93.5268 65.78 92.9796Z" fill="#263238"/>
<path d="M67.7361 94.0236C67.5192 94.9906 67.1723 95.9236 66.7046 96.7973C66.931 96.9106 67.1794 96.9733 67.4324 96.9809C67.6855 96.9885 67.9372 96.9409 68.17 96.8413L67.7361 94.0236Z" fill="#FF5652"/>
<path d="M70.7738 97.9419C70.5696 98.0143 70.359 98.067 70.1448 98.0992C70.114 98.1047 70.0822 98.0979 70.0564 98.0803C70.0305 98.0626 70.0126 98.0355 70.0065 98.0048C70.0038 97.9891 70.0043 97.973 70.0079 97.9575C70.0115 97.942 70.0182 97.9273 70.0276 97.9144C70.037 97.9015 70.0489 97.8906 70.0625 97.8824C70.0762 97.8742 70.0913 97.8687 70.1071 97.8665C70.607 97.8017 71.0844 97.6191 71.4999 97.3337C71.9154 97.0483 72.2572 96.6683 72.4971 96.2249C72.5118 96.1979 72.5359 96.1772 72.5649 96.1667C72.5939 96.1563 72.6257 96.1569 72.6543 96.1683C72.6688 96.1745 72.6819 96.1835 72.6929 96.1947C72.7039 96.206 72.7126 96.2193 72.7184 96.2339C72.7243 96.2485 72.7272 96.2641 72.7269 96.2798C72.7267 96.2956 72.7234 96.3111 72.7172 96.3256C72.3051 97.0973 71.6077 97.6774 70.7738 97.9419Z" fill="#263238"/>
<path d="M79.862 93.5771C79.8282 94.0586 79.6997 94.5287 79.4839 94.9604C79.268 95.3921 78.969 95.777 78.6041 96.0929C77.6355 96.9231 76.6104 96.1935 76.428 94.9922C76.2582 93.9168 76.5663 92.1872 77.755 91.8475C78.0131 91.7683 78.2867 91.7541 78.5515 91.8063C78.8164 91.8585 79.0642 91.9755 79.2728 92.1468C79.4814 92.318 79.6444 92.5383 79.7472 92.7879C79.85 93.0375 79.8895 93.3086 79.862 93.5771Z" fill="#FF8B7B"/>
<path d="M72.8305 90.4513C72.7991 90.4575 72.7668 90.4574 72.7354 90.4509C72.7041 90.4444 72.6744 90.4317 72.6481 90.4135C72.4078 90.235 72.1284 90.1163 71.8332 90.0671C71.5379 90.0178 71.2352 90.0396 70.9499 90.1305C70.9211 90.1427 70.8901 90.1489 70.8588 90.1488C70.8275 90.1488 70.7965 90.1424 70.7678 90.13C70.739 90.1177 70.713 90.0997 70.6913 90.0771C70.6697 90.0545 70.6528 90.0277 70.6418 89.9984C70.6189 89.94 70.62 89.875 70.6447 89.8173C70.6694 89.7596 70.7158 89.714 70.7738 89.6903C71.1317 89.5684 71.5137 89.5351 71.8872 89.5932C72.2607 89.6512 72.6146 89.7989 72.9185 90.0236C72.9695 90.0592 73.0046 90.1133 73.0163 90.1744C73.0281 90.2354 73.0155 90.2987 72.9814 90.3506C72.9442 90.4006 72.8909 90.4361 72.8305 90.4513Z" fill="#263238"/>
<path d="M64.2894 91.8915C64.2617 91.904 64.2317 91.9105 64.2013 91.9105C64.1709 91.9105 64.1409 91.904 64.1133 91.8915C64.0848 91.8787 64.0593 91.8603 64.0381 91.8374C64.017 91.8145 64.0006 91.7876 63.9901 91.7583C63.9795 91.7289 63.975 91.6978 63.9767 91.6667C63.9784 91.6355 63.9863 91.6051 64 91.5771C64.149 91.2303 64.3795 90.9246 64.6718 90.6859C64.9642 90.4472 65.3098 90.2826 65.6793 90.206C65.7396 90.2015 65.7992 90.2201 65.8464 90.2579C65.8935 90.2956 65.9246 90.3499 65.9333 90.4096C65.9421 90.4694 65.9279 90.5303 65.8936 90.58C65.8593 90.6297 65.8075 90.6646 65.7485 90.6777C65.4569 90.7434 65.1851 90.8775 64.9555 91.0688C64.7258 91.2602 64.545 91.5034 64.4277 91.7783C64.4136 91.8056 64.394 91.8297 64.3702 91.8492C64.3464 91.8686 64.3189 91.883 64.2894 91.8915Z" fill="#263238"/>
<path d="M86.6483 116.804C86.7426 117.716 86.7929 118.515 86.8181 119.364C86.8433 120.213 86.8621 121.03 86.8558 121.879C86.8307 123.557 86.7238 125.234 86.5351 126.911C86.3423 128.609 86.027 130.29 85.5917 131.942C85.3671 132.796 85.0941 133.636 84.774 134.458C84.6168 134.873 84.4407 135.288 84.2583 135.716C84.2583 135.716 84.164 135.917 84.1011 136.031C84.0347 136.161 83.9568 136.285 83.8684 136.402C83.713 136.632 83.5315 136.843 83.3275 137.031C82.9965 137.314 82.6257 137.547 82.2268 137.722C81.6571 137.961 81.0552 138.114 80.4406 138.175C79.9499 138.229 79.4562 138.25 78.9626 138.238C78.074 138.214 77.1877 138.136 76.3085 138.005C74.661 137.745 73.0295 137.392 71.4216 136.949C69.843 136.515 68.2769 136.037 66.7486 135.527C65.2203 135.018 63.6982 134.452 62.1825 133.817L62.9687 131.402C64.497 131.735 66.0505 132.087 67.5977 132.383C69.1449 132.678 70.6858 133.012 72.2204 133.238C73.755 133.465 75.2896 133.697 76.7739 133.792C77.4832 133.848 78.1952 133.86 78.906 133.829C79.2097 133.815 79.5122 133.781 79.8117 133.729C79.9929 133.7 80.1688 133.645 80.3337 133.565C80.3337 133.565 80.3337 133.565 80.2394 133.615C80.1815 133.66 80.1306 133.713 80.0884 133.773L80.013 133.886C80.013 133.886 79.9564 134.012 80.013 133.93C80.1325 133.603 80.252 133.301 80.3526 132.936C80.5664 132.257 80.7425 131.559 80.8998 130.848C81.1942 129.394 81.4042 127.924 81.5287 126.446C81.6671 124.949 81.7111 123.427 81.7111 121.905C81.7111 121.144 81.7111 120.383 81.7111 119.622C81.7111 118.861 81.6419 118.074 81.5979 117.395L86.6483 116.804Z" fill="#FF8B7B"/>
<path d="M85.2709 110.766C87.4407 112.181 86.7048 124.515 86.7048 124.515L81.5978 125.54C81.5978 125.54 81.5538 119.25 81.0066 115.169C80.6356 112.395 83.7237 109.753 85.2709 110.766Z" fill="#FF8B7B"/>
<path d="M67.7864 247.875C67.7251 247.794 67.6835 247.699 67.6649 247.598C67.6464 247.498 67.6514 247.395 67.6795 247.297C67.6912 247.224 67.7209 247.155 67.7659 247.097C67.811 247.039 67.8699 246.993 67.9373 246.963C68.5663 246.693 70.0003 247.668 70.1638 247.775C70.1823 247.788 70.1963 247.806 70.2042 247.827C70.212 247.849 70.2133 247.872 70.2078 247.894C70.2023 247.918 70.1906 247.939 70.1741 247.957C70.1575 247.975 70.1366 247.988 70.1135 247.995C69.4531 248.152 68.277 248.353 67.8367 247.925L67.7864 247.875ZM69.7864 247.825C69.1575 247.454 68.3399 247.032 68.0191 247.196C67.9898 247.21 67.9646 247.231 67.9459 247.257C67.9271 247.284 67.9155 247.315 67.9122 247.347C67.8891 247.419 67.8857 247.496 67.9023 247.57C67.9188 247.644 67.9548 247.713 68.0065 247.768C68.2455 247.982 68.8996 248.007 69.7864 247.837V247.825Z" fill="#407BFF"/>
<path d="M69.4342 247.429C69.2562 247.25 69.1151 247.038 69.019 246.805C68.923 246.572 68.8738 246.322 68.8744 246.07C68.9019 245.977 68.958 245.894 69.0347 245.835C69.1114 245.775 69.2049 245.741 69.3021 245.737C69.3899 245.723 69.4798 245.729 69.5648 245.755C69.6498 245.782 69.7277 245.827 69.7927 245.888C70.3021 246.366 70.214 247.812 70.2077 247.875C70.2068 247.897 70.2006 247.918 70.1896 247.936C70.1787 247.955 70.1633 247.971 70.1449 247.982C70.1263 247.991 70.1059 247.996 70.0851 247.996C70.0643 247.996 70.0439 247.991 70.0254 247.982C69.8004 247.83 69.6009 247.643 69.4342 247.429ZM69.6732 246.12C69.658 246.102 69.6412 246.085 69.6228 246.07C69.5824 246.031 69.5337 246.002 69.4803 245.984C69.4269 245.967 69.3703 245.962 69.3147 245.969C69.1574 245.969 69.126 246.057 69.1071 246.114C69.0128 246.46 69.5285 247.271 69.9813 247.649C70.023 247.12 69.9163 246.591 69.6732 246.12Z" fill="#407BFF"/>
<path d="M77.2707 139.609L77.4908 141.496C77.5412 141.641 77.3525 141.773 77.1198 141.748L56.3647 139.911C56.1823 139.911 56.044 139.792 56.0503 139.678L56.1698 137.842C56.1698 137.716 56.3521 137.622 56.5471 137.641L76.9814 139.452C77.0391 139.451 77.0961 139.465 77.1468 139.492C77.1975 139.52 77.2402 139.56 77.2707 139.609Z" fill="white"/>
<path d="M74.1513 141.672L74.6984 141.716C74.8117 141.716 74.8997 141.678 74.906 141.609L75.0318 139.226C75.0318 139.156 74.95 139.087 74.8431 139.081L74.2896 139.031C74.1827 139.031 74.0884 139.068 74.0821 139.138L73.9563 141.528C73.9563 141.597 74.0443 141.66 74.1513 141.672Z" fill="#407BFF"/>
<path opacity="0.6" d="M74.1513 141.672L74.6984 141.716C74.8117 141.716 74.8997 141.678 74.906 141.609L75.0318 139.226C75.0318 139.156 74.95 139.087 74.8431 139.081L74.2896 139.031C74.1827 139.031 74.0884 139.068 74.0821 139.138L73.9563 141.528C73.9563 141.597 74.0443 141.66 74.1513 141.672Z" fill="black"/>
<path d="M57.8554 140.226L58.4026 140.276C58.5158 140.276 58.6038 140.238 58.6101 140.169L58.7359 137.779C58.7359 137.71 58.6541 137.647 58.5472 137.634L58 137.59C57.8868 137.59 57.7988 137.628 57.7925 137.697L57.6667 140.081C57.6604 140.15 57.7485 140.219 57.8554 140.226Z" fill="#407BFF"/>
<path opacity="0.6" d="M57.8554 140.226L58.4026 140.276C58.5158 140.276 58.6038 140.238 58.6101 140.169L58.7359 137.779C58.7359 137.71 58.6541 137.647 58.5472 137.634L58 137.59C57.8868 137.59 57.7988 137.628 57.7925 137.697L57.6667 140.081C57.6604 140.15 57.7485 140.219 57.8554 140.226Z" fill="black"/>
<path d="M66.0065 140.949L66.5537 140.999C66.6606 140.999 66.7549 140.955 66.7549 140.886L66.887 138.502C66.887 138.433 66.8052 138.37 66.692 138.358L66.1449 138.307C66.0379 138.307 65.9436 138.351 65.9436 138.421L65.8115 140.804C65.8115 140.873 65.8996 140.917 66.0065 140.949Z" fill="#407BFF"/>
<path opacity="0.6" d="M66.0065 140.949L66.5537 140.999C66.6606 140.999 66.7549 140.955 66.7549 140.886L66.887 138.502C66.887 138.433 66.8052 138.37 66.692 138.358L66.1449 138.307C66.0379 138.307 65.9436 138.351 65.9436 138.421L65.8115 140.804C65.8115 140.873 65.8996 140.917 66.0065 140.949Z" fill="black"/>
<path d="M63.7548 131.553L60.6101 127.357L59.3019 132.389C59.3019 132.389 61.6415 134.433 63.629 133.647L63.7548 131.553Z" fill="#FF8B7B"/>
<path d="M56.5849 126.433L55.7107 130.678L59.956 132.848L60.629 127.357L56.5849 126.433Z" fill="#FF8B7B"/>
<path d="M70.3084 92.2815L69.3021 92.1557C69.3021 92.1557 69.887 92.8287 70.3084 92.2815Z" fill="#263238"/>
<path d="M186.994 294.967C186.994 294.865 187.03 294.763 187.05 294.661C187.025 294.788 186.999 294.911 186.984 295.038C186.989 295.018 186.989 294.992 186.994 294.967Z" fill="#FFC727"/>
<path d="M187.05 294.666C187.025 294.793 186.999 294.916 186.984 295.043C186.984 295.043 186.984 294.997 186.984 294.972C186.984 294.946 187.03 294.763 187.05 294.666Z" fill="#FFC727"/>
<path d="M187.05 294.666C187.025 294.793 186.999 294.916 186.984 295.043C186.984 295.043 186.984 294.997 186.984 294.972C186.984 294.946 187.03 294.763 187.05 294.666Z" fill="#FFC727"/>
<path d="M187.05 294.666C187.025 294.793 186.999 294.916 186.984 295.043C186.984 295.043 186.984 294.997 186.984 294.972C186.984 294.946 187.03 294.763 187.05 294.666Z" fill="#DBDBDB"/>
</g>
</svg>
