<svg width="31" height="31" viewBox="0 0 31 31" fill="none" xmlns="http://www.w3.org/2000/svg">
<path d="M9.10376 24.9209C10.9737 26.3939 13.2858 27.1932 15.6663 27.1896C18.1431 27.1896 20.4225 26.3421 22.2288 24.9209" stroke="#000BFF" stroke-width="2.33333"/>
<path d="M12.5413 6.40625C8.19813 7.74062 5.04126 11.7837 5.04126 16.5644C5.04126 17.7675 5.24126 18.9237 5.61001 20.0019" stroke="#000BFF" stroke-width="2.33333"/>
<path d="M18.7913 6.40625C23.1344 7.74062 26.2913 11.7837 26.2913 16.5644C26.2913 17.7675 26.0913 18.9237 25.7225 20.0019" stroke="#000BFF" stroke-width="2.33333"/>
<path d="M27.5413 22.8146C27.5413 23.6533 27.2113 24.4146 26.6738 24.9758C26.1718 25.5002 25.503 25.8335 24.7821 25.9185C24.0612 26.0034 23.3331 25.8348 22.723 25.4415C22.1129 25.0481 21.6588 24.4547 21.4385 23.763C21.2183 23.0713 21.2458 22.3245 21.5162 21.6509C21.7866 20.9772 22.283 20.4187 22.9204 20.0712C23.5577 19.7238 24.2961 19.609 25.0089 19.7467C25.7216 19.8843 26.3642 20.2658 26.8263 20.8256C27.2884 21.3854 27.5412 22.0887 27.5413 22.8146V22.8146Z" stroke="#000BFF" stroke-width="2.33333" stroke-linecap="round" stroke-linejoin="round"/>
<path d="M10.0413 22.8146C10.0413 23.6533 9.71126 24.4146 9.17376 24.9758C8.67182 25.5002 8.00297 25.8335 7.28206 25.9185C6.56115 26.0034 5.83314 25.8348 5.22303 25.4415C4.61292 25.0481 4.15877 24.4547 3.93854 23.763C3.71832 23.0713 3.74576 22.3245 4.01616 21.6509C4.28656 20.9772 4.78305 20.4187 5.42038 20.0712C6.05771 19.7238 6.79613 19.609 7.50886 19.7467C8.2216 19.8843 8.86417 20.2658 9.32627 20.8256C9.78837 21.3854 10.0412 22.0887 10.0413 22.8146Z" stroke="#000BFF" stroke-width="2.33333" stroke-linecap="round" stroke-linejoin="round"/>
<path d="M18.7913 5.93956C18.7913 6.77831 18.4613 7.53956 17.9238 8.10081C17.4218 8.6252 16.753 8.95849 16.0321 9.04346C15.3112 9.12843 14.5831 8.95978 13.973 8.56647C13.3629 8.17315 12.9088 7.5797 12.6885 6.88801C12.4683 6.19632 12.4958 5.44954 12.7662 4.77588C13.0366 4.10222 13.533 3.54371 14.1704 3.19623C14.8077 2.84876 15.5461 2.73399 16.2589 2.87165C16.9716 3.00931 17.6142 3.39079 18.0763 3.95061C18.5384 4.51043 18.7912 5.21365 18.7913 5.93956V5.93956Z" stroke="#000BFF" stroke-width="2.33333" stroke-linecap="round" stroke-linejoin="round"/>
<path d="M26.2913 16.2812C26.2913 17.5199 26.0737 18.7077 25.6748 19.8086C21.0188 20.4312 21.8059 23.15 21.3813 25.0893C19.8 26.0684 17.9354 26.6336 15.9388 26.6336C13.6646 26.6336 11.5617 25.9003 9.85361 24.6572C9.42783 20.5027 7.56755 20.6458 6.20292 19.8086C5.80396 18.7077 5.58643 17.5199 5.58643 16.2812C5.58643 11.8553 8.36378 8.07814 12.2707 6.59743C13.4109 6.16532 14.6472 8.41087 15.9388 8.41087C17.051 8.41087 18.1222 6.10416 19.1263 6.42877C23.2841 7.77292 26.2913 11.6759 26.2913 16.2812Z" fill="#000BFF"/>
</svg>
