<svg width="31" height="31" viewBox="0 0 31 31" fill="none" xmlns="http://www.w3.org/2000/svg">
<path d="M18.4318 19.4854C18.3181 19.0188 18.0509 18.604 17.6733 18.3073C17.2956 18.0106 16.8292 17.8494 16.349 17.8494H4.56327L4.40255 17.8558C3.86373 17.8966 3.36018 18.1393 2.99266 18.5354C2.62514 18.9316 2.42076 19.4519 2.42041 19.9922V22.6708L2.42577 22.9365C2.60362 27.2265 7.0822 28.5636 10.4561 28.5636C11.9026 28.5636 13.5504 28.3172 14.9765 27.7001L13.7379 26.4615C12.674 26.8108 11.5886 26.9158 10.9222 26.9458L10.4561 26.9565L10.0908 26.9511C8.51041 26.9008 7.01791 26.529 5.95077 25.9119C4.65648 25.1661 4.02755 24.1054 4.02755 22.6708V19.9922L4.03827 19.884C4.05963 19.7815 4.11025 19.6873 4.18398 19.6129C4.25851 19.5394 4.3526 19.4888 4.45505 19.4672L4.56327 19.4565L16.349 19.4576L16.4454 19.4662C16.694 19.5122 16.8847 19.7319 16.8847 19.9933V20.5547L17.4343 20.0062C17.7161 19.7233 18.0665 19.5497 18.4308 19.4854H18.4318Z" fill="#013FE0"/>
<path d="M24.6815 19.4565H24.6236L19.5086 19.4576C19.42 18.9331 19.2008 18.4393 18.8711 18.0219L18.7275 17.8494H25.9918L26.1525 17.8558C26.6625 17.8943 27.1419 18.1138 27.5041 18.4748C27.8664 18.8357 28.0878 19.3142 28.1283 19.824L28.1347 19.9922V22.1619L26.5275 20.5547V19.9922C26.5274 19.8669 26.4834 19.7456 26.4031 19.6493C26.3229 19.553 26.2115 19.4878 26.0883 19.4651L25.9918 19.4565H24.6815Z" fill="#013FE0"/>
<path d="M19.5365 26.9565H19.5633V26.9833L19.5365 26.9565Z" fill="#7F8C8D" stroke="#7F8C8D" stroke-width="0.5"/>
<path d="M16.349 9.81376C16.349 8.25087 15.7282 6.752 14.623 5.64688C13.5179 4.54175 12.019 3.9209 10.4561 3.9209C8.89327 3.9209 7.3944 4.54175 6.28927 5.64688C5.18415 6.752 4.56329 8.25087 4.56329 9.81376C4.56329 11.3766 5.18415 12.8755 6.28927 13.9806C7.3944 15.0858 8.89327 15.7066 10.4561 15.7066C12.019 15.7066 13.5179 15.0858 14.623 13.9806C15.7282 12.8755 16.349 11.3766 16.349 9.81376ZM6.17044 9.81376C6.17044 7.45018 8.09258 5.52804 10.4561 5.52804C12.8197 5.52804 14.7419 7.45018 14.7419 9.81376C14.7419 12.1773 12.8197 14.0995 10.4561 14.0995C8.09258 14.0995 6.17044 12.1773 6.17044 9.81376Z" fill="#013FE0"/>
<path d="M27.0633 10.8851C27.0633 9.60643 26.5553 8.38008 25.6511 7.47588C24.7469 6.57169 23.5206 6.06372 22.2418 6.06372C20.9631 6.06372 19.7368 6.57169 18.8326 7.47588C17.9284 8.38008 17.4204 9.60643 17.4204 10.8851C17.4204 12.1639 17.9284 13.3902 18.8326 14.2944C19.7368 15.1986 20.9631 15.7066 22.2418 15.7066C23.5206 15.7066 24.7469 15.1986 25.6511 14.2944C26.5553 13.3902 27.0633 12.1639 27.0633 10.8851ZM19.0276 10.8851C19.0276 9.11301 20.4697 7.67086 22.2418 7.67086C24.014 7.67086 25.4561 9.11301 25.4561 10.8851C25.4561 12.6573 24.014 14.0994 22.2418 14.0994C20.4697 14.0994 19.0276 12.6573 19.0276 10.8851Z" fill="#013FE0"/>
<path d="M19.3276 21.8995C19.4065 21.826 19.4698 21.7372 19.5138 21.6387C19.5577 21.5401 19.5813 21.4337 19.5832 21.3258C19.5851 21.2179 19.5653 21.1107 19.5248 21.0107C19.4844 20.9106 19.4243 20.8197 19.348 20.7434C19.2717 20.6671 19.1808 20.607 19.0807 20.5665C18.9806 20.5261 18.8735 20.5063 18.7656 20.5082C18.6577 20.5101 18.5513 20.5337 18.4527 20.5776C18.3541 20.6215 18.2654 20.6849 18.1919 20.7638L14.4419 24.5138C14.2914 24.6645 14.2068 24.8687 14.2068 25.0817C14.2068 25.2946 14.2914 25.4989 14.4419 25.6495L18.1919 29.3995C18.2654 29.4785 18.3541 29.5418 18.4527 29.5857C18.5513 29.6296 18.6577 29.6533 18.7656 29.6552C18.8735 29.6571 18.9806 29.6372 19.0807 29.5968C19.1808 29.5564 19.2717 29.4962 19.348 29.4199C19.4243 29.3436 19.4844 29.2527 19.5248 29.1527C19.5653 29.0526 19.5851 28.9454 19.5832 28.8375C19.5813 28.7296 19.5577 28.6232 19.5138 28.5247C19.4698 28.4261 19.4065 28.3374 19.3276 28.2638L16.949 25.8852H26.4633L24.0847 28.2638C24.0058 28.3374 23.9424 28.4261 23.8985 28.5247C23.8546 28.6232 23.831 28.7296 23.8291 28.8375C23.8272 28.9454 23.847 29.0526 23.8874 29.1527C23.9279 29.2527 23.988 29.3436 24.0643 29.4199C24.1406 29.4962 24.2315 29.5564 24.3316 29.5968C24.4316 29.6372 24.5388 29.6571 24.6467 29.6552C24.7546 29.6533 24.861 29.6296 24.9596 29.5857C25.0581 29.5418 25.1469 29.4785 25.2204 29.3995L28.9704 25.6495C29.1209 25.4989 29.2054 25.2946 29.2054 25.0817C29.2054 24.8687 29.1209 24.6645 28.9704 24.5138L25.2204 20.7638C25.1469 20.6849 25.0581 20.6215 24.9596 20.5776C24.861 20.5337 24.7546 20.5101 24.6467 20.5082C24.5388 20.5063 24.4316 20.5261 24.3316 20.5665C24.2315 20.607 24.1406 20.6671 24.0643 20.7434C23.988 20.8197 23.9279 20.9106 23.8874 21.0107C23.847 21.1107 23.8272 21.2179 23.8291 21.3258C23.831 21.4337 23.8546 21.5401 23.8985 21.6387C23.9424 21.7372 24.0058 21.826 24.0847 21.8995L26.4633 24.2781H16.949L19.3276 21.8995Z" fill="#013FE0"/>
<path d="M11.2113 4.39137C9.85529 3.67984 7.2564 5.47857 6.12644 6.46687C5.82909 7.05985 5.23438 8.60162 5.23438 10.0249C5.23438 11.8039 6.92931 12.2981 7.73218 13.583C8.37447 14.6109 10.3192 14.802 11.2113 14.769C11.2113 14.769 12.817 14.3737 14.5119 12.2981C16.2069 10.2225 14.6011 7.85046 14.5119 6.46687C14.4227 5.08328 12.9062 5.28077 11.2113 4.39137Z" fill="#2029FF"/>
<ellipse cx="22.2729" cy="10.9145" rx="3.48204" ry="3.85791" fill="#2029FF"/>
<path d="M15.9639 17.8494L18.4319 19.1568L13.4959 23.4287C12.8947 23.8355 12.0531 24.8584 13.4959 25.6954C14.9387 26.5323 14.0971 27.0902 13.4959 27.2646H7.23101C4.11755 27.2646 3.5923 23.3706 3.71886 21.4236V19.1568L15.9639 17.8494Z" fill="#2029FF"/>
</svg>
